{"asset":{"version":"2.0","generator":"facingworlds ut99 extractor"},"scene":0,"scenes":[{"nodes":[0]}],"nodes":[{"mesh":0,"name":"TSkM"}],"meshes":[{"name":"TSkM","primitives":[{"attributes":{"POSITION":0,"TEXCOORD_0":1},"indices":2,"material":0,"targets":[{"POSITION":3},{"POSITION":4},{"POSITION":5},{"POSITION":6},{"POSITION":7},{"POSITION":8},{"POSITION":9},{"POSITION":10},{"POSITION":11},{"POSITION":12},{"POSITION":13},{"POSITION":14},{"POSITION":15},{"POSITION":16},{"POSITION":17},{"POSITION":18},{"POSITION":19},{"POSITION":20},{"POSITION":21},{"POSITION":22},{"POSITION":23},{"POSITION":24},{"POSITION":25},{"POSITION":26},{"POSITION":27},{"POSITION":28},{"POSITION":29},{"POSITION":30},{"POSITION":31},{"POSITION":32},{"POSITION":33},{"POSITION":34},{"POSITION":35},{"POSITION":36},{"POSITION":37},{"POSITION":38},{"POSITION":39},{"POSITION":40},{"POSITION":41}]},{"attributes":{"POSITION":42,"TEXCOORD_0":43},"indices":44,"material":1,"targets":[{"POSITION":45},{"POSITION":46},{"POSITION":47},{"POSITION":48},{"POSITION":49},{"POSITION":50},{"POSITION":51},{"POSITION":52},{"POSITION":53},{"POSITION":54},{"POSITION":55},{"POSITION":56},{"POSITION":57},{"POSITION":58},{"POSITION":59},{"POSITION":60},{"POSITION":61},{"POSITION":62},{"POSITION":63},{"POSITION":64},{"POSITION":65},{"POSITION":66},{"POSITION":67},{"POSITION":68},{"POSITION":69},{"POSITION":70},{"POSITION":71},{"POSITION":72},{"POSITION":73},{"POSITION":74},{"POSITION":75},{"POSITION":76},{"POSITION":77},{"POSITION":78},{"POSITION":79},{"POSITION":80},{"POSITION":81},{"POSITION":82},{"POSITION":83}]},{"attributes":{"POSITION":84,"TEXCOORD_0":85},"indices":86,"material":2,"targets":[{"POSITION":87},{"POSITION":88},{"POSITION":89},{"POSITION":90},{"POSITION":91},{"POSITION":92},{"POSITION":93},{"POSITION":94},{"POSITION":95},{"POSITION":96},{"POSITION":97},{"POSITION":98},{"POSITION":99},{"POSITION":100},{"POSITION":101},{"POSITION":102},{"POSITION":103},{"POSITION":104},{"POSITION":105},{"POSITION":106},{"POSITION":107},{"POSITION":108},{"POSITION":109},{"POSITION":110},{"POSITION":111},{"POSITION":112},{"POSITION":113},{"POSITION":114},{"POSITION":115},{"POSITION":116},{"POSITION":117},{"POSITION":118},{"POSITION":119},{"POSITION":120},{"POSITION":121},{"POSITION":122},{"POSITION":123},{"POSITION":124},{"POSITION":125}]}],"weights":[0,0,0,0,0,0,0,0,0,0,0,0,0,0,0,0,0,0,0,0,0,0,0,0,0,0,0,0,0,0,0,0,0,0,0,0,0,0,0]}],"materials":[{"name":"slot0","pbrMetallicRoughness":{"baseColorTexture":{"index":0},"metallicFactor":0,"roughnessFactor":1}},{"name":"slot1","pbrMetallicRoughness":{"baseColorTexture":{"index":1},"metallicFactor":0,"roughnessFactor":1}},{"name":"slot2","pbrMetallicRoughness":{"baseColorTexture":{"index":2},"metallicFactor":0,"roughnessFactor":1}}],"images":[{"uri":"skrilax/s0.png"},{"uri":"skrilax/s1.png"},{"uri":"skrilax/s2.png"}],"samplers":[{"magFilter":9729,"minFilter":9987,"wrapS":10497,"wrapT":10497}],"textures":[{"source":0,"sampler":0},{"source":1,"sampler":0},{"source":2,"sampler":0}],"accessors":[{"bufferView":0,"componentType":5126,"count":228,"type":"VEC3","min":[-0.46562781108439133,0,-0.4835365730491756],"max":[0.5110885145334592,1.83,0.4835365730491756]},{"bufferView":1,"componentType":5126,"count":228,"type":"VEC2"},{"bufferView":2,"componentType":5123,"count":855,"type":"SCALAR"},{"bufferView":3,"componentType":5126,"count":228,"type":"VEC3","min":[0,0,0],"max":[0,0,0]},{"bufferView":4,"componentType":5126,"count":228,"type":"VEC3","min":[-0.13224931912456084,-0.0024796747967479743,-0.01239837366792762],"max":[0.0027551941484283415,0.09422764227642277,0.04132791222642526]},{"bufferView":5,"componentType":5126,"count":228,"type":"VEC3","min":[-0.18735320209312784,-0.0347154471544715,-0.015153567816355962],"max":[0.004132791222642512,0.16117886178861784,0.05234868882013867]},{"bufferView":6,"componentType":5126,"count":228,"type":"VEC3","min":[-0.20939475528055465,-0.022317073170731838,-0.028929538558497683],"max":[0.004132791222642512,0.21325203252032532,0.05372628589435284]},{"bufferView":7,"componentType":5126,"count":228,"type":"VEC3","min":[-0.1680668430541294,-0.04959349593495932,-0.019286359038998446],"max":[0.04821589759749613,0.21077235772357716,0.0619918683396379]},{"bufferView":8,"componentType":5126,"count":228,"type":"VEC3","min":[-0.10883016886291987,-0.05703252032520334,-0.023419150261640986],"max":[0.1005645864176348,0.1934146341463414,0.06750225663649459]},{"bufferView":9,"componentType":5126,"count":228,"type":"VEC3","min":[-0.09643179519499227,-0.03967479674796759,-0.024796747335855185],"max":[0.12673893082770413,0.1710975609756098,0.06474706248806625]},{"bufferView":10,"componentType":5126,"count":228,"type":"VEC3","min":[-0.06612465956228042,-0.037195121951219656,-0.022041553187426788],"max":[0.14878048401513094,0.12646341463414634,0.06061427126542372]},{"bufferView":11,"componentType":5126,"count":228,"type":"VEC3","min":[-0.038572718077996906,-0.03223577235772357,-0.020663956113212645],"max":[0.1625564547572727,0.07686991869918702,0.0564814800427812]},{"bufferView":12,"componentType":5126,"count":228,"type":"VEC3","min":[-0.01515356781635592,-0.029756097560975636,-0.019286359038998446],"max":[0.16668924597991522,0.04959349593495932,0.056481480042781196]},{"bufferView":13,"componentType":5126,"count":228,"type":"VEC3","min":[0,-0.02479674796747977,-0.016531164890570105],"max":[0.1625564547572727,0.04463414634146323,0.053726285894352854]},{"bufferView":14,"componentType":5126,"count":228,"type":"VEC3","min":[0,-0.05703252032520312,-0.015153567816355962],"max":[0.15566846938620182,0.03967479674796759,0.04959349467171033]},{"bufferView":15,"componentType":5126,"count":228,"type":"VEC3","min":[-0.0013775970742141985,-0.06447154471544714,-0.011020776593713422],"max":[0.14327009571827426,0.03967479674796759,0.044083106374853624]},{"bufferView":16,"componentType":5126,"count":228,"type":"VEC3","min":[-0.0013775970742141985,-0.04959349593495932,-0.00826558244528508],"max":[0.12536133375348996,0.034715447154471724,0.035817523929568565]},{"bufferView":17,"componentType":5126,"count":228,"type":"VEC3","min":[-0.0013775970742141985,-0.034715447154471724,-0.008265582445285056],"max":[0.11158536301134822,0.03223577235772357,0.028929538558497697]},{"bufferView":18,"componentType":5126,"count":228,"type":"VEC3","min":[-0.23419150261640986,-0.1041463414634145,-0.3388888802566872],"max":[0.29342817680761935,0.1586991869918699,0.18735320209312786]},{"bufferView":19,"componentType":5126,"count":228,"type":"VEC3","min":[-0.3320008948856163,-0.0967073170731707,-0.33475608903404463],"max":[0.3416440744051155,0.15621951219512195,0.18735320209312786]},{"bufferView":20,"componentType":5126,"count":228,"type":"VEC3","min":[-0.431187884229037,-0.07934959349593496,-0.3333784919598305],"max":[0.5193540969787441,0.1586991869918699,0.18735320209312786]},{"bufferView":21,"componentType":5126,"count":228,"type":"VEC3","min":[-0.5303748735724576,-0.07191056910569094,-0.3333784919598305],"max":[0.8251806474542911,0.1289430894308944,0.18735320209312786]},{"bufferView":22,"componentType":5126,"count":228,"type":"VEC3","min":[-0.6309394599900924,-0.09918699186991864,-0.3320008948856163],"max":[1.0511065676254159,0.12150406504065048,0.1859756050189137]},{"bufferView":23,"componentType":5126,"count":228,"type":"VEC3","min":[-0.76869916741151,-0.1314227642276422,-0.32924570073718795],"max":[0.895438098239214,0.10166666666666667,0.1859756050189137]},{"bufferView":24,"componentType":5126,"count":228,"type":"VEC3","min":[-0.6571138044001618,-0.1438211382113821,-0.32786810366297375],"max":[0.706707299071872,0.1140650406504065,0.1859756050189137]},{"bufferView":25,"componentType":5126,"count":228,"type":"VEC3","min":[-0.5386404560177427,-0.13390243902439014,-0.32786810366297375],"max":[0.5138437086818874,0.151260162601626,0.18735320209312786]},{"bufferView":26,"componentType":5126,"count":228,"type":"VEC3","min":[-0.37332880711204164,-0.1041463414634145,-0.3306232978114021],"max":[0.4146567193384668,0.15621951219512195,0.1859756050189137]},{"bufferView":27,"componentType":5126,"count":228,"type":"VEC3","min":[-0.16255645475727276,-0.07934959349593496,-0.3333784919598305],"max":[0.3168473270692604,0.14134146341463416,0.18597560501891366]},{"bufferView":28,"componentType":5126,"count":228,"type":"VEC3","min":[0.0013775970742141985,-0.06695121951219507,-0.3361336861082588],"max":[0.2920505797334052,0.10662601626016244,0.1845980079446995]},{"bufferView":29,"componentType":5126,"count":228,"type":"VEC3","min":[-0.09918698934342063,-0.07439024390243887,-0.337511283182473],"max":[0.2989385651044761,0.10166666666666667,0.18597560501891366]},{"bufferView":30,"componentType":5126,"count":228,"type":"VEC3","min":[-0.2190379348000539,-0.09422764227642255,-0.3361336861082588],"max":[0.29618337095604774,0.0917479674796748,0.18735320209312786]},{"bufferView":31,"componentType":5126,"count":228,"type":"VEC3","min":[-0.1322493191245609,-0.11158536585365852,-0.337511283182473],"max":[0.29480577388183354,0.1066260162601626,0.18735320209312786]},{"bufferView":32,"componentType":5126,"count":228,"type":"VEC3","min":[-0.34715446270197214,-0.20333333333333337,-0.31133693877240365],"max":[0.5083333203850308,0.6397560975609756,0.18873079916734203]},{"bufferView":33,"componentType":5126,"count":228,"type":"VEC3","min":[-0.3540424480730431,-0.18101626016260175,-0.32649050658875955],"max":[0.5207316940529583,0.39922764227642277,0.1901083962415562]},{"bufferView":34,"componentType":5126,"count":228,"type":"VEC3","min":[-0.8981932923876425,-0.15621951219512198,-0.32649050658875955],"max":[0.6695121780680893,0.4736178861788618,0.19148599331577038]},{"bufferView":35,"componentType":5126,"count":228,"type":"VEC3","min":[-1.2122854253084745,-0.07439024390243887,-0.3320008948856163],"max":[1.2577461287575422,0.5777642276422765,0.18735320209312786]},{"bufferView":36,"componentType":5126,"count":228,"type":"VEC3","min":[-1.1351399891524807,-0.17357723577235773,-0.32924570073718795],"max":[1.3417795502846068,0.766219512195122,0.1901083962415562]},{"bufferView":37,"componentType":5126,"count":228,"type":"VEC3","min":[-0.7810975410794376,-0.20333333333333337,-0.32786810366297375],"max":[0.8568653801612172,0.6199186991869919,0.19148599331577038]},{"bufferView":38,"componentType":5126,"count":228,"type":"VEC3","min":[-0.5579268150567411,-0.19093495934959348,-0.3320008948856163],"max":[0.494557349642889,0.4711382113821138,0.18735320209312786]},{"bufferView":39,"componentType":5126,"count":228,"type":"VEC3","min":[-0.2397018909132665,-0.13886178861788623,-0.33475608903404463],"max":[0.5097109174592449,0.28268292682926827,0.1845980079446995]},{"bufferView":40,"componentType":5126,"count":228,"type":"VEC3","min":[-0.5896115477636671,-0.05951219512195127,-0.3251129095145454],"max":[0.5703251887246686,0.5480081300813008,0.1859756050189137]},{"bufferView":41,"componentType":5126,"count":228,"type":"VEC3","min":[-0.6212962804705932,-0.11406504065040646,-0.30444895340133277],"max":[0.6240514746190214,0.8579674796747968,0.18735320209312786]},{"bufferView":42,"componentType":5126,"count":190,"type":"VEC3","min":[-0.4670054081586055,0.540569105691057,-0.38434958370575495],"max":[0.36919601588939904,1.604349593495935,0.40088074859632505]},{"bufferView":43,"componentType":5126,"count":190,"type":"VEC2"},{"bufferView":44,"componentType":5123,"count":726,"type":"SCALAR"},{"bufferView":45,"componentType":5126,"count":190,"type":"VEC3","min":[0,0,0],"max":[0,0,0]},{"bufferView":46,"componentType":5126,"count":190,"type":"VEC3","min":[-0.12260613960506161,0.0024796747967479327,-0.027551941484283513],"max":[-0.0275519414842835,0.061991869918699205,0.05234868882013867]},{"bufferView":47,"componentType":5126,"count":190,"type":"VEC3","min":[-0.17082203720255776,-0.02727642276422748,-0.05510388296856702],"max":[-0.028929538558497697,0.0967073170731707,0.06887985371070877]},{"bufferView":48,"componentType":5126,"count":190,"type":"VEC3","min":[-0.1859756050189137,-0.03223577235772357,-0.04959349467171032],"max":[-0.008265582445285052,0.12894308943089428,0.07990063030442218]},{"bufferView":49,"componentType":5126,"count":190,"type":"VEC3","min":[-0.1418924986440601,-0.061991869918699205,-0.046838300523281966],"max":[0.057859077116995374,0.11902439024390254,0.09092140689813559]},{"bufferView":50,"componentType":5126,"count":190,"type":"VEC3","min":[-0.12673893082770413,-0.061991869918699205,-0.04408310637485362],"max":[0.10883016886291987,0.11158536585365852,0.09505419812077812]},{"bufferView":51,"componentType":5126,"count":190,"type":"VEC3","min":[-0.1005645864176348,-0.04215447154471552,-0.04270550930063944],"max":[0.13362691619877504,0.10414634146341473,0.08816621274970723]},{"bufferView":52,"componentType":5126,"count":190,"type":"VEC3","min":[-0.07163504785913713,-0.037195121951219656,-0.03995031515221109],"max":[0.15291327523777348,0.09918699186991864,0.07852303323020801]},{"bufferView":53,"componentType":5126,"count":190,"type":"VEC3","min":[-0.045460703449067795,-0.029756097560975636,-0.037195121003782736],"max":[0.16531164890570105,0.09174796747967484,0.06887985371070877]},{"bufferView":54,"componentType":5126,"count":190,"type":"VEC3","min":[-0.02341915026164098,-0.022317073170731838,-0.03443992685535441],"max":[0.1694444401283436,0.08182926829268289,0.05785907711699537]},{"bufferView":55,"componentType":5126,"count":190,"type":"VEC3","min":[-0.013775970742141763,-0.019837398373983905,-0.03306232978114021],"max":[0.16531164890570105,0.07191056910569116,0.05097109174592449]},{"bufferView":56,"componentType":5126,"count":190,"type":"VEC3","min":[-0.006887985371070882,-0.044634146341463454,-0.030307135632711868],"max":[0.15704606646041602,0.05951219512195127,0.052348688820138684]},{"bufferView":57,"componentType":5126,"count":190,"type":"VEC3","min":[-0.0013775970742141708,-0.052073170731707474,-0.026174344410069328],"max":[0.1460252898667026,0.04959349593495932,0.056481480042781196]},{"bufferView":58,"componentType":5126,"count":190,"type":"VEC3","min":[0.005510388296856683,-0.04215447154471552,-0.023419150261640986],"max":[0.12811652790191835,0.0347154471544715,0.04821589759749614]},{"bufferView":59,"componentType":5126,"count":190,"type":"VEC3","min":[0.011020776593713394,-0.03223577235772357,-0.019286359038998446],"max":[0.11985094545663327,0.019837398373983683,0.03995031515221109]},{"bufferView":60,"componentType":5126,"count":190,"type":"VEC3","min":[-0.07990063030442218,-0.07686991869918697,-0.29480577388183354],"max":[0.3760840012604699,0.10910569105691059,0.09643179519499229]},{"bufferView":61,"componentType":5126,"count":190,"type":"VEC3","min":[-0.14464769279248843,-0.07191056910569105,-0.2920505797334052],"max":[0.4821589759749614,0.11654471544715461,0.10056458641763481]},{"bufferView":62,"componentType":5126,"count":190,"type":"VEC3","min":[-0.24107948798748072,-0.07191056910569105,-0.29067298265919106],"max":[0.581345965318382,0.13390243902439036,0.11985094545663326]},{"bufferView":63,"componentType":5126,"count":190,"type":"VEC3","min":[-0.35128725392461474,-0.07191056910569105,-0.2851625943623343],"max":[0.5827235623925963,0.14134146341463416,0.13638211034720338]},{"bufferView":64,"componentType":5126,"count":190,"type":"VEC3","min":[-0.42567749593218024,-0.09670731707317082,-0.2672538323975501],"max":[0.511088514533459,0.12398373983739841,0.14878048401513094]},{"bufferView":65,"componentType":5126,"count":190,"type":"VEC3","min":[-0.3829719866315408,-0.13638211382113818,-0.27138662362019256],"max":[0.5896115477636671,0.08678861788617898,0.15980126060884436]},{"bufferView":66,"componentType":5126,"count":190,"type":"VEC3","min":[-0.258988249952265,-0.14630081300813008,-0.2700090265459784],"max":[0.5593044121309553,0.07191056910569116,0.1639340518314869]},{"bufferView":67,"componentType":5126,"count":190,"type":"VEC3","min":[-0.11985094545663327,-0.10414634146341462,-0.2658762353233359],"max":[0.46287261693596293,0.08182926829268289,0.15980126060884436]},{"bufferView":68,"componentType":5126,"count":190,"type":"VEC3","min":[-0.0027551941484283415,-0.037195121951219545,-0.2644986382491217],"max":[0.37883919540889827,0.10414634146341473,0.15429087231198768]},{"bufferView":69,"componentType":5126,"count":190,"type":"VEC3","min":[0.05372628589435284,-0.03967479674796748,-0.2658762353233359],"max":[0.2851625943623343,0.12646341463414634,0.14327009571827426]},{"bufferView":70,"componentType":5126,"count":190,"type":"VEC3","min":[0.012398373667927565,-0.04711382113821139,-0.2700090265459784],"max":[0.2768970119170493,0.13886178861788623,0.1281165279019183]},{"bufferView":71,"componentType":5126,"count":190,"type":"VEC3","min":[-0.03719512100378272,-0.06695121951219518,-0.2755194148428351],"max":[0.2741418177686209,0.13390243902439036,0.11296296008556238]},{"bufferView":72,"componentType":5126,"count":190,"type":"VEC3","min":[-0.0013775970742141708,-0.0892682926829268,-0.2837849972881201],"max":[0.27276422069440676,0.11654471544715461,0.10469737764027734]},{"bufferView":73,"componentType":5126,"count":190,"type":"VEC3","min":[-0.0013775970742141708,-0.10910569105691054,-0.28929538558497686],"max":[0.2713866236201926,0.09918699186991864,0.1005645864176348]},{"bufferView":74,"componentType":5126,"count":190,"type":"VEC3","min":[0.11985094545663326,-0.23060975609756096,-0.2975609680302619],"max":[0.47389339352967635,0.044634146341463454,0.12260613960506161]},{"bufferView":75,"componentType":5126,"count":190,"type":"VEC3","min":[-0.03857271807799695,-0.19589430894308935,-0.30444895340133277],"max":[0.6185410863221648,0.07191056910569116,0.13224931912456084]},{"bufferView":76,"componentType":5126,"count":190,"type":"VEC3","min":[-0.4325654813032511,-0.16861788617886186,-0.3072041475497611],"max":[0.7810975410794375,0.2926016260162603,0.15015808108934514]},{"bufferView":77,"componentType":5126,"count":190,"type":"VEC3","min":[-0.39261516615104003,-0.08182926829268289,-0.282407400213906],"max":[0.7328816434819413,0.30499999999999994,0.15842366353463017]},{"bufferView":78,"componentType":5126,"count":190,"type":"VEC3","min":[-0.36919601588939904,-0.18597560975609756,-0.26312104117490753],"max":[0.7273712551850846,0.12646341463414634,0.1680668430541294]},{"bufferView":79,"componentType":5126,"count":190,"type":"VEC3","min":[0.06750225663649456,-0.22069105691056912,-0.2603658470264792],"max":[0.7370144347045838,0.03967479674796748,0.180465216722057]},{"bufferView":80,"componentType":5126,"count":190,"type":"VEC3","min":[0.07163504785913712,-0.20829268292682923,-0.2672538323975501],"max":[0.4849141701233898,0.054552845528455296,0.1790876196478428]},{"bufferView":81,"componentType":5126,"count":190,"type":"VEC3","min":[-0.012398373667927565,-0.15373983739837405,-0.2741418177686209],"max":[0.49869014086553154,0.23060975609756107,0.18184281379627115]},{"bufferView":82,"componentType":5126,"count":190,"type":"VEC3","min":[-0.05923667419120954,-0.05951219512195127,-0.2865401914365485],"max":[0.541395650166171,0.302520325203252,0.15842366353463017]},{"bufferView":83,"componentType":5126,"count":190,"type":"VEC3","min":[0.023419150261640986,-0.16613821138211382,-0.28791778851076266],"max":[0.5551716209083127,0.1785365853658536,0.12398373667927579]},{"bufferView":84,"componentType":5126,"count":230,"type":"VEC3","min":[-0.5110885145334592,0.0694308943089431,-0.4614950198617488],"max":[0.36919601588939904,1.6266666666666667,0.40088074859632505]},{"bufferView":85,"componentType":5126,"count":230,"type":"VEC2"},{"bufferView":86,"componentType":5123,"count":933,"type":"SCALAR"},{"bufferView":87,"componentType":5126,"count":230,"type":"VEC3","min":[0,0,0],"max":[0,0,0]},{"bufferView":88,"componentType":5126,"count":230,"type":"VEC3","min":[-0.0895438098239214,-0.04959349593495932,-0.019286359038998474],"max":[0.022041553187426788,0.037195121951219434,0.05923667419120954]},{"bufferView":89,"componentType":5126,"count":230,"type":"VEC3","min":[-0.15291327523777348,-0.09422764227642277,-0.035817523929568565],"max":[0.11434055715977653,0.03967479674796737,0.18322041087048535]},{"bufferView":90,"componentType":5126,"count":230,"type":"VEC3","min":[-0.15291327523777348,-0.11902439024390243,-0.04270550930063944],"max":[0.15291327523777348,0.03967479674796737,0.24796747335855157]},{"bufferView":91,"componentType":5126,"count":230,"type":"VEC3","min":[-0.15980126060884436,-0.12150406504065048,-0.035817523929568565],"max":[0.12122854253084742,0.0347154471544715,0.17771002257362864]},{"bufferView":92,"componentType":5126,"count":230,"type":"VEC3","min":[-0.15566846938620185,-0.0967073170731707,-0.03443992685535439],"max":[0.11020776593713404,0.06447154471544714,0.08541101860127887]},{"bufferView":93,"componentType":5126,"count":230,"type":"VEC3","min":[-0.1294941249761325,-0.07934959349593496,-0.03306232978114021],"max":[0.13362691619877504,0.08182926829268289,0.07852303323020798]},{"bufferView":94,"componentType":5126,"count":230,"type":"VEC3","min":[-0.10056458641763481,-0.07439024390243909,-0.03306232978114021],"max":[0.15291327523777348,0.07934959349593496,0.0716350478591371]},{"bufferView":95,"componentType":5126,"count":230,"type":"VEC3","min":[-0.0730126449333513,-0.06695121951219507,-0.03443992685535441],"max":[0.16531164890570105,0.07191056910569116,0.06336946541385205]},{"bufferView":96,"componentType":5126,"count":230,"type":"VEC3","min":[-0.049593494671710314,-0.05951219512195127,-0.03443992685535441],"max":[0.1694444401283436,0.06447154471544714,0.055103882968567]},{"bufferView":97,"componentType":5126,"count":230,"type":"VEC3","min":[-0.030307135632711858,-0.05207317073170725,-0.03306232978114021],"max":[0.16531164890570105,0.05455284552845541,0.04683830052328197]},{"bufferView":98,"componentType":5126,"count":230,"type":"VEC3","min":[-0.017908761964784303,-0.044634146341463454,-0.030307135632711868],"max":[0.15842366353463017,0.044634146341463454,0.04821589759749614]},{"bufferView":99,"componentType":5126,"count":230,"type":"VEC3","min":[-0.016531164890570105,-0.037195121951219434,-0.026174344410069328],"max":[0.1460252898667026,0.054552845528455296,0.049593494671710314]},{"bufferView":100,"componentType":5126,"count":230,"type":"VEC3","min":[-0.006887985371070882,-0.029756097560975636,-0.023419150261640986],"max":[0.12811652790191833,0.061991869918699205,0.04270550930063943]},{"bufferView":101,"componentType":5126,"count":230,"type":"VEC3","min":[-0.0027551941484283415,-0.019837398373983683,-0.020663956113212645],"max":[0.11571815423399073,0.04959349593495932,0.03443992685535441]},{"bufferView":102,"componentType":5126,"count":230,"type":"VEC3","min":[-0.2479674733585516,-0.07686991869918697,-0.29480577388183354],"max":[0.407768733967396,0.1859756097560976,0.21766033772583976]},{"bufferView":103,"componentType":5126,"count":230,"type":"VEC3","min":[-0.34577686562775806,-0.07191056910569105,-0.2920505797334052],"max":[0.5028229320881741,0.17357723577235776,0.21766033772583976]},{"bufferView":104,"componentType":5126,"count":230,"type":"VEC3","min":[-0.4463414520453929,-0.07191056910569105,-0.29067298265919106],"max":[0.588233950689453,0.15621951219512195,0.21766033772583976]},{"bufferView":105,"componentType":5126,"count":230,"type":"VEC3","min":[-0.5455284413888135,-0.06447154471544714,-0.2851625943623343],"max":[0.7439024200756548,0.14134146341463416,0.27965220606547764]},{"bufferView":106,"componentType":5126,"count":230,"type":"VEC3","min":[-0.6419602365838057,-0.12150406504065037,-0.2672538323975501],"max":[0.9326332192429968,0.11654471544715461,0.39537036029946837]},{"bufferView":107,"componentType":5126,"count":230,"type":"VEC3","min":[-0.7191056727397996,-0.13638211382113818,-0.27138662362019256],"max":[0.8251806474542911,0.14134146341463416,0.46011742278753465]},{"bufferView":108,"componentType":5126,"count":230,"type":"VEC3","min":[-0.6102755038768797,-0.14630081300813008,-0.2700090265459784],"max":[0.6612465956228042,0.1636585365853659,0.4670054081586055]},{"bufferView":109,"componentType":5126,"count":230,"type":"VEC3","min":[-0.46425021401017713,-0.10414634146341462,-0.2658762353233359],"max":[0.4780261847523189,0.18597560975609762,0.4435862578969645]},{"bufferView":110,"componentType":5126,"count":230,"type":"VEC3","min":[-0.28929538558497686,-0.037195121951219545,-0.2644986382491217],"max":[0.38434958370575495,0.1710975609756098,0.4036359427447534]},{"bufferView":111,"componentType":5126,"count":230,"type":"VEC3","min":[-0.08816621274970722,-0.03967479674796748,-0.2658762353233359],"max":[0.28929538558497686,0.13390243902439025,0.3540424480730431]},{"bufferView":112,"componentType":5126,"count":230,"type":"VEC3","min":[-0.052348688820138656,-0.03967479674796748,-0.2700090265459784],"max":[0.2920505797334052,0.13886178861788623,0.30582655047554697]},{"bufferView":113,"componentType":5126,"count":230,"type":"VEC3","min":[-0.15291327523777343,-0.05207317073170731,-0.2755194148428351],"max":[0.29480577388183354,0.13390243902439036,0.27138662362019256]},{"bufferView":114,"componentType":5126,"count":230,"type":"VEC3","min":[-0.20663956113212634,-0.08182926829268289,-0.2837849972881201],"max":[0.28929538558497686,0.12150406504065045,0.23694669676483818]},{"bufferView":115,"componentType":5126,"count":230,"type":"VEC3","min":[-0.11434055715977653,-0.10910569105691054,-0.28929538558497686],"max":[0.2865401914365485,0.1463008130081301,0.21628274065162556]},{"bufferView":116,"componentType":5126,"count":230,"type":"VEC3","min":[0.016531164890570105,-0.2529268292682927,-0.2975609680302619],"max":[0.5675699945762402,0.525691056910569,0.22179312894848227]},{"bufferView":117,"componentType":5126,"count":230,"type":"VEC3","min":[-0.3540424480730431,-0.233089430894309,-0.30444895340133277],"max":[0.698441716626587,0.3967479674796749,0.22179312894848227]},{"bufferView":118,"componentType":5126,"count":230,"type":"VEC3","min":[-0.7948735118215793,-0.20333333333333337,-0.3072041475497611],"max":[0.7962511088957935,0.4215447154471545,0.27276422069440676]},{"bufferView":119,"componentType":5126,"count":230,"type":"VEC3","min":[-0.8265582445285053,-0.12646341463414634,-0.282407400213906],"max":[1.1199864213361246,0.48353658536585364,0.3884823749283975]},{"bufferView":120,"componentType":5126,"count":230,"type":"VEC3","min":[-0.8100270796379352,-0.18597560975609756,-0.26312104117490753],"max":[1.2067750370116177,0.6719918699186992,0.44909664619382117]},{"bufferView":121,"componentType":5126,"count":230,"type":"VEC3","min":[-0.39261516615104003,-0.2603658536585367,-0.2603658470264792],"max":[0.8127822737863635,0.5281707317073171,0.4559846315648921]},{"bufferView":122,"componentType":5126,"count":230,"type":"VEC3","min":[-0.2465898762843374,-0.2554065040650406,-0.2672538323975501],"max":[0.4876693642718181,0.41410569105691064,0.37883919540889827]},{"bufferView":123,"componentType":5126,"count":230,"type":"VEC3","min":[-0.22730351724533893,-0.20829268292682923,-0.2741418177686209],"max":[0.5042005291623882,0.307479674796748,0.3016937592529044]},{"bufferView":124,"componentType":5126,"count":230,"type":"VEC3","min":[-0.39261516615104003,-0.1314227642276422,-0.2865401914365485],"max":[0.5386404560177426,0.49097560975609766,0.2768970119170493]},{"bufferView":125,"componentType":5126,"count":230,"type":"VEC3","min":[-0.24796747335855163,-0.17605691056910566,-0.28791778851076266],"max":[0.619918683396379,0.7364634146341463,0.25485545872962245]},{"bufferView":126,"componentType":5126,"count":16,"type":"SCALAR","min":[0],"max":[1]},{"bufferView":127,"componentType":5126,"count":624,"type":"SCALAR"},{"bufferView":128,"componentType":5126,"count":15,"type":"SCALAR","min":[0],"max":[0.7777777777777777]},{"bufferView":129,"componentType":5126,"count":585,"type":"SCALAR"},{"bufferView":130,"componentType":5126,"count":11,"type":"SCALAR","min":[0],"max":[0.5882352941176471]},{"bufferView":131,"componentType":5126,"count":429,"type":"SCALAR"}],"bufferViews":[{"buffer":0,"byteOffset":0,"byteLength":2736,"target":34962},{"buffer":0,"byteOffset":2736,"byteLength":1824,"target":34962},{"buffer":0,"byteOffset":4560,"byteLength":1710,"target":34963},{"buffer":0,"byteOffset":6272,"byteLength":2736,"target":34962},{"buffer":0,"byteOffset":9008,"byteLength":2736,"target":34962},{"buffer":0,"byteOffset":11744,"byteLength":2736,"target":34962},{"buffer":0,"byteOffset":14480,"byteLength":2736,"target":34962},{"buffer":0,"byteOffset":17216,"byteLength":2736,"target":34962},{"buffer":0,"byteOffset":19952,"byteLength":2736,"target":34962},{"buffer":0,"byteOffset":22688,"byteLength":2736,"target":34962},{"buffer":0,"byteOffset":25424,"byteLength":2736,"target":34962},{"buffer":0,"byteOffset":28160,"byteLength":2736,"target":34962},{"buffer":0,"byteOffset":30896,"byteLength":2736,"target":34962},{"buffer":0,"byteOffset":33632,"byteLength":2736,"target":34962},{"buffer":0,"byteOffset":36368,"byteLength":2736,"target":34962},{"buffer":0,"byteOffset":39104,"byteLength":2736,"target":34962},{"buffer":0,"byteOffset":41840,"byteLength":2736,"target":34962},{"buffer":0,"byteOffset":44576,"byteLength":2736,"target":34962},{"buffer":0,"byteOffset":47312,"byteLength":2736,"target":34962},{"buffer":0,"byteOffset":50048,"byteLength":2736,"target":34962},{"buffer":0,"byteOffset":52784,"byteLength":2736,"target":34962},{"buffer":0,"byteOffset":55520,"byteLength":2736,"target":34962},{"buffer":0,"byteOffset":58256,"byteLength":2736,"target":34962},{"buffer":0,"byteOffset":60992,"byteLength":2736,"target":34962},{"buffer":0,"byteOffset":63728,"byteLength":2736,"target":34962},{"buffer":0,"byteOffset":66464,"byteLength":2736,"target":34962},{"buffer":0,"byteOffset":69200,"byteLength":2736,"target":34962},{"buffer":0,"byteOffset":71936,"byteLength":2736,"target":34962},{"buffer":0,"byteOffset":74672,"byteLength":2736,"target":34962},{"buffer":0,"byteOffset":77408,"byteLength":2736,"target":34962},{"buffer":0,"byteOffset":80144,"byteLength":2736,"target":34962},{"buffer":0,"byteOffset":82880,"byteLength":2736,"target":34962},{"buffer":0,"byteOffset":85616,"byteLength":2736,"target":34962},{"buffer":0,"byteOffset":88352,"byteLength":2736,"target":34962},{"buffer":0,"byteOffset":91088,"byteLength":2736,"target":34962},{"buffer":0,"byteOffset":93824,"byteLength":2736,"target":34962},{"buffer":0,"byteOffset":96560,"byteLength":2736,"target":34962},{"buffer":0,"byteOffset":99296,"byteLength":2736,"target":34962},{"buffer":0,"byteOffset":102032,"byteLength":2736,"target":34962},{"buffer":0,"byteOffset":104768,"byteLength":2736,"target":34962},{"buffer":0,"byteOffset":107504,"byteLength":2736,"target":34962},{"buffer":0,"byteOffset":110240,"byteLength":2736,"target":34962},{"buffer":0,"byteOffset":112976,"byteLength":2280,"target":34962},{"buffer":0,"byteOffset":115256,"byteLength":1520,"target":34962},{"buffer":0,"byteOffset":116776,"byteLength":1452,"target":34963},{"buffer":0,"byteOffset":118228,"byteLength":2280,"target":34962},{"buffer":0,"byteOffset":120508,"byteLength":2280,"target":34962},{"buffer":0,"byteOffset":122788,"byteLength":2280,"target":34962},{"buffer":0,"byteOffset":125068,"byteLength":2280,"target":34962},{"buffer":0,"byteOffset":127348,"byteLength":2280,"target":34962},{"buffer":0,"byteOffset":129628,"byteLength":2280,"target":34962},{"buffer":0,"byteOffset":131908,"byteLength":2280,"target":34962},{"buffer":0,"byteOffset":134188,"byteLength":2280,"target":34962},{"buffer":0,"byteOffset":136468,"byteLength":2280,"target":34962},{"buffer":0,"byteOffset":138748,"byteLength":2280,"target":34962},{"buffer":0,"byteOffset":141028,"byteLength":2280,"target":34962},{"buffer":0,"byteOffset":143308,"byteLength":2280,"target":34962},{"buffer":0,"byteOffset":145588,"byteLength":2280,"target":34962},{"buffer":0,"byteOffset":147868,"byteLength":2280,"target":34962},{"buffer":0,"byteOffset":150148,"byteLength":2280,"target":34962},{"buffer":0,"byteOffset":152428,"byteLength":2280,"target":34962},{"buffer":0,"byteOffset":154708,"byteLength":2280,"target":34962},{"buffer":0,"byteOffset":156988,"byteLength":2280,"target":34962},{"buffer":0,"byteOffset":159268,"byteLength":2280,"target":34962},{"buffer":0,"byteOffset":161548,"byteLength":2280,"target":34962},{"buffer":0,"byteOffset":163828,"byteLength":2280,"target":34962},{"buffer":0,"byteOffset":166108,"byteLength":2280,"target":34962},{"buffer":0,"byteOffset":168388,"byteLength":2280,"target":34962},{"buffer":0,"byteOffset":170668,"byteLength":2280,"target":34962},{"buffer":0,"byteOffset":172948,"byteLength":2280,"target":34962},{"buffer":0,"byteOffset":175228,"byteLength":2280,"target":34962},{"buffer":0,"byteOffset":177508,"byteLength":2280,"target":34962},{"buffer":0,"byteOffset":179788,"byteLength":2280,"target":34962},{"buffer":0,"byteOffset":182068,"byteLength":2280,"target":34962},{"buffer":0,"byteOffset":184348,"byteLength":2280,"target":34962},{"buffer":0,"byteOffset":186628,"byteLength":2280,"target":34962},{"buffer":0,"byteOffset":188908,"byteLength":2280,"target":34962},{"buffer":0,"byteOffset":191188,"byteLength":2280,"target":34962},{"buffer":0,"byteOffset":193468,"byteLength":2280,"target":34962},{"buffer":0,"byteOffset":195748,"byteLength":2280,"target":34962},{"buffer":0,"byteOffset":198028,"byteLength":2280,"target":34962},{"buffer":0,"byteOffset":200308,"byteLength":2280,"target":34962},{"buffer":0,"byteOffset":202588,"byteLength":2280,"target":34962},{"buffer":0,"byteOffset":204868,"byteLength":2280,"target":34962},{"buffer":0,"byteOffset":207148,"byteLength":2760,"target":34962},{"buffer":0,"byteOffset":209908,"byteLength":1840,"target":34962},{"buffer":0,"byteOffset":211748,"byteLength":1866,"target":34963},{"buffer":0,"byteOffset":213616,"byteLength":2760,"target":34962},{"buffer":0,"byteOffset":216376,"byteLength":2760,"target":34962},{"buffer":0,"byteOffset":219136,"byteLength":2760,"target":34962},{"buffer":0,"byteOffset":221896,"byteLength":2760,"target":34962},{"buffer":0,"byteOffset":224656,"byteLength":2760,"target":34962},{"buffer":0,"byteOffset":227416,"byteLength":2760,"target":34962},{"buffer":0,"byteOffset":230176,"byteLength":2760,"target":34962},{"buffer":0,"byteOffset":232936,"byteLength":2760,"target":34962},{"buffer":0,"byteOffset":235696,"byteLength":2760,"target":34962},{"buffer":0,"byteOffset":238456,"byteLength":2760,"target":34962},{"buffer":0,"byteOffset":241216,"byteLength":2760,"target":34962},{"buffer":0,"byteOffset":243976,"byteLength":2760,"target":34962},{"buffer":0,"byteOffset":246736,"byteLength":2760,"target":34962},{"buffer":0,"byteOffset":249496,"byteLength":2760,"target":34962},{"buffer":0,"byteOffset":252256,"byteLength":2760,"target":34962},{"buffer":0,"byteOffset":255016,"byteLength":2760,"target":34962},{"buffer":0,"byteOffset":257776,"byteLength":2760,"target":34962},{"buffer":0,"byteOffset":260536,"byteLength":2760,"target":34962},{"buffer":0,"byteOffset":263296,"byteLength":2760,"target":34962},{"buffer":0,"byteOffset":266056,"byteLength":2760,"target":34962},{"buffer":0,"byteOffset":268816,"byteLength":2760,"target":34962},{"buffer":0,"byteOffset":271576,"byteLength":2760,"target":34962},{"buffer":0,"byteOffset":274336,"byteLength":2760,"target":34962},{"buffer":0,"byteOffset":277096,"byteLength":2760,"target":34962},{"buffer":0,"byteOffset":279856,"byteLength":2760,"target":34962},{"buffer":0,"byteOffset":282616,"byteLength":2760,"target":34962},{"buffer":0,"byteOffset":285376,"byteLength":2760,"target":34962},{"buffer":0,"byteOffset":288136,"byteLength":2760,"target":34962},{"buffer":0,"byteOffset":290896,"byteLength":2760,"target":34962},{"buffer":0,"byteOffset":293656,"byteLength":2760,"target":34962},{"buffer":0,"byteOffset":296416,"byteLength":2760,"target":34962},{"buffer":0,"byteOffset":299176,"byteLength":2760,"target":34962},{"buffer":0,"byteOffset":301936,"byteLength":2760,"target":34962},{"buffer":0,"byteOffset":304696,"byteLength":2760,"target":34962},{"buffer":0,"byteOffset":307456,"byteLength":2760,"target":34962},{"buffer":0,"byteOffset":310216,"byteLength":2760,"target":34962},{"buffer":0,"byteOffset":312976,"byteLength":2760,"target":34962},{"buffer":0,"byteOffset":315736,"byteLength":2760,"target":34962},{"buffer":0,"byteOffset":318496,"byteLength":2760,"target":34962},{"buffer":0,"byteOffset":321256,"byteLength":64},{"buffer":0,"byteOffset":321320,"byteLength":2496},{"buffer":0,"byteOffset":323816,"byteLength":60},{"buffer":0,"byteOffset":323876,"byteLength":2340},{"buffer":0,"byteOffset":326216,"byteLength":44},{"buffer":0,"byteOffset":326260,"byteLength":1716}],"buffers":[{"uri":"skaarj.bin","byteLength":327976}],"animations":[{"name":"Idle","samplers":[{"input":126,"output":127,"interpolation":"STEP"}],"channels":[{"sampler":0,"target":{"node":0,"path":"weights"}}]},{"name":"Walk","samplers":[{"input":128,"output":129,"interpolation":"STEP"}],"channels":[{"sampler":0,"target":{"node":0,"path":"weights"}}]},{"name":"Run","samplers":[{"input":130,"output":131,"interpolation":"STEP"}],"channels":[{"sampler":0,"target":{"node":0,"path":"weights"}}]}]}