{"asset":{"version":"2.0","generator":"facingworlds ut99 extractor"},"scene":0,"scenes":[{"nodes":[0]}],"nodes":[{"mesh":0,"name":"UT_Eightball"}],"meshes":[{"name":"UT_Eightball","primitives":[{"attributes":{"POSITION":0,"TEXCOORD_0":1},"indices":2,"material":0}]}],"materials":[{"name":"slot0","pbrMetallicRoughness":{"baseColorTexture":{"index":0},"metallicFactor":0,"roughnessFactor":1}}],"images":[{"uri":"s0.png"}],"samplers":[{"magFilter":9729,"minFilter":9987,"wrapS":10497,"wrapT":10497}],"textures":[{"source":0,"sampler":0}],"accessors":[{"bufferView":0,"componentType":5126,"count":127,"type":"VEC3","min":[-0.18310387984981227,0,-0.12941176470588237],"max":[0.18310387984981227,1.1,0.12941176470588237]},{"bufferView":1,"componentType":5126,"count":127,"type":"VEC2"},{"bufferView":2,"componentType":5123,"count":348,"type":"SCALAR"}],"bufferViews":[{"buffer":0,"byteOffset":0,"byteLength":1524,"target":34962},{"buffer":0,"byteOffset":1524,"byteLength":1016,"target":34962},{"buffer":0,"byteOffset":2540,"byteLength":696,"target":34963}],"buffers":[{"uri":"UT_Eightball.bin","byteLength":3236}]}