{
 "asset": {
  "version": "2.0",
  "generator": "build-ut-viewmodels.mjs"
 },
 "extensionsUsed": [
  "KHR_materials_unlit"
 ],
 "extras": {
  "utMesh": "ASMD2M",
  "baseSequence": "Still",
  "baseFrame": 15,
  "viewFrame": "barrel -Z, up +Y, screen right +X; RotOrigin baked in",
  "clips": [
   {
    "clip": "Fire1",
    "startFrame": 30,
    "numFrames": 10,
    "fps": 21,
    "seconds": 0.4762,
    "loop": true
   },
   {
    "clip": "Still",
    "startFrame": 15,
    "numFrames": 1,
    "fps": 30,
    "seconds": 0.0333,
    "loop": true
   },
   {
    "clip": "Select",
    "startFrame": 0,
    "numFrames": 15,
    "fps": 30,
    "seconds": 0.5,
    "loop": false
   },
   {
    "clip": "Down",
    "startFrame": 17,
    "numFrames": 7,
    "fps": 27,
    "seconds": 0.2593,
    "loop": false
   }
  ]
 },
 "scene": 0,
 "scenes": [
  {
   "nodes": [
    0
   ]
  }
 ],
 "nodes": [
  {
   "mesh": 0,
   "name": "shock"
  }
 ],
 "meshes": [
  {
   "name": "shock",
   "primitives": [
    {
     "attributes": {
      "POSITION": 0,
      "TEXCOORD_0": 1
     },
     "indices": 34,
     "material": 0,
     "targets": [
      {
       "POSITION": 2
      },
      {
       "POSITION": 3
      },
      {
       "POSITION": 4
      },
      {
       "POSITION": 5
      },
      {
       "POSITION": 6
      },
      {
       "POSITION": 7
      },
      {
       "POSITION": 8
      },
      {
       "POSITION": 9
      },
      {
       "POSITION": 10
      },
      {
       "POSITION": 11
      },
      {
       "POSITION": 12
      },
      {
       "POSITION": 13
      },
      {
       "POSITION": 14
      },
      {
       "POSITION": 15
      },
      {
       "POSITION": 16
      },
      {
       "POSITION": 17
      },
      {
       "POSITION": 18
      },
      {
       "POSITION": 19
      },
      {
       "POSITION": 20
      },
      {
       "POSITION": 21
      },
      {
       "POSITION": 22
      },
      {
       "POSITION": 23
      },
      {
       "POSITION": 24
      },
      {
       "POSITION": 25
      },
      {
       "POSITION": 26
      },
      {
       "POSITION": 27
      },
      {
       "POSITION": 28
      },
      {
       "POSITION": 29
      },
      {
       "POSITION": 30
      },
      {
       "POSITION": 31
      },
      {
       "POSITION": 32
      },
      {
       "POSITION": 33
      }
     ]
    },
    {
     "attributes": {
      "POSITION": 0,
      "TEXCOORD_0": 1
     },
     "indices": 35,
     "material": 1,
     "targets": [
      {
       "POSITION": 2
      },
      {
       "POSITION": 3
      },
      {
       "POSITION": 4
      },
      {
       "POSITION": 5
      },
      {
       "POSITION": 6
      },
      {
       "POSITION": 7
      },
      {
       "POSITION": 8
      },
      {
       "POSITION": 9
      },
      {
       "POSITION": 10
      },
      {
       "POSITION": 11
      },
      {
       "POSITION": 12
      },
      {
       "POSITION": 13
      },
      {
       "POSITION": 14
      },
      {
       "POSITION": 15
      },
      {
       "POSITION": 16
      },
      {
       "POSITION": 17
      },
      {
       "POSITION": 18
      },
      {
       "POSITION": 19
      },
      {
       "POSITION": 20
      },
      {
       "POSITION": 21
      },
      {
       "POSITION": 22
      },
      {
       "POSITION": 23
      },
      {
       "POSITION": 24
      },
      {
       "POSITION": 25
      },
      {
       "POSITION": 26
      },
      {
       "POSITION": 27
      },
      {
       "POSITION": 28
      },
      {
       "POSITION": 29
      },
      {
       "POSITION": 30
      },
      {
       "POSITION": 31
      },
      {
       "POSITION": 32
      },
      {
       "POSITION": 33
      }
     ]
    },
    {
     "attributes": {
      "POSITION": 0,
      "TEXCOORD_0": 1
     },
     "indices": 36,
     "material": 2,
     "targets": [
      {
       "POSITION": 2
      },
      {
       "POSITION": 3
      },
      {
       "POSITION": 4
      },
      {
       "POSITION": 5
      },
      {
       "POSITION": 6
      },
      {
       "POSITION": 7
      },
      {
       "POSITION": 8
      },
      {
       "POSITION": 9
      },
      {
       "POSITION": 10
      },
      {
       "POSITION": 11
      },
      {
       "POSITION": 12
      },
      {
       "POSITION": 13
      },
      {
       "POSITION": 14
      },
      {
       "POSITION": 15
      },
      {
       "POSITION": 16
      },
      {
       "POSITION": 17
      },
      {
       "POSITION": 18
      },
      {
       "POSITION": 19
      },
      {
       "POSITION": 20
      },
      {
       "POSITION": 21
      },
      {
       "POSITION": 22
      },
      {
       "POSITION": 23
      },
      {
       "POSITION": 24
      },
      {
       "POSITION": 25
      },
      {
       "POSITION": 26
      },
      {
       "POSITION": 27
      },
      {
       "POSITION": 28
      },
      {
       "POSITION": 29
      },
      {
       "POSITION": 30
      },
      {
       "POSITION": 31
      },
      {
       "POSITION": 32
      },
      {
       "POSITION": 33
      }
     ]
    },
    {
     "attributes": {
      "POSITION": 0,
      "TEXCOORD_0": 1
     },
     "indices": 37,
     "material": 3,
     "targets": [
      {
       "POSITION": 2
      },
      {
       "POSITION": 3
      },
      {
       "POSITION": 4
      },
      {
       "POSITION": 5
      },
      {
       "POSITION": 6
      },
      {
       "POSITION": 7
      },
      {
       "POSITION": 8
      },
      {
       "POSITION": 9
      },
      {
       "POSITION": 10
      },
      {
       "POSITION": 11
      },
      {
       "POSITION": 12
      },
      {
       "POSITION": 13
      },
      {
       "POSITION": 14
      },
      {
       "POSITION": 15
      },
      {
       "POSITION": 16
      },
      {
       "POSITION": 17
      },
      {
       "POSITION": 18
      },
      {
       "POSITION": 19
      },
      {
       "POSITION": 20
      },
      {
       "POSITION": 21
      },
      {
       "POSITION": 22
      },
      {
       "POSITION": 23
      },
      {
       "POSITION": 24
      },
      {
       "POSITION": 25
      },
      {
       "POSITION": 26
      },
      {
       "POSITION": 27
      },
      {
       "POSITION": 28
      },
      {
       "POSITION": 29
      },
      {
       "POSITION": 30
      },
      {
       "POSITION": 31
      },
      {
       "POSITION": 32
      },
      {
       "POSITION": 33
      }
     ]
    },
    {
     "attributes": {
      "POSITION": 0,
      "TEXCOORD_0": 1
     },
     "indices": 38,
     "material": 4,
     "targets": [
      {
       "POSITION": 2
      },
      {
       "POSITION": 3
      },
      {
       "POSITION": 4
      },
      {
       "POSITION": 5
      },
      {
       "POSITION": 6
      },
      {
       "POSITION": 7
      },
      {
       "POSITION": 8
      },
      {
       "POSITION": 9
      },
      {
       "POSITION": 10
      },
      {
       "POSITION": 11
      },
      {
       "POSITION": 12
      },
      {
       "POSITION": 13
      },
      {
       "POSITION": 14
      },
      {
       "POSITION": 15
      },
      {
       "POSITION": 16
      },
      {
       "POSITION": 17
      },
      {
       "POSITION": 18
      },
      {
       "POSITION": 19
      },
      {
       "POSITION": 20
      },
      {
       "POSITION": 21
      },
      {
       "POSITION": 22
      },
      {
       "POSITION": 23
      },
      {
       "POSITION": 24
      },
      {
       "POSITION": 25
      },
      {
       "POSITION": 26
      },
      {
       "POSITION": 27
      },
      {
       "POSITION": 28
      },
      {
       "POSITION": 29
      },
      {
       "POSITION": 30
      },
      {
       "POSITION": 31
      },
      {
       "POSITION": 32
      },
      {
       "POSITION": 33
      }
     ]
    }
   ],
   "weights": [
    0,
    0,
    0,
    0,
    0,
    0,
    0,
    0,
    0,
    0,
    0,
    0,
    0,
    0,
    0,
    0,
    0,
    0,
    0,
    0,
    0,
    0,
    0,
    0,
    0,
    0,
    0,
    0,
    0,
    0,
    0,
    0
   ]
  }
 ],
 "materials": [
  {
   "name": "slot0",
   "doubleSided": false,
   "pbrMetallicRoughness": {
    "baseColorTexture": {
     "index": 0
    },
    "metallicFactor": 0,
    "roughnessFactor": 1
   }
  },
  {
   "name": "slot1",
   "doubleSided": false,
   "pbrMetallicRoughness": {
    "baseColorTexture": {
     "index": 1
    },
    "metallicFactor": 0,
    "roughnessFactor": 1
   }
  },
  {
   "name": "slot2",
   "doubleSided": false,
   "pbrMetallicRoughness": {
    "baseColorTexture": {
     "index": 2
    },
    "metallicFactor": 0,
    "roughnessFactor": 1
   }
  },
  {
   "name": "slot3",
   "doubleSided": false,
   "pbrMetallicRoughness": {
    "baseColorTexture": {
     "index": 2
    },
    "metallicFactor": 0,
    "roughnessFactor": 1
   },
   "extensions": {
    "KHR_materials_unlit": {}
   }
  },
  {
   "name": "slot4",
   "doubleSided": false,
   "pbrMetallicRoughness": {
    "baseColorTexture": {
     "index": 3
    },
    "metallicFactor": 0,
    "roughnessFactor": 1
   }
  }
 ],
 "textures": [
  {
   "source": 0,
   "sampler": 0
  },
  {
   "source": 1,
   "sampler": 0
  },
  {
   "source": 2,
   "sampler": 0
  },
  {
   "source": 3,
   "sampler": 0
  }
 ],
 "images": [
  {
   "uri": "s0.png"
  },
  {
   "uri": "s1.png"
  },
  {
   "uri": "s2.png"
  },
  {
   "uri": "s3.png"
  }
 ],
 "samplers": [
  {
   "magFilter": 9729,
   "minFilter": 9987,
   "wrapS": 10497,
   "wrapT": 10497
  }
 ],
 "accessors": [
  {
   "bufferView": 0,
   "componentType": 5126,
   "count": 320,
   "type": "VEC3",
   "min": [
    -0.009964001423024648,
    -0.016544002362757906,
    -0.03736500388638946
   ],
   "max": [
    0.01466400209426269,
    0.021056003007146426,
    0.10081501048591875
   ]
  },
  {
   "bufferView": 1,
   "componentType": 5126,
   "count": 320,
   "type": "VEC2"
  },
  {
   "bufferView": 2,
   "componentType": 5126,
   "count": 320,
   "type": "VEC3",
   "min": [
    -0.10302401334047318,
    -0.060912009328603745,
    -0.01804800145328045
   ],
   "max": [
    0.08516401052474976,
    -0.05940800905227661,
    0.08995801210403442
   ]
  },
  {
   "bufferView": 3,
   "componentType": 5126,
   "count": 320,
   "type": "VEC3",
   "min": [
    -0.10302401334047318,
    -0.060912009328603745,
    -0.01804800145328045
   ],
   "max": [
    0.08516401052474976,
    -0.05940800905227661,
    0.08995801210403442
   ]
  },
  {
   "bufferView": 4,
   "componentType": 5126,
   "count": 320,
   "type": "VEC3",
   "min": [
    -0.09907601773738861,
    -0.06016000732779503,
    -0.021150002256035805
   ],
   "max": [
    0.0838480144739151,
    -0.04136000573635101,
    0.07712700963020325
   ]
  },
  {
   "bufferView": 5,
   "componentType": 5126,
   "count": 320,
   "type": "VEC3",
   "min": [
    -0.0938120111823082,
    -0.0612880103290081,
    -0.023970002308487892
   ],
   "max": [
    0.08102801442146301,
    -0.022936003282666206,
    0.0650010034441948
   ]
  },
  {
   "bufferView": 6,
   "componentType": 5126,
   "count": 320,
   "type": "VEC3",
   "min": [
    -0.08666801452636719,
    -0.0631680116057396,
    -0.02552100270986557
   ],
   "max": [
    0.0767040103673935,
    -0.005640001036226749,
    0.053439006209373474
   ]
  },
  {
   "bufferView": 7,
   "componentType": 5126,
   "count": 320,
   "type": "VEC3",
   "min": [
    -0.0783960148692131,
    -0.06392000615596771,
    -0.02580300346016884
   ],
   "max": [
    0.07087600976228714,
    0.008272001519799232,
    0.042441003024578094
   ]
  },
  {
   "bufferView": 8,
   "componentType": 5126,
   "count": 320,
   "type": "VEC3",
   "min": [
    -0.0693720132112503,
    -0.06279201060533524,
    -0.0252390019595623
   ],
   "max": [
    0.06410800665616989,
    0.01955200359225273,
    0.032148003578186035
   ]
  },
  {
   "bufferView": 9,
   "componentType": 5126,
   "count": 320,
   "type": "VEC3",
   "min": [
    -0.06053600832819939,
    -0.06016000732779503,
    -0.023829001933336258
   ],
   "max": [
    0.0567760095000267,
    0.02669600397348404,
    0.022983001545071602
   ]
  },
  {
   "bufferView": 10,
   "componentType": 5126,
   "count": 320,
   "type": "VEC3",
   "min": [
    -0.0522640086710453,
    -0.05489600822329521,
    -0.021855002269148827
   ],
   "max": [
    0.049820005893707275,
    0.030456004664301872,
    0.015087001956999302
   ]
  },
  {
   "bufferView": 11,
   "componentType": 5126,
   "count": 320,
   "type": "VEC3",
   "min": [
    -0.04474400728940964,
    -0.04850400611758232,
    -0.019599001854658127
   ],
   "max": [
    0.04361600801348686,
    0.0315840058028698,
    0.00874200090765953
   ]
  },
  {
   "bufferView": 12,
   "componentType": 5126,
   "count": 320,
   "type": "VEC3",
   "min": [
    -0.038916006684303284,
    -0.03948000445961952,
    -0.016356002539396286
   ],
   "max": [
    0.03835200518369675,
    0.02895200438797474,
    0.004371000453829765
   ]
  },
  {
   "bufferView": 13,
   "componentType": 5126,
   "count": 320,
   "type": "VEC3",
   "min": [
    -0.03271200507879257,
    -0.02895200438797474,
    -0.01212600152939558
   ],
   "max": [
    0.03308800607919693,
    0.023688003420829773,
    0.001692000194452703
   ]
  },
  {
   "bufferView": 14,
   "componentType": 5126,
   "count": 320,
   "type": "VEC3",
   "min": [
    -0.025192003697156906,
    -0.018424002453684807,
    -0.007755000609904528
   ],
   "max": [
    0.02650800347328186,
    0.016920002177357674,
    0.00042300004861317575
   ]
  },
  {
   "bufferView": 15,
   "componentType": 5126,
   "count": 320,
   "type": "VEC3",
   "min": [
    -0.017108002677559853,
    -0.009400001727044582,
    -0.004230000544339418
   ],
   "max": [
    0.018424002453684807,
    0.009776001796126366,
    0.0001410000113537535
   ]
  },
  {
   "bufferView": 16,
   "componentType": 5126,
   "count": 320,
   "type": "VEC3",
   "min": [
    -0.008648001588881016,
    -0.003384000388905406,
    -0.001692000194452703
   ],
   "max": [
    0.009212001226842403,
    0.0037600004579871893,
    0.0001410000113537535
   ]
  },
  {
   "bufferView": 17,
   "componentType": 5126,
   "count": 320,
   "type": "VEC3",
   "min": [
    -0.011844001710414886,
    -0.0022560004144906998,
    0.0001410000113537535
   ],
   "max": [
    0.010528001934289932,
    -0.0015040001599118114,
    0.0023970003239810467
   ]
  },
  {
   "bufferView": 18,
   "componentType": 5126,
   "count": 320,
   "type": "VEC3",
   "min": [
    -0.02406400255858898,
    -0.007144000846892595,
    0.0009870000649243593
   ],
   "max": [
    0.021432003006339073,
    -0.006016000639647245,
    0.00719100097194314
   ]
  },
  {
   "bufferView": 19,
   "componentType": 5126,
   "count": 320,
   "type": "VEC3",
   "min": [
    -0.036848004907369614,
    -0.013912001624703407,
    0.0015510001685470343
   ],
   "max": [
    0.032336004078388214,
    -0.012784001417458057,
    0.014241001568734646
   ]
  },
  {
   "bufferView": 20,
   "componentType": 5126,
   "count": 320,
   "type": "VEC3",
   "min": [
    -0.04925600811839104,
    -0.02180800400674343,
    0.001692000194452703
   ],
   "max": [
    0.042864006012678146,
    -0.020680002868175507,
    0.023406002670526505
   ]
  },
  {
   "bufferView": 21,
   "componentType": 5126,
   "count": 320,
   "type": "VEC3",
   "min": [
    -0.0612880103290081,
    -0.03083200380206108,
    0.001128000090830028
   ],
   "max": [
    0.05282800644636154,
    -0.02895200438797474,
    0.03384000435471535
   ]
  },
  {
   "bufferView": 22,
   "componentType": 5126,
   "count": 320,
   "type": "VEC3",
   "min": [
    -0.07238001376390457,
    -0.03948000445961952,
    -0.000282000022707507
   ],
   "max": [
    0.06185200810432434,
    -0.03760000690817833,
    0.04526100307703018
   ]
  },
  {
   "bufferView": 23,
   "componentType": 5126,
   "count": 320,
   "type": "VEC3",
   "min": [
    -0.08234401047229767,
    -0.047376006841659546,
    -0.002961000194773078
   ],
   "max": [
    0.06974800676107407,
    -0.04587200656533241,
    0.05724600702524185
   ]
  },
  {
   "bufferView": 24,
   "componentType": 5126,
   "count": 320,
   "type": "VEC3",
   "min": [
    -0.004888000898063183,
    -0.022936003282666206,
    0.04032600298523903
   ],
   "max": [
    -0.0009400001144967973,
    -0.004888000898063183,
    0.043428003787994385
   ]
  },
  {
   "bufferView": 25,
   "componentType": 5126,
   "count": 320,
   "type": "VEC3",
   "min": [
    -0.004700000863522291,
    -0.022560004144906998,
    0.03905700519680977
   ],
   "max": [
    -0.0009400001144967973,
    -0.0045120008289813995,
    0.04201800376176834
   ]
  },
  {
   "bufferView": 26,
   "componentType": 5126,
   "count": 320,
   "type": "VEC3",
   "min": [
    -0.004324000794440508,
    -0.020304003730416298,
    0.035391002893447876
   ],
   "max": [
    -0.0007520000799559057,
    -0.0037600004579871893,
    0.03807000443339348
   ]
  },
  {
   "bufferView": 27,
   "componentType": 5126,
   "count": 320,
   "type": "VEC3",
   "min": [
    -0.0037600004579871893,
    -0.01767200231552124,
    0.030174003913998604
   ],
   "max": [
    -0.0005640001036226749,
    -0.0030080003198236227,
    0.03257100284099579
   ]
  },
  {
   "bufferView": 28,
   "componentType": 5126,
   "count": 320,
   "type": "VEC3",
   "min": [
    -0.0030080003198236227,
    -0.01428800169378519,
    0.023970002308487892
   ],
   "max": [
    -0.00037600003997795284,
    -0.0018800002289935946,
    0.025944001972675323
   ]
  },
  {
   "bufferView": 29,
   "componentType": 5126,
   "count": 320,
   "type": "VEC3",
   "min": [
    -0.0022560004144906998,
    -0.010904002003371716,
    0.017343001440167427
   ],
   "max": [
    -0.00018800001998897642,
    -0.0007520000799559057,
    0.018894001841545105
   ]
  },
  {
   "bufferView": 30,
   "componentType": 5126,
   "count": 320,
   "type": "VEC3",
   "min": [
    -0.0015040001599118114,
    -0.007520000915974379,
    0.010857000946998596
   ],
   "max": [
    8.673617379884035e-19,
    0,
    0.01212600152939558
   ]
  },
  {
   "bufferView": 31,
   "componentType": 5126,
   "count": 320,
   "type": "VEC3",
   "min": [
    -0.0007520000799559057,
    -0.0045120008289813995,
    0.005499000661075115
   ],
   "max": [
    0.00018800001998897642,
    0.00037600003997795284,
    0.006345000583678484
   ]
  },
  {
   "bufferView": 32,
   "componentType": 5126,
   "count": 320,
   "type": "VEC3",
   "min": [
    -0.00037600003997795284,
    -0.0018800002289935946,
    0.0015510001685470343
   ],
   "max": [
    0.00018800001998897642,
    0.0007520000799559057,
    0.0019740001298487186
   ]
  },
  {
   "bufferView": 33,
   "componentType": 5126,
   "count": 320,
   "type": "VEC3",
   "min": [
    0,
    0,
    0
   ],
   "max": [
    0,
    0,
    0
   ]
  },
  {
   "bufferView": 34,
   "componentType": 5123,
   "count": 237,
   "type": "SCALAR"
  },
  {
   "bufferView": 35,
   "componentType": 5123,
   "count": 129,
   "type": "SCALAR"
  },
  {
   "bufferView": 36,
   "componentType": 5123,
   "count": 261,
   "type": "SCALAR"
  },
  {
   "bufferView": 37,
   "componentType": 5123,
   "count": 12,
   "type": "SCALAR"
  },
  {
   "bufferView": 38,
   "componentType": 5123,
   "count": 351,
   "type": "SCALAR"
  },
  {
   "bufferView": 39,
   "componentType": 5126,
   "count": 11,
   "type": "SCALAR",
   "min": [
    0
   ],
   "max": [
    0.47619047619047616
   ]
  },
  {
   "bufferView": 40,
   "componentType": 5126,
   "count": 352,
   "type": "SCALAR"
  },
  {
   "bufferView": 41,
   "componentType": 5126,
   "count": 2,
   "type": "SCALAR",
   "min": [
    0
   ],
   "max": [
    0.03333333333333333
   ]
  },
  {
   "bufferView": 42,
   "componentType": 5126,
   "count": 64,
   "type": "SCALAR"
  },
  {
   "bufferView": 43,
   "componentType": 5126,
   "count": 15,
   "type": "SCALAR",
   "min": [
    0
   ],
   "max": [
    0.4666666666666667
   ]
  },
  {
   "bufferView": 44,
   "componentType": 5126,
   "count": 480,
   "type": "SCALAR"
  },
  {
   "bufferView": 45,
   "componentType": 5126,
   "count": 7,
   "type": "SCALAR",
   "min": [
    0
   ],
   "max": [
    0.2222222222222222
   ]
  },
  {
   "bufferView": 46,
   "componentType": 5126,
   "count": 224,
   "type": "SCALAR"
  }
 ],
 "bufferViews": [
  {
   "buffer": 0,
   "byteOffset": 0,
   "byteLength": 3840,
   "target": 34962
  },
  {
   "buffer": 0,
   "byteOffset": 3840,
   "byteLength": 2560,
   "target": 34962
  },
  {
   "buffer": 0,
   "byteOffset": 6400,
   "byteLength": 3840,
   "target": 34962
  },
  {
   "buffer": 0,
   "byteOffset": 10240,
   "byteLength": 3840,
   "target": 34962
  },
  {
   "buffer": 0,
   "byteOffset": 14080,
   "byteLength": 3840,
   "target": 34962
  },
  {
   "buffer": 0,
   "byteOffset": 17920,
   "byteLength": 3840,
   "target": 34962
  },
  {
   "buffer": 0,
   "byteOffset": 21760,
   "byteLength": 3840,
   "target": 34962
  },
  {
   "buffer": 0,
   "byteOffset": 25600,
   "byteLength": 3840,
   "target": 34962
  },
  {
   "buffer": 0,
   "byteOffset": 29440,
   "byteLength": 3840,
   "target": 34962
  },
  {
   "buffer": 0,
   "byteOffset": 33280,
   "byteLength": 3840,
   "target": 34962
  },
  {
   "buffer": 0,
   "byteOffset": 37120,
   "byteLength": 3840,
   "target": 34962
  },
  {
   "buffer": 0,
   "byteOffset": 40960,
   "byteLength": 3840,
   "target": 34962
  },
  {
   "buffer": 0,
   "byteOffset": 44800,
   "byteLength": 3840,
   "target": 34962
  },
  {
   "buffer": 0,
   "byteOffset": 48640,
   "byteLength": 3840,
   "target": 34962
  },
  {
   "buffer": 0,
   "byteOffset": 52480,
   "byteLength": 3840,
   "target": 34962
  },
  {
   "buffer": 0,
   "byteOffset": 56320,
   "byteLength": 3840,
   "target": 34962
  },
  {
   "buffer": 0,
   "byteOffset": 60160,
   "byteLength": 3840,
   "target": 34962
  },
  {
   "buffer": 0,
   "byteOffset": 64000,
   "byteLength": 3840,
   "target": 34962
  },
  {
   "buffer": 0,
   "byteOffset": 67840,
   "byteLength": 3840,
   "target": 34962
  },
  {
   "buffer": 0,
   "byteOffset": 71680,
   "byteLength": 3840,
   "target": 34962
  },
  {
   "buffer": 0,
   "byteOffset": 75520,
   "byteLength": 3840,
   "target": 34962
  },
  {
   "buffer": 0,
   "byteOffset": 79360,
   "byteLength": 3840,
   "target": 34962
  },
  {
   "buffer": 0,
   "byteOffset": 83200,
   "byteLength": 3840,
   "target": 34962
  },
  {
   "buffer": 0,
   "byteOffset": 87040,
   "byteLength": 3840,
   "target": 34962
  },
  {
   "buffer": 0,
   "byteOffset": 90880,
   "byteLength": 3840,
   "target": 34962
  },
  {
   "buffer": 0,
   "byteOffset": 94720,
   "byteLength": 3840,
   "target": 34962
  },
  {
   "buffer": 0,
   "byteOffset": 98560,
   "byteLength": 3840,
   "target": 34962
  },
  {
   "buffer": 0,
   "byteOffset": 102400,
   "byteLength": 3840,
   "target": 34962
  },
  {
   "buffer": 0,
   "byteOffset": 106240,
   "byteLength": 3840,
   "target": 34962
  },
  {
   "buffer": 0,
   "byteOffset": 110080,
   "byteLength": 3840,
   "target": 34962
  },
  {
   "buffer": 0,
   "byteOffset": 113920,
   "byteLength": 3840,
   "target": 34962
  },
  {
   "buffer": 0,
   "byteOffset": 117760,
   "byteLength": 3840,
   "target": 34962
  },
  {
   "buffer": 0,
   "byteOffset": 121600,
   "byteLength": 3840,
   "target": 34962
  },
  {
   "buffer": 0,
   "byteOffset": 125440,
   "byteLength": 3840,
   "target": 34962
  },
  {
   "buffer": 0,
   "byteOffset": 129280,
   "byteLength": 474,
   "target": 34963
  },
  {
   "buffer": 0,
   "byteOffset": 129756,
   "byteLength": 258,
   "target": 34963
  },
  {
   "buffer": 0,
   "byteOffset": 130016,
   "byteLength": 522,
   "target": 34963
  },
  {
   "buffer": 0,
   "byteOffset": 130540,
   "byteLength": 24,
   "target": 34963
  },
  {
   "buffer": 0,
   "byteOffset": 130564,
   "byteLength": 702,
   "target": 34963
  },
  {
   "buffer": 0,
   "byteOffset": 131268,
   "byteLength": 44
  },
  {
   "buffer": 0,
   "byteOffset": 131312,
   "byteLength": 1408
  },
  {
   "buffer": 0,
   "byteOffset": 132720,
   "byteLength": 8
  },
  {
   "buffer": 0,
   "byteOffset": 132728,
   "byteLength": 256
  },
  {
   "buffer": 0,
   "byteOffset": 132984,
   "byteLength": 60
  },
  {
   "buffer": 0,
   "byteOffset": 133044,
   "byteLength": 1920
  },
  {
   "buffer": 0,
   "byteOffset": 134964,
   "byteLength": 28
  },
  {
   "buffer": 0,
   "byteOffset": 134992,
   "byteLength": 896
  }
 ],
 "buffers": [
  {
   "uri": "shock.bin",
   "byteLength": 135888
  }
 ],
 "animations": [
  {
   "name": "Fire1",
   "samplers": [
    {
     "input": 39,
     "output": 40,
     "interpolation": "LINEAR"
    }
   ],
   "channels": [
    {
     "sampler": 0,
     "target": {
      "node": 0,
      "path": "weights"
     }
    }
   ]
  },
  {
   "name": "Still",
   "samplers": [
    {
     "input": 41,
     "output": 42,
     "interpolation": "LINEAR"
    }
   ],
   "channels": [
    {
     "sampler": 0,
     "target": {
      "node": 0,
      "path": "weights"
     }
    }
   ]
  },
  {
   "name": "Select",
   "samplers": [
    {
     "input": 43,
     "output": 44,
     "interpolation": "LINEAR"
    }
   ],
   "channels": [
    {
     "sampler": 0,
     "target": {
      "node": 0,
      "path": "weights"
     }
    }
   ]
  },
  {
   "name": "Down",
   "samplers": [
    {
     "input": 45,
     "output": 46,
     "interpolation": "LINEAR"
    }
   ],
   "channels": [
    {
     "sampler": 0,
     "target": {
      "node": 0,
      "path": "weights"
     }
    }
   ]
  }
 ]
}
