{"asset":{"version":"2.0","generator":"facingworlds ut99 extractor"},"scene":0,"scenes":[{"nodes":[0]}],"nodes":[{"mesh":0,"name":"armor2"}],"meshes":[{"name":"armor2","primitives":[{"attributes":{"POSITION":0,"TEXCOORD_0":1},"indices":2,"material":0}]}],"materials":[{"name":"slot0","pbrMetallicRoughness":{"baseColorTexture":{"index":0},"metallicFactor":0,"roughnessFactor":1}}],"images":[{"uri":"s0.png"}],"samplers":[{"magFilter":9729,"minFilter":9987,"wrapS":10497,"wrapT":10497}],"textures":[{"source":0,"sampler":0}],"accessors":[{"bufferView":0,"componentType":5126,"count":138,"type":"VEC3","min":[-0.31,0,-0.154225],"max":[0.31,0.46499999999999997,0.154225]},{"bufferView":1,"componentType":5126,"count":138,"type":"VEC2"},{"bufferView":2,"componentType":5123,"count":558,"type":"SCALAR"}],"bufferViews":[{"buffer":0,"byteOffset":0,"byteLength":1656,"target":34962},{"buffer":0,"byteOffset":1656,"byteLength":1104,"target":34962},{"buffer":0,"byteOffset":2760,"byteLength":1116,"target":34963}],"buffers":[{"uri":"armor2.bin","byteLength":3876}]}