{"asset":{"version":"2.0","generator":"facingworlds ut99 extractor"},"scene":0,"scenes":[{"nodes":[0]}],"nodes":[{"mesh":0,"name":"UDamage"}],"meshes":[{"name":"UDamage","primitives":[{"attributes":{"POSITION":0,"TEXCOORD_0":1},"indices":2,"material":0}]}],"materials":[{"name":"slot0","pbrMetallicRoughness":{"baseColorTexture":{"index":0},"metallicFactor":0,"roughnessFactor":1}}],"images":[{"uri":"s0.png"}],"samplers":[{"magFilter":9729,"minFilter":9987,"wrapS":10497,"wrapT":10497}],"textures":[{"source":0,"sampler":0}],"accessors":[{"bufferView":0,"componentType":5126,"count":176,"type":"VEC3","min":[-0.24518072289156628,0,-0.026506024096385545],"max":[0.24518072289156628,0.55,0.026506024096385545]},{"bufferView":1,"componentType":5126,"count":176,"type":"VEC2"},{"bufferView":2,"componentType":5123,"count":744,"type":"SCALAR"}],"bufferViews":[{"buffer":0,"byteOffset":0,"byteLength":2112,"target":34962},{"buffer":0,"byteOffset":2112,"byteLength":1408,"target":34962},{"buffer":0,"byteOffset":3520,"byteLength":1488,"target":34963}],"buffers":[{"uri":"UDamage.bin","byteLength":5008}]}