{
 "asset": {
  "version": "2.0",
  "generator": "build-ut-viewmodels.mjs"
 },
 "extras": {
  "utMesh": "Rifle2m",
  "baseSequence": "Still",
  "baseFrame": 17,
  "viewFrame": "barrel -Z, up +Y, screen right +X; RotOrigin baked in",
  "clips": [
   {
    "clip": "Fire",
    "startFrame": 17,
    "numFrames": 10,
    "fps": 15,
    "seconds": 0.6667,
    "loop": false
   },
   {
    "clip": "Fire2",
    "startFrame": 27,
    "numFrames": 10,
    "fps": 15,
    "seconds": 0.6667,
    "loop": false
   },
   {
    "clip": "Fire3",
    "startFrame": 37,
    "numFrames": 10,
    "fps": 15,
    "seconds": 0.6667,
    "loop": false
   },
   {
    "clip": "Fire4",
    "startFrame": 47,
    "numFrames": 10,
    "fps": 15,
    "seconds": 0.6667,
    "loop": false
   },
   {
    "clip": "Fire5",
    "startFrame": 57,
    "numFrames": 10,
    "fps": 15,
    "seconds": 0.6667,
    "loop": false
   },
   {
    "clip": "Still",
    "startFrame": 17,
    "numFrames": 1,
    "fps": 30,
    "seconds": 0.0333,
    "loop": true
   },
   {
    "clip": "Select",
    "startFrame": 0,
    "numFrames": 17,
    "fps": 28,
    "seconds": 0.6071,
    "loop": false
   },
   {
    "clip": "Down",
    "startFrame": 67,
    "numFrames": 7,
    "fps": 30,
    "seconds": 0.2333,
    "loop": false
   }
  ]
 },
 "scene": 0,
 "scenes": [
  {
   "nodes": [
    0
   ]
  }
 ],
 "nodes": [
  {
   "mesh": 0,
   "name": "sniper"
  }
 ],
 "meshes": [
  {
   "name": "sniper",
   "primitives": [
    {
     "attributes": {
      "POSITION": 0,
      "TEXCOORD_0": 1
     },
     "indices": 75,
     "material": 0,
     "targets": [
      {
       "POSITION": 2
      },
      {
       "POSITION": 3
      },
      {
       "POSITION": 4
      },
      {
       "POSITION": 5
      },
      {
       "POSITION": 6
      },
      {
       "POSITION": 7
      },
      {
       "POSITION": 8
      },
      {
       "POSITION": 9
      },
      {
       "POSITION": 10
      },
      {
       "POSITION": 11
      },
      {
       "POSITION": 12
      },
      {
       "POSITION": 13
      },
      {
       "POSITION": 14
      },
      {
       "POSITION": 15
      },
      {
       "POSITION": 16
      },
      {
       "POSITION": 17
      },
      {
       "POSITION": 18
      },
      {
       "POSITION": 19
      },
      {
       "POSITION": 20
      },
      {
       "POSITION": 21
      },
      {
       "POSITION": 22
      },
      {
       "POSITION": 23
      },
      {
       "POSITION": 24
      },
      {
       "POSITION": 25
      },
      {
       "POSITION": 26
      },
      {
       "POSITION": 27
      },
      {
       "POSITION": 28
      },
      {
       "POSITION": 29
      },
      {
       "POSITION": 30
      },
      {
       "POSITION": 31
      },
      {
       "POSITION": 32
      },
      {
       "POSITION": 33
      },
      {
       "POSITION": 34
      },
      {
       "POSITION": 35
      },
      {
       "POSITION": 36
      },
      {
       "POSITION": 37
      },
      {
       "POSITION": 38
      },
      {
       "POSITION": 39
      },
      {
       "POSITION": 40
      },
      {
       "POSITION": 41
      },
      {
       "POSITION": 42
      },
      {
       "POSITION": 43
      },
      {
       "POSITION": 44
      },
      {
       "POSITION": 45
      },
      {
       "POSITION": 46
      },
      {
       "POSITION": 47
      },
      {
       "POSITION": 48
      },
      {
       "POSITION": 49
      },
      {
       "POSITION": 50
      },
      {
       "POSITION": 51
      },
      {
       "POSITION": 52
      },
      {
       "POSITION": 53
      },
      {
       "POSITION": 54
      },
      {
       "POSITION": 55
      },
      {
       "POSITION": 56
      },
      {
       "POSITION": 57
      },
      {
       "POSITION": 58
      },
      {
       "POSITION": 59
      },
      {
       "POSITION": 60
      },
      {
       "POSITION": 61
      },
      {
       "POSITION": 62
      },
      {
       "POSITION": 63
      },
      {
       "POSITION": 64
      },
      {
       "POSITION": 65
      },
      {
       "POSITION": 66
      },
      {
       "POSITION": 67
      },
      {
       "POSITION": 68
      },
      {
       "POSITION": 69
      },
      {
       "POSITION": 70
      },
      {
       "POSITION": 71
      },
      {
       "POSITION": 72
      },
      {
       "POSITION": 73
      },
      {
       "POSITION": 74
      }
     ]
    },
    {
     "attributes": {
      "POSITION": 0,
      "TEXCOORD_0": 1
     },
     "indices": 76,
     "material": 1,
     "targets": [
      {
       "POSITION": 2
      },
      {
       "POSITION": 3
      },
      {
       "POSITION": 4
      },
      {
       "POSITION": 5
      },
      {
       "POSITION": 6
      },
      {
       "POSITION": 7
      },
      {
       "POSITION": 8
      },
      {
       "POSITION": 9
      },
      {
       "POSITION": 10
      },
      {
       "POSITION": 11
      },
      {
       "POSITION": 12
      },
      {
       "POSITION": 13
      },
      {
       "POSITION": 14
      },
      {
       "POSITION": 15
      },
      {
       "POSITION": 16
      },
      {
       "POSITION": 17
      },
      {
       "POSITION": 18
      },
      {
       "POSITION": 19
      },
      {
       "POSITION": 20
      },
      {
       "POSITION": 21
      },
      {
       "POSITION": 22
      },
      {
       "POSITION": 23
      },
      {
       "POSITION": 24
      },
      {
       "POSITION": 25
      },
      {
       "POSITION": 26
      },
      {
       "POSITION": 27
      },
      {
       "POSITION": 28
      },
      {
       "POSITION": 29
      },
      {
       "POSITION": 30
      },
      {
       "POSITION": 31
      },
      {
       "POSITION": 32
      },
      {
       "POSITION": 33
      },
      {
       "POSITION": 34
      },
      {
       "POSITION": 35
      },
      {
       "POSITION": 36
      },
      {
       "POSITION": 37
      },
      {
       "POSITION": 38
      },
      {
       "POSITION": 39
      },
      {
       "POSITION": 40
      },
      {
       "POSITION": 41
      },
      {
       "POSITION": 42
      },
      {
       "POSITION": 43
      },
      {
       "POSITION": 44
      },
      {
       "POSITION": 45
      },
      {
       "POSITION": 46
      },
      {
       "POSITION": 47
      },
      {
       "POSITION": 48
      },
      {
       "POSITION": 49
      },
      {
       "POSITION": 50
      },
      {
       "POSITION": 51
      },
      {
       "POSITION": 52
      },
      {
       "POSITION": 53
      },
      {
       "POSITION": 54
      },
      {
       "POSITION": 55
      },
      {
       "POSITION": 56
      },
      {
       "POSITION": 57
      },
      {
       "POSITION": 58
      },
      {
       "POSITION": 59
      },
      {
       "POSITION": 60
      },
      {
       "POSITION": 61
      },
      {
       "POSITION": 62
      },
      {
       "POSITION": 63
      },
      {
       "POSITION": 64
      },
      {
       "POSITION": 65
      },
      {
       "POSITION": 66
      },
      {
       "POSITION": 67
      },
      {
       "POSITION": 68
      },
      {
       "POSITION": 69
      },
      {
       "POSITION": 70
      },
      {
       "POSITION": 71
      },
      {
       "POSITION": 72
      },
      {
       "POSITION": 73
      },
      {
       "POSITION": 74
      }
     ]
    },
    {
     "attributes": {
      "POSITION": 0,
      "TEXCOORD_0": 1
     },
     "indices": 77,
     "material": 2,
     "targets": [
      {
       "POSITION": 2
      },
      {
       "POSITION": 3
      },
      {
       "POSITION": 4
      },
      {
       "POSITION": 5
      },
      {
       "POSITION": 6
      },
      {
       "POSITION": 7
      },
      {
       "POSITION": 8
      },
      {
       "POSITION": 9
      },
      {
       "POSITION": 10
      },
      {
       "POSITION": 11
      },
      {
       "POSITION": 12
      },
      {
       "POSITION": 13
      },
      {
       "POSITION": 14
      },
      {
       "POSITION": 15
      },
      {
       "POSITION": 16
      },
      {
       "POSITION": 17
      },
      {
       "POSITION": 18
      },
      {
       "POSITION": 19
      },
      {
       "POSITION": 20
      },
      {
       "POSITION": 21
      },
      {
       "POSITION": 22
      },
      {
       "POSITION": 23
      },
      {
       "POSITION": 24
      },
      {
       "POSITION": 25
      },
      {
       "POSITION": 26
      },
      {
       "POSITION": 27
      },
      {
       "POSITION": 28
      },
      {
       "POSITION": 29
      },
      {
       "POSITION": 30
      },
      {
       "POSITION": 31
      },
      {
       "POSITION": 32
      },
      {
       "POSITION": 33
      },
      {
       "POSITION": 34
      },
      {
       "POSITION": 35
      },
      {
       "POSITION": 36
      },
      {
       "POSITION": 37
      },
      {
       "POSITION": 38
      },
      {
       "POSITION": 39
      },
      {
       "POSITION": 40
      },
      {
       "POSITION": 41
      },
      {
       "POSITION": 42
      },
      {
       "POSITION": 43
      },
      {
       "POSITION": 44
      },
      {
       "POSITION": 45
      },
      {
       "POSITION": 46
      },
      {
       "POSITION": 47
      },
      {
       "POSITION": 48
      },
      {
       "POSITION": 49
      },
      {
       "POSITION": 50
      },
      {
       "POSITION": 51
      },
      {
       "POSITION": 52
      },
      {
       "POSITION": 53
      },
      {
       "POSITION": 54
      },
      {
       "POSITION": 55
      },
      {
       "POSITION": 56
      },
      {
       "POSITION": 57
      },
      {
       "POSITION": 58
      },
      {
       "POSITION": 59
      },
      {
       "POSITION": 60
      },
      {
       "POSITION": 61
      },
      {
       "POSITION": 62
      },
      {
       "POSITION": 63
      },
      {
       "POSITION": 64
      },
      {
       "POSITION": 65
      },
      {
       "POSITION": 66
      },
      {
       "POSITION": 67
      },
      {
       "POSITION": 68
      },
      {
       "POSITION": 69
      },
      {
       "POSITION": 70
      },
      {
       "POSITION": 71
      },
      {
       "POSITION": 72
      },
      {
       "POSITION": 73
      },
      {
       "POSITION": 74
      }
     ]
    },
    {
     "attributes": {
      "POSITION": 0,
      "TEXCOORD_0": 1
     },
     "indices": 78,
     "material": 3,
     "targets": [
      {
       "POSITION": 2
      },
      {
       "POSITION": 3
      },
      {
       "POSITION": 4
      },
      {
       "POSITION": 5
      },
      {
       "POSITION": 6
      },
      {
       "POSITION": 7
      },
      {
       "POSITION": 8
      },
      {
       "POSITION": 9
      },
      {
       "POSITION": 10
      },
      {
       "POSITION": 11
      },
      {
       "POSITION": 12
      },
      {
       "POSITION": 13
      },
      {
       "POSITION": 14
      },
      {
       "POSITION": 15
      },
      {
       "POSITION": 16
      },
      {
       "POSITION": 17
      },
      {
       "POSITION": 18
      },
      {
       "POSITION": 19
      },
      {
       "POSITION": 20
      },
      {
       "POSITION": 21
      },
      {
       "POSITION": 22
      },
      {
       "POSITION": 23
      },
      {
       "POSITION": 24
      },
      {
       "POSITION": 25
      },
      {
       "POSITION": 26
      },
      {
       "POSITION": 27
      },
      {
       "POSITION": 28
      },
      {
       "POSITION": 29
      },
      {
       "POSITION": 30
      },
      {
       "POSITION": 31
      },
      {
       "POSITION": 32
      },
      {
       "POSITION": 33
      },
      {
       "POSITION": 34
      },
      {
       "POSITION": 35
      },
      {
       "POSITION": 36
      },
      {
       "POSITION": 37
      },
      {
       "POSITION": 38
      },
      {
       "POSITION": 39
      },
      {
       "POSITION": 40
      },
      {
       "POSITION": 41
      },
      {
       "POSITION": 42
      },
      {
       "POSITION": 43
      },
      {
       "POSITION": 44
      },
      {
       "POSITION": 45
      },
      {
       "POSITION": 46
      },
      {
       "POSITION": 47
      },
      {
       "POSITION": 48
      },
      {
       "POSITION": 49
      },
      {
       "POSITION": 50
      },
      {
       "POSITION": 51
      },
      {
       "POSITION": 52
      },
      {
       "POSITION": 53
      },
      {
       "POSITION": 54
      },
      {
       "POSITION": 55
      },
      {
       "POSITION": 56
      },
      {
       "POSITION": 57
      },
      {
       "POSITION": 58
      },
      {
       "POSITION": 59
      },
      {
       "POSITION": 60
      },
      {
       "POSITION": 61
      },
      {
       "POSITION": 62
      },
      {
       "POSITION": 63
      },
      {
       "POSITION": 64
      },
      {
       "POSITION": 65
      },
      {
       "POSITION": 66
      },
      {
       "POSITION": 67
      },
      {
       "POSITION": 68
      },
      {
       "POSITION": 69
      },
      {
       "POSITION": 70
      },
      {
       "POSITION": 71
      },
      {
       "POSITION": 72
      },
      {
       "POSITION": 73
      },
      {
       "POSITION": 74
      }
     ]
    }
   ],
   "weights": [
    0,
    0,
    0,
    0,
    0,
    0,
    0,
    0,
    0,
    0,
    0,
    0,
    0,
    0,
    0,
    0,
    0,
    0,
    0,
    0,
    0,
    0,
    0,
    0,
    0,
    0,
    0,
    0,
    0,
    0,
    0,
    0,
    0,
    0,
    0,
    0,
    0,
    0,
    0,
    0,
    0,
    0,
    0,
    0,
    0,
    0,
    0,
    0,
    0,
    0,
    0,
    0,
    0,
    0,
    0,
    0,
    0,
    0,
    0,
    0,
    0,
    0,
    0,
    0,
    0,
    0,
    0,
    0,
    0,
    0,
    0,
    0,
    0
   ]
  }
 ],
 "materials": [
  {
   "name": "slot0",
   "doubleSided": false,
   "pbrMetallicRoughness": {
    "baseColorTexture": {
     "index": 0
    },
    "metallicFactor": 0,
    "roughnessFactor": 1
   }
  },
  {
   "name": "slot1",
   "doubleSided": false,
   "pbrMetallicRoughness": {
    "baseColorTexture": {
     "index": 1
    },
    "metallicFactor": 0,
    "roughnessFactor": 1
   }
  },
  {
   "name": "slot2",
   "doubleSided": false,
   "pbrMetallicRoughness": {
    "baseColorTexture": {
     "index": 2
    },
    "metallicFactor": 0,
    "roughnessFactor": 1
   }
  },
  {
   "name": "slot3",
   "doubleSided": false,
   "pbrMetallicRoughness": {
    "baseColorTexture": {
     "index": 3
    },
    "metallicFactor": 0,
    "roughnessFactor": 1
   }
  }
 ],
 "textures": [
  {
   "source": 0,
   "sampler": 0
  },
  {
   "source": 1,
   "sampler": 0
  },
  {
   "source": 2,
   "sampler": 0
  },
  {
   "source": 3,
   "sampler": 0
  }
 ],
 "images": [
  {
   "uri": "s0.png"
  },
  {
   "uri": "s1.png"
  },
  {
   "uri": "s2.png"
  },
  {
   "uri": "s3.png"
  }
 ],
 "samplers": [
  {
   "magFilter": 9729,
   "minFilter": 9987,
   "wrapS": 10497,
   "wrapT": 10497
  }
 ],
 "accessors": [
  {
   "bufferView": 0,
   "componentType": 5126,
   "count": 591,
   "type": "VEC3",
   "min": [
    -0.062416008914041185,
    -0.048880006980875634,
    -0.10095601441819314
   ],
   "max": [
    0.01767200252385504,
    0.033840004832913904,
    0.09682001382750366
   ]
  },
  {
   "bufferView": 1,
   "componentType": 5126,
   "count": 591,
   "type": "VEC2"
  },
  {
   "bufferView": 2,
   "componentType": 5126,
   "count": 591,
   "type": "VEC3",
   "min": [
    -0.16393601894378662,
    -0.13009601831436157,
    -0.04624800756573677
   ],
   "max": [
    0.1902560293674469,
    -0.12483201920986176,
    0.06260401010513306
   ]
  },
  {
   "bufferView": 3,
   "componentType": 5126,
   "count": 591,
   "type": "VEC3",
   "min": [
    -0.16393601894378662,
    -0.13009601831436157,
    -0.04624800756573677
   ],
   "max": [
    0.1902560293674469,
    -0.12483201920986176,
    0.06260401010513306
   ]
  },
  {
   "bufferView": 4,
   "componentType": 5126,
   "count": 591,
   "type": "VEC3",
   "min": [
    -0.15641602873802185,
    -0.11204801499843597,
    -0.03816400468349457
   ],
   "max": [
    0.18198402225971222,
    -0.07219201326370239,
    0.06053600832819939
   ]
  },
  {
   "bufferView": 5,
   "componentType": 5126,
   "count": 591,
   "type": "VEC3",
   "min": [
    -0.14739201962947845,
    -0.10152001678943634,
    -0.032148003578186035
   ],
   "max": [
    0.1722080260515213,
    -0.020304003730416298,
    0.05903200805187225
   ]
  },
  {
   "bufferView": 6,
   "componentType": 5126,
   "count": 591,
   "type": "VEC3",
   "min": [
    -0.13686402142047882,
    -0.09625601023435593,
    -0.02857600338757038
   ],
   "max": [
    0.16017602384090424,
    0.027072003111243248,
    0.058844007551670074
   ]
  },
  {
   "bufferView": 7,
   "componentType": 5126,
   "count": 591,
   "type": "VEC3",
   "min": [
    -0.12483201920986176,
    -0.09550401568412781,
    -0.027448004111647606
   ],
   "max": [
    0.14626401662826538,
    0.07219201326370239,
    0.05959600955247879
   ]
  },
  {
   "bufferView": 8,
   "componentType": 5126,
   "count": 591,
   "type": "VEC3",
   "min": [
    -0.11167201399803162,
    -0.09700801223516464,
    -0.028200004249811172
   ],
   "max": [
    0.13122402131557465,
    0.11129601299762726,
    0.06110000982880592
   ]
  },
  {
   "bufferView": 9,
   "componentType": 5126,
   "count": 591,
   "type": "VEC3",
   "min": [
    -0.09776001423597336,
    -0.10076801478862762,
    -0.030456004664301872
   ],
   "max": [
    0.11468001455068588,
    0.1451360136270523,
    0.06298001110553741
   ]
  },
  {
   "bufferView": 10,
   "componentType": 5126,
   "count": 591,
   "type": "VEC3",
   "min": [
    -0.0838480144739151,
    -0.1045280173420906,
    -0.03346400335431099
   ],
   "max": [
    0.09851201623678207,
    0.17145602405071259,
    0.06467200815677643
   ]
  },
  {
   "bufferView": 11,
   "componentType": 5126,
   "count": 591,
   "type": "VEC3",
   "min": [
    -0.0703120082616806,
    -0.10828801244497299,
    -0.036472003906965256
   ],
   "max": [
    0.08234401047229767,
    0.1902560293674469,
    0.06542401015758514
   ]
  },
  {
   "bufferView": 12,
   "componentType": 5126,
   "count": 591,
   "type": "VEC3",
   "min": [
    -0.05752800777554512,
    -0.11129601299762726,
    -0.038540005683898926
   ],
   "max": [
    0.06692800670862198,
    0.20153602957725525,
    0.06448400765657425
   ]
  },
  {
   "bufferView": 13,
   "componentType": 5126,
   "count": 591,
   "type": "VEC3",
   "min": [
    -0.045496005564928055,
    -0.1135520190000534,
    -0.03929200395941734
   ],
   "max": [
    0.05264000594615936,
    0.20454402267932892,
    0.06166400760412216
   ]
  },
  {
   "bufferView": 14,
   "componentType": 5126,
   "count": 591,
   "type": "VEC3",
   "min": [
    -0.03534400463104248,
    -0.11054401844739914,
    -0.034028004854917526
   ],
   "max": [
    0.040984004735946655,
    0.1902560293674469,
    0.051700007170438766
   ]
  },
  {
   "bufferView": 15,
   "componentType": 5126,
   "count": 591,
   "type": "VEC3",
   "min": [
    -0.027072003111243248,
    -0.09550401568412781,
    -0.02218400314450264
   ],
   "max": [
    0.03083200380206108,
    0.15265601873397827,
    0.034216005355119705
   ]
  },
  {
   "bufferView": 16,
   "componentType": 5126,
   "count": 591,
   "type": "VEC3",
   "min": [
    -0.018424002453684807,
    -0.06843201071023941,
    -0.010340001434087753
   ],
   "max": [
    0.020680002868175507,
    0.09851201623678207,
    0.016732001677155495
   ]
  },
  {
   "bufferView": 17,
   "componentType": 5126,
   "count": 591,
   "type": "VEC3",
   "min": [
    -0.009400001727044582,
    -0.03384000435471535,
    -0.0037600004579871893
   ],
   "max": [
    0.010528001934289932,
    0.042864006012678146,
    0.005452001001685858
   ]
  },
  {
   "bufferView": 18,
   "componentType": 5126,
   "count": 591,
   "type": "VEC3",
   "min": [
    0,
    0,
    0
   ],
   "max": [
    0,
    0,
    0
   ]
  },
  {
   "bufferView": 19,
   "componentType": 5126,
   "count": 591,
   "type": "VEC3",
   "min": [
    -0.016544003039598465,
    -0.018800003454089165,
    0.02632000297307968
   ],
   "max": [
    0.012784001417458057,
    0.06166400760412216,
    0.036096006631851196
   ]
  },
  {
   "bufferView": 20,
   "componentType": 5126,
   "count": 591,
   "type": "VEC3",
   "min": [
    -0.016168002039194107,
    -0.018800003454089165,
    0.025192003697156906
   ],
   "max": [
    0.01203200127929449,
    0.05940800905227661,
    0.034780003130435944
   ]
  },
  {
   "bufferView": 21,
   "componentType": 5126,
   "count": 591,
   "type": "VEC3",
   "min": [
    -0.014664001762866974,
    -0.018048003315925598,
    0.02218400314450264
   ],
   "max": [
    0.010904002003371716,
    0.054144006222486496,
    0.03083200380206108
   ]
  },
  {
   "bufferView": 22,
   "componentType": 5126,
   "count": 591,
   "type": "VEC3",
   "min": [
    -0.012408001348376274,
    -0.016544003039598465,
    0.018048003315925598
   ],
   "max": [
    0.009024001657962799,
    0.04587200656533241,
    0.025380004197359085
   ]
  },
  {
   "bufferView": 23,
   "componentType": 5126,
   "count": 591,
   "type": "VEC3",
   "min": [
    -0.009776001796126366,
    -0.01428800169378519,
    0.01316000148653984
   ],
   "max": [
    0.007520000915974379,
    0.036096006631851196,
    0.018988002091646194
   ]
  },
  {
   "bufferView": 24,
   "componentType": 5126,
   "count": 591,
   "type": "VEC3",
   "min": [
    -0.006768000777810812,
    -0.011280002072453499,
    0.008272001519799232
   ],
   "max": [
    0.005264000967144966,
    0.025568002834916115,
    0.012408001348376274
   ]
  },
  {
   "bufferView": 25,
   "componentType": 5126,
   "count": 591,
   "type": "VEC3",
   "min": [
    -0.004136000759899616,
    -0.008272001519799232,
    0.004136000759899616
   ],
   "max": [
    0.003384000388905406,
    0.015040001831948757,
    0.00658000074326992
   ]
  },
  {
   "bufferView": 26,
   "componentType": 5126,
   "count": 591,
   "type": "VEC3",
   "min": [
    -0.0018800002289935946,
    -0.0045120008289813995,
    0.0011280002072453499
   ],
   "max": [
    0.0015040001599118114,
    0.006768000777810812,
    0.0022560004144906998
   ]
  },
  {
   "bufferView": 27,
   "componentType": 5126,
   "count": 591,
   "type": "VEC3",
   "min": [
    0,
    0,
    0
   ],
   "max": [
    0,
    0,
    0
   ]
  },
  {
   "bufferView": 28,
   "componentType": 5126,
   "count": 591,
   "type": "VEC3",
   "min": [
    0,
    0,
    0
   ],
   "max": [
    0,
    0,
    0
   ]
  },
  {
   "bufferView": 29,
   "componentType": 5126,
   "count": 591,
   "type": "VEC3",
   "min": [
    -0.009776001796126366,
    -0.03835200518369675,
    -0.00018800001998897642
   ],
   "max": [
    0.010152001865208149,
    0.03083200380206108,
    0.00789600145071745
   ]
  },
  {
   "bufferView": 30,
   "componentType": 5126,
   "count": 591,
   "type": "VEC3",
   "min": [
    -0.009400001727044582,
    -0.036848004907369614,
    -0.00018800001998897642
   ],
   "max": [
    0.009776001796126366,
    0.030080003663897514,
    0.00770800095051527
   ]
  },
  {
   "bufferView": 31,
   "componentType": 5126,
   "count": 591,
   "type": "VEC3",
   "min": [
    -0.008272001519799232,
    -0.03384000435471535,
    -0.00018800001998897642
   ],
   "max": [
    0.008648001588881016,
    0.027824003249406815,
    0.006768000777810812
   ]
  },
  {
   "bufferView": 32,
   "componentType": 5126,
   "count": 591,
   "type": "VEC3",
   "min": [
    -0.007144000846892595,
    -0.029328003525733948,
    -0.00018800001998897642
   ],
   "max": [
    0.007520000915974379,
    0.02406400255858898,
    0.005640001036226749
   ]
  },
  {
   "bufferView": 33,
   "componentType": 5126,
   "count": 591,
   "type": "VEC3",
   "min": [
    -0.005640001036226749,
    -0.023312002420425415,
    -0.00037600003997795284
   ],
   "max": [
    0.005640001036226749,
    0.01955200359225273,
    0.004324000794440508
   ]
  },
  {
   "bufferView": 34,
   "componentType": 5126,
   "count": 591,
   "type": "VEC3",
   "min": [
    -0.004136000759899616,
    -0.01729600317776203,
    -0.00037600003997795284
   ],
   "max": [
    0.0037600004579871893,
    0.01428800169378519,
    0.0030080003198236227
   ]
  },
  {
   "bufferView": 35,
   "componentType": 5126,
   "count": 591,
   "type": "VEC3",
   "min": [
    -0.002632000483572483,
    -0.010528001934289932,
    -0.00037600003997795284
   ],
   "max": [
    0.0022560004144906998,
    0.009776001796126366,
    0.001692000194452703
   ]
  },
  {
   "bufferView": 36,
   "componentType": 5126,
   "count": 591,
   "type": "VEC3",
   "min": [
    -0.0011280002072453499,
    -0.005264000967144966,
    -0.00037600003997795284
   ],
   "max": [
    0.0011280002072453499,
    0.0045120008289813995,
    0.0007520000799559057
   ]
  },
  {
   "bufferView": 37,
   "componentType": 5126,
   "count": 591,
   "type": "VEC3",
   "min": [
    0,
    0,
    0
   ],
   "max": [
    0,
    0,
    0
   ]
  },
  {
   "bufferView": 38,
   "componentType": 5126,
   "count": 591,
   "type": "VEC3",
   "min": [
    0,
    0,
    0
   ],
   "max": [
    0,
    0,
    0
   ]
  },
  {
   "bufferView": 39,
   "componentType": 5126,
   "count": 591,
   "type": "VEC3",
   "min": [
    -0.005264000967144966,
    -0.02632000297307968,
    0.00770800095051527
   ],
   "max": [
    0.01316000148653984,
    0.03985600546002388,
    0.0157920029014349
   ]
  },
  {
   "bufferView": 40,
   "componentType": 5126,
   "count": 591,
   "type": "VEC3",
   "min": [
    -0.005264000967144966,
    -0.025568002834916115,
    0.007520000915974379
   ],
   "max": [
    0.012408001348376274,
    0.03835200518369675,
    0.015228002332150936
   ]
  },
  {
   "bufferView": 41,
   "componentType": 5126,
   "count": 591,
   "type": "VEC3",
   "min": [
    -0.004888000898063183,
    -0.02406400255858898,
    0.00658000074326992
   ],
   "max": [
    0.011280002072453499,
    0.03459200635552406,
    0.013536001555621624
   ]
  },
  {
   "bufferView": 42,
   "componentType": 5126,
   "count": 591,
   "type": "VEC3",
   "min": [
    -0.0045120008289813995,
    -0.021056003868579865,
    0.005264000967144966
   ],
   "max": [
    0.009776001796126366,
    0.030080003663897514,
    0.01109200157225132
   ]
  },
  {
   "bufferView": 43,
   "componentType": 5126,
   "count": 591,
   "type": "VEC3",
   "min": [
    -0.0037600004579871893,
    -0.01729600317776203,
    0.0037600004579871893
   ],
   "max": [
    0.007520000915974379,
    0.023312002420425415,
    0.008460001088678837
   ]
  },
  {
   "bufferView": 44,
   "componentType": 5126,
   "count": 591,
   "type": "VEC3",
   "min": [
    -0.0030080003198236227,
    -0.012784001417458057,
    0.0022560004144906998
   ],
   "max": [
    0.005264000967144966,
    0.01729600317776203,
    0.005640001036226749
   ]
  },
  {
   "bufferView": 45,
   "componentType": 5126,
   "count": 591,
   "type": "VEC3",
   "min": [
    -0.0022560004144906998,
    -0.009024001657962799,
    0.0009400001144967973
   ],
   "max": [
    0.003384000388905406,
    0.010528001934289932,
    0.0030080003198236227
   ]
  },
  {
   "bufferView": 46,
   "componentType": 5126,
   "count": 591,
   "type": "VEC3",
   "min": [
    -0.0011280002072453499,
    -0.0045120008289813995,
    0.00018800001998897642
   ],
   "max": [
    0.0015040001599118114,
    0.0045120008289813995,
    0.0011280002072453499
   ]
  },
  {
   "bufferView": 47,
   "componentType": 5126,
   "count": 591,
   "type": "VEC3",
   "min": [
    0,
    0,
    0
   ],
   "max": [
    0,
    0,
    0
   ]
  },
  {
   "bufferView": 48,
   "componentType": 5126,
   "count": 591,
   "type": "VEC3",
   "min": [
    0,
    0,
    0
   ],
   "max": [
    0,
    0,
    0
   ]
  },
  {
   "bufferView": 49,
   "componentType": 5126,
   "count": 591,
   "type": "VEC3",
   "min": [
    0.003384000388905406,
    -0.01729600317776203,
    0.004700000863522291
   ],
   "max": [
    0.005264000967144966,
    0.02406400255858898,
    0.009212001226842403
   ]
  },
  {
   "bufferView": 50,
   "componentType": 5126,
   "count": 591,
   "type": "VEC3",
   "min": [
    0.0030080003198236227,
    -0.01729600317776203,
    0.0045120008289813995
   ],
   "max": [
    0.005264000967144966,
    0.023312002420425415,
    0.00883600115776062
   ]
  },
  {
   "bufferView": 51,
   "componentType": 5126,
   "count": 591,
   "type": "VEC3",
   "min": [
    0.002632000483572483,
    -0.0157920029014349,
    0.003948000725358725
   ],
   "max": [
    0.0045120008289813995,
    0.021056003868579865,
    0.00789600145071745
   ]
  },
  {
   "bufferView": 52,
   "componentType": 5126,
   "count": 591,
   "type": "VEC3",
   "min": [
    0.0018800002289935946,
    -0.013536001555621624,
    0.0030080003198236227
   ],
   "max": [
    0.0037600004579871893,
    0.018048003315925598,
    0.00658000074326992
   ]
  },
  {
   "bufferView": 53,
   "componentType": 5126,
   "count": 591,
   "type": "VEC3",
   "min": [
    0.0015040001599118114,
    -0.011280002072453499,
    0.0022560004144906998
   ],
   "max": [
    0.0030080003198236227,
    0.01428800169378519,
    0.004888000898063183
   ]
  },
  {
   "bufferView": 54,
   "componentType": 5126,
   "count": 591,
   "type": "VEC3",
   "min": [
    0.0007520000799559057,
    -0.008272001519799232,
    0.0013160002417862415
   ],
   "max": [
    0.0018800002289935946,
    0.010528001934289932,
    0.003384000388905406
   ]
  },
  {
   "bufferView": 55,
   "componentType": 5126,
   "count": 591,
   "type": "VEC3",
   "min": [
    0.00037600003997795284,
    -0.005264000967144966,
    0.0005640001036226749
   ],
   "max": [
    0.0011280002072453499,
    0.006768000777810812,
    0.0018800002289935946
   ]
  },
  {
   "bufferView": 56,
   "componentType": 5126,
   "count": 591,
   "type": "VEC3",
   "min": [
    0,
    -0.0030080003198236227,
    0
   ],
   "max": [
    0.00037600003997795284,
    0.0030080003198236227,
    0.0007520000799559057
   ]
  },
  {
   "bufferView": 57,
   "componentType": 5126,
   "count": 591,
   "type": "VEC3",
   "min": [
    0,
    0,
    0
   ],
   "max": [
    0,
    0,
    0
   ]
  },
  {
   "bufferView": 58,
   "componentType": 5126,
   "count": 591,
   "type": "VEC3",
   "min": [
    0,
    0,
    0
   ],
   "max": [
    0,
    0,
    0
   ]
  },
  {
   "bufferView": 59,
   "componentType": 5126,
   "count": 591,
   "type": "VEC3",
   "min": [
    -0.004888000898063183,
    -0.016544003039598465,
    0.007332000881433487
   ],
   "max": [
    0.0030080003198236227,
    0.03083200380206108,
    0.012408001348376274
   ]
  },
  {
   "bufferView": 60,
   "componentType": 5126,
   "count": 591,
   "type": "VEC3",
   "min": [
    -0.0045120008289813995,
    -0.0157920029014349,
    0.006956000812351704
   ],
   "max": [
    0.0030080003198236227,
    0.030080003663897514,
    0.01203200127929449
   ]
  },
  {
   "bufferView": 61,
   "componentType": 5126,
   "count": 591,
   "type": "VEC3",
   "min": [
    -0.004136000759899616,
    -0.015040001831948757,
    0.006016000639647245
   ],
   "max": [
    0.002632000483572483,
    0.027072003111243248,
    0.010716001503169537
   ]
  },
  {
   "bufferView": 62,
   "componentType": 5126,
   "count": 591,
   "type": "VEC3",
   "min": [
    -0.0037600004579871893,
    -0.013536001555621624,
    0.004888000898063183
   ],
   "max": [
    0.002632000483572483,
    0.023312002420425415,
    0.00883600115776062
   ]
  },
  {
   "bufferView": 63,
   "componentType": 5126,
   "count": 591,
   "type": "VEC3",
   "min": [
    -0.0030080003198236227,
    -0.011280002072453499,
    0.0035720004234462976
   ],
   "max": [
    0.0018800002289935946,
    0.018048003315925598,
    0.00658000074326992
   ]
  },
  {
   "bufferView": 64,
   "componentType": 5126,
   "count": 591,
   "type": "VEC3",
   "min": [
    -0.0022560004144906998,
    -0.008272001519799232,
    0.0022560004144906998
   ],
   "max": [
    0.0015040001599118114,
    0.012784001417458057,
    0.004324000794440508
   ]
  },
  {
   "bufferView": 65,
   "componentType": 5126,
   "count": 591,
   "type": "VEC3",
   "min": [
    -0.0015040001599118114,
    -0.006016000639647245,
    0.0009400001144967973
   ],
   "max": [
    0.0011280002072453499,
    0.008272001519799232,
    0.0024440004490315914
   ]
  },
  {
   "bufferView": 66,
   "componentType": 5126,
   "count": 591,
   "type": "VEC3",
   "min": [
    -0.0007520000799559057,
    -0.0030080003198236227,
    0.00018800001998897642
   ],
   "max": [
    0.00037600003997795284,
    0.0037600004579871893,
    0.0009400001144967973
   ]
  },
  {
   "bufferView": 67,
   "componentType": 5126,
   "count": 591,
   "type": "VEC3",
   "min": [
    0,
    0,
    0
   ],
   "max": [
    0,
    0,
    0
   ]
  },
  {
   "bufferView": 68,
   "componentType": 5126,
   "count": 591,
   "type": "VEC3",
   "min": [
    0,
    0,
    0
   ],
   "max": [
    0,
    0,
    0
   ]
  },
  {
   "bufferView": 69,
   "componentType": 5126,
   "count": 591,
   "type": "VEC3",
   "min": [
    -0.02895200438797474,
    -0.015040001831948757,
    -0.0013160002417862415
   ],
   "max": [
    0.03346400335431099,
    0.0045120008289813995,
    0.005264000967144966
   ]
  },
  {
   "bufferView": 70,
   "componentType": 5126,
   "count": 591,
   "type": "VEC3",
   "min": [
    -0.06053600832819939,
    -0.03308800607919693,
    -0.004888000898063183
   ],
   "max": [
    0.07106401026248932,
    0,
    0.009212001226842403
   ]
  },
  {
   "bufferView": 71,
   "componentType": 5126,
   "count": 591,
   "type": "VEC3",
   "min": [
    -0.09174401313066483,
    -0.051888007670640945,
    -0.011844001710414886
   ],
   "max": [
    0.10866401344537735,
    -0.01203200127929449,
    0.01748400181531906
   ]
  },
  {
   "bufferView": 72,
   "componentType": 5126,
   "count": 591,
   "type": "VEC3",
   "min": [
    -0.12032001465559006,
    -0.07068800926208496,
    -0.02199600264430046
   ],
   "max": [
    0.14288002252578735,
    -0.030080003663897514,
    0.029516004025936127
   ]
  },
  {
   "bufferView": 73,
   "componentType": 5126,
   "count": 591,
   "type": "VEC3",
   "min": [
    -0.14363202452659607,
    -0.09625601023435593,
    -0.034780003130435944
   ],
   "max": [
    0.17145602405071259,
    -0.05038400739431381,
    0.04342800751328468
   ]
  },
  {
   "bufferView": 74,
   "componentType": 5126,
   "count": 591,
   "type": "VEC3",
   "min": [
    -0.16168002784252167,
    -0.11881601810455322,
    -0.04925600811839104
   ],
   "max": [
    0.1928880214691162,
    -0.0676800087094307,
    0.05846800655126572
   ]
  },
  {
   "bufferView": 75,
   "componentType": 5123,
   "count": 564,
   "type": "SCALAR"
  },
  {
   "bufferView": 76,
   "componentType": 5123,
   "count": 309,
   "type": "SCALAR"
  },
  {
   "bufferView": 77,
   "componentType": 5123,
   "count": 744,
   "type": "SCALAR"
  },
  {
   "bufferView": 78,
   "componentType": 5123,
   "count": 252,
   "type": "SCALAR"
  },
  {
   "bufferView": 79,
   "componentType": 5126,
   "count": 10,
   "type": "SCALAR",
   "min": [
    0
   ],
   "max": [
    0.6
   ]
  },
  {
   "bufferView": 80,
   "componentType": 5126,
   "count": 730,
   "type": "SCALAR"
  },
  {
   "bufferView": 81,
   "componentType": 5126,
   "count": 10,
   "type": "SCALAR",
   "min": [
    0
   ],
   "max": [
    0.6
   ]
  },
  {
   "bufferView": 82,
   "componentType": 5126,
   "count": 730,
   "type": "SCALAR"
  },
  {
   "bufferView": 83,
   "componentType": 5126,
   "count": 10,
   "type": "SCALAR",
   "min": [
    0
   ],
   "max": [
    0.6
   ]
  },
  {
   "bufferView": 84,
   "componentType": 5126,
   "count": 730,
   "type": "SCALAR"
  },
  {
   "bufferView": 85,
   "componentType": 5126,
   "count": 10,
   "type": "SCALAR",
   "min": [
    0
   ],
   "max": [
    0.6
   ]
  },
  {
   "bufferView": 86,
   "componentType": 5126,
   "count": 730,
   "type": "SCALAR"
  },
  {
   "bufferView": 87,
   "componentType": 5126,
   "count": 10,
   "type": "SCALAR",
   "min": [
    0
   ],
   "max": [
    0.6
   ]
  },
  {
   "bufferView": 88,
   "componentType": 5126,
   "count": 730,
   "type": "SCALAR"
  },
  {
   "bufferView": 89,
   "componentType": 5126,
   "count": 2,
   "type": "SCALAR",
   "min": [
    0
   ],
   "max": [
    0.03333333333333333
   ]
  },
  {
   "bufferView": 90,
   "componentType": 5126,
   "count": 146,
   "type": "SCALAR"
  },
  {
   "bufferView": 91,
   "componentType": 5126,
   "count": 17,
   "type": "SCALAR",
   "min": [
    0
   ],
   "max": [
    0.5714285714285714
   ]
  },
  {
   "bufferView": 92,
   "componentType": 5126,
   "count": 1241,
   "type": "SCALAR"
  },
  {
   "bufferView": 93,
   "componentType": 5126,
   "count": 7,
   "type": "SCALAR",
   "min": [
    0
   ],
   "max": [
    0.2
   ]
  },
  {
   "bufferView": 94,
   "componentType": 5126,
   "count": 511,
   "type": "SCALAR"
  }
 ],
 "bufferViews": [
  {
   "buffer": 0,
   "byteOffset": 0,
   "byteLength": 7092,
   "target": 34962
  },
  {
   "buffer": 0,
   "byteOffset": 7092,
   "byteLength": 4728,
   "target": 34962
  },
  {
   "buffer": 0,
   "byteOffset": 11820,
   "byteLength": 7092,
   "target": 34962
  },
  {
   "buffer": 0,
   "byteOffset": 18912,
   "byteLength": 7092,
   "target": 34962
  },
  {
   "buffer": 0,
   "byteOffset": 26004,
   "byteLength": 7092,
   "target": 34962
  },
  {
   "buffer": 0,
   "byteOffset": 33096,
   "byteLength": 7092,
   "target": 34962
  },
  {
   "buffer": 0,
   "byteOffset": 40188,
   "byteLength": 7092,
   "target": 34962
  },
  {
   "buffer": 0,
   "byteOffset": 47280,
   "byteLength": 7092,
   "target": 34962
  },
  {
   "buffer": 0,
   "byteOffset": 54372,
   "byteLength": 7092,
   "target": 34962
  },
  {
   "buffer": 0,
   "byteOffset": 61464,
   "byteLength": 7092,
   "target": 34962
  },
  {
   "buffer": 0,
   "byteOffset": 68556,
   "byteLength": 7092,
   "target": 34962
  },
  {
   "buffer": 0,
   "byteOffset": 75648,
   "byteLength": 7092,
   "target": 34962
  },
  {
   "buffer": 0,
   "byteOffset": 82740,
   "byteLength": 7092,
   "target": 34962
  },
  {
   "buffer": 0,
   "byteOffset": 89832,
   "byteLength": 7092,
   "target": 34962
  },
  {
   "buffer": 0,
   "byteOffset": 96924,
   "byteLength": 7092,
   "target": 34962
  },
  {
   "buffer": 0,
   "byteOffset": 104016,
   "byteLength": 7092,
   "target": 34962
  },
  {
   "buffer": 0,
   "byteOffset": 111108,
   "byteLength": 7092,
   "target": 34962
  },
  {
   "buffer": 0,
   "byteOffset": 118200,
   "byteLength": 7092,
   "target": 34962
  },
  {
   "buffer": 0,
   "byteOffset": 125292,
   "byteLength": 7092,
   "target": 34962
  },
  {
   "buffer": 0,
   "byteOffset": 132384,
   "byteLength": 7092,
   "target": 34962
  },
  {
   "buffer": 0,
   "byteOffset": 139476,
   "byteLength": 7092,
   "target": 34962
  },
  {
   "buffer": 0,
   "byteOffset": 146568,
   "byteLength": 7092,
   "target": 34962
  },
  {
   "buffer": 0,
   "byteOffset": 153660,
   "byteLength": 7092,
   "target": 34962
  },
  {
   "buffer": 0,
   "byteOffset": 160752,
   "byteLength": 7092,
   "target": 34962
  },
  {
   "buffer": 0,
   "byteOffset": 167844,
   "byteLength": 7092,
   "target": 34962
  },
  {
   "buffer": 0,
   "byteOffset": 174936,
   "byteLength": 7092,
   "target": 34962
  },
  {
   "buffer": 0,
   "byteOffset": 182028,
   "byteLength": 7092,
   "target": 34962
  },
  {
   "buffer": 0,
   "byteOffset": 189120,
   "byteLength": 7092,
   "target": 34962
  },
  {
   "buffer": 0,
   "byteOffset": 196212,
   "byteLength": 7092,
   "target": 34962
  },
  {
   "buffer": 0,
   "byteOffset": 203304,
   "byteLength": 7092,
   "target": 34962
  },
  {
   "buffer": 0,
   "byteOffset": 210396,
   "byteLength": 7092,
   "target": 34962
  },
  {
   "buffer": 0,
   "byteOffset": 217488,
   "byteLength": 7092,
   "target": 34962
  },
  {
   "buffer": 0,
   "byteOffset": 224580,
   "byteLength": 7092,
   "target": 34962
  },
  {
   "buffer": 0,
   "byteOffset": 231672,
   "byteLength": 7092,
   "target": 34962
  },
  {
   "buffer": 0,
   "byteOffset": 238764,
   "byteLength": 7092,
   "target": 34962
  },
  {
   "buffer": 0,
   "byteOffset": 245856,
   "byteLength": 7092,
   "target": 34962
  },
  {
   "buffer": 0,
   "byteOffset": 252948,
   "byteLength": 7092,
   "target": 34962
  },
  {
   "buffer": 0,
   "byteOffset": 260040,
   "byteLength": 7092,
   "target": 34962
  },
  {
   "buffer": 0,
   "byteOffset": 267132,
   "byteLength": 7092,
   "target": 34962
  },
  {
   "buffer": 0,
   "byteOffset": 274224,
   "byteLength": 7092,
   "target": 34962
  },
  {
   "buffer": 0,
   "byteOffset": 281316,
   "byteLength": 7092,
   "target": 34962
  },
  {
   "buffer": 0,
   "byteOffset": 288408,
   "byteLength": 7092,
   "target": 34962
  },
  {
   "buffer": 0,
   "byteOffset": 295500,
   "byteLength": 7092,
   "target": 34962
  },
  {
   "buffer": 0,
   "byteOffset": 302592,
   "byteLength": 7092,
   "target": 34962
  },
  {
   "buffer": 0,
   "byteOffset": 309684,
   "byteLength": 7092,
   "target": 34962
  },
  {
   "buffer": 0,
   "byteOffset": 316776,
   "byteLength": 7092,
   "target": 34962
  },
  {
   "buffer": 0,
   "byteOffset": 323868,
   "byteLength": 7092,
   "target": 34962
  },
  {
   "buffer": 0,
   "byteOffset": 330960,
   "byteLength": 7092,
   "target": 34962
  },
  {
   "buffer": 0,
   "byteOffset": 338052,
   "byteLength": 7092,
   "target": 34962
  },
  {
   "buffer": 0,
   "byteOffset": 345144,
   "byteLength": 7092,
   "target": 34962
  },
  {
   "buffer": 0,
   "byteOffset": 352236,
   "byteLength": 7092,
   "target": 34962
  },
  {
   "buffer": 0,
   "byteOffset": 359328,
   "byteLength": 7092,
   "target": 34962
  },
  {
   "buffer": 0,
   "byteOffset": 366420,
   "byteLength": 7092,
   "target": 34962
  },
  {
   "buffer": 0,
   "byteOffset": 373512,
   "byteLength": 7092,
   "target": 34962
  },
  {
   "buffer": 0,
   "byteOffset": 380604,
   "byteLength": 7092,
   "target": 34962
  },
  {
   "buffer": 0,
   "byteOffset": 387696,
   "byteLength": 7092,
   "target": 34962
  },
  {
   "buffer": 0,
   "byteOffset": 394788,
   "byteLength": 7092,
   "target": 34962
  },
  {
   "buffer": 0,
   "byteOffset": 401880,
   "byteLength": 7092,
   "target": 34962
  },
  {
   "buffer": 0,
   "byteOffset": 408972,
   "byteLength": 7092,
   "target": 34962
  },
  {
   "buffer": 0,
   "byteOffset": 416064,
   "byteLength": 7092,
   "target": 34962
  },
  {
   "buffer": 0,
   "byteOffset": 423156,
   "byteLength": 7092,
   "target": 34962
  },
  {
   "buffer": 0,
   "byteOffset": 430248,
   "byteLength": 7092,
   "target": 34962
  },
  {
   "buffer": 0,
   "byteOffset": 437340,
   "byteLength": 7092,
   "target": 34962
  },
  {
   "buffer": 0,
   "byteOffset": 444432,
   "byteLength": 7092,
   "target": 34962
  },
  {
   "buffer": 0,
   "byteOffset": 451524,
   "byteLength": 7092,
   "target": 34962
  },
  {
   "buffer": 0,
   "byteOffset": 458616,
   "byteLength": 7092,
   "target": 34962
  },
  {
   "buffer": 0,
   "byteOffset": 465708,
   "byteLength": 7092,
   "target": 34962
  },
  {
   "buffer": 0,
   "byteOffset": 472800,
   "byteLength": 7092,
   "target": 34962
  },
  {
   "buffer": 0,
   "byteOffset": 479892,
   "byteLength": 7092,
   "target": 34962
  },
  {
   "buffer": 0,
   "byteOffset": 486984,
   "byteLength": 7092,
   "target": 34962
  },
  {
   "buffer": 0,
   "byteOffset": 494076,
   "byteLength": 7092,
   "target": 34962
  },
  {
   "buffer": 0,
   "byteOffset": 501168,
   "byteLength": 7092,
   "target": 34962
  },
  {
   "buffer": 0,
   "byteOffset": 508260,
   "byteLength": 7092,
   "target": 34962
  },
  {
   "buffer": 0,
   "byteOffset": 515352,
   "byteLength": 7092,
   "target": 34962
  },
  {
   "buffer": 0,
   "byteOffset": 522444,
   "byteLength": 7092,
   "target": 34962
  },
  {
   "buffer": 0,
   "byteOffset": 529536,
   "byteLength": 1128,
   "target": 34963
  },
  {
   "buffer": 0,
   "byteOffset": 530664,
   "byteLength": 618,
   "target": 34963
  },
  {
   "buffer": 0,
   "byteOffset": 531284,
   "byteLength": 1488,
   "target": 34963
  },
  {
   "buffer": 0,
   "byteOffset": 532772,
   "byteLength": 504,
   "target": 34963
  },
  {
   "buffer": 0,
   "byteOffset": 533276,
   "byteLength": 40
  },
  {
   "buffer": 0,
   "byteOffset": 533316,
   "byteLength": 2920
  },
  {
   "buffer": 0,
   "byteOffset": 536236,
   "byteLength": 40
  },
  {
   "buffer": 0,
   "byteOffset": 536276,
   "byteLength": 2920
  },
  {
   "buffer": 0,
   "byteOffset": 539196,
   "byteLength": 40
  },
  {
   "buffer": 0,
   "byteOffset": 539236,
   "byteLength": 2920
  },
  {
   "buffer": 0,
   "byteOffset": 542156,
   "byteLength": 40
  },
  {
   "buffer": 0,
   "byteOffset": 542196,
   "byteLength": 2920
  },
  {
   "buffer": 0,
   "byteOffset": 545116,
   "byteLength": 40
  },
  {
   "buffer": 0,
   "byteOffset": 545156,
   "byteLength": 2920
  },
  {
   "buffer": 0,
   "byteOffset": 548076,
   "byteLength": 8
  },
  {
   "buffer": 0,
   "byteOffset": 548084,
   "byteLength": 584
  },
  {
   "buffer": 0,
   "byteOffset": 548668,
   "byteLength": 68
  },
  {
   "buffer": 0,
   "byteOffset": 548736,
   "byteLength": 4964
  },
  {
   "buffer": 0,
   "byteOffset": 553700,
   "byteLength": 28
  },
  {
   "buffer": 0,
   "byteOffset": 553728,
   "byteLength": 2044
  }
 ],
 "buffers": [
  {
   "uri": "sniper.bin",
   "byteLength": 555772
  }
 ],
 "animations": [
  {
   "name": "Fire",
   "samplers": [
    {
     "input": 79,
     "output": 80,
     "interpolation": "LINEAR"
    }
   ],
   "channels": [
    {
     "sampler": 0,
     "target": {
      "node": 0,
      "path": "weights"
     }
    }
   ]
  },
  {
   "name": "Fire2",
   "samplers": [
    {
     "input": 81,
     "output": 82,
     "interpolation": "LINEAR"
    }
   ],
   "channels": [
    {
     "sampler": 0,
     "target": {
      "node": 0,
      "path": "weights"
     }
    }
   ]
  },
  {
   "name": "Fire3",
   "samplers": [
    {
     "input": 83,
     "output": 84,
     "interpolation": "LINEAR"
    }
   ],
   "channels": [
    {
     "sampler": 0,
     "target": {
      "node": 0,
      "path": "weights"
     }
    }
   ]
  },
  {
   "name": "Fire4",
   "samplers": [
    {
     "input": 85,
     "output": 86,
     "interpolation": "LINEAR"
    }
   ],
   "channels": [
    {
     "sampler": 0,
     "target": {
      "node": 0,
      "path": "weights"
     }
    }
   ]
  },
  {
   "name": "Fire5",
   "samplers": [
    {
     "input": 87,
     "output": 88,
     "interpolation": "LINEAR"
    }
   ],
   "channels": [
    {
     "sampler": 0,
     "target": {
      "node": 0,
      "path": "weights"
     }
    }
   ]
  },
  {
   "name": "Still",
   "samplers": [
    {
     "input": 89,
     "output": 90,
     "interpolation": "LINEAR"
    }
   ],
   "channels": [
    {
     "sampler": 0,
     "target": {
      "node": 0,
      "path": "weights"
     }
    }
   ]
  },
  {
   "name": "Select",
   "samplers": [
    {
     "input": 91,
     "output": 92,
     "interpolation": "LINEAR"
    }
   ],
   "channels": [
    {
     "sampler": 0,
     "target": {
      "node": 0,
      "path": "weights"
     }
    }
   ]
  },
  {
   "name": "Down",
   "samplers": [
    {
     "input": 93,
     "output": 94,
     "interpolation": "LINEAR"
    }
   ],
   "channels": [
    {
     "sampler": 0,
     "target": {
      "node": 0,
      "path": "weights"
     }
    }
   ]
  }
 ]
}
