{
 "asset": {
  "version": "2.0",
  "generator": "build-ut-thirdperson.mjs"
 },
 "extras": {
  "utMesh": "Razor3rd2",
  "utPackage": "BotPack.u",
  "utClass": "ripper",
  "thirdPersonScale": 1,
  "baseSequence": "Still",
  "baseFrame": 0,
  "worldFrame": "forward -Z, up +Y, right +X; lifted onto a 39 UU pawn; RotOrigin baked in",
  "epicRotOriginDeg": [
   0,
   180,
   0
  ],
  "meshOriginUU": [
   260,
   0,
   -80
  ],
  "orientationNote": "Vertices are mesh-frame, so they reach the actor frame through the TRANSPOSE of UE1's FRotationMatrix(RotOrigin), with Mesh.Origin subtracted before Mesh.Scale — the character pipeline's rule, unchanged, so the gun and the body land in one frame.",
  "collisionHeightUU": 39,
  "placementNote": "NOT lifted. These vertices are the weapon's own actor-frame geometry about its own origin, because UE1 draws a carried item at the owner pawn's weapon triangle with that triangle's orientation: world = anchor.translation + anchor.rotation * vertex. The anchor is the node named weaponAnchor in each character glTF, animated on every clip; its base-pose translation is also in ut-thirdperson.json as a static fallback.",
  "clips": []
 },
 "scene": 0,
 "scenes": [
  {
   "nodes": [
    0
   ]
  }
 ],
 "nodes": [
  {
   "mesh": 0,
   "name": "ripper"
  }
 ],
 "meshes": [
  {
   "name": "ripper",
   "primitives": [
    {
     "attributes": {
      "POSITION": 0,
      "TEXCOORD_0": 1
     },
     "indices": 2,
     "material": 0
    }
   ]
  }
 ],
 "materials": [
  {
   "name": "slot0",
   "doubleSided": false,
   "pbrMetallicRoughness": {
    "baseColorTexture": {
     "index": 0
    },
    "metallicFactor": 0,
    "roughnessFactor": 1
   }
  }
 ],
 "textures": [
  {
   "source": 0,
   "sampler": 0
  }
 ],
 "images": [
  {
   "uri": "s0.png"
  }
 ],
 "samplers": [
  {
   "magFilter": 9729,
   "minFilter": 9987,
   "wrapS": 10497,
   "wrapT": 10497
  }
 ],
 "accessors": [
  {
   "bufferView": 0,
   "componentType": 5126,
   "count": 156,
   "type": "VEC3",
   "min": [
    -0.07990000880660292,
    -0.05640000621642556,
    -0.9353001030890573
   ],
   "max": [
    0.06932500764102305,
    0.3431000378165888,
    0.14687501618860824
   ]
  },
  {
   "bufferView": 1,
   "componentType": 5126,
   "count": 156,
   "type": "VEC2"
  },
  {
   "bufferView": 2,
   "componentType": 5123,
   "count": 264,
   "type": "SCALAR"
  }
 ],
 "bufferViews": [
  {
   "buffer": 0,
   "byteOffset": 0,
   "byteLength": 1872,
   "target": 34962
  },
  {
   "buffer": 0,
   "byteOffset": 1872,
   "byteLength": 1248,
   "target": 34962
  },
  {
   "buffer": 0,
   "byteOffset": 3120,
   "byteLength": 528,
   "target": 34963
  }
 ],
 "buffers": [
  {
   "uri": "ripper.bin",
   "byteLength": 3648
  }
 ]
}
