{"asset":{"version":"2.0","generator":"THREE.GLTFExporter r178"},"scenes":[{"nodes":[0]}],"scene":0,"nodes":[{"mesh":0}],"bufferViews":[{"buffer":0,"byteOffset":0,"byteLength":27540,"target":34962,"byteStride":12},{"buffer":0,"byteOffset":27540,"byteLength":4592,"target":34963}],"buffers":[{"byteLength":32132,"uri":"data:application/octet-stream;base64,"}],"accessors":[{"bufferView":0,"componentType":5126,"count":2295,"max":[48.98478317260742,40.197296142578125,8.558723449707031],"min":[-24.615217208862305,0.19729414582252502,-89.64127349853516],"type":"VEC3"},{"bufferView":1,"componentType":5123,"count":2295,"max":[2294],"min":[0],"type":"SCALAR"}],"materials":[{"pbrMetallicRoughness":{"metallicFactor":0,"roughnessFactor":1}}],"meshes":[{"primitives":[{"mode":4,"attributes":{"POSITION":0},"indices":1,"material":0}]}]}