{"asset":{"version":"2.0","generator":"THREE.GLTFExporter r178"},"scenes":[{"nodes":[0]}],"scene":0,"nodes":[{"mesh":0}],"bufferViews":[{"buffer":0,"byteOffset":0,"byteLength":6912,"target":34962,"byteStride":12},{"buffer":0,"byteOffset":6912,"byteLength":1152,"target":34963}],"buffers":[{"byteLength":8064,"uri":"data:application/octet-stream;base64,"}],"accessors":[{"bufferView":0,"componentType":5126,"count":576,"max":[5.341560363769531,2.091721534729004,1.9070484638214111],"min":[-5.5584397315979,1.4417216777801514,-2.042951822280884],"type":"VEC3"},{"bufferView":1,"componentType":5123,"count":576,"max":[575],"min":[0],"type":"SCALAR"}],"materials":[{"pbrMetallicRoughness":{"metallicFactor":0,"roughnessFactor":1}}],"meshes":[{"primitives":[{"mode":4,"attributes":{"POSITION":0},"indices":1,"material":0}]}]}