{"asset":{"version":"2.0","generator":"facingworlds ut99 extractor"},"scene":0,"scenes":[{"nodes":[0]}],"nodes":[{"mesh":0,"name":"RocketPack"}],"meshes":[{"name":"RocketPack","primitives":[{"attributes":{"POSITION":0,"TEXCOORD_0":1},"indices":2,"material":0}]}],"materials":[{"name":"slot0","pbrMetallicRoughness":{"baseColorTexture":{"index":0},"metallicFactor":0,"roughnessFactor":1}}],"images":[{"uri":"s0.png"}],"samplers":[{"magFilter":9729,"minFilter":9987,"wrapS":10497,"wrapT":10497}],"textures":[{"source":0,"sampler":0}],"accessors":[{"bufferView":0,"componentType":5126,"count":112,"type":"VEC3","min":[-0.098325,0,-0.10735],"max":[0.098325,0.38,0.10735]},{"bufferView":1,"componentType":5126,"count":112,"type":"VEC2"},{"bufferView":2,"componentType":5123,"count":312,"type":"SCALAR"}],"bufferViews":[{"buffer":0,"byteOffset":0,"byteLength":1344,"target":34962},{"buffer":0,"byteOffset":1344,"byteLength":896,"target":34962},{"buffer":0,"byteOffset":2240,"byteLength":624,"target":34963}],"buffers":[{"uri":"RocketPack.bin","byteLength":2864}]}