{"asset":{"version":"2.0","generator":"facingworlds ut99 extractor"},"scene":0,"scenes":[{"nodes":[0]}],"nodes":[{"mesh":0,"name":"SniperRifle"}],"meshes":[{"name":"SniperRifle","primitives":[{"attributes":{"POSITION":0,"TEXCOORD_0":1},"indices":2,"material":0}]}],"materials":[{"name":"slot0","pbrMetallicRoughness":{"baseColorTexture":{"index":0},"metallicFactor":0,"roughnessFactor":1}}],"images":[{"uri":"s0.png"}],"samplers":[{"magFilter":9729,"minFilter":9987,"wrapS":10497,"wrapT":10497}],"textures":[{"source":0,"sampler":0}],"accessors":[{"bufferView":0,"componentType":5126,"count":276,"type":"VEC3","min":[-0.021357142857142856,0,-0.12047619047619047],"max":[0.021357142857142856,1.15,0.12047619047619047]},{"bufferView":1,"componentType":5126,"count":276,"type":"VEC2"},{"bufferView":2,"componentType":5123,"count":663,"type":"SCALAR"}],"bufferViews":[{"buffer":0,"byteOffset":0,"byteLength":3312,"target":34962},{"buffer":0,"byteOffset":3312,"byteLength":2208,"target":34962},{"buffer":0,"byteOffset":5520,"byteLength":1326,"target":34963}],"buffers":[{"uri":"SniperRifle.bin","byteLength":6846}]}