{"asset":{"version":"2.0","generator":"facingworlds ut99 extractor"},"scene":0,"scenes":[{"nodes":[0]}],"nodes":[{"mesh":0,"name":"MedBox"}],"meshes":[{"name":"MedBox","primitives":[{"attributes":{"POSITION":0,"TEXCOORD_0":1},"indices":2,"material":0},{"attributes":{"POSITION":3,"TEXCOORD_0":4},"indices":5,"material":1}]}],"materials":[{"name":"slot0","pbrMetallicRoughness":{"baseColorTexture":{"index":0},"metallicFactor":0,"roughnessFactor":1}},{"name":"slot1","pbrMetallicRoughness":{"baseColorTexture":{"index":1},"metallicFactor":0,"roughnessFactor":1}}],"images":[{"uri":"s0.png"},{"uri":"s1.png"}],"samplers":[{"magFilter":9729,"minFilter":9987,"wrapS":10497,"wrapT":10497}],"textures":[{"source":0,"sampler":0},{"source":1,"sampler":0}],"accessors":[{"bufferView":0,"componentType":5126,"count":68,"type":"VEC3","min":[-0.22,0,-0.16482801751094434],"max":[0.22,0.16235146966854283,0.16482801751094434]},{"bufferView":1,"componentType":5126,"count":68,"type":"VEC2"},{"bufferView":2,"componentType":5123,"count":198,"type":"SCALAR"},{"bufferView":3,"componentType":5126,"count":12,"type":"VEC3","min":[-0.08241400875547217,0.1513445903689806,-0.08227642276422764],"max":[0.08213883677298311,0.1513445903689806,0.08227642276422764]},{"bufferView":4,"componentType":5126,"count":12,"type":"VEC2"},{"bufferView":5,"componentType":5123,"count":30,"type":"SCALAR"}],"bufferViews":[{"buffer":0,"byteOffset":0,"byteLength":816,"target":34962},{"buffer":0,"byteOffset":816,"byteLength":544,"target":34962},{"buffer":0,"byteOffset":1360,"byteLength":396,"target":34963},{"buffer":0,"byteOffset":1756,"byteLength":144,"target":34962},{"buffer":0,"byteOffset":1900,"byteLength":96,"target":34962},{"buffer":0,"byteOffset":1996,"byteLength":60,"target":34963}],"buffers":[{"uri":"MedBox.bin","byteLength":2056}]}