{
 "asset": {
  "version": "2.0",
  "generator": "build-ut-viewmodels.mjs"
 },
 "extensionsUsed": [
  "KHR_materials_unlit"
 ],
 "extras": {
  "utMesh": "Eightm",
  "baseSequence": "Still",
  "baseFrame": 19,
  "viewFrame": "barrel -Z, up +Y, screen right +X; RotOrigin baked in",
  "clips": [
   {
    "clip": "Fire1",
    "startFrame": 20,
    "numFrames": 8,
    "fps": 30,
    "seconds": 0.2667,
    "loop": false
   },
   {
    "clip": "Idle",
    "startFrame": 19,
    "numFrames": 1,
    "fps": 30,
    "seconds": 0.0333,
    "loop": true
   },
   {
    "clip": "Select",
    "startFrame": 0,
    "numFrames": 20,
    "fps": 33,
    "seconds": 0.6061,
    "loop": false
   },
   {
    "clip": "Down",
    "startFrame": 146,
    "numFrames": 11,
    "fps": 30,
    "seconds": 0.3667,
    "loop": false
   }
  ]
 },
 "scene": 0,
 "scenes": [
  {
   "nodes": [
    0
   ]
  }
 ],
 "nodes": [
  {
   "mesh": 0,
   "name": "rocket"
  }
 ],
 "meshes": [
  {
   "name": "rocket",
   "primitives": [
    {
     "attributes": {
      "POSITION": 0,
      "TEXCOORD_0": 1
     },
     "indices": 40,
     "material": 0,
     "targets": [
      {
       "POSITION": 2
      },
      {
       "POSITION": 3
      },
      {
       "POSITION": 4
      },
      {
       "POSITION": 5
      },
      {
       "POSITION": 6
      },
      {
       "POSITION": 7
      },
      {
       "POSITION": 8
      },
      {
       "POSITION": 9
      },
      {
       "POSITION": 10
      },
      {
       "POSITION": 11
      },
      {
       "POSITION": 12
      },
      {
       "POSITION": 13
      },
      {
       "POSITION": 14
      },
      {
       "POSITION": 15
      },
      {
       "POSITION": 16
      },
      {
       "POSITION": 17
      },
      {
       "POSITION": 18
      },
      {
       "POSITION": 19
      },
      {
       "POSITION": 20
      },
      {
       "POSITION": 21
      },
      {
       "POSITION": 22
      },
      {
       "POSITION": 23
      },
      {
       "POSITION": 24
      },
      {
       "POSITION": 25
      },
      {
       "POSITION": 26
      },
      {
       "POSITION": 27
      },
      {
       "POSITION": 28
      },
      {
       "POSITION": 29
      },
      {
       "POSITION": 30
      },
      {
       "POSITION": 31
      },
      {
       "POSITION": 32
      },
      {
       "POSITION": 33
      },
      {
       "POSITION": 34
      },
      {
       "POSITION": 35
      },
      {
       "POSITION": 36
      },
      {
       "POSITION": 37
      },
      {
       "POSITION": 38
      },
      {
       "POSITION": 39
      }
     ]
    },
    {
     "attributes": {
      "POSITION": 0,
      "TEXCOORD_0": 1
     },
     "indices": 41,
     "material": 1,
     "targets": [
      {
       "POSITION": 2
      },
      {
       "POSITION": 3
      },
      {
       "POSITION": 4
      },
      {
       "POSITION": 5
      },
      {
       "POSITION": 6
      },
      {
       "POSITION": 7
      },
      {
       "POSITION": 8
      },
      {
       "POSITION": 9
      },
      {
       "POSITION": 10
      },
      {
       "POSITION": 11
      },
      {
       "POSITION": 12
      },
      {
       "POSITION": 13
      },
      {
       "POSITION": 14
      },
      {
       "POSITION": 15
      },
      {
       "POSITION": 16
      },
      {
       "POSITION": 17
      },
      {
       "POSITION": 18
      },
      {
       "POSITION": 19
      },
      {
       "POSITION": 20
      },
      {
       "POSITION": 21
      },
      {
       "POSITION": 22
      },
      {
       "POSITION": 23
      },
      {
       "POSITION": 24
      },
      {
       "POSITION": 25
      },
      {
       "POSITION": 26
      },
      {
       "POSITION": 27
      },
      {
       "POSITION": 28
      },
      {
       "POSITION": 29
      },
      {
       "POSITION": 30
      },
      {
       "POSITION": 31
      },
      {
       "POSITION": 32
      },
      {
       "POSITION": 33
      },
      {
       "POSITION": 34
      },
      {
       "POSITION": 35
      },
      {
       "POSITION": 36
      },
      {
       "POSITION": 37
      },
      {
       "POSITION": 38
      },
      {
       "POSITION": 39
      }
     ]
    },
    {
     "attributes": {
      "POSITION": 0,
      "TEXCOORD_0": 1
     },
     "indices": 42,
     "material": 2,
     "targets": [
      {
       "POSITION": 2
      },
      {
       "POSITION": 3
      },
      {
       "POSITION": 4
      },
      {
       "POSITION": 5
      },
      {
       "POSITION": 6
      },
      {
       "POSITION": 7
      },
      {
       "POSITION": 8
      },
      {
       "POSITION": 9
      },
      {
       "POSITION": 10
      },
      {
       "POSITION": 11
      },
      {
       "POSITION": 12
      },
      {
       "POSITION": 13
      },
      {
       "POSITION": 14
      },
      {
       "POSITION": 15
      },
      {
       "POSITION": 16
      },
      {
       "POSITION": 17
      },
      {
       "POSITION": 18
      },
      {
       "POSITION": 19
      },
      {
       "POSITION": 20
      },
      {
       "POSITION": 21
      },
      {
       "POSITION": 22
      },
      {
       "POSITION": 23
      },
      {
       "POSITION": 24
      },
      {
       "POSITION": 25
      },
      {
       "POSITION": 26
      },
      {
       "POSITION": 27
      },
      {
       "POSITION": 28
      },
      {
       "POSITION": 29
      },
      {
       "POSITION": 30
      },
      {
       "POSITION": 31
      },
      {
       "POSITION": 32
      },
      {
       "POSITION": 33
      },
      {
       "POSITION": 34
      },
      {
       "POSITION": 35
      },
      {
       "POSITION": 36
      },
      {
       "POSITION": 37
      },
      {
       "POSITION": 38
      },
      {
       "POSITION": 39
      }
     ]
    },
    {
     "attributes": {
      "POSITION": 0,
      "TEXCOORD_0": 1
     },
     "indices": 43,
     "material": 3,
     "targets": [
      {
       "POSITION": 2
      },
      {
       "POSITION": 3
      },
      {
       "POSITION": 4
      },
      {
       "POSITION": 5
      },
      {
       "POSITION": 6
      },
      {
       "POSITION": 7
      },
      {
       "POSITION": 8
      },
      {
       "POSITION": 9
      },
      {
       "POSITION": 10
      },
      {
       "POSITION": 11
      },
      {
       "POSITION": 12
      },
      {
       "POSITION": 13
      },
      {
       "POSITION": 14
      },
      {
       "POSITION": 15
      },
      {
       "POSITION": 16
      },
      {
       "POSITION": 17
      },
      {
       "POSITION": 18
      },
      {
       "POSITION": 19
      },
      {
       "POSITION": 20
      },
      {
       "POSITION": 21
      },
      {
       "POSITION": 22
      },
      {
       "POSITION": 23
      },
      {
       "POSITION": 24
      },
      {
       "POSITION": 25
      },
      {
       "POSITION": 26
      },
      {
       "POSITION": 27
      },
      {
       "POSITION": 28
      },
      {
       "POSITION": 29
      },
      {
       "POSITION": 30
      },
      {
       "POSITION": 31
      },
      {
       "POSITION": 32
      },
      {
       "POSITION": 33
      },
      {
       "POSITION": 34
      },
      {
       "POSITION": 35
      },
      {
       "POSITION": 36
      },
      {
       "POSITION": 37
      },
      {
       "POSITION": 38
      },
      {
       "POSITION": 39
      }
     ]
    },
    {
     "attributes": {
      "POSITION": 0,
      "TEXCOORD_0": 1
     },
     "indices": 44,
     "material": 4,
     "targets": [
      {
       "POSITION": 2
      },
      {
       "POSITION": 3
      },
      {
       "POSITION": 4
      },
      {
       "POSITION": 5
      },
      {
       "POSITION": 6
      },
      {
       "POSITION": 7
      },
      {
       "POSITION": 8
      },
      {
       "POSITION": 9
      },
      {
       "POSITION": 10
      },
      {
       "POSITION": 11
      },
      {
       "POSITION": 12
      },
      {
       "POSITION": 13
      },
      {
       "POSITION": 14
      },
      {
       "POSITION": 15
      },
      {
       "POSITION": 16
      },
      {
       "POSITION": 17
      },
      {
       "POSITION": 18
      },
      {
       "POSITION": 19
      },
      {
       "POSITION": 20
      },
      {
       "POSITION": 21
      },
      {
       "POSITION": 22
      },
      {
       "POSITION": 23
      },
      {
       "POSITION": 24
      },
      {
       "POSITION": 25
      },
      {
       "POSITION": 26
      },
      {
       "POSITION": 27
      },
      {
       "POSITION": 28
      },
      {
       "POSITION": 29
      },
      {
       "POSITION": 30
      },
      {
       "POSITION": 31
      },
      {
       "POSITION": 32
      },
      {
       "POSITION": 33
      },
      {
       "POSITION": 34
      },
      {
       "POSITION": 35
      },
      {
       "POSITION": 36
      },
      {
       "POSITION": 37
      },
      {
       "POSITION": 38
      },
      {
       "POSITION": 39
      }
     ]
    }
   ],
   "weights": [
    0,
    0,
    0,
    0,
    0,
    0,
    0,
    0,
    0,
    0,
    0,
    0,
    0,
    0,
    0,
    0,
    0,
    0,
    0,
    0,
    0,
    0,
    0,
    0,
    0,
    0,
    0,
    0,
    0,
    0,
    0,
    0,
    0,
    0,
    0,
    0,
    0,
    0
   ]
  }
 ],
 "materials": [
  {
   "name": "slot0",
   "doubleSided": false,
   "pbrMetallicRoughness": {
    "baseColorTexture": {
     "index": 0
    },
    "metallicFactor": 0,
    "roughnessFactor": 1
   }
  },
  {
   "name": "slot1",
   "doubleSided": false,
   "pbrMetallicRoughness": {
    "baseColorTexture": {
     "index": 1
    },
    "metallicFactor": 0,
    "roughnessFactor": 1
   }
  },
  {
   "name": "slot2",
   "doubleSided": false,
   "pbrMetallicRoughness": {
    "baseColorTexture": {
     "index": 2
    },
    "metallicFactor": 0,
    "roughnessFactor": 1
   }
  },
  {
   "name": "slot3",
   "doubleSided": false,
   "pbrMetallicRoughness": {
    "baseColorTexture": {
     "index": 3
    },
    "metallicFactor": 0,
    "roughnessFactor": 1
   }
  },
  {
   "name": "slot4",
   "doubleSided": false,
   "pbrMetallicRoughness": {
    "baseColorTexture": {
     "index": 4
    },
    "metallicFactor": 0,
    "roughnessFactor": 1
   },
   "extensions": {
    "KHR_materials_unlit": {}
   }
  }
 ],
 "textures": [
  {
   "source": 0,
   "sampler": 0
  },
  {
   "source": 1,
   "sampler": 0
  },
  {
   "source": 2,
   "sampler": 0
  },
  {
   "source": 3,
   "sampler": 0
  },
  {
   "source": 4,
   "sampler": 0
  }
 ],
 "images": [
  {
   "uri": "s0.png"
  },
  {
   "uri": "s1.png"
  },
  {
   "uri": "s2.png"
  },
  {
   "uri": "s3.png"
  },
  {
   "uri": "s4.png"
  }
 ],
 "samplers": [
  {
   "magFilter": 9729,
   "minFilter": 9987,
   "wrapS": 10497,
   "wrapT": 10497
  }
 ],
 "accessors": [
  {
   "bufferView": 0,
   "componentType": 5126,
   "count": 635,
   "type": "VEC3",
   "min": [
    -0.003948000410637372,
    -0.011280001173249649,
    -0.10716001114587168
   ],
   "max": [
    0.05696400592491072,
    0.031020003226436537,
    0.06119400636487936
   ]
  },
  {
   "bufferView": 1,
   "componentType": 5126,
   "count": 635,
   "type": "VEC2"
  },
  {
   "bufferView": 2,
   "componentType": 5126,
   "count": 635,
   "type": "VEC3",
   "min": [
    -0.1378980129957199,
    -0.03948000445961952,
    -0.004512000363320112
   ],
   "max": [
    -0.000564000045415014,
    -0.006768000777810812,
    0.1300020068883896
   ]
  },
  {
   "bufferView": 3,
   "componentType": 5126,
   "count": 635,
   "type": "VEC3",
   "min": [
    -0.12915600836277008,
    -0.036660004407167435,
    -0.007332000881433487
   ],
   "max": [
    0.0031020003370940685,
    -0.002256000181660056,
    0.11674801260232925
   ]
  },
  {
   "bufferView": 4,
   "componentType": 5126,
   "count": 635,
   "type": "VEC3",
   "min": [
    -0.12069601565599442,
    -0.034404002130031586,
    -0.009306000545620918
   ],
   "max": [
    0.006204000674188137,
    0.001692000194452703,
    0.10434000939130783
   ]
  },
  {
   "bufferView": 5,
   "componentType": 5126,
   "count": 635,
   "type": "VEC3",
   "min": [
    -0.11251801252365112,
    -0.032148003578186035,
    -0.010434000752866268
   ],
   "max": [
    0.00874200090765953,
    0.005076000466942787,
    0.09334200620651245
   ]
  },
  {
   "bufferView": 6,
   "componentType": 5126,
   "count": 635,
   "type": "VEC3",
   "min": [
    -0.10405801236629486,
    -0.029892003163695335,
    -0.01099800132215023
   ],
   "max": [
    0.010434000752866268,
    0.007896000519394875,
    0.0829080119729042
   ]
  },
  {
   "bufferView": 7,
   "componentType": 5126,
   "count": 635,
   "type": "VEC3",
   "min": [
    -0.0955980122089386,
    -0.02876400388777256,
    -0.01099800132215023
   ],
   "max": [
    0.011562000960111618,
    0.010716001503169537,
    0.07332000881433487
   ]
  },
  {
   "bufferView": 8,
   "componentType": 5126,
   "count": 635,
   "type": "VEC3",
   "min": [
    -0.0874200090765953,
    -0.027072003111243248,
    -0.01099800132215023
   ],
   "max": [
    0.01212600152939558,
    0.012972000986337662,
    0.0640140101313591
   ]
  },
  {
   "bufferView": 9,
   "componentType": 5126,
   "count": 635,
   "type": "VEC3",
   "min": [
    -0.07896000891923904,
    -0.025944001972675323,
    -0.01099800132215023
   ],
   "max": [
    0.012408001348376274,
    0.015228001400828362,
    0.05527200549840927
   ]
  },
  {
   "bufferView": 10,
   "componentType": 5126,
   "count": 635,
   "type": "VEC3",
   "min": [
    -0.07021800428628922,
    -0.02425200305879116,
    -0.01099800132215023
   ],
   "max": [
    0.012408001348376274,
    0.01748400181531906,
    0.04681200534105301
   ]
  },
  {
   "bufferView": 11,
   "componentType": 5126,
   "count": 635,
   "type": "VEC3",
   "min": [
    -0.06147600710391998,
    -0.023124001920223236,
    -0.011562000960111618
   ],
   "max": [
    0.01212600152939558,
    0.01974000222980976,
    0.03835200518369675
   ]
  },
  {
   "bufferView": 12,
   "componentType": 5126,
   "count": 635,
   "type": "VEC3",
   "min": [
    -0.05273400619626045,
    -0.021432003006339073,
    -0.012408001348376274
   ],
   "max": [
    0.011562000960111618,
    0.02199600264430046,
    0.029892003163695335
   ]
  },
  {
   "bufferView": 13,
   "componentType": 5126,
   "count": 635,
   "type": "VEC3",
   "min": [
    -0.043428003787994385,
    -0.019176002591848373,
    -0.014100001193583012
   ],
   "max": [
    0.01099800132215023,
    0.02425200305879116,
    0.021432003006339073
   ]
  },
  {
   "bufferView": 14,
   "componentType": 5126,
   "count": 635,
   "type": "VEC3",
   "min": [
    -0.03807000443339348,
    -0.016920002177357674,
    -0.011562000960111618
   ],
   "max": [
    0.010152000933885574,
    0.021432003006339073,
    0.01804800145328045
   ]
  },
  {
   "bufferView": 15,
   "componentType": 5126,
   "count": 635,
   "type": "VEC3",
   "min": [
    -0.03299400210380554,
    -0.015228001400828362,
    -0.009024000726640224
   ],
   "max": [
    0.009024000726640224,
    0.018612001091241837,
    0.014946001581847668
   ]
  },
  {
   "bufferView": 16,
   "componentType": 5126,
   "count": 635,
   "type": "VEC3",
   "min": [
    -0.027636002749204636,
    -0.012972000986337662,
    -0.007050000596791506
   ],
   "max": [
    0.007614000700414181,
    0.01579200103878975,
    0.01212600152939558
   ]
  },
  {
   "bufferView": 17,
   "componentType": 5126,
   "count": 635,
   "type": "VEC3",
   "min": [
    -0.02199600264430046,
    -0.010716001503169537,
    -0.005076000466942787
   ],
   "max": [
    0.006204000674188137,
    0.012408001348376274,
    0.009588001295924187
   ]
  },
  {
   "bufferView": 18,
   "componentType": 5126,
   "count": 635,
   "type": "VEC3",
   "min": [
    -0.016638001427054405,
    -0.008460001088678837,
    -0.003384000388905406
   ],
   "max": [
    0.004794000647962093,
    0.009588001295924187,
    0.007050000596791506
   ]
  },
  {
   "bufferView": 19,
   "componentType": 5126,
   "count": 635,
   "type": "VEC3",
   "min": [
    -0.01099800132215023,
    -0.005640000570565462,
    -0.0019740001298487186
   ],
   "max": [
    0.003384000388905406,
    0.006204000674188137,
    0.004512000363320112
   ]
  },
  {
   "bufferView": 20,
   "componentType": 5126,
   "count": 635,
   "type": "VEC3",
   "min": [
    -0.005358000751584768,
    -0.002820000285282731,
    -0.0008460000972263515
   ],
   "max": [
    0.001692000194452703,
    0.003384000388905406,
    0.002256000181660056
   ]
  },
  {
   "bufferView": 21,
   "componentType": 5126,
   "count": 635,
   "type": "VEC3",
   "min": [
    -0.001692000194452703,
    -0.003384000388905406,
    -0.0019740001298487186
   ],
   "max": [
    0.005640000570565462,
    0.002820000285282731,
    0.0008460000972263515
   ]
  },
  {
   "bufferView": 22,
   "componentType": 5126,
   "count": 635,
   "type": "VEC3",
   "min": [
    -0.002820000285282731,
    -0.015228001400828362,
    0.02679000236093998
   ],
   "max": [
    0.025944001972675323,
    0.010152000933885574,
    0.10039201378822327
   ]
  },
  {
   "bufferView": 23,
   "componentType": 5126,
   "count": 635,
   "type": "VEC3",
   "min": [
    -0.002820000285282731,
    -0.014664001762866974,
    0.02256000228226185
   ],
   "max": [
    0.025662003085017204,
    0.009588001295924187,
    0.09588000923395157
   ]
  },
  {
   "bufferView": 24,
   "componentType": 5126,
   "count": 635,
   "type": "VEC3",
   "min": [
    -0.002820000285282731,
    -0.012972000986337662,
    0.018612001091241837
   ],
   "max": [
    0.025380002334713936,
    0.008460001088678837,
    0.09136801213026047
   ]
  },
  {
   "bufferView": 25,
   "componentType": 5126,
   "count": 635,
   "type": "VEC3",
   "min": [
    -0.0025380002334713936,
    -0.010152000933885574,
    0.014946001581847668
   ],
   "max": [
    0.025380002334713936,
    0.006768000777810812,
    0.08713801205158234
   ]
  },
  {
   "bufferView": 26,
   "componentType": 5126,
   "count": 635,
   "type": "VEC3",
   "min": [
    -0.002256000181660056,
    -0.006768000777810812,
    0.01099800132215023
   ],
   "max": [
    0.025098003447055817,
    0.004512000363320112,
    0.08262600749731064
   ]
  },
  {
   "bufferView": 27,
   "componentType": 5126,
   "count": 635,
   "type": "VEC3",
   "min": [
    -0.0019740001298487186,
    -0.005076000466942787,
    0.006768000777810812
   ],
   "max": [
    0.024816002696752548,
    0.001692000194452703,
    0.07783200591802597
   ]
  },
  {
   "bufferView": 28,
   "componentType": 5126,
   "count": 635,
   "type": "VEC3",
   "min": [
    -0.0019740001298487186,
    -0.003384000388905406,
    0.0025380002334713936
   ],
   "max": [
    0.02453400194644928,
    0,
    0.07332000881433487
   ]
  },
  {
   "bufferView": 29,
   "componentType": 5126,
   "count": 635,
   "type": "VEC3",
   "min": [
    -0.0360960029065609,
    -0.025944001972675323,
    -0.007332000881433487
   ],
   "max": [
    0.025662003085017204,
    0.0315840020775795,
    0.06796200573444366
   ]
  },
  {
   "bufferView": 30,
   "componentType": 5126,
   "count": 635,
   "type": "VEC3",
   "min": [
    -0.049914006143808365,
    -0.025944001972675323,
    -0.015228001400828362
   ],
   "max": [
    0.034686002880334854,
    0.0360960029065609,
    0.07275600731372833
   ]
  },
  {
   "bufferView": 31,
   "componentType": 5126,
   "count": 635,
   "type": "VEC3",
   "min": [
    -0.061194006353616714,
    -0.02650800347328186,
    -0.025944001972675323
   ],
   "max": [
    0.04483800381422043,
    0.04004400596022606,
    0.077550008893013
   ]
  },
  {
   "bufferView": 32,
   "componentType": 5126,
   "count": 635,
   "type": "VEC3",
   "min": [
    -0.06824401021003723,
    -0.027636002749204636,
    -0.03496800363063812
   ],
   "max": [
    0.05358000472187996,
    0.0406080037355423,
    0.0820620059967041
   ]
  },
  {
   "bufferView": 33,
   "componentType": 5126,
   "count": 635,
   "type": "VEC3",
   "min": [
    -0.07106401026248932,
    -0.029328003525733948,
    -0.0369420051574707
   ],
   "max": [
    0.05781000480055809,
    0.03835200518369675,
    0.08713801205158234
   ]
  },
  {
   "bufferView": 34,
   "componentType": 5126,
   "count": 635,
   "type": "VEC3",
   "min": [
    -0.07247401028871536,
    -0.03496800363063812,
    -0.034122005105018616
   ],
   "max": [
    0.05724600702524185,
    0.03102000243961811,
    0.08967600762844086
   ]
  },
  {
   "bufferView": 35,
   "componentType": 5126,
   "count": 635,
   "type": "VEC3",
   "min": [
    -0.0721920058131218,
    -0.041172005236148834,
    -0.02650800347328186
   ],
   "max": [
    0.054708003997802734,
    0.02030400186777115,
    0.09193200618028641
   ]
  },
  {
   "bufferView": 36,
   "componentType": 5126,
   "count": 635,
   "type": "VEC3",
   "min": [
    -0.06965401023626328,
    -0.04737600311636925,
    -0.016074001789093018
   ],
   "max": [
    0.05019600689411163,
    0.007332000881433487,
    0.09447000920772552
   ]
  },
  {
   "bufferView": 37,
   "componentType": 5126,
   "count": 635,
   "type": "VEC3",
   "min": [
    -0.06514200568199158,
    -0.06034800782799721,
    -0.005358000751584768
   ],
   "max": [
    0.043146003037691116,
    -0.000564000045415014,
    0.09729000926017761
   ]
  },
  {
   "bufferView": 38,
   "componentType": 5126,
   "count": 635,
   "type": "VEC3",
   "min": [
    -0.058938007801771164,
    -0.07275600731372833,
    0.004794000647962093
   ],
   "max": [
    0.03525000438094139,
    -0.006768000777810812,
    0.1001100093126297
   ]
  },
  {
   "bufferView": 39,
   "componentType": 5126,
   "count": 635,
   "type": "VEC3",
   "min": [
    -0.05160600692033768,
    -0.08234401047229767,
    -0.038916002959012985
   ],
   "max": [
    0.02453400194644928,
    -0.009588001295924187,
    0.04878600686788559
   ]
  },
  {
   "bufferView": 40,
   "componentType": 5123,
   "count": 531,
   "type": "SCALAR"
  },
  {
   "bufferView": 41,
   "componentType": 5123,
   "count": 360,
   "type": "SCALAR"
  },
  {
   "bufferView": 42,
   "componentType": 5123,
   "count": 372,
   "type": "SCALAR"
  },
  {
   "bufferView": 43,
   "componentType": 5123,
   "count": 315,
   "type": "SCALAR"
  },
  {
   "bufferView": 44,
   "componentType": 5123,
   "count": 6,
   "type": "SCALAR"
  },
  {
   "bufferView": 45,
   "componentType": 5126,
   "count": 8,
   "type": "SCALAR",
   "min": [
    0
   ],
   "max": [
    0.23333333333333334
   ]
  },
  {
   "bufferView": 46,
   "componentType": 5126,
   "count": 304,
   "type": "SCALAR"
  },
  {
   "bufferView": 47,
   "componentType": 5126,
   "count": 2,
   "type": "SCALAR",
   "min": [
    0
   ],
   "max": [
    0.03333333333333333
   ]
  },
  {
   "bufferView": 48,
   "componentType": 5126,
   "count": 76,
   "type": "SCALAR"
  },
  {
   "bufferView": 49,
   "componentType": 5126,
   "count": 20,
   "type": "SCALAR",
   "min": [
    0
   ],
   "max": [
    0.5757575757575758
   ]
  },
  {
   "bufferView": 50,
   "componentType": 5126,
   "count": 760,
   "type": "SCALAR"
  },
  {
   "bufferView": 51,
   "componentType": 5126,
   "count": 11,
   "type": "SCALAR",
   "min": [
    0
   ],
   "max": [
    0.3333333333333333
   ]
  },
  {
   "bufferView": 52,
   "componentType": 5126,
   "count": 418,
   "type": "SCALAR"
  }
 ],
 "bufferViews": [
  {
   "buffer": 0,
   "byteOffset": 0,
   "byteLength": 7620,
   "target": 34962
  },
  {
   "buffer": 0,
   "byteOffset": 7620,
   "byteLength": 5080,
   "target": 34962
  },
  {
   "buffer": 0,
   "byteOffset": 12700,
   "byteLength": 7620,
   "target": 34962
  },
  {
   "buffer": 0,
   "byteOffset": 20320,
   "byteLength": 7620,
   "target": 34962
  },
  {
   "buffer": 0,
   "byteOffset": 27940,
   "byteLength": 7620,
   "target": 34962
  },
  {
   "buffer": 0,
   "byteOffset": 35560,
   "byteLength": 7620,
   "target": 34962
  },
  {
   "buffer": 0,
   "byteOffset": 43180,
   "byteLength": 7620,
   "target": 34962
  },
  {
   "buffer": 0,
   "byteOffset": 50800,
   "byteLength": 7620,
   "target": 34962
  },
  {
   "buffer": 0,
   "byteOffset": 58420,
   "byteLength": 7620,
   "target": 34962
  },
  {
   "buffer": 0,
   "byteOffset": 66040,
   "byteLength": 7620,
   "target": 34962
  },
  {
   "buffer": 0,
   "byteOffset": 73660,
   "byteLength": 7620,
   "target": 34962
  },
  {
   "buffer": 0,
   "byteOffset": 81280,
   "byteLength": 7620,
   "target": 34962
  },
  {
   "buffer": 0,
   "byteOffset": 88900,
   "byteLength": 7620,
   "target": 34962
  },
  {
   "buffer": 0,
   "byteOffset": 96520,
   "byteLength": 7620,
   "target": 34962
  },
  {
   "buffer": 0,
   "byteOffset": 104140,
   "byteLength": 7620,
   "target": 34962
  },
  {
   "buffer": 0,
   "byteOffset": 111760,
   "byteLength": 7620,
   "target": 34962
  },
  {
   "buffer": 0,
   "byteOffset": 119380,
   "byteLength": 7620,
   "target": 34962
  },
  {
   "buffer": 0,
   "byteOffset": 127000,
   "byteLength": 7620,
   "target": 34962
  },
  {
   "buffer": 0,
   "byteOffset": 134620,
   "byteLength": 7620,
   "target": 34962
  },
  {
   "buffer": 0,
   "byteOffset": 142240,
   "byteLength": 7620,
   "target": 34962
  },
  {
   "buffer": 0,
   "byteOffset": 149860,
   "byteLength": 7620,
   "target": 34962
  },
  {
   "buffer": 0,
   "byteOffset": 157480,
   "byteLength": 7620,
   "target": 34962
  },
  {
   "buffer": 0,
   "byteOffset": 165100,
   "byteLength": 7620,
   "target": 34962
  },
  {
   "buffer": 0,
   "byteOffset": 172720,
   "byteLength": 7620,
   "target": 34962
  },
  {
   "buffer": 0,
   "byteOffset": 180340,
   "byteLength": 7620,
   "target": 34962
  },
  {
   "buffer": 0,
   "byteOffset": 187960,
   "byteLength": 7620,
   "target": 34962
  },
  {
   "buffer": 0,
   "byteOffset": 195580,
   "byteLength": 7620,
   "target": 34962
  },
  {
   "buffer": 0,
   "byteOffset": 203200,
   "byteLength": 7620,
   "target": 34962
  },
  {
   "buffer": 0,
   "byteOffset": 210820,
   "byteLength": 7620,
   "target": 34962
  },
  {
   "buffer": 0,
   "byteOffset": 218440,
   "byteLength": 7620,
   "target": 34962
  },
  {
   "buffer": 0,
   "byteOffset": 226060,
   "byteLength": 7620,
   "target": 34962
  },
  {
   "buffer": 0,
   "byteOffset": 233680,
   "byteLength": 7620,
   "target": 34962
  },
  {
   "buffer": 0,
   "byteOffset": 241300,
   "byteLength": 7620,
   "target": 34962
  },
  {
   "buffer": 0,
   "byteOffset": 248920,
   "byteLength": 7620,
   "target": 34962
  },
  {
   "buffer": 0,
   "byteOffset": 256540,
   "byteLength": 7620,
   "target": 34962
  },
  {
   "buffer": 0,
   "byteOffset": 264160,
   "byteLength": 7620,
   "target": 34962
  },
  {
   "buffer": 0,
   "byteOffset": 271780,
   "byteLength": 7620,
   "target": 34962
  },
  {
   "buffer": 0,
   "byteOffset": 279400,
   "byteLength": 7620,
   "target": 34962
  },
  {
   "buffer": 0,
   "byteOffset": 287020,
   "byteLength": 7620,
   "target": 34962
  },
  {
   "buffer": 0,
   "byteOffset": 294640,
   "byteLength": 7620,
   "target": 34962
  },
  {
   "buffer": 0,
   "byteOffset": 302260,
   "byteLength": 1062,
   "target": 34963
  },
  {
   "buffer": 0,
   "byteOffset": 303324,
   "byteLength": 720,
   "target": 34963
  },
  {
   "buffer": 0,
   "byteOffset": 304044,
   "byteLength": 744,
   "target": 34963
  },
  {
   "buffer": 0,
   "byteOffset": 304788,
   "byteLength": 630,
   "target": 34963
  },
  {
   "buffer": 0,
   "byteOffset": 305420,
   "byteLength": 12,
   "target": 34963
  },
  {
   "buffer": 0,
   "byteOffset": 305432,
   "byteLength": 32
  },
  {
   "buffer": 0,
   "byteOffset": 305464,
   "byteLength": 1216
  },
  {
   "buffer": 0,
   "byteOffset": 306680,
   "byteLength": 8
  },
  {
   "buffer": 0,
   "byteOffset": 306688,
   "byteLength": 304
  },
  {
   "buffer": 0,
   "byteOffset": 306992,
   "byteLength": 80
  },
  {
   "buffer": 0,
   "byteOffset": 307072,
   "byteLength": 3040
  },
  {
   "buffer": 0,
   "byteOffset": 310112,
   "byteLength": 44
  },
  {
   "buffer": 0,
   "byteOffset": 310156,
   "byteLength": 1672
  }
 ],
 "buffers": [
  {
   "uri": "rocket.bin",
   "byteLength": 311828
  }
 ],
 "animations": [
  {
   "name": "Fire1",
   "samplers": [
    {
     "input": 45,
     "output": 46,
     "interpolation": "LINEAR"
    }
   ],
   "channels": [
    {
     "sampler": 0,
     "target": {
      "node": 0,
      "path": "weights"
     }
    }
   ]
  },
  {
   "name": "Idle",
   "samplers": [
    {
     "input": 47,
     "output": 48,
     "interpolation": "LINEAR"
    }
   ],
   "channels": [
    {
     "sampler": 0,
     "target": {
      "node": 0,
      "path": "weights"
     }
    }
   ]
  },
  {
   "name": "Select",
   "samplers": [
    {
     "input": 49,
     "output": 50,
     "interpolation": "LINEAR"
    }
   ],
   "channels": [
    {
     "sampler": 0,
     "target": {
      "node": 0,
      "path": "weights"
     }
    }
   ]
  },
  {
   "name": "Down",
   "samplers": [
    {
     "input": 51,
     "output": 52,
     "interpolation": "LINEAR"
    }
   ],
   "channels": [
    {
     "sampler": 0,
     "target": {
      "node": 0,
      "path": "weights"
     }
    }
   ]
  }
 ]
}
