{"asset":{"version":"2.0","generator":"facingworlds ut99 extractor"},"scene":0,"scenes":[{"nodes":[0]}],"nodes":[{"mesh":0,"name":"FCommando"}],"meshes":[{"name":"FCommando","primitives":[{"attributes":{"POSITION":0,"TEXCOORD_0":1},"indices":2,"material":0,"targets":[{"POSITION":3},{"POSITION":4},{"POSITION":5},{"POSITION":6},{"POSITION":7},{"POSITION":8},{"POSITION":9},{"POSITION":10},{"POSITION":11},{"POSITION":12},{"POSITION":13},{"POSITION":14},{"POSITION":15},{"POSITION":16},{"POSITION":17},{"POSITION":18},{"POSITION":19},{"POSITION":20},{"POSITION":21},{"POSITION":22},{"POSITION":23},{"POSITION":24},{"POSITION":25},{"POSITION":26},{"POSITION":27},{"POSITION":28},{"POSITION":29},{"POSITION":30},{"POSITION":31},{"POSITION":32},{"POSITION":33},{"POSITION":34},{"POSITION":35},{"POSITION":36},{"POSITION":37}]},{"attributes":{"POSITION":38,"TEXCOORD_0":39},"indices":40,"material":1,"targets":[{"POSITION":41},{"POSITION":42},{"POSITION":43},{"POSITION":44},{"POSITION":45},{"POSITION":46},{"POSITION":47},{"POSITION":48},{"POSITION":49},{"POSITION":50},{"POSITION":51},{"POSITION":52},{"POSITION":53},{"POSITION":54},{"POSITION":55},{"POSITION":56},{"POSITION":57},{"POSITION":58},{"POSITION":59},{"POSITION":60},{"POSITION":61},{"POSITION":62},{"POSITION":63},{"POSITION":64},{"POSITION":65},{"POSITION":66},{"POSITION":67},{"POSITION":68},{"POSITION":69},{"POSITION":70},{"POSITION":71},{"POSITION":72},{"POSITION":73},{"POSITION":74},{"POSITION":75}]},{"attributes":{"POSITION":76,"TEXCOORD_0":77},"indices":78,"material":2,"targets":[{"POSITION":79},{"POSITION":80},{"POSITION":81},{"POSITION":82},{"POSITION":83},{"POSITION":84},{"POSITION":85},{"POSITION":86},{"POSITION":87},{"POSITION":88},{"POSITION":89},{"POSITION":90},{"POSITION":91},{"POSITION":92},{"POSITION":93},{"POSITION":94},{"POSITION":95},{"POSITION":96},{"POSITION":97},{"POSITION":98},{"POSITION":99},{"POSITION":100},{"POSITION":101},{"POSITION":102},{"POSITION":103},{"POSITION":104},{"POSITION":105},{"POSITION":106},{"POSITION":107},{"POSITION":108},{"POSITION":109},{"POSITION":110},{"POSITION":111},{"POSITION":112},{"POSITION":113}]}],"weights":[0,0,0,0,0,0,0,0,0,0,0,0,0,0,0,0,0,0,0,0,0,0,0,0,0,0,0,0,0,0,0,0,0,0,0]}],"materials":[{"name":"slot0","pbrMetallicRoughness":{"baseColorTexture":{"index":0},"metallicFactor":0,"roughnessFactor":1}},{"name":"slot1","pbrMetallicRoughness":{"baseColorTexture":{"index":1},"metallicFactor":0,"roughnessFactor":1}},{"name":"slot2","pbrMetallicRoughness":{"baseColorTexture":{"index":2},"metallicFactor":0,"roughnessFactor":1}}],"images":[{"uri":"jayce/s0.png"},{"uri":"jayce/s1.png"},{"uri":"jayce/s2.png"}],"samplers":[{"magFilter":9729,"minFilter":9987,"wrapS":10497,"wrapT":10497}],"textures":[{"source":0,"sampler":0},{"source":1,"sampler":0},{"source":2,"sampler":0}],"accessors":[{"bufferView":0,"componentType":5126,"count":128,"type":"VEC3","min":[-0.3200786516853933,1.0486516853932584,-0.22755056179775282],"max":[0.26387640449438204,1.83,0.29060674157303373]},{"bufferView":1,"componentType":5126,"count":128,"type":"VEC2"},{"bufferView":2,"componentType":5123,"count":459,"type":"SCALAR"},{"bufferView":3,"componentType":5126,"count":128,"type":"VEC3","min":[0,0,0],"max":[0,0,0]},{"bufferView":4,"componentType":5126,"count":128,"type":"VEC3","min":[-0.002741573033707867,-0.028786516853932742,-0.10966292134831462],"max":[0.005483146067415727,0.0013707865168539612,-0.04934831460674158]},{"bufferView":5,"componentType":5126,"count":128,"type":"VEC3","min":[-0.034269662921348316,0.004112359550561662,-0.1973932584269663],"max":[0.002741573033707867,0.07539325842696631,-0.08498876404494382]},{"bufferView":6,"componentType":5126,"count":128,"type":"VEC3","min":[-0.04249438202247191,0.004112359550561662,-0.22480898876404493],"max":[0.002741573033707867,0.09595505617977529,-0.08498876404494382]},{"bufferView":7,"componentType":5126,"count":128,"type":"VEC3","min":[-0.03975280898876404,0.005483146067415623,-0.20287640449438205],"max":[0.002741573033707867,0.0891011235955057,-0.07402247191011237]},{"bufferView":8,"componentType":5126,"count":128,"type":"VEC3","min":[-0.03426966292134832,0.004112359550561662,-0.17546067415730338],"max":[0.002741573033707867,0.07813483146067424,-0.0630561797752809]},{"bufferView":9,"componentType":5126,"count":128,"type":"VEC3","min":[-0.027415730337078652,0.004112359550561662,-0.13982022471910113],"max":[0.002741573033707867,0.06305617977528089,-0.04934831460674158]},{"bufferView":10,"componentType":5126,"count":128,"type":"VEC3","min":[-0.02056179775280899,0.0027415730337079225,-0.09869662921348314],"max":[0.0013707865168539335,0.04523595505617983,-0.03564044943820224]},{"bufferView":11,"componentType":5126,"count":128,"type":"VEC3","min":[-0.012337078651685398,0.0013707865168539612,-0.0630561797752809],"max":[0.0013707865168539335,0.028786516853932742,-0.021932584269662922]},{"bufferView":12,"componentType":5126,"count":128,"type":"VEC3","min":[-0.005483146067415734,0,-0.030157303370786516],"max":[0.0013707865168539335,0.01233707865168543,-0.008224719101123587]},{"bufferView":13,"componentType":5126,"count":128,"type":"VEC3","min":[-0.04112359550561798,0.061685393258426924,-0.04660674157303371],"max":[0.05483146067415731,0.10829213483146072,0.05208988764044944]},{"bufferView":14,"componentType":5126,"count":128,"type":"VEC3","min":[-0.06853932584269665,0.04249438202247191,-0.06031460674157303],"max":[0.061685393258426965,0.09595505617977529,0.07128089887640449]},{"bufferView":15,"componentType":5126,"count":128,"type":"VEC3","min":[-0.10417977528089889,0.017820224719101052,-0.08224719101123595],"max":[0.06853932584269663,0.08087640449438194,0.09321348314606742]},{"bufferView":16,"componentType":5126,"count":128,"type":"VEC3","min":[-0.12474157303370786,-0.0013707865168539612,-0.09321348314606741],"max":[0.06991011235955055,0.06716853932584277,0.10692134831460676]},{"bufferView":17,"componentType":5126,"count":128,"type":"VEC3","min":[-0.13296629213483147,-0.019191011235955013,-0.09321348314606741],"max":[0.0671685393258427,0.050719101123595456,0.11240449438202246]},{"bufferView":18,"componentType":5126,"count":128,"type":"VEC3","min":[-0.13570786516853933,-0.021932584269662936,-0.09047191011235955],"max":[0.05620224719101124,0.04523595505617983,0.1096629213483146]},{"bufferView":19,"componentType":5126,"count":128,"type":"VEC3","min":[-0.13159550561797753,0.008224719101123545,-0.07402247191011235],"max":[0.028786516853932582,0.06716853932584277,0.09047191011235955]},{"bufferView":20,"componentType":5126,"count":128,"type":"VEC3","min":[-0.12062921348314606,0.050719101123595456,-0.0548314606741573],"max":[-0.002741573033707867,0.10006741573033717,0.06305617977528091]},{"bufferView":21,"componentType":5126,"count":128,"type":"VEC3","min":[-0.09732584269662922,0.06442696629213485,-0.038382022471910124],"max":[-0.019191011235955055,0.10692134831460676,0.04112359550561798]},{"bufferView":22,"componentType":5126,"count":128,"type":"VEC3","min":[-0.06442696629213485,0.05208988764044942,-0.021932584269662936],"max":[-0.021932584269662922,0.09321348314606737,0.02467415730337079]},{"bufferView":23,"componentType":5126,"count":128,"type":"VEC3","min":[-0.056202247191011245,0.03152808988764044,-0.010966292134831468],"max":[-0.01644943820224719,0.07539325842696631,0.021932584269662922]},{"bufferView":24,"componentType":5126,"count":128,"type":"VEC3","min":[-0.05346067415730338,0.01370786516853939,-0.008224719101123601],"max":[-0.0054831460674157305,0.060314606741573185,0.021932584269662922]},{"bufferView":25,"componentType":5126,"count":128,"type":"VEC3","min":[-0.04660674157303371,-0.0013707865168539612,-0.010966292134831461],"max":[0.0013707865168539326,0.04386516853932587,0.021932584269662922]},{"bufferView":26,"componentType":5126,"count":128,"type":"VEC3","min":[-0.03152808988764047,0.006853932584269584,-0.016449438202247202],"max":[0.006853932584269663,0.047977528089887755,0.019191011235955055]},{"bufferView":27,"componentType":5126,"count":128,"type":"VEC3","min":[-0.02878651685393259,0.03975280898876399,-0.030157303370786537],"max":[0.031528089887640456,0.0795056179775282,0.03289887640449438]},{"bufferView":28,"componentType":5126,"count":128,"type":"VEC3","min":[-0.03564044943820224,0.20835955056179767,-0.04934831460674158],"max":[0.03838202247191011,0.2892359550561798,0.005483146067415734]},{"bufferView":29,"componentType":5126,"count":128,"type":"VEC3","min":[-0.08773033707865169,0.14393258426966304,-0.03289887640449439],"max":[0.009595505617977534,0.2344044943820225,0.024674157303370803]},{"bufferView":30,"componentType":5126,"count":128,"type":"VEC3","min":[-0.1466741573033708,0.06305617977528089,-0.008224719101123601],"max":[-0.01919101123595504,0.16860674157303368,0.06031460674157303]},{"bufferView":31,"componentType":5126,"count":128,"type":"VEC3","min":[-0.15764044943820227,0.06579775280898881,-0.005483146067415734],"max":[-0.03564044943820224,0.16586516853932598,0.0712808988764045]},{"bufferView":32,"componentType":5126,"count":128,"type":"VEC3","min":[-0.12611235955056183,0.14941573033707867,-0.02467415730337079],"max":[-0.04660674157303371,0.23029213483146083,0.03838202247191011]},{"bufferView":33,"componentType":5126,"count":128,"type":"VEC3","min":[-0.08635955056179775,0.20013483146067412,-0.03289887640449439],"max":[-0.037011235955056176,0.2700449438202248,0.019191011235955055]},{"bufferView":34,"componentType":5126,"count":128,"type":"VEC3","min":[-0.06031460674157304,0.14667415730337074,-0.013707865168539335],"max":[0.0013707865168539335,0.22892134831460664,0.03838202247191011]},{"bufferView":35,"componentType":5126,"count":128,"type":"VEC3","min":[-0.03975280898876405,0.06305617977528089,0.00548314606741572],"max":[0.04523595505617978,0.16586516853932576,0.0712808988764045]},{"bufferView":36,"componentType":5126,"count":128,"type":"VEC3","min":[-0.028786516853932582,0.06442696629213485,0.002741573033707853],"max":[0.061685393258426965,0.16723595505617972,0.06031460674157303]},{"bufferView":37,"componentType":5126,"count":128,"type":"VEC3","min":[-0.02741573033707865,0.14393258426966282,-0.02467415730337079],"max":[0.05208988764044944,0.23303370786516853,0.027415730337078656]},{"bufferView":38,"componentType":5126,"count":188,"type":"VEC3","min":[-0.3132247191011236,0,-0.5099325842696629],"max":[0.3200786516853933,1.1158202247191011,0.47155056179775284]},{"bufferView":39,"componentType":5126,"count":188,"type":"VEC2"},{"bufferView":40,"componentType":5123,"count":777,"type":"SCALAR"},{"bufferView":41,"componentType":5126,"count":188,"type":"VEC3","min":[0,0,0],"max":[0,0,0]},{"bufferView":42,"componentType":5126,"count":188,"type":"VEC3","min":[-0.0027415730337078392,-0.005483146067415734,-0.06031460674157303],"max":[0.006853932584269695,0.01233707865168543,0.002741573033707867]},{"bufferView":43,"componentType":5126,"count":188,"type":"VEC3","min":[-0.01096629213483144,-0.0041123595505618005,-0.09321348314606742],"max":[0.002741573033707867,0.03838202247191014,0.005483146067415734]},{"bufferView":44,"componentType":5126,"count":188,"type":"VEC3","min":[-0.012337078651685401,-0.0041123595505618005,-0.09595505617977529],"max":[0.002741573033707867,0.046606741573033794,0.005483146067415734]},{"bufferView":45,"componentType":5126,"count":188,"type":"VEC3","min":[-0.012337078651685374,-0.0041123595505618005,-0.08773033707865169],"max":[0.002741573033707867,0.04386516853932587,0.005483146067415734]},{"bufferView":46,"componentType":5126,"count":188,"type":"VEC3","min":[-0.009595505617977534,-0.002741573033707867,-0.07402247191011235],"max":[0.002741573033707867,0.03701123595505629,0.002741573033707867]},{"bufferView":47,"componentType":5126,"count":188,"type":"VEC3","min":[-0.008224719101123573,-0.0013707865168539335,-0.05757303370786518],"max":[0.002741573033707867,0.030157303370786703,0.002741573033707867]},{"bufferView":48,"componentType":5126,"count":188,"type":"VEC3","min":[-0.005483146067415734,-0.0013707865168539335,-0.043865168539325844],"max":[0.0013707865168539335,0.021932584269662936,0.002741573033707867]},{"bufferView":49,"componentType":5126,"count":188,"type":"VEC3","min":[-0.002741573033707867,0,-0.027415730337078656],"max":[0.0013707865168539335,0.01370786516853939,0.002741573033707867]},{"bufferView":50,"componentType":5126,"count":188,"type":"VEC3","min":[-0.0013707865168539612,0.0013707865168538502,-0.013707865168539321],"max":[0.0013707865168539612,0.006853932584269806,0.002741573033707867]},{"bufferView":51,"componentType":5126,"count":188,"type":"VEC3","min":[-0.25359550561797756,-0.01507865168539324,-0.5044494382022472],"max":[0.1480449438202247,0.2947191011235955,0.38382022471910116]},{"bufferView":52,"componentType":5126,"count":188,"type":"VEC3","min":[-0.25359550561797756,-0.01096629213483144,-0.2385168539325843],"max":[0.1480449438202247,0.1727191011235955,0.29608988764044947]},{"bufferView":53,"componentType":5126,"count":188,"type":"VEC3","min":[-0.25359550561797756,-0.0068539325842696674,-0.0630561797752809],"max":[0.1480449438202247,0.11103370786516853,0.21110112359550565]},{"bufferView":54,"componentType":5126,"count":188,"type":"VEC3","min":[-0.24125842696629216,0,-0.0630561797752809],"max":[0.14530337078651684,0.09458426966292136,0.13982022471910113]},{"bufferView":55,"componentType":5126,"count":188,"type":"VEC3","min":[-0.21932584269662922,-0.017820224719101163,-0.10417977528089889],"max":[0.1398202247191011,0.1768314606741573,0.0822471910112359]},{"bufferView":56,"componentType":5126,"count":188,"type":"VEC3","min":[-0.20287640449438205,-0.04249438202247191,-0.34269662921348315],"max":[0.13296629213483144,0.326247191011236,0.04112359550561798]},{"bufferView":57,"componentType":5126,"count":188,"type":"VEC3","min":[-0.20287640449438205,-0.019191011235955124,-0.14530337078651687],"max":[0.13433707865168537,0.30842696629213484,0.16723595505617977]},{"bufferView":58,"componentType":5126,"count":188,"type":"VEC3","min":[-0.20287640449438205,-0.04660674157303368,-0.27415730337078653],"max":[0.13433707865168537,0.2864943820224719,0.27964044943820227]},{"bufferView":59,"componentType":5126,"count":188,"type":"VEC3","min":[-0.20287640449438205,-0.07813483146067413,-0.3810786516853933],"max":[0.13433707865168537,0.2768988764044944,0.4112359550561798]},{"bufferView":60,"componentType":5126,"count":188,"type":"VEC3","min":[-0.20150561797752808,-0.11377528089887634,-0.46332584269662924],"max":[0.13433707865168537,0.30294382022471905,0.6031460674157304]},{"bufferView":61,"componentType":5126,"count":188,"type":"VEC3","min":[-0.20150561797752808,-0.15078651685393257,-0.5510561797752809],"max":[0.13433707865168537,0.3111685393258427,0.8252134831460675]},{"bufferView":62,"componentType":5126,"count":188,"type":"VEC3","min":[-0.22343820224719102,-0.19191011235955052,-0.69361797752809],"max":[0.13707865168539324,0.28375280898876404,0.7786067415730337]},{"bufferView":63,"componentType":5126,"count":188,"type":"VEC3","min":[-0.2426292134831461,-0.2289213483146067,-0.8855280898876405],"max":[0.1439325842696629,0.2686741573033708,0.7292584269662922]},{"bufferView":64,"componentType":5126,"count":188,"type":"VEC3","min":[-0.2522247191011236,-0.21795505617977523,-0.9047191011235955],"max":[0.14941573033707864,0.3372134831460674,0.6387865168539326]},{"bufferView":65,"componentType":5126,"count":188,"type":"VEC3","min":[-0.25359550561797756,-0.12062921348314604,-0.7045842696629214],"max":[0.14941573033707864,0.31802247191011235,0.5099325842696629]},{"bufferView":66,"componentType":5126,"count":188,"type":"VEC3","min":[-0.2522247191011236,-0.0013707865168539335,-0.40575280898876404],"max":[0.1439325842696629,0.5222696629213484,0.07128089887640451]},{"bufferView":67,"componentType":5126,"count":188,"type":"VEC3","min":[-0.2563370786516854,0.08361797752808992,-0.5675056179775282],"max":[0.1398202247191011,0.5510561797752809,0.05757303370786515]},{"bufferView":68,"componentType":5126,"count":188,"type":"VEC3","min":[-0.2604494382022472,0.024674157303370747,-0.710067415730337],"max":[0.13707865168539324,0.7964269662921348,0.10417977528089889]},{"bufferView":69,"componentType":5126,"count":188,"type":"VEC3","min":[-0.25770786516853933,0.004112359550561799,-0.5729887640449438],"max":[0.1357078651685393,0.8444044943820225,0.09595505617977529]},{"bufferView":70,"componentType":5126,"count":188,"type":"VEC3","min":[-0.2481123595505618,-0.008224719101123545,-0.4770337078651686],"max":[0.1357078651685393,0.6812808988764045,0.3646292134831461]},{"bufferView":71,"componentType":5126,"count":188,"type":"VEC3","min":[-0.2344044943820225,-0.0068539325842696605,-1.0527640449438203],"max":[0.1357078651685393,0.5510561797752809,0.5373483146067416]},{"bufferView":72,"componentType":5126,"count":188,"type":"VEC3","min":[-0.2385168539325843,-0.10143820224719102,-1.2035505617977529],"max":[0.15078651685393257,0.570247191011236,0.6387865168539326]},{"bufferView":73,"componentType":5126,"count":188,"type":"VEC3","min":[-0.24674157303370786,-0.16997752808988764,-1.343370786516854],"max":[0.16997752808988764,0.81561797752809,0.7648988764044944]},{"bufferView":74,"componentType":5126,"count":188,"type":"VEC3","min":[-0.2522247191011236,-0.16997752808988764,-1.2090337078651685],"max":[0.17683146067415728,0.8635955056179776,0.6470112359550562]},{"bufferView":75,"componentType":5126,"count":188,"type":"VEC3","min":[-0.25359550561797756,0.0068539325842696605,-0.7868314606741573],"max":[0.15489887640449437,0.7004719101123597,0.2686741573033708]},{"bufferView":76,"componentType":5126,"count":191,"type":"VEC3","min":[-0.2337191011235955,1.119932584269663,-0.26319101123595506],"max":[0.2625056179775281,1.7491235955056181,0.5099325842696629]},{"bufferView":77,"componentType":5126,"count":191,"type":"VEC2"},{"bufferView":78,"componentType":5123,"count":786,"type":"SCALAR"},{"bufferView":79,"componentType":5126,"count":191,"type":"VEC3","min":[0,0,0],"max":[0,0,0]},{"bufferView":80,"componentType":5126,"count":191,"type":"VEC3","min":[-0.0013707865168539335,-0.03701123595505629,-0.11788764044943822],"max":[0.008224719101123597,0.005483146067415623,-0.03564044943820224]},{"bufferView":81,"componentType":5126,"count":191,"type":"VEC3","min":[-0.07950561797752809,-0.08224719101123612,-0.19465168539325842],"max":[0.005483146067415706,0.24674157303370792,-0.03838202247191011]},{"bufferView":82,"componentType":5126,"count":191,"type":"VEC3","min":[-0.10829213483146068,-0.08635955056179778,-0.21384269662921349],"max":[0.008224719101123573,0.31528089887640465,0.002741573033707867]},{"bufferView":83,"componentType":5126,"count":191,"type":"VEC3","min":[-0.09869662921348313,-0.08361797752808986,-0.19465168539325842],"max":[0.00685393258426964,0.2933483146067417,0.008224719101123601]},{"bufferView":84,"componentType":5126,"count":191,"type":"VEC3","min":[-0.08087640449438202,-0.07813483146067424,-0.1644943820224719],"max":[0.005483146067415706,0.25496629213483146,0.008224719101123601]},{"bufferView":85,"componentType":5126,"count":191,"type":"VEC3","min":[-0.06031460674157302,-0.06853932584269673,-0.13159550561797753],"max":[0.004112359550561773,0.204247191011236,0.005483146067415734]},{"bufferView":86,"componentType":5126,"count":191,"type":"VEC3","min":[-0.04112359550561798,-0.05483146067415734,-0.09595505617977529],"max":[0.002741573033707867,0.14667415730337074,0.002741573033707867]},{"bufferView":87,"componentType":5126,"count":191,"type":"VEC3","min":[-0.021932584269662908,-0.035640449438202326,-0.05757303370786518],"max":[0.0013707865168539335,0.0891011235955057,0]},{"bufferView":88,"componentType":5126,"count":191,"type":"VEC3","min":[-0.008224719101123601,-0.016449438202247313,-0.02741573033707867],"max":[0.0013707865168539335,0.03838202247191025,0]},{"bufferView":89,"componentType":5126,"count":191,"type":"VEC3","min":[-0.06716853932584269,0.019191011235955013,-0.1096629213483146],"max":[0.05483146067415731,0.1124044943820226,0.05757303370786518]},{"bufferView":90,"componentType":5126,"count":191,"type":"VEC3","min":[-0.07265168539325842,0.0013707865168539612,-0.09595505617977526],"max":[0.047977528089887644,0.1124044943820226,0.07128089887640449]},{"bufferView":91,"componentType":5126,"count":191,"type":"VEC3","min":[-0.08498876404494382,-0.023303370786516675,-0.08498876404494382],"max":[0.04112359550561799,0.11103370786516864,0.09047191011235961]},{"bufferView":92,"componentType":5126,"count":191,"type":"VEC3","min":[-0.09869662921348313,-0.04249438202247191,-0.0877303370786517],"max":[0.03564044943820224,0.10143820224719113,0.10143820224719108]},{"bufferView":93,"componentType":5126,"count":191,"type":"VEC3","min":[-0.1096629213483146,-0.06031460674157296,-0.09047191011235957],"max":[0.030157303370786516,0.08498876404494382,0.10417977528089889]},{"bufferView":94,"componentType":5126,"count":191,"type":"VEC3","min":[-0.1178876404494382,-0.06305617977528089,-0.0877303370786517],"max":[0.021932584269662922,0.07676404494382028,0.10143820224719108]},{"bufferView":95,"componentType":5126,"count":191,"type":"VEC3","min":[-0.13296629213483147,-0.03289887640449418,-0.09047191011235955],"max":[0.0013707865168539335,0.0918426966292134,0.09047191011235961]},{"bufferView":96,"componentType":5126,"count":191,"type":"VEC3","min":[-0.14941573033707867,0.008224719101123767,-0.10692134831460673],"max":[-0.012337078651685374,0.10966292134831468,0.07402247191011235]},{"bufferView":97,"componentType":5126,"count":191,"type":"VEC3","min":[-0.14256179775280897,0.021932584269662936,-0.10692134831460673],"max":[-0.01507865168539324,0.10692134831460676,0.060314606741573074]},{"bufferView":98,"componentType":5126,"count":191,"type":"VEC3","min":[-0.10555056179775281,0.008224719101123545,-0.08773033707865169],"max":[-0.0041123595505618005,0.09184269662921363,0.05208988764044947]},{"bufferView":99,"componentType":5126,"count":191,"type":"VEC3","min":[-0.06991011235955055,-0.008224719101123545,-0.07128089887640449],"max":[0.010966292134831468,0.07402247191011235,0.04660674157303374]},{"bufferView":100,"componentType":5126,"count":191,"type":"VEC3","min":[-0.05483146067415731,-0.02741573033707856,-0.06579775280898875],"max":[0.020561797752809002,0.0562022471910113,0.04386516853932587]},{"bufferView":101,"componentType":5126,"count":191,"type":"VEC3","min":[-0.04934831460674158,-0.04112359550561795,-0.06579775280898875],"max":[0.02741573033707867,0.03975280898876399,0.041123595505618005]},{"bufferView":102,"componentType":5126,"count":191,"type":"VEC3","min":[-0.047977528089887644,-0.032898876404494404,-0.07676404494382022],"max":[0.03564044943820224,0.047977528089887755,0.04386516853932587]},{"bufferView":103,"componentType":5126,"count":191,"type":"VEC3","min":[-0.058943820224719085,-0.004112359550561884,-0.09595505617977526],"max":[0.04523595505617978,0.0795056179775282,0.049348314606741606]},{"bufferView":104,"componentType":5126,"count":191,"type":"VEC3","min":[-0.0630561797752809,0.09047191011235967,-0.09047191011235955],"max":[0.0877303370786517,0.2864943820224719,0.11240449438202249]},{"bufferView":105,"componentType":5126,"count":191,"type":"VEC3","min":[-0.09458426966292136,0.03975280898876421,-0.07128089887640449],"max":[0.052089887640449445,0.2371460674157304,0.12611235955056177]},{"bufferView":106,"componentType":5126,"count":191,"type":"VEC3","min":[-0.13433707865168543,-0.023303370786516897,-0.04934831460674155],"max":[0.010966292134831468,0.17683146067415723,0.1453033707865169]},{"bufferView":107,"componentType":5126,"count":191,"type":"VEC3","min":[-0.1507865168539326,-0.026044943820224598,-0.04934831460674155],"max":[-0.0068539325842696674,0.17408988764044953,0.1480449438202247]},{"bufferView":108,"componentType":5126,"count":191,"type":"VEC3","min":[-0.14530337078651687,0.03152808988764044,-0.06579775280898875],"max":[-0.008224719101123601,0.2302921348314606,0.1315955056179775]},{"bufferView":109,"componentType":5126,"count":191,"type":"VEC3","min":[-0.12885393258426966,0.06853932584269673,-0.07950561797752809],"max":[0.0068539325842696674,0.2673033707865169,0.12337078651685396]},{"bufferView":110,"componentType":5126,"count":191,"type":"VEC3","min":[-0.09595505617977529,0.03975280898876399,-0.06579775280898875],"max":[0.04934831460674158,0.23577528089887645,0.13433707865168543]},{"bufferView":111,"componentType":5126,"count":191,"type":"VEC3","min":[-0.07813483146067417,-0.01644943820224709,-0.04660674157303368],"max":[0.09732584269662922,0.18368539325842703,0.15352808988764044]},{"bufferView":112,"componentType":5126,"count":191,"type":"VEC3","min":[-0.06579775280898877,-0.013707865168539168,-0.04934831460674155],"max":[0.11240449438202249,0.18642696629213495,0.15078651685393252]},{"bufferView":113,"componentType":5126,"count":191,"type":"VEC3","min":[-0.06031460674157303,0.04386516853932587,-0.07128089887640449],"max":[0.10143820224719102,0.24125842696629207,0.1288539325842697]},{"bufferView":114,"componentType":5126,"count":11,"type":"SCALAR","min":[0],"max":[0.6666666666666666]},{"bufferView":115,"componentType":5126,"count":385,"type":"SCALAR"},{"bufferView":116,"componentType":5126,"count":16,"type":"SCALAR","min":[0],"max":[0.8333333333333333]},{"bufferView":117,"componentType":5126,"count":560,"type":"SCALAR"},{"bufferView":118,"componentType":5126,"count":11,"type":"SCALAR","min":[0],"max":[0.5882352941176471]},{"bufferView":119,"componentType":5126,"count":385,"type":"SCALAR"}],"bufferViews":[{"buffer":0,"byteOffset":0,"byteLength":1536,"target":34962},{"buffer":0,"byteOffset":1536,"byteLength":1024,"target":34962},{"buffer":0,"byteOffset":2560,"byteLength":918,"target":34963},{"buffer":0,"byteOffset":3480,"byteLength":1536,"target":34962},{"buffer":0,"byteOffset":5016,"byteLength":1536,"target":34962},{"buffer":0,"byteOffset":6552,"byteLength":1536,"target":34962},{"buffer":0,"byteOffset":8088,"byteLength":1536,"target":34962},{"buffer":0,"byteOffset":9624,"byteLength":1536,"target":34962},{"buffer":0,"byteOffset":11160,"byteLength":1536,"target":34962},{"buffer":0,"byteOffset":12696,"byteLength":1536,"target":34962},{"buffer":0,"byteOffset":14232,"byteLength":1536,"target":34962},{"buffer":0,"byteOffset":15768,"byteLength":1536,"target":34962},{"buffer":0,"byteOffset":17304,"byteLength":1536,"target":34962},{"buffer":0,"byteOffset":18840,"byteLength":1536,"target":34962},{"buffer":0,"byteOffset":20376,"byteLength":1536,"target":34962},{"buffer":0,"byteOffset":21912,"byteLength":1536,"target":34962},{"buffer":0,"byteOffset":23448,"byteLength":1536,"target":34962},{"buffer":0,"byteOffset":24984,"byteLength":1536,"target":34962},{"buffer":0,"byteOffset":26520,"byteLength":1536,"target":34962},{"buffer":0,"byteOffset":28056,"byteLength":1536,"target":34962},{"buffer":0,"byteOffset":29592,"byteLength":1536,"target":34962},{"buffer":0,"byteOffset":31128,"byteLength":1536,"target":34962},{"buffer":0,"byteOffset":32664,"byteLength":1536,"target":34962},{"buffer":0,"byteOffset":34200,"byteLength":1536,"target":34962},{"buffer":0,"byteOffset":35736,"byteLength":1536,"target":34962},{"buffer":0,"byteOffset":37272,"byteLength":1536,"target":34962},{"buffer":0,"byteOffset":38808,"byteLength":1536,"target":34962},{"buffer":0,"byteOffset":40344,"byteLength":1536,"target":34962},{"buffer":0,"byteOffset":41880,"byteLength":1536,"target":34962},{"buffer":0,"byteOffset":43416,"byteLength":1536,"target":34962},{"buffer":0,"byteOffset":44952,"byteLength":1536,"target":34962},{"buffer":0,"byteOffset":46488,"byteLength":1536,"target":34962},{"buffer":0,"byteOffset":48024,"byteLength":1536,"target":34962},{"buffer":0,"byteOffset":49560,"byteLength":1536,"target":34962},{"buffer":0,"byteOffset":51096,"byteLength":1536,"target":34962},{"buffer":0,"byteOffset":52632,"byteLength":1536,"target":34962},{"buffer":0,"byteOffset":54168,"byteLength":1536,"target":34962},{"buffer":0,"byteOffset":55704,"byteLength":1536,"target":34962},{"buffer":0,"byteOffset":57240,"byteLength":2256,"target":34962},{"buffer":0,"byteOffset":59496,"byteLength":1504,"target":34962},{"buffer":0,"byteOffset":61000,"byteLength":1554,"target":34963},{"buffer":0,"byteOffset":62556,"byteLength":2256,"target":34962},{"buffer":0,"byteOffset":64812,"byteLength":2256,"target":34962},{"buffer":0,"byteOffset":67068,"byteLength":2256,"target":34962},{"buffer":0,"byteOffset":69324,"byteLength":2256,"target":34962},{"buffer":0,"byteOffset":71580,"byteLength":2256,"target":34962},{"buffer":0,"byteOffset":73836,"byteLength":2256,"target":34962},{"buffer":0,"byteOffset":76092,"byteLength":2256,"target":34962},{"buffer":0,"byteOffset":78348,"byteLength":2256,"target":34962},{"buffer":0,"byteOffset":80604,"byteLength":2256,"target":34962},{"buffer":0,"byteOffset":82860,"byteLength":2256,"target":34962},{"buffer":0,"byteOffset":85116,"byteLength":2256,"target":34962},{"buffer":0,"byteOffset":87372,"byteLength":2256,"target":34962},{"buffer":0,"byteOffset":89628,"byteLength":2256,"target":34962},{"buffer":0,"byteOffset":91884,"byteLength":2256,"target":34962},{"buffer":0,"byteOffset":94140,"byteLength":2256,"target":34962},{"buffer":0,"byteOffset":96396,"byteLength":2256,"target":34962},{"buffer":0,"byteOffset":98652,"byteLength":2256,"target":34962},{"buffer":0,"byteOffset":100908,"byteLength":2256,"target":34962},{"buffer":0,"byteOffset":103164,"byteLength":2256,"target":34962},{"buffer":0,"byteOffset":105420,"byteLength":2256,"target":34962},{"buffer":0,"byteOffset":107676,"byteLength":2256,"target":34962},{"buffer":0,"byteOffset":109932,"byteLength":2256,"target":34962},{"buffer":0,"byteOffset":112188,"byteLength":2256,"target":34962},{"buffer":0,"byteOffset":114444,"byteLength":2256,"target":34962},{"buffer":0,"byteOffset":116700,"byteLength":2256,"target":34962},{"buffer":0,"byteOffset":118956,"byteLength":2256,"target":34962},{"buffer":0,"byteOffset":121212,"byteLength":2256,"target":34962},{"buffer":0,"byteOffset":123468,"byteLength":2256,"target":34962},{"buffer":0,"byteOffset":125724,"byteLength":2256,"target":34962},{"buffer":0,"byteOffset":127980,"byteLength":2256,"target":34962},{"buffer":0,"byteOffset":130236,"byteLength":2256,"target":34962},{"buffer":0,"byteOffset":132492,"byteLength":2256,"target":34962},{"buffer":0,"byteOffset":134748,"byteLength":2256,"target":34962},{"buffer":0,"byteOffset":137004,"byteLength":2256,"target":34962},{"buffer":0,"byteOffset":139260,"byteLength":2256,"target":34962},{"buffer":0,"byteOffset":141516,"byteLength":2292,"target":34962},{"buffer":0,"byteOffset":143808,"byteLength":1528,"target":34962},{"buffer":0,"byteOffset":145336,"byteLength":1572,"target":34963},{"buffer":0,"byteOffset":146908,"byteLength":2292,"target":34962},{"buffer":0,"byteOffset":149200,"byteLength":2292,"target":34962},{"buffer":0,"byteOffset":151492,"byteLength":2292,"target":34962},{"buffer":0,"byteOffset":153784,"byteLength":2292,"target":34962},{"buffer":0,"byteOffset":156076,"byteLength":2292,"target":34962},{"buffer":0,"byteOffset":158368,"byteLength":2292,"target":34962},{"buffer":0,"byteOffset":160660,"byteLength":2292,"target":34962},{"buffer":0,"byteOffset":162952,"byteLength":2292,"target":34962},{"buffer":0,"byteOffset":165244,"byteLength":2292,"target":34962},{"buffer":0,"byteOffset":167536,"byteLength":2292,"target":34962},{"buffer":0,"byteOffset":169828,"byteLength":2292,"target":34962},{"buffer":0,"byteOffset":172120,"byteLength":2292,"target":34962},{"buffer":0,"byteOffset":174412,"byteLength":2292,"target":34962},{"buffer":0,"byteOffset":176704,"byteLength":2292,"target":34962},{"buffer":0,"byteOffset":178996,"byteLength":2292,"target":34962},{"buffer":0,"byteOffset":181288,"byteLength":2292,"target":34962},{"buffer":0,"byteOffset":183580,"byteLength":2292,"target":34962},{"buffer":0,"byteOffset":185872,"byteLength":2292,"target":34962},{"buffer":0,"byteOffset":188164,"byteLength":2292,"target":34962},{"buffer":0,"byteOffset":190456,"byteLength":2292,"target":34962},{"buffer":0,"byteOffset":192748,"byteLength":2292,"target":34962},{"buffer":0,"byteOffset":195040,"byteLength":2292,"target":34962},{"buffer":0,"byteOffset":197332,"byteLength":2292,"target":34962},{"buffer":0,"byteOffset":199624,"byteLength":2292,"target":34962},{"buffer":0,"byteOffset":201916,"byteLength":2292,"target":34962},{"buffer":0,"byteOffset":204208,"byteLength":2292,"target":34962},{"buffer":0,"byteOffset":206500,"byteLength":2292,"target":34962},{"buffer":0,"byteOffset":208792,"byteLength":2292,"target":34962},{"buffer":0,"byteOffset":211084,"byteLength":2292,"target":34962},{"buffer":0,"byteOffset":213376,"byteLength":2292,"target":34962},{"buffer":0,"byteOffset":215668,"byteLength":2292,"target":34962},{"buffer":0,"byteOffset":217960,"byteLength":2292,"target":34962},{"buffer":0,"byteOffset":220252,"byteLength":2292,"target":34962},{"buffer":0,"byteOffset":222544,"byteLength":2292,"target":34962},{"buffer":0,"byteOffset":224836,"byteLength":2292,"target":34962},{"buffer":0,"byteOffset":227128,"byteLength":44},{"buffer":0,"byteOffset":227172,"byteLength":1540},{"buffer":0,"byteOffset":228712,"byteLength":64},{"buffer":0,"byteOffset":228776,"byteLength":2240},{"buffer":0,"byteOffset":231016,"byteLength":44},{"buffer":0,"byteOffset":231060,"byteLength":1540}],"buffers":[{"uri":"fcommando.bin","byteLength":232600}],"animations":[{"name":"Idle","samplers":[{"input":114,"output":115,"interpolation":"STEP"}],"channels":[{"sampler":0,"target":{"node":0,"path":"weights"}}]},{"name":"Walk","samplers":[{"input":116,"output":117,"interpolation":"STEP"}],"channels":[{"sampler":0,"target":{"node":0,"path":"weights"}}]},{"name":"Run","samplers":[{"input":118,"output":119,"interpolation":"STEP"}],"channels":[{"sampler":0,"target":{"node":0,"path":"weights"}}]}]}