{"asset":{"version":"2.0","generator":"facingworlds ut99 extractor"},"scene":0,"scenes":[{"nodes":[0]}],"nodes":[{"mesh":0,"name":"ShockRifle"}],"meshes":[{"name":"ShockRifle","primitives":[{"attributes":{"POSITION":0,"TEXCOORD_0":1},"indices":2,"material":0}]}],"materials":[{"name":"slot0","pbrMetallicRoughness":{"baseColorTexture":{"index":0},"metallicFactor":0,"roughnessFactor":1}}],"images":[{"uri":"s0.png"}],"samplers":[{"magFilter":9729,"minFilter":9987,"wrapS":10497,"wrapT":10497}],"textures":[{"source":0,"sampler":0}],"accessors":[{"bufferView":0,"componentType":5126,"count":233,"type":"VEC3","min":[-0.054366306027820714,0,-0.09656105100463679],"max":[0.054366306027820714,1.05,0.09656105100463679]},{"bufferView":1,"componentType":5126,"count":233,"type":"VEC2"},{"bufferView":2,"componentType":5123,"count":660,"type":"SCALAR"}],"bufferViews":[{"buffer":0,"byteOffset":0,"byteLength":2796,"target":34962},{"buffer":0,"byteOffset":2796,"byteLength":1864,"target":34962},{"buffer":0,"byteOffset":4660,"byteLength":1320,"target":34963}],"buffers":[{"uri":"ShockRifle.bin","byteLength":5980}]}