{
  "accessors": [
    {
      "bufferView": 0,
      "componentType": 5125,
      "count": 9720,
      "type": "SCALAR"
    },
    {
      "bufferView": 1,
      "componentType": 5126,
      "count": 3782,
      "max": [
        55.3989105224609,
        30.6621761322021,
        20.8075981140137
      ],
      "min": [
        -55.6634979248047,
        -16.4472255706787,
        -20.8263206481934
      ],
      "type": "VEC3"
    },
    {
      "bufferView": 2,
      "componentType": 5126,
      "count": 3782,
      "type": "VEC3"
    },
    {
      "bufferView": 3,
      "componentType": 5126,
      "count": 3782,
      "type": "VEC4"
    },
    {
      "bufferView": 4,
      "componentType": 5126,
      "count": 3782,
      "type": "VEC2"
    }
  ],
  "asset": {
    "generator": "Adobe Substance 3D Painter 11.0.3",
    "version": "2.0"
  },
  "bufferViews": [
    {
      "buffer": 0,
      "byteLength": 38880,
      "target": 34963
    },
    {
      "buffer": 0,
      "byteLength": 45384,
      "byteOffset": 38880,
      "target": 34962
    },
    {
      "buffer": 0,
      "byteLength": 45384,
      "byteOffset": 84264,
      "target": 34962
    },
    {
      "buffer": 0,
      "byteLength": 60512,
      "byteOffset": 129648,
      "target": 34962
    },
    {
      "buffer": 0,
      "byteLength": 30256,
      "byteOffset": 190160,
      "target": 34962
    }
  ],
  "buffers": [
    {
      "byteLength": 220416,
      "uri": "FacingWorlds_tex_5.bin"
    }
  ],
  "images": [
    {
      "uri": "FacingWorlds_baseColor_1001.png"
    },
    {
      "uri": "FacingWorlds_occlusionRoughnessMetallic_1001.png"
    },
    {
      "uri": "FacingWorlds_normal_1001.png"
    }
  ],
  "materials": [
    {
      "alphaMode": "OPAQUE",
      "name": "FacingWorlds_1001",
      "normalTexture": {
        "index": 2
      },
      "occlusionTexture": {
        "index": 1
      },
      "pbrMetallicRoughness": {
        "baseColorTexture": {
          "index": 0
        },
        "metallicRoughnessTexture": {
          "index": 1
        }
      }
    }
  ],
  "meshes": [
    {
      "name": "TOWER_WHOLE",
      "primitives": [
        {
          "attributes": {
            "NORMAL": 2,
            "POSITION": 1,
            "TANGENT": 3,
            "TEXCOORD_0": 4
          },
          "indices": 0,
          "material": 0,
          "mode": 4
        }
      ]
    }
  ],
  "nodes": [
    {
      "children": [
        1
      ],
      "name": "TOWER_WHOLE",
      "rotation": [
        0.0,
        1.22464685258517e-16,
        0.0,
        1.0
      ],
      "translation": [
        4.94601726531982,
        2.27222561836243,
        -2.28046226501465
      ]
    },
    {
      "mesh": 0,
      "name": "TOWER_WHOLE"
    }
  ],
  "samplers": [
    {
      "magFilter": 9729,
      "minFilter": 9985,
      "wrapS": 10497,
      "wrapT": 10497
    }
  ],
  "scene": 0,
  "scenes": [
    {
      "name": "Scene",
      "nodes": [
        0
      ]
    }
  ],
  "textures": [
    {
      "sampler": 0,
      "source": 0
    },
    {
      "sampler": 0,
      "source": 1
    },
    {
      "sampler": 0,
      "source": 2
    }
  ]
}