{
 "asset": {
  "version": "2.0",
  "generator": "build-ut-projectiles.mjs"
 },
 "scene": 0,
 "scenes": [
  {
   "nodes": [
    0
   ]
  }
 ],
 "nodes": [
  {
   "mesh": 0,
   "name": "rocket"
  }
 ],
 "meshes": [
  {
   "name": "rocket",
   "primitives": [
    {
     "attributes": {
      "POSITION": 0,
      "TEXCOORD_0": 1
     },
     "indices": 2,
     "material": 0
    },
    {
     "attributes": {
      "POSITION": 0,
      "TEXCOORD_0": 1
     },
     "indices": 3,
     "material": 1
    }
   ]
  }
 ],
 "materials": [
  {
   "name": "slot0",
   "doubleSided": false,
   "pbrMetallicRoughness": {
    "baseColorTexture": {
     "index": 0
    },
    "metallicFactor": 0,
    "roughnessFactor": 1
   }
  },
  {
   "name": "slot1",
   "doubleSided": true,
   "pbrMetallicRoughness": {
    "baseColorTexture": {
     "index": 0
    },
    "metallicFactor": 0,
    "roughnessFactor": 1
   },
   "alphaMode": "MASK"
  }
 ],
 "textures": [
  {
   "source": 0,
   "sampler": 0
  }
 ],
 "images": [
  {
   "uri": "s0.png"
  }
 ],
 "samplers": [
  {
   "magFilter": 9729,
   "minFilter": 9987,
   "wrapS": 10497,
   "wrapT": 10497
  }
 ],
 "accessors": [
  {
   "bufferView": 0,
   "componentType": 5126,
   "count": 50,
   "type": "VEC3",
   "min": [
    -0.22334402113768326,
    -0.21079501538116413,
    -0.531100047717528
   ],
   "max": [
    0.22334402113768326,
    0.1825950133234833,
    0.2961000305701878
   ]
  },
  {
   "bufferView": 1,
   "componentType": 5126,
   "count": 50,
   "type": "VEC2"
  },
  {
   "bufferView": 2,
   "componentType": 5123,
   "count": 102,
   "type": "SCALAR"
  },
  {
   "bufferView": 3,
   "componentType": 5123,
   "count": 18,
   "type": "SCALAR"
  }
 ],
 "bufferViews": [
  {
   "buffer": 0,
   "byteOffset": 0,
   "byteLength": 600,
   "target": 34962
  },
  {
   "buffer": 0,
   "byteOffset": 600,
   "byteLength": 400,
   "target": 34962
  },
  {
   "buffer": 0,
   "byteOffset": 1000,
   "byteLength": 204,
   "target": 34963
  },
  {
   "buffer": 0,
   "byteOffset": 1204,
   "byteLength": 36,
   "target": 34963
  }
 ],
 "buffers": [
  {
   "uri": "rocket.bin",
   "byteLength": 1240
  }
 ]
}
