{
 "asset": {
  "version": "2.0",
  "generator": "build-ut-characters.mjs"
 },
 "extras": {
  "utMesh": "Boss",
  "utPackage": "BotPack.u",
  "baseSequence": "StillSmFr",
  "baseFrame": 197,
  "worldFrame": "forward -Z, up +Y, right +X; feet on y = 0; RotOrigin baked in",
  "epicRotOriginDeg": [
   0,
   90,
   -90
  ],
  "meshOriginUU": [
   -150,
   40,
   0
  ],
  "orientationNote": "Vertices are mesh-frame, so they reach the actor frame through the TRANSPOSE of UE1's FRotationMatrix(RotOrigin), with Mesh.Origin subtracted before Mesh.Scale. UE1 pawns face +X, so through UT (x fwd, y right, z up) -> world (x right, y up, z back) every body faces -Z with no per-model yaw. See scripts/build-ut-characters.mjs.",
  "standingHeightM": 1.83,
  "utHeightM": 1.8614,
  "heightFit": 0.983125,
  "feetLiftM": 0.921758,
  "weaponAnchorM": [
   0.140561,
   1.211665,
   -0.406817
  ],
  "weaponAnchorQuat": [
   -0.00432,
   0.013673,
   0.042729,
   0.998984
  ],
  "weaponAnchorNode": "weaponAnchor",
  "specialVertsM": [
   [
    0.127046,
    1.369121,
    -0.408168
   ],
   [
    0.112179,
    1.363715,
    -0.959601
   ],
   [
    0.154077,
    1.05421,
    -0.405465
   ]
  ],
  "weaponAnchorNote": "The node named weaponAnchor carries this as its rest transform AND a translation + rotation track on every clip, keyed against that clip's weights. UE1 draws a carried item at the pawn's weapon triangle with the triangle's own orientation, and the triangle is per-frame data, so the hand swings with the arm.",
  "runHeadingDeg": -0.9449,
  "feetDipM": 0,
  "feetOffsetUU": [
   -1.4223,
   4.6581
  ],
  "collisionHeightUU": 39,
  "clips": [
   {
    "clip": "Idle",
    "sequence": "StillSmFr",
    "startFrame": 197,
    "numFrames": 1,
    "sequenceFrames": 8,
    "fps": 15,
    "seconds": 0.0667,
    "loop": false,
    "hold": true
   },
   {
    "clip": "Walk",
    "sequence": "WalkSm",
    "startFrame": 313,
    "numFrames": 15,
    "sequenceFrames": 15,
    "fps": 18,
    "seconds": 0.8333,
    "loop": true
   },
   {
    "clip": "Run",
    "sequence": "RunSm",
    "startFrame": 157,
    "numFrames": 10,
    "sequenceFrames": 10,
    "fps": 17,
    "seconds": 0.5882,
    "loop": true
   },
   {
    "clip": "Fire",
    "sequence": "StillSmFr",
    "startFrame": 197,
    "numFrames": 8,
    "sequenceFrames": 8,
    "fps": 15,
    "seconds": 0.5333,
    "loop": false
   },
   {
    "clip": "WalkFire",
    "sequence": "WalkSmFr",
    "startFrame": 328,
    "numFrames": 15,
    "sequenceFrames": 15,
    "fps": 18,
    "seconds": 0.8333,
    "loop": true
   },
   {
    "clip": "RunFire",
    "sequence": "RunSmFr",
    "startFrame": 167,
    "numFrames": 10,
    "sequenceFrames": 10,
    "fps": 17,
    "seconds": 0.5882,
    "loop": true
   }
  ]
 },
 "scene": 0,
 "scenes": [
  {
   "nodes": [
    0,
    1
   ]
  }
 ],
 "nodes": [
  {
   "mesh": 0,
   "name": "Boss"
  },
  {
   "name": "weaponAnchor",
   "translation": [
    0.140561,
    1.211665,
    -0.406817
   ],
   "rotation": [
    -0.00432,
    0.013673,
    0.042729,
    0.998984
   ]
  }
 ],
 "meshes": [
  {
   "name": "boss",
   "primitives": [
    {
     "attributes": {
      "POSITION": 0,
      "TEXCOORD_0": 1
     },
     "indices": 59,
     "material": 0,
     "targets": [
      {
       "POSITION": 2
      },
      {
       "POSITION": 3
      },
      {
       "POSITION": 4
      },
      {
       "POSITION": 5
      },
      {
       "POSITION": 6
      },
      {
       "POSITION": 7
      },
      {
       "POSITION": 8
      },
      {
       "POSITION": 9
      },
      {
       "POSITION": 10
      },
      {
       "POSITION": 11
      },
      {
       "POSITION": 12
      },
      {
       "POSITION": 13
      },
      {
       "POSITION": 14
      },
      {
       "POSITION": 15
      },
      {
       "POSITION": 16
      },
      {
       "POSITION": 17
      },
      {
       "POSITION": 18
      },
      {
       "POSITION": 19
      },
      {
       "POSITION": 20
      },
      {
       "POSITION": 21
      },
      {
       "POSITION": 22
      },
      {
       "POSITION": 23
      },
      {
       "POSITION": 24
      },
      {
       "POSITION": 25
      },
      {
       "POSITION": 26
      },
      {
       "POSITION": 27
      },
      {
       "POSITION": 28
      },
      {
       "POSITION": 29
      },
      {
       "POSITION": 30
      },
      {
       "POSITION": 31
      },
      {
       "POSITION": 32
      },
      {
       "POSITION": 33
      },
      {
       "POSITION": 34
      },
      {
       "POSITION": 35
      },
      {
       "POSITION": 36
      },
      {
       "POSITION": 37
      },
      {
       "POSITION": 38
      },
      {
       "POSITION": 39
      },
      {
       "POSITION": 40
      },
      {
       "POSITION": 41
      },
      {
       "POSITION": 42
      },
      {
       "POSITION": 43
      },
      {
       "POSITION": 44
      },
      {
       "POSITION": 45
      },
      {
       "POSITION": 46
      },
      {
       "POSITION": 47
      },
      {
       "POSITION": 48
      },
      {
       "POSITION": 49
      },
      {
       "POSITION": 50
      },
      {
       "POSITION": 51
      },
      {
       "POSITION": 52
      },
      {
       "POSITION": 53
      },
      {
       "POSITION": 54
      },
      {
       "POSITION": 55
      },
      {
       "POSITION": 56
      },
      {
       "POSITION": 57
      },
      {
       "POSITION": 58
      }
     ]
    },
    {
     "attributes": {
      "POSITION": 0,
      "TEXCOORD_0": 1
     },
     "indices": 60,
     "material": 1,
     "targets": [
      {
       "POSITION": 2
      },
      {
       "POSITION": 3
      },
      {
       "POSITION": 4
      },
      {
       "POSITION": 5
      },
      {
       "POSITION": 6
      },
      {
       "POSITION": 7
      },
      {
       "POSITION": 8
      },
      {
       "POSITION": 9
      },
      {
       "POSITION": 10
      },
      {
       "POSITION": 11
      },
      {
       "POSITION": 12
      },
      {
       "POSITION": 13
      },
      {
       "POSITION": 14
      },
      {
       "POSITION": 15
      },
      {
       "POSITION": 16
      },
      {
       "POSITION": 17
      },
      {
       "POSITION": 18
      },
      {
       "POSITION": 19
      },
      {
       "POSITION": 20
      },
      {
       "POSITION": 21
      },
      {
       "POSITION": 22
      },
      {
       "POSITION": 23
      },
      {
       "POSITION": 24
      },
      {
       "POSITION": 25
      },
      {
       "POSITION": 26
      },
      {
       "POSITION": 27
      },
      {
       "POSITION": 28
      },
      {
       "POSITION": 29
      },
      {
       "POSITION": 30
      },
      {
       "POSITION": 31
      },
      {
       "POSITION": 32
      },
      {
       "POSITION": 33
      },
      {
       "POSITION": 34
      },
      {
       "POSITION": 35
      },
      {
       "POSITION": 36
      },
      {
       "POSITION": 37
      },
      {
       "POSITION": 38
      },
      {
       "POSITION": 39
      },
      {
       "POSITION": 40
      },
      {
       "POSITION": 41
      },
      {
       "POSITION": 42
      },
      {
       "POSITION": 43
      },
      {
       "POSITION": 44
      },
      {
       "POSITION": 45
      },
      {
       "POSITION": 46
      },
      {
       "POSITION": 47
      },
      {
       "POSITION": 48
      },
      {
       "POSITION": 49
      },
      {
       "POSITION": 50
      },
      {
       "POSITION": 51
      },
      {
       "POSITION": 52
      },
      {
       "POSITION": 53
      },
      {
       "POSITION": 54
      },
      {
       "POSITION": 55
      },
      {
       "POSITION": 56
      },
      {
       "POSITION": 57
      },
      {
       "POSITION": 58
      }
     ]
    },
    {
     "attributes": {
      "POSITION": 0,
      "TEXCOORD_0": 1
     },
     "indices": 61,
     "material": 2,
     "targets": [
      {
       "POSITION": 2
      },
      {
       "POSITION": 3
      },
      {
       "POSITION": 4
      },
      {
       "POSITION": 5
      },
      {
       "POSITION": 6
      },
      {
       "POSITION": 7
      },
      {
       "POSITION": 8
      },
      {
       "POSITION": 9
      },
      {
       "POSITION": 10
      },
      {
       "POSITION": 11
      },
      {
       "POSITION": 12
      },
      {
       "POSITION": 13
      },
      {
       "POSITION": 14
      },
      {
       "POSITION": 15
      },
      {
       "POSITION": 16
      },
      {
       "POSITION": 17
      },
      {
       "POSITION": 18
      },
      {
       "POSITION": 19
      },
      {
       "POSITION": 20
      },
      {
       "POSITION": 21
      },
      {
       "POSITION": 22
      },
      {
       "POSITION": 23
      },
      {
       "POSITION": 24
      },
      {
       "POSITION": 25
      },
      {
       "POSITION": 26
      },
      {
       "POSITION": 27
      },
      {
       "POSITION": 28
      },
      {
       "POSITION": 29
      },
      {
       "POSITION": 30
      },
      {
       "POSITION": 31
      },
      {
       "POSITION": 32
      },
      {
       "POSITION": 33
      },
      {
       "POSITION": 34
      },
      {
       "POSITION": 35
      },
      {
       "POSITION": 36
      },
      {
       "POSITION": 37
      },
      {
       "POSITION": 38
      },
      {
       "POSITION": 39
      },
      {
       "POSITION": 40
      },
      {
       "POSITION": 41
      },
      {
       "POSITION": 42
      },
      {
       "POSITION": 43
      },
      {
       "POSITION": 44
      },
      {
       "POSITION": 45
      },
      {
       "POSITION": 46
      },
      {
       "POSITION": 47
      },
      {
       "POSITION": 48
      },
      {
       "POSITION": 49
      },
      {
       "POSITION": 50
      },
      {
       "POSITION": 51
      },
      {
       "POSITION": 52
      },
      {
       "POSITION": 53
      },
      {
       "POSITION": 54
      },
      {
       "POSITION": 55
      },
      {
       "POSITION": 56
      },
      {
       "POSITION": 57
      },
      {
       "POSITION": 58
      }
     ]
    },
    {
     "attributes": {
      "POSITION": 0,
      "TEXCOORD_0": 1
     },
     "indices": 62,
     "material": 3,
     "targets": [
      {
       "POSITION": 2
      },
      {
       "POSITION": 3
      },
      {
       "POSITION": 4
      },
      {
       "POSITION": 5
      },
      {
       "POSITION": 6
      },
      {
       "POSITION": 7
      },
      {
       "POSITION": 8
      },
      {
       "POSITION": 9
      },
      {
       "POSITION": 10
      },
      {
       "POSITION": 11
      },
      {
       "POSITION": 12
      },
      {
       "POSITION": 13
      },
      {
       "POSITION": 14
      },
      {
       "POSITION": 15
      },
      {
       "POSITION": 16
      },
      {
       "POSITION": 17
      },
      {
       "POSITION": 18
      },
      {
       "POSITION": 19
      },
      {
       "POSITION": 20
      },
      {
       "POSITION": 21
      },
      {
       "POSITION": 22
      },
      {
       "POSITION": 23
      },
      {
       "POSITION": 24
      },
      {
       "POSITION": 25
      },
      {
       "POSITION": 26
      },
      {
       "POSITION": 27
      },
      {
       "POSITION": 28
      },
      {
       "POSITION": 29
      },
      {
       "POSITION": 30
      },
      {
       "POSITION": 31
      },
      {
       "POSITION": 32
      },
      {
       "POSITION": 33
      },
      {
       "POSITION": 34
      },
      {
       "POSITION": 35
      },
      {
       "POSITION": 36
      },
      {
       "POSITION": 37
      },
      {
       "POSITION": 38
      },
      {
       "POSITION": 39
      },
      {
       "POSITION": 40
      },
      {
       "POSITION": 41
      },
      {
       "POSITION": 42
      },
      {
       "POSITION": 43
      },
      {
       "POSITION": 44
      },
      {
       "POSITION": 45
      },
      {
       "POSITION": 46
      },
      {
       "POSITION": 47
      },
      {
       "POSITION": 48
      },
      {
       "POSITION": 49
      },
      {
       "POSITION": 50
      },
      {
       "POSITION": 51
      },
      {
       "POSITION": 52
      },
      {
       "POSITION": 53
      },
      {
       "POSITION": 54
      },
      {
       "POSITION": 55
      },
      {
       "POSITION": 56
      },
      {
       "POSITION": 57
      },
      {
       "POSITION": 58
      }
     ]
    },
    {
     "attributes": {
      "POSITION": 0,
      "TEXCOORD_0": 1
     },
     "indices": 63,
     "material": 4,
     "targets": [
      {
       "POSITION": 2
      },
      {
       "POSITION": 3
      },
      {
       "POSITION": 4
      },
      {
       "POSITION": 5
      },
      {
       "POSITION": 6
      },
      {
       "POSITION": 7
      },
      {
       "POSITION": 8
      },
      {
       "POSITION": 9
      },
      {
       "POSITION": 10
      },
      {
       "POSITION": 11
      },
      {
       "POSITION": 12
      },
      {
       "POSITION": 13
      },
      {
       "POSITION": 14
      },
      {
       "POSITION": 15
      },
      {
       "POSITION": 16
      },
      {
       "POSITION": 17
      },
      {
       "POSITION": 18
      },
      {
       "POSITION": 19
      },
      {
       "POSITION": 20
      },
      {
       "POSITION": 21
      },
      {
       "POSITION": 22
      },
      {
       "POSITION": 23
      },
      {
       "POSITION": 24
      },
      {
       "POSITION": 25
      },
      {
       "POSITION": 26
      },
      {
       "POSITION": 27
      },
      {
       "POSITION": 28
      },
      {
       "POSITION": 29
      },
      {
       "POSITION": 30
      },
      {
       "POSITION": 31
      },
      {
       "POSITION": 32
      },
      {
       "POSITION": 33
      },
      {
       "POSITION": 34
      },
      {
       "POSITION": 35
      },
      {
       "POSITION": 36
      },
      {
       "POSITION": 37
      },
      {
       "POSITION": 38
      },
      {
       "POSITION": 39
      },
      {
       "POSITION": 40
      },
      {
       "POSITION": 41
      },
      {
       "POSITION": 42
      },
      {
       "POSITION": 43
      },
      {
       "POSITION": 44
      },
      {
       "POSITION": 45
      },
      {
       "POSITION": 46
      },
      {
       "POSITION": 47
      },
      {
       "POSITION": 48
      },
      {
       "POSITION": 49
      },
      {
       "POSITION": 50
      },
      {
       "POSITION": 51
      },
      {
       "POSITION": 52
      },
      {
       "POSITION": 53
      },
      {
       "POSITION": 54
      },
      {
       "POSITION": 55
      },
      {
       "POSITION": 56
      },
      {
       "POSITION": 57
      },
      {
       "POSITION": 58
      }
     ]
    }
   ],
   "weights": [
    0,
    0,
    0,
    0,
    0,
    0,
    0,
    0,
    0,
    0,
    0,
    0,
    0,
    0,
    0,
    0,
    0,
    0,
    0,
    0,
    0,
    0,
    0,
    0,
    0,
    0,
    0,
    0,
    0,
    0,
    0,
    0,
    0,
    0,
    0,
    0,
    0,
    0,
    0,
    0,
    0,
    0,
    0,
    0,
    0,
    0,
    0,
    0,
    0,
    0,
    0,
    0,
    0,
    0,
    0,
    0,
    0
   ]
  }
 ],
 "materials": [
  {
   "name": "slot0",
   "pbrMetallicRoughness": {
    "baseColorTexture": {
     "index": 0
    },
    "metallicFactor": 0,
    "roughnessFactor": 1
   }
  },
  {
   "name": "slot1",
   "pbrMetallicRoughness": {
    "baseColorTexture": {
     "index": 1
    },
    "metallicFactor": 0,
    "roughnessFactor": 1
   }
  },
  {
   "name": "slot2",
   "pbrMetallicRoughness": {
    "baseColorTexture": {
     "index": 2
    },
    "metallicFactor": 0,
    "roughnessFactor": 1
   }
  },
  {
   "name": "slot3",
   "pbrMetallicRoughness": {
    "baseColorTexture": {
     "index": 3
    },
    "metallicFactor": 0,
    "roughnessFactor": 1
   }
  },
  {
   "name": "slot4",
   "doubleSided": true,
   "pbrMetallicRoughness": {
    "baseColorTexture": {
     "index": 4
    },
    "metallicFactor": 0,
    "roughnessFactor": 1
   }
  }
 ],
 "textures": [
  {
   "source": 0,
   "sampler": 0
  },
  {
   "source": 1,
   "sampler": 0
  },
  {
   "source": 2,
   "sampler": 0
  },
  {
   "source": 3,
   "sampler": 0
  },
  {
   "source": 4,
   "sampler": 0
  }
 ],
 "images": [
  {
   "uri": "xan/s0.png"
  },
  {
   "uri": "xan/s1.png"
  },
  {
   "uri": "xan/s2.png"
  },
  {
   "uri": "xan/s3.png"
  },
  {
   "uri": "xan/s4.png"
  }
 ],
 "samplers": [
  {
   "magFilter": 9729,
   "minFilter": 9987,
   "wrapS": 10497,
   "wrapT": 10497
  }
 ],
 "accessors": [
  {
   "bufferView": 0,
   "componentType": 5126,
   "count": 446,
   "type": "VEC3",
   "min": [
    -0.4000590841949778,
    0,
    -0.5135893648449039
   ],
   "max": [
    0.4027621861152142,
    1.83,
    0.5379172821270309
   ]
  },
  {
   "bufferView": 1,
   "componentType": 5126,
   "count": 446,
   "type": "VEC2"
  },
  {
   "bufferView": 2,
   "componentType": 5126,
   "count": 446,
   "type": "VEC3",
   "min": [
    -0.4987223148345947,
    -0.2027326375246048,
    -0.4108715057373047
   ],
   "max": [
    0.25003692507743835,
    0.48790988326072693,
    0.45952731370925903
   ]
  },
  {
   "bufferView": 3,
   "componentType": 5126,
   "count": 446,
   "type": "VEC3",
   "min": [
    -0.5473781228065491,
    -0.24868537485599518,
    -0.48655834794044495
   ],
   "max": [
    0.32977843284606934,
    0.48115214705467224,
    0.616307258605957
   ]
  },
  {
   "bufferView": 4,
   "componentType": 5126,
   "count": 446,
   "type": "VEC3",
   "min": [
    -0.4960192143917084,
    -0.2527400255203247,
    -0.5946823954582214
   ],
   "max": [
    0.4176292419433594,
    0.8920236229896545,
    0.954194962978363
   ]
  },
  {
   "bufferView": 5,
   "componentType": 5126,
   "count": 446,
   "type": "VEC3",
   "min": [
    -0.5068315863609314,
    -0.2527400255203247,
    -0.5946823954582214
   ],
   "max": [
    0.4162777066230774,
    1.025827169418335,
    0.8812112212181091
   ]
  },
  {
   "bufferView": 6,
   "componentType": 5126,
   "count": 446,
   "type": "VEC3",
   "min": [
    -0.5906277894973755,
    -0.2540915906429291,
    -0.48115214705467224
   ],
   "max": [
    0.327075332403183,
    0.8001181483268738,
    0.6244165301322937
   ]
  },
  {
   "bufferView": 7,
   "componentType": 5126,
   "count": 446,
   "type": "VEC3",
   "min": [
    -0.5622451901435852,
    -0.23246677219867706,
    -0.48115214705467224
   ],
   "max": [
    0.2419276237487793,
    0.493316113948822,
    0.8460708856582642
   ]
  },
  {
   "bufferView": 8,
   "componentType": 5126,
   "count": 446,
   "type": "VEC3",
   "min": [
    -0.38519203662872314,
    -0.24057607352733612,
    -0.5433234572410583
   ],
   "max": [
    0.24327917397022247,
    0.4392540752887726,
    1.0028507709503174
   ]
  },
  {
   "bufferView": 9,
   "componentType": 5126,
   "count": 446,
   "type": "VEC3",
   "min": [
    -0.23516987264156342,
    -0.24463072419166565,
    -0.616307258605957
   ],
   "max": [
    0.24463072419166565,
    0.9041876196861267,
    1.3353323936462402
   ]
  },
  {
   "bufferView": 10,
   "componentType": 5126,
   "count": 446,
   "type": "VEC3",
   "min": [
    -0.24057607352733612,
    -0.23787297308444977,
    -0.5081831812858582
   ],
   "max": [
    0.24327917397022247,
    1.0339365005493164,
    1.2596454620361328
   ]
  },
  {
   "bufferView": 11,
   "componentType": 5126,
   "count": 446,
   "type": "VEC3",
   "min": [
    -0.3824889361858368,
    -0.22841210663318634,
    -0.3757311701774597
   ],
   "max": [
    0.24868537485599518,
    0.8136336803436279,
    0.8028212785720825
   ]
  },
  {
   "bufferView": 12,
   "componentType": 5126,
   "count": 446,
   "type": "VEC3",
   "min": [
    -0.5338626503944397,
    -0.0783899575471878,
    -0.39194977283477783
   ],
   "max": [
    0.31761446595191956,
    0.48790988326072693,
    0.5541359186172485
   ]
  },
  {
   "bufferView": 13,
   "componentType": 5126,
   "count": 446,
   "type": "VEC3",
   "min": [
    -0.5635967254638672,
    -0.0783899575471878,
    -0.41898080706596375
   ],
   "max": [
    0.33923929929733276,
    0.5054800510406494,
    0.6271196603775024
   ]
  },
  {
   "bufferView": 14,
   "componentType": 5126,
   "count": 446,
   "type": "VEC3",
   "min": [
    -0.5662998557090759,
    -0.07028064876794815,
    -0.4487149119377136
   ],
   "max": [
    0.36221566796302795,
    0.8906720876693726,
    0.935273289680481
   ]
  },
  {
   "bufferView": 15,
   "componentType": 5126,
   "count": 446,
   "type": "VEC3",
   "min": [
    -0.5784637928009033,
    -0.05676513910293579,
    -0.44601181149482727
   ],
   "max": [
    0.3595125675201416,
    1.025827169418335,
    0.8595864176750183
   ]
  },
  {
   "bufferView": 16,
   "componentType": 5126,
   "count": 446,
   "type": "VEC3",
   "min": [
    -0.6041432619094849,
    -0.02973412163555622,
    -0.41357460618019104
   ],
   "max": [
    0.33383309841156006,
    0.7960635423660278,
    0.6271196603775024
   ]
  },
  {
   "bufferView": 17,
   "componentType": 5126,
   "count": 446,
   "type": "VEC3",
   "min": [
    -0.5987370610237122,
    -0.0337887741625309,
    -0.48115214705467224
   ],
   "max": [
    0.29598966240882874,
    0.531159520149231,
    0.8460708856582642
   ]
  },
  {
   "bufferView": 18,
   "componentType": 5126,
   "count": 446,
   "type": "VEC3",
   "min": [
    -0.5162924528121948,
    -0.08379615843296051,
    -0.5433234572410583
   ],
   "max": [
    0.24327917397022247,
    0.4392540752887726,
    1.0028507709503174
   ]
  },
  {
   "bufferView": 19,
   "componentType": 5126,
   "count": 446,
   "type": "VEC3",
   "min": [
    -0.35816100239753723,
    -0.09866321831941605,
    -0.616307258605957
   ],
   "max": [
    0.24463072419166565,
    0.9041876196861267,
    1.3353323936462402
   ]
  },
  {
   "bufferView": 20,
   "componentType": 5126,
   "count": 446,
   "type": "VEC3",
   "min": [
    -0.35680946707725525,
    -0.10947562754154205,
    -0.5081831812858582
   ],
   "max": [
    0.24327917397022247,
    1.0339365005493164,
    1.2596454620361328
   ]
  },
  {
   "bufferView": 21,
   "componentType": 5126,
   "count": 446,
   "type": "VEC3",
   "min": [
    -0.4960192143917084,
    -0.11758493632078171,
    -0.3189660310745239
   ],
   "max": [
    0.2540915906429291,
    0.8136336803436279,
    0.8028212785720825
   ]
  },
  {
   "bufferView": 22,
   "componentType": 5126,
   "count": 446,
   "type": "VEC3",
   "min": [
    -0.02973412163555622,
    -0.05271048843860626,
    -0.024327917024493217
   ],
   "max": [
    0.051358938217163086,
    0.017570162191987038,
    0.11623338609933853
   ]
  },
  {
   "bufferView": 23,
   "componentType": 5126,
   "count": 446,
   "type": "VEC3",
   "min": [
    -0.062171343713998795,
    -0.0337887741625309,
    -0.037843428552150726
   ],
   "max": [
    0.11893648654222488,
    0.23516987264156342,
    0.1567799150943756
   ]
  },
  {
   "bufferView": 24,
   "componentType": 5126,
   "count": 446,
   "type": "VEC3",
   "min": [
    -0.06622599810361862,
    -0.04054652899503708,
    -0.04324962943792343
   ],
   "max": [
    0.145967498421669,
    0.282474160194397,
    0.16488921642303467
   ]
  },
  {
   "bufferView": 25,
   "componentType": 5126,
   "count": 446,
   "type": "VEC3",
   "min": [
    -0.05676513910293579,
    -0.035140324383974075,
    -0.037843428552150726
   ],
   "max": [
    0.12839734554290771,
    0.2513884902000427,
    0.1297488957643509
   ]
  },
  {
   "bufferView": 26,
   "componentType": 5126,
   "count": 446,
   "type": "VEC3",
   "min": [
    -0.04054652899503708,
    -0.025679469108581543,
    -0.02703101933002472
   ],
   "max": [
    0.09325701743364334,
    0.18921713531017303,
    0.08649925887584686
   ]
  },
  {
   "bufferView": 27,
   "componentType": 5126,
   "count": 446,
   "type": "VEC3",
   "min": [
    -0.021624814718961716,
    -0.01351550966501236,
    -0.01621861197054386
   ],
   "max": [
    0.051358938217163086,
    0.1067725270986557,
    0.04324962943792343
   ]
  },
  {
   "bufferView": 28,
   "componentType": 5126,
   "count": 446,
   "type": "VEC3",
   "min": [
    -0.005406203679740429,
    -0.004054652992635965,
    -0.0027031018398702145
   ],
   "max": [
    0.01351550966501236,
    0.028382569551467896,
    0.010812407359480858
   ]
  },
  {
   "bufferView": 29,
   "componentType": 5126,
   "count": 446,
   "type": "VEC3",
   "min": [
    -0.24057607352733612,
    -0.282474160194397,
    -0.3135598301887512
   ],
   "max": [
    0.24868537485599518,
    0.2527400255203247,
    0.327075332403183
   ]
  },
  {
   "bufferView": 30,
   "componentType": 5126,
   "count": 446,
   "type": "VEC3",
   "min": [
    -0.23922452330589294,
    -0.27841949462890625,
    -0.2081388533115387
   ],
   "max": [
    0.24463072419166565,
    0.17570161819458008,
    0.15948301553726196
   ]
  },
  {
   "bufferView": 31,
   "componentType": 5126,
   "count": 446,
   "type": "VEC3",
   "min": [
    -0.23922452330589294,
    -0.2743648588657379,
    -0.21084195375442505
   ],
   "max": [
    0.2419276237487793,
    0.1635376662015915,
    0.1567799150943756
   ]
  },
  {
   "bufferView": 32,
   "componentType": 5126,
   "count": 446,
   "type": "VEC3",
   "min": [
    -0.23922452330589294,
    -0.2703101933002472,
    -0.2243574559688568
   ],
   "max": [
    0.24057607352733612,
    0.17164696753025055,
    0.21624815464019775
   ]
  },
  {
   "bufferView": 33,
   "componentType": 5126,
   "count": 446,
   "type": "VEC3",
   "min": [
    -0.23922452330589294,
    -0.2757163941860199,
    -0.24868537485599518
   ],
   "max": [
    0.23922452330589294,
    0.2365214228630066,
    0.36221566796302795
   ]
  },
  {
   "bufferView": 34,
   "componentType": 5126,
   "count": 446,
   "type": "VEC3",
   "min": [
    -0.23922452330589294,
    -0.2757163941860199,
    -0.2594977915287018
   ],
   "max": [
    0.23787297308444977,
    0.3257237672805786,
    0.5325110554695129
   ]
  },
  {
   "bufferView": 35,
   "componentType": 5126,
   "count": 446,
   "type": "VEC3",
   "min": [
    -0.22706055641174316,
    -0.27706795930862427,
    -0.24327917397022247
   ],
   "max": [
    0.24057607352733612,
    0.30004432797431946,
    0.2811225950717926
   ]
  },
  {
   "bufferView": 36,
   "componentType": 5126,
   "count": 446,
   "type": "VEC3",
   "min": [
    -0.22300590574741364,
    -0.282474160194397,
    -0.3027474284172058
   ],
   "max": [
    0.24598227441310883,
    0.2689586281776428,
    0.1973264366388321
   ]
  },
  {
   "bufferView": 37,
   "componentType": 5126,
   "count": 446,
   "type": "VEC3",
   "min": [
    -0.23381832242012024,
    -0.2797710597515106,
    -0.3892466723918915
   ],
   "max": [
    0.25003692507743835,
    0.21489660441875458,
    0.30004432797431946
   ]
  },
  {
   "bufferView": 38,
   "componentType": 5126,
   "count": 446,
   "type": "VEC3",
   "min": [
    -0.2419276237487793,
    -0.2797710597515106,
    -0.4838552474975586
   ],
   "max": [
    0.2513884902000427,
    0.21489660441875458,
    0.42979320883750916
   ]
  },
  {
   "bufferView": 39,
   "componentType": 5126,
   "count": 446,
   "type": "VEC3",
   "min": [
    -0.24598227441310883,
    -0.2757163941860199,
    -0.6244165301322937
   ],
   "max": [
    0.2513884902000427,
    0.23516987264156342,
    0.564948320388794
   ]
  },
  {
   "bufferView": 40,
   "componentType": 5126,
   "count": 446,
   "type": "VEC3",
   "min": [
    -0.24463072419166565,
    -0.2703101933002472,
    -0.6730723977088928
   ],
   "max": [
    0.2513884902000427,
    0.22165435552597046,
    0.708212673664093
   ]
  },
  {
   "bufferView": 41,
   "componentType": 5126,
   "count": 446,
   "type": "VEC3",
   "min": [
    -0.24057607352733612,
    -0.2703101933002472,
    -0.7163220047950745
   ],
   "max": [
    0.25003692507743835,
    0.2811225950717926,
    0.8595864176750183
   ]
  },
  {
   "bufferView": 42,
   "componentType": 5126,
   "count": 446,
   "type": "VEC3",
   "min": [
    -0.24057607352733612,
    -0.2716617286205292,
    -0.654150664806366
   ],
   "max": [
    0.25003692507743835,
    0.3135598301887512,
    0.8163367509841919
   ]
  },
  {
   "bufferView": 43,
   "componentType": 5126,
   "count": 446,
   "type": "VEC3",
   "min": [
    -0.24057607352733612,
    -0.27841949462890625,
    -0.4838552474975586
   ],
   "max": [
    0.25003692507743835,
    0.28382569551467896,
    0.5730575919151306
   ]
  },
  {
   "bufferView": 44,
   "componentType": 5126,
   "count": 446,
   "type": "VEC3",
   "min": [
    -0.24057607352733612,
    -0.017570162191987038,
    -0.3135598301887512
   ],
   "max": [
    0.24868537485599518,
    0.2527400255203247,
    0.327075332403183
   ]
  },
  {
   "bufferView": 45,
   "componentType": 5126,
   "count": 446,
   "type": "VEC3",
   "min": [
    -0.23922452330589294,
    -0.02297636680305004,
    -0.20543575286865234
   ],
   "max": [
    0.24463072419166565,
    0.2135450541973114,
    0.1513737142086029
   ]
  },
  {
   "bufferView": 46,
   "componentType": 5126,
   "count": 446,
   "type": "VEC3",
   "min": [
    -0.23922452330589294,
    -0.05946824327111244,
    -0.2135450541973114
   ],
   "max": [
    0.2419276237487793,
    0.1905686855316162,
    0.10812407732009888
   ]
  },
  {
   "bufferView": 47,
   "componentType": 5126,
   "count": 446,
   "type": "VEC3",
   "min": [
    -0.23922452330589294,
    -0.09055391699075699,
    -0.22165435552597046
   ],
   "max": [
    0.24057607352733612,
    0.1919202357530594,
    0.21624815464019775
   ]
  },
  {
   "bufferView": 48,
   "componentType": 5126,
   "count": 446,
   "type": "VEC3",
   "min": [
    -0.23922452330589294,
    -0.11893648654222488,
    -0.22976365685462952
   ],
   "max": [
    0.23922452330589294,
    0.2365214228630066,
    0.36221566796302795
   ]
  },
  {
   "bufferView": 49,
   "componentType": 5126,
   "count": 446,
   "type": "VEC3",
   "min": [
    -0.23922452330589294,
    -0.13245199620723724,
    -0.25679469108581543
   ],
   "max": [
    0.23787297308444977,
    0.327075332403183,
    0.5325110554695129
   ]
  },
  {
   "bufferView": 50,
   "componentType": 5126,
   "count": 446,
   "type": "VEC3",
   "min": [
    -0.22706055641174316,
    -0.09460856765508652,
    -0.22165435552597046
   ],
   "max": [
    0.24057607352733612,
    0.30004432797431946,
    0.2811225950717926
   ]
  },
  {
   "bufferView": 51,
   "componentType": 5126,
   "count": 446,
   "type": "VEC3",
   "min": [
    -0.22300590574741364,
    -0.02297636680305004,
    -0.3027474284172058
   ],
   "max": [
    0.24598227441310883,
    0.2689586281776428,
    0.1973264366388321
   ]
  },
  {
   "bufferView": 52,
   "componentType": 5126,
   "count": 446,
   "type": "VEC3",
   "min": [
    -0.23381832242012024,
    -0.05000738427042961,
    -0.3892466723918915
   ],
   "max": [
    0.25003692507743835,
    0.22976365685462952,
    0.30004432797431946
   ]
  },
  {
   "bufferView": 53,
   "componentType": 5126,
   "count": 446,
   "type": "VEC3",
   "min": [
    -0.2419276237487793,
    -0.08649925887584686,
    -0.4838552474975586
   ],
   "max": [
    0.2513884902000427,
    0.21489660441875458,
    0.42979320883750916
   ]
  },
  {
   "bufferView": 54,
   "componentType": 5126,
   "count": 446,
   "type": "VEC3",
   "min": [
    -0.24598227441310883,
    -0.12704579532146454,
    -0.6244165301322937
   ],
   "max": [
    0.2513884902000427,
    0.23516987264156342,
    0.564948320388794
   ]
  },
  {
   "bufferView": 55,
   "componentType": 5126,
   "count": 446,
   "type": "VEC3",
   "min": [
    -0.24327917397022247,
    -0.1513737142086029,
    -0.6730723977088928
   ],
   "max": [
    0.2513884902000427,
    0.22165435552597046,
    0.708212673664093
   ]
  },
  {
   "bufferView": 56,
   "componentType": 5126,
   "count": 446,
   "type": "VEC3",
   "min": [
    -0.24057607352733612,
    -0.17299851775169373,
    -0.7163220047950745
   ],
   "max": [
    0.25003692507743835,
    0.2811225950717926,
    0.8595864176750183
   ]
  },
  {
   "bufferView": 57,
   "componentType": 5126,
   "count": 446,
   "type": "VEC3",
   "min": [
    -0.24057607352733612,
    -0.16083456575870514,
    -0.654150664806366
   ],
   "max": [
    0.25003692507743835,
    0.3135598301887512,
    0.8163367509841919
   ]
  },
  {
   "bufferView": 58,
   "componentType": 5126,
   "count": 446,
   "type": "VEC3",
   "min": [
    -0.24057607352733612,
    -0.08379615843296051,
    -0.4838552474975586
   ],
   "max": [
    0.25003692507743835,
    0.28382569551467896,
    0.5730575919151306
   ]
  },
  {
   "bufferView": 59,
   "componentType": 5123,
   "count": 576,
   "type": "SCALAR"
  },
  {
   "bufferView": 60,
   "componentType": 5123,
   "count": 504,
   "type": "SCALAR"
  },
  {
   "bufferView": 61,
   "componentType": 5123,
   "count": 354,
   "type": "SCALAR"
  },
  {
   "bufferView": 62,
   "componentType": 5123,
   "count": 294,
   "type": "SCALAR"
  },
  {
   "bufferView": 63,
   "componentType": 5123,
   "count": 18,
   "type": "SCALAR"
  },
  {
   "bufferView": 64,
   "componentType": 5126,
   "count": 2,
   "type": "SCALAR",
   "min": [
    0
   ],
   "max": [
    0.06666666666666667
   ]
  },
  {
   "bufferView": 65,
   "componentType": 5126,
   "count": 114,
   "type": "SCALAR"
  },
  {
   "bufferView": 66,
   "componentType": 5126,
   "count": 2,
   "type": "VEC3",
   "min": [
    0.1405612998522895,
    1.211665435745938,
    -0.40681683899556864
   ],
   "max": [
    0.1405612998522895,
    1.211665435745938,
    -0.40681683899556864
   ]
  },
  {
   "bufferView": 67,
   "componentType": 5126,
   "count": 2,
   "type": "VEC4"
  },
  {
   "bufferView": 68,
   "componentType": 5126,
   "count": 16,
   "type": "SCALAR",
   "min": [
    0
   ],
   "max": [
    0.8333333333333334
   ]
  },
  {
   "bufferView": 69,
   "componentType": 5126,
   "count": 912,
   "type": "SCALAR"
  },
  {
   "bufferView": 70,
   "componentType": 5126,
   "count": 16,
   "type": "VEC3",
   "min": [
    0.02838257016248151,
    0.9954172821270311,
    -0.3797858197932053
   ],
   "max": [
    0.281122599704579,
    1.0069054652880354,
    -0.29328655834564255
   ]
  },
  {
   "bufferView": 71,
   "componentType": 5126,
   "count": 16,
   "type": "VEC4"
  },
  {
   "bufferView": 72,
   "componentType": 5126,
   "count": 11,
   "type": "SCALAR",
   "min": [
    0
   ],
   "max": [
    0.5882352941176471
   ]
  },
  {
   "bufferView": 73,
   "componentType": 5126,
   "count": 627,
   "type": "SCALAR"
  },
  {
   "bufferView": 74,
   "componentType": 5126,
   "count": 11,
   "type": "VEC3",
   "min": [
    -0.03378877400295423,
    0.9879837518463812,
    -0.30274741506646974
   ],
   "max": [
    0.3682976366322009,
    1.1271935007385525,
    0.4081683899556869
   ]
  },
  {
   "bufferView": 75,
   "componentType": 5126,
   "count": 11,
   "type": "VEC4"
  },
  {
   "bufferView": 76,
   "componentType": 5126,
   "count": 8,
   "type": "SCALAR",
   "min": [
    0
   ],
   "max": [
    0.4666666666666667
   ]
  },
  {
   "bufferView": 77,
   "componentType": 5126,
   "count": 456,
   "type": "SCALAR"
  },
  {
   "bufferView": 78,
   "componentType": 5126,
   "count": 8,
   "type": "VEC3",
   "min": [
    0.12907311669128504,
    1.2049076809453472,
    -0.40681683899556864
   ],
   "max": [
    0.15002215657311666,
    1.3738515509601181,
    -0.30409896602658787
   ]
  },
  {
   "bufferView": 79,
   "componentType": 5126,
   "count": 8,
   "type": "VEC4"
  },
  {
   "bufferView": 80,
   "componentType": 5126,
   "count": 16,
   "type": "SCALAR",
   "min": [
    0
   ],
   "max": [
    0.8333333333333334
   ]
  },
  {
   "bufferView": 81,
   "componentType": 5126,
   "count": 912,
   "type": "SCALAR"
  },
  {
   "bufferView": 82,
   "componentType": 5126,
   "count": 16,
   "type": "VEC3",
   "min": [
    0.152725258493353,
    1.2576181683899557,
    -0.6149556868537666
   ],
   "max": [
    0.21895125553914324,
    1.3420901033973411,
    -0.5446750369276219
   ]
  },
  {
   "bufferView": 83,
   "componentType": 5126,
   "count": 16,
   "type": "VEC4"
  },
  {
   "bufferView": 84,
   "componentType": 5126,
   "count": 11,
   "type": "SCALAR",
   "min": [
    0
   ],
   "max": [
    0.5882352941176471
   ]
  },
  {
   "bufferView": 85,
   "componentType": 5126,
   "count": 627,
   "type": "SCALAR"
  },
  {
   "bufferView": 86,
   "componentType": 5126,
   "count": 11,
   "type": "VEC3",
   "min": [
    0.20543574593796154,
    1.1839586410635157,
    -0.6352289512555391
   ],
   "max": [
    0.2723375184638109,
    1.323168389955687,
    -0.48655834564254064
   ]
  },
  {
   "bufferView": 87,
   "componentType": 5126,
   "count": 11,
   "type": "VEC4"
  }
 ],
 "bufferViews": [
  {
   "buffer": 0,
   "byteOffset": 0,
   "byteLength": 5352,
   "target": 34962
  },
  {
   "buffer": 0,
   "byteOffset": 5352,
   "byteLength": 3568,
   "target": 34962
  },
  {
   "buffer": 0,
   "byteOffset": 8920,
   "byteLength": 5352,
   "target": 34962
  },
  {
   "buffer": 0,
   "byteOffset": 14272,
   "byteLength": 5352,
   "target": 34962
  },
  {
   "buffer": 0,
   "byteOffset": 19624,
   "byteLength": 5352,
   "target": 34962
  },
  {
   "buffer": 0,
   "byteOffset": 24976,
   "byteLength": 5352,
   "target": 34962
  },
  {
   "buffer": 0,
   "byteOffset": 30328,
   "byteLength": 5352,
   "target": 34962
  },
  {
   "buffer": 0,
   "byteOffset": 35680,
   "byteLength": 5352,
   "target": 34962
  },
  {
   "buffer": 0,
   "byteOffset": 41032,
   "byteLength": 5352,
   "target": 34962
  },
  {
   "buffer": 0,
   "byteOffset": 46384,
   "byteLength": 5352,
   "target": 34962
  },
  {
   "buffer": 0,
   "byteOffset": 51736,
   "byteLength": 5352,
   "target": 34962
  },
  {
   "buffer": 0,
   "byteOffset": 57088,
   "byteLength": 5352,
   "target": 34962
  },
  {
   "buffer": 0,
   "byteOffset": 62440,
   "byteLength": 5352,
   "target": 34962
  },
  {
   "buffer": 0,
   "byteOffset": 67792,
   "byteLength": 5352,
   "target": 34962
  },
  {
   "buffer": 0,
   "byteOffset": 73144,
   "byteLength": 5352,
   "target": 34962
  },
  {
   "buffer": 0,
   "byteOffset": 78496,
   "byteLength": 5352,
   "target": 34962
  },
  {
   "buffer": 0,
   "byteOffset": 83848,
   "byteLength": 5352,
   "target": 34962
  },
  {
   "buffer": 0,
   "byteOffset": 89200,
   "byteLength": 5352,
   "target": 34962
  },
  {
   "buffer": 0,
   "byteOffset": 94552,
   "byteLength": 5352,
   "target": 34962
  },
  {
   "buffer": 0,
   "byteOffset": 99904,
   "byteLength": 5352,
   "target": 34962
  },
  {
   "buffer": 0,
   "byteOffset": 105256,
   "byteLength": 5352,
   "target": 34962
  },
  {
   "buffer": 0,
   "byteOffset": 110608,
   "byteLength": 5352,
   "target": 34962
  },
  {
   "buffer": 0,
   "byteOffset": 115960,
   "byteLength": 5352,
   "target": 34962
  },
  {
   "buffer": 0,
   "byteOffset": 121312,
   "byteLength": 5352,
   "target": 34962
  },
  {
   "buffer": 0,
   "byteOffset": 126664,
   "byteLength": 5352,
   "target": 34962
  },
  {
   "buffer": 0,
   "byteOffset": 132016,
   "byteLength": 5352,
   "target": 34962
  },
  {
   "buffer": 0,
   "byteOffset": 137368,
   "byteLength": 5352,
   "target": 34962
  },
  {
   "buffer": 0,
   "byteOffset": 142720,
   "byteLength": 5352,
   "target": 34962
  },
  {
   "buffer": 0,
   "byteOffset": 148072,
   "byteLength": 5352,
   "target": 34962
  },
  {
   "buffer": 0,
   "byteOffset": 153424,
   "byteLength": 5352,
   "target": 34962
  },
  {
   "buffer": 0,
   "byteOffset": 158776,
   "byteLength": 5352,
   "target": 34962
  },
  {
   "buffer": 0,
   "byteOffset": 164128,
   "byteLength": 5352,
   "target": 34962
  },
  {
   "buffer": 0,
   "byteOffset": 169480,
   "byteLength": 5352,
   "target": 34962
  },
  {
   "buffer": 0,
   "byteOffset": 174832,
   "byteLength": 5352,
   "target": 34962
  },
  {
   "buffer": 0,
   "byteOffset": 180184,
   "byteLength": 5352,
   "target": 34962
  },
  {
   "buffer": 0,
   "byteOffset": 185536,
   "byteLength": 5352,
   "target": 34962
  },
  {
   "buffer": 0,
   "byteOffset": 190888,
   "byteLength": 5352,
   "target": 34962
  },
  {
   "buffer": 0,
   "byteOffset": 196240,
   "byteLength": 5352,
   "target": 34962
  },
  {
   "buffer": 0,
   "byteOffset": 201592,
   "byteLength": 5352,
   "target": 34962
  },
  {
   "buffer": 0,
   "byteOffset": 206944,
   "byteLength": 5352,
   "target": 34962
  },
  {
   "buffer": 0,
   "byteOffset": 212296,
   "byteLength": 5352,
   "target": 34962
  },
  {
   "buffer": 0,
   "byteOffset": 217648,
   "byteLength": 5352,
   "target": 34962
  },
  {
   "buffer": 0,
   "byteOffset": 223000,
   "byteLength": 5352,
   "target": 34962
  },
  {
   "buffer": 0,
   "byteOffset": 228352,
   "byteLength": 5352,
   "target": 34962
  },
  {
   "buffer": 0,
   "byteOffset": 233704,
   "byteLength": 5352,
   "target": 34962
  },
  {
   "buffer": 0,
   "byteOffset": 239056,
   "byteLength": 5352,
   "target": 34962
  },
  {
   "buffer": 0,
   "byteOffset": 244408,
   "byteLength": 5352,
   "target": 34962
  },
  {
   "buffer": 0,
   "byteOffset": 249760,
   "byteLength": 5352,
   "target": 34962
  },
  {
   "buffer": 0,
   "byteOffset": 255112,
   "byteLength": 5352,
   "target": 34962
  },
  {
   "buffer": 0,
   "byteOffset": 260464,
   "byteLength": 5352,
   "target": 34962
  },
  {
   "buffer": 0,
   "byteOffset": 265816,
   "byteLength": 5352,
   "target": 34962
  },
  {
   "buffer": 0,
   "byteOffset": 271168,
   "byteLength": 5352,
   "target": 34962
  },
  {
   "buffer": 0,
   "byteOffset": 276520,
   "byteLength": 5352,
   "target": 34962
  },
  {
   "buffer": 0,
   "byteOffset": 281872,
   "byteLength": 5352,
   "target": 34962
  },
  {
   "buffer": 0,
   "byteOffset": 287224,
   "byteLength": 5352,
   "target": 34962
  },
  {
   "buffer": 0,
   "byteOffset": 292576,
   "byteLength": 5352,
   "target": 34962
  },
  {
   "buffer": 0,
   "byteOffset": 297928,
   "byteLength": 5352,
   "target": 34962
  },
  {
   "buffer": 0,
   "byteOffset": 303280,
   "byteLength": 5352,
   "target": 34962
  },
  {
   "buffer": 0,
   "byteOffset": 308632,
   "byteLength": 5352,
   "target": 34962
  },
  {
   "buffer": 0,
   "byteOffset": 313984,
   "byteLength": 1152,
   "target": 34963
  },
  {
   "buffer": 0,
   "byteOffset": 315136,
   "byteLength": 1008,
   "target": 34963
  },
  {
   "buffer": 0,
   "byteOffset": 316144,
   "byteLength": 708,
   "target": 34963
  },
  {
   "buffer": 0,
   "byteOffset": 316852,
   "byteLength": 588,
   "target": 34963
  },
  {
   "buffer": 0,
   "byteOffset": 317440,
   "byteLength": 36,
   "target": 34963
  },
  {
   "buffer": 0,
   "byteOffset": 317476,
   "byteLength": 8
  },
  {
   "buffer": 0,
   "byteOffset": 317484,
   "byteLength": 456
  },
  {
   "buffer": 0,
   "byteOffset": 317940,
   "byteLength": 24
  },
  {
   "buffer": 0,
   "byteOffset": 317964,
   "byteLength": 32
  },
  {
   "buffer": 0,
   "byteOffset": 317996,
   "byteLength": 64
  },
  {
   "buffer": 0,
   "byteOffset": 318060,
   "byteLength": 3648
  },
  {
   "buffer": 0,
   "byteOffset": 321708,
   "byteLength": 192
  },
  {
   "buffer": 0,
   "byteOffset": 321900,
   "byteLength": 256
  },
  {
   "buffer": 0,
   "byteOffset": 322156,
   "byteLength": 44
  },
  {
   "buffer": 0,
   "byteOffset": 322200,
   "byteLength": 2508
  },
  {
   "buffer": 0,
   "byteOffset": 324708,
   "byteLength": 132
  },
  {
   "buffer": 0,
   "byteOffset": 324840,
   "byteLength": 176
  },
  {
   "buffer": 0,
   "byteOffset": 325016,
   "byteLength": 32
  },
  {
   "buffer": 0,
   "byteOffset": 325048,
   "byteLength": 1824
  },
  {
   "buffer": 0,
   "byteOffset": 326872,
   "byteLength": 96
  },
  {
   "buffer": 0,
   "byteOffset": 326968,
   "byteLength": 128
  },
  {
   "buffer": 0,
   "byteOffset": 327096,
   "byteLength": 64
  },
  {
   "buffer": 0,
   "byteOffset": 327160,
   "byteLength": 3648
  },
  {
   "buffer": 0,
   "byteOffset": 330808,
   "byteLength": 192
  },
  {
   "buffer": 0,
   "byteOffset": 331000,
   "byteLength": 256
  },
  {
   "buffer": 0,
   "byteOffset": 331256,
   "byteLength": 44
  },
  {
   "buffer": 0,
   "byteOffset": 331300,
   "byteLength": 2508
  },
  {
   "buffer": 0,
   "byteOffset": 333808,
   "byteLength": 132
  },
  {
   "buffer": 0,
   "byteOffset": 333940,
   "byteLength": 176
  }
 ],
 "buffers": [
  {
   "uri": "boss.bin",
   "byteLength": 334116
  }
 ],
 "animations": [
  {
   "name": "Idle",
   "samplers": [
    {
     "input": 64,
     "output": 65,
     "interpolation": "LINEAR"
    },
    {
     "input": 64,
     "output": 66,
     "interpolation": "LINEAR"
    },
    {
     "input": 64,
     "output": 67,
     "interpolation": "LINEAR"
    }
   ],
   "channels": [
    {
     "sampler": 0,
     "target": {
      "node": 0,
      "path": "weights"
     }
    },
    {
     "sampler": 1,
     "target": {
      "node": 1,
      "path": "translation"
     }
    },
    {
     "sampler": 2,
     "target": {
      "node": 1,
      "path": "rotation"
     }
    }
   ]
  },
  {
   "name": "Walk",
   "samplers": [
    {
     "input": 68,
     "output": 69,
     "interpolation": "LINEAR"
    },
    {
     "input": 68,
     "output": 70,
     "interpolation": "LINEAR"
    },
    {
     "input": 68,
     "output": 71,
     "interpolation": "LINEAR"
    }
   ],
   "channels": [
    {
     "sampler": 0,
     "target": {
      "node": 0,
      "path": "weights"
     }
    },
    {
     "sampler": 1,
     "target": {
      "node": 1,
      "path": "translation"
     }
    },
    {
     "sampler": 2,
     "target": {
      "node": 1,
      "path": "rotation"
     }
    }
   ]
  },
  {
   "name": "Run",
   "samplers": [
    {
     "input": 72,
     "output": 73,
     "interpolation": "LINEAR"
    },
    {
     "input": 72,
     "output": 74,
     "interpolation": "LINEAR"
    },
    {
     "input": 72,
     "output": 75,
     "interpolation": "LINEAR"
    }
   ],
   "channels": [
    {
     "sampler": 0,
     "target": {
      "node": 0,
      "path": "weights"
     }
    },
    {
     "sampler": 1,
     "target": {
      "node": 1,
      "path": "translation"
     }
    },
    {
     "sampler": 2,
     "target": {
      "node": 1,
      "path": "rotation"
     }
    }
   ]
  },
  {
   "name": "Fire",
   "samplers": [
    {
     "input": 76,
     "output": 77,
     "interpolation": "LINEAR"
    },
    {
     "input": 76,
     "output": 78,
     "interpolation": "LINEAR"
    },
    {
     "input": 76,
     "output": 79,
     "interpolation": "LINEAR"
    }
   ],
   "channels": [
    {
     "sampler": 0,
     "target": {
      "node": 0,
      "path": "weights"
     }
    },
    {
     "sampler": 1,
     "target": {
      "node": 1,
      "path": "translation"
     }
    },
    {
     "sampler": 2,
     "target": {
      "node": 1,
      "path": "rotation"
     }
    }
   ]
  },
  {
   "name": "WalkFire",
   "samplers": [
    {
     "input": 80,
     "output": 81,
     "interpolation": "LINEAR"
    },
    {
     "input": 80,
     "output": 82,
     "interpolation": "LINEAR"
    },
    {
     "input": 80,
     "output": 83,
     "interpolation": "LINEAR"
    }
   ],
   "channels": [
    {
     "sampler": 0,
     "target": {
      "node": 0,
      "path": "weights"
     }
    },
    {
     "sampler": 1,
     "target": {
      "node": 1,
      "path": "translation"
     }
    },
    {
     "sampler": 2,
     "target": {
      "node": 1,
      "path": "rotation"
     }
    }
   ]
  },
  {
   "name": "RunFire",
   "samplers": [
    {
     "input": 84,
     "output": 85,
     "interpolation": "LINEAR"
    },
    {
     "input": 84,
     "output": 86,
     "interpolation": "LINEAR"
    },
    {
     "input": 84,
     "output": 87,
     "interpolation": "LINEAR"
    }
   ],
   "channels": [
    {
     "sampler": 0,
     "target": {
      "node": 0,
      "path": "weights"
     }
    },
    {
     "sampler": 1,
     "target": {
      "node": 1,
      "path": "translation"
     }
    },
    {
     "sampler": 2,
     "target": {
      "node": 1,
      "path": "rotation"
     }
    }
   ]
  }
 ]
}
