{
 "asset": {
  "version": "2.0",
  "generator": "build-ut-characters.mjs"
 },
 "extras": {
  "utMesh": "SGirl",
  "utPackage": "BotPack.u",
  "baseSequence": "StillSmFr",
  "baseFrame": 185,
  "worldFrame": "forward -Z, up +Y, right +X; feet on y = 0; RotOrigin baked in",
  "epicRotOriginDeg": [
   0,
   90,
   -90
  ],
  "meshOriginUU": [
   -30,
   -115,
   20
  ],
  "orientationNote": "Vertices are mesh-frame, so they reach the actor frame through the TRANSPOSE of UE1's FRotationMatrix(RotOrigin), with Mesh.Origin subtracted before Mesh.Scale. UE1 pawns face +X, so through UT (x fwd, y right, z up) -> world (x right, y up, z back) every body faces -Z with no per-model yaw. See scripts/build-ut-characters.mjs.",
  "standingHeightM": 1.83,
  "utHeightM": 1.8492,
  "heightFit": 0.98964,
  "feetLiftM": 1.007299,
  "weaponAnchorM": [
   0.247101,
   1.366322,
   -0.613392
  ],
  "weaponAnchorQuat": [
   -0.004438,
   0.006713,
   0.003831,
   0.99996
  ],
  "weaponAnchorNode": "weaponAnchor",
  "specialVertsM": [
   [
    0.245647,
    1.552375,
    -0.616299
   ],
   [
    0.236926,
    1.546561,
    -1.267482
   ],
   [
    0.248554,
    1.18027,
    -0.610485
   ]
  ],
  "weaponAnchorNote": "The node named weaponAnchor carries this as its rest transform AND a translation + rotation track on every clip, keyed against that clip's weights. UE1 draws a carried item at the pawn's weapon triangle with the triangle's own orientation, and the triangle is per-frame data, so the hand swings with the arm.",
  "runHeadingDeg": 0.2473,
  "feetDipM": 0,
  "feetOffsetUU": [
   4.0104,
   -1.0278
  ],
  "collisionHeightUU": 39,
  "clips": [
   {
    "clip": "Idle",
    "sequence": "StillSmFr",
    "startFrame": 185,
    "numFrames": 1,
    "sequenceFrames": 8,
    "fps": 15,
    "seconds": 0.0667,
    "loop": false,
    "hold": true
   },
   {
    "clip": "Walk",
    "sequence": "WalkSm",
    "startFrame": 299,
    "numFrames": 15,
    "sequenceFrames": 15,
    "fps": 18,
    "seconds": 0.8333,
    "loop": true
   },
   {
    "clip": "Run",
    "sequence": "RunSm",
    "startFrame": 145,
    "numFrames": 10,
    "sequenceFrames": 10,
    "fps": 17,
    "seconds": 0.5882,
    "loop": true
   },
   {
    "clip": "Fire",
    "sequence": "StillSmFr",
    "startFrame": 185,
    "numFrames": 8,
    "sequenceFrames": 8,
    "fps": 15,
    "seconds": 0.5333,
    "loop": false
   },
   {
    "clip": "WalkFire",
    "sequence": "WalkSmFr",
    "startFrame": 314,
    "numFrames": 15,
    "sequenceFrames": 15,
    "fps": 18,
    "seconds": 0.8333,
    "loop": true
   },
   {
    "clip": "RunFire",
    "sequence": "RunSmFr",
    "startFrame": 155,
    "numFrames": 10,
    "sequenceFrames": 10,
    "fps": 17,
    "seconds": 0.5882,
    "loop": true
   }
  ]
 },
 "scene": 0,
 "scenes": [
  {
   "nodes": [
    0,
    1
   ]
  }
 ],
 "nodes": [
  {
   "mesh": 0,
   "name": "SGirl"
  },
  {
   "name": "weaponAnchor",
   "translation": [
    0.247101,
    1.366322,
    -0.613392
   ],
   "rotation": [
    -0.004438,
    0.006713,
    0.003831,
    0.99996
   ]
  }
 ],
 "meshes": [
  {
   "name": "sgirl",
   "primitives": [
    {
     "attributes": {
      "POSITION": 0,
      "TEXCOORD_0": 1
     },
     "indices": 59,
     "material": 0,
     "targets": [
      {
       "POSITION": 2
      },
      {
       "POSITION": 3
      },
      {
       "POSITION": 4
      },
      {
       "POSITION": 5
      },
      {
       "POSITION": 6
      },
      {
       "POSITION": 7
      },
      {
       "POSITION": 8
      },
      {
       "POSITION": 9
      },
      {
       "POSITION": 10
      },
      {
       "POSITION": 11
      },
      {
       "POSITION": 12
      },
      {
       "POSITION": 13
      },
      {
       "POSITION": 14
      },
      {
       "POSITION": 15
      },
      {
       "POSITION": 16
      },
      {
       "POSITION": 17
      },
      {
       "POSITION": 18
      },
      {
       "POSITION": 19
      },
      {
       "POSITION": 20
      },
      {
       "POSITION": 21
      },
      {
       "POSITION": 22
      },
      {
       "POSITION": 23
      },
      {
       "POSITION": 24
      },
      {
       "POSITION": 25
      },
      {
       "POSITION": 26
      },
      {
       "POSITION": 27
      },
      {
       "POSITION": 28
      },
      {
       "POSITION": 29
      },
      {
       "POSITION": 30
      },
      {
       "POSITION": 31
      },
      {
       "POSITION": 32
      },
      {
       "POSITION": 33
      },
      {
       "POSITION": 34
      },
      {
       "POSITION": 35
      },
      {
       "POSITION": 36
      },
      {
       "POSITION": 37
      },
      {
       "POSITION": 38
      },
      {
       "POSITION": 39
      },
      {
       "POSITION": 40
      },
      {
       "POSITION": 41
      },
      {
       "POSITION": 42
      },
      {
       "POSITION": 43
      },
      {
       "POSITION": 44
      },
      {
       "POSITION": 45
      },
      {
       "POSITION": 46
      },
      {
       "POSITION": 47
      },
      {
       "POSITION": 48
      },
      {
       "POSITION": 49
      },
      {
       "POSITION": 50
      },
      {
       "POSITION": 51
      },
      {
       "POSITION": 52
      },
      {
       "POSITION": 53
      },
      {
       "POSITION": 54
      },
      {
       "POSITION": 55
      },
      {
       "POSITION": 56
      },
      {
       "POSITION": 57
      },
      {
       "POSITION": 58
      }
     ]
    },
    {
     "attributes": {
      "POSITION": 0,
      "TEXCOORD_0": 1
     },
     "indices": 60,
     "material": 1,
     "targets": [
      {
       "POSITION": 2
      },
      {
       "POSITION": 3
      },
      {
       "POSITION": 4
      },
      {
       "POSITION": 5
      },
      {
       "POSITION": 6
      },
      {
       "POSITION": 7
      },
      {
       "POSITION": 8
      },
      {
       "POSITION": 9
      },
      {
       "POSITION": 10
      },
      {
       "POSITION": 11
      },
      {
       "POSITION": 12
      },
      {
       "POSITION": 13
      },
      {
       "POSITION": 14
      },
      {
       "POSITION": 15
      },
      {
       "POSITION": 16
      },
      {
       "POSITION": 17
      },
      {
       "POSITION": 18
      },
      {
       "POSITION": 19
      },
      {
       "POSITION": 20
      },
      {
       "POSITION": 21
      },
      {
       "POSITION": 22
      },
      {
       "POSITION": 23
      },
      {
       "POSITION": 24
      },
      {
       "POSITION": 25
      },
      {
       "POSITION": 26
      },
      {
       "POSITION": 27
      },
      {
       "POSITION": 28
      },
      {
       "POSITION": 29
      },
      {
       "POSITION": 30
      },
      {
       "POSITION": 31
      },
      {
       "POSITION": 32
      },
      {
       "POSITION": 33
      },
      {
       "POSITION": 34
      },
      {
       "POSITION": 35
      },
      {
       "POSITION": 36
      },
      {
       "POSITION": 37
      },
      {
       "POSITION": 38
      },
      {
       "POSITION": 39
      },
      {
       "POSITION": 40
      },
      {
       "POSITION": 41
      },
      {
       "POSITION": 42
      },
      {
       "POSITION": 43
      },
      {
       "POSITION": 44
      },
      {
       "POSITION": 45
      },
      {
       "POSITION": 46
      },
      {
       "POSITION": 47
      },
      {
       "POSITION": 48
      },
      {
       "POSITION": 49
      },
      {
       "POSITION": 50
      },
      {
       "POSITION": 51
      },
      {
       "POSITION": 52
      },
      {
       "POSITION": 53
      },
      {
       "POSITION": 54
      },
      {
       "POSITION": 55
      },
      {
       "POSITION": 56
      },
      {
       "POSITION": 57
      },
      {
       "POSITION": 58
      }
     ]
    },
    {
     "attributes": {
      "POSITION": 0,
      "TEXCOORD_0": 1
     },
     "indices": 61,
     "material": 2,
     "targets": [
      {
       "POSITION": 2
      },
      {
       "POSITION": 3
      },
      {
       "POSITION": 4
      },
      {
       "POSITION": 5
      },
      {
       "POSITION": 6
      },
      {
       "POSITION": 7
      },
      {
       "POSITION": 8
      },
      {
       "POSITION": 9
      },
      {
       "POSITION": 10
      },
      {
       "POSITION": 11
      },
      {
       "POSITION": 12
      },
      {
       "POSITION": 13
      },
      {
       "POSITION": 14
      },
      {
       "POSITION": 15
      },
      {
       "POSITION": 16
      },
      {
       "POSITION": 17
      },
      {
       "POSITION": 18
      },
      {
       "POSITION": 19
      },
      {
       "POSITION": 20
      },
      {
       "POSITION": 21
      },
      {
       "POSITION": 22
      },
      {
       "POSITION": 23
      },
      {
       "POSITION": 24
      },
      {
       "POSITION": 25
      },
      {
       "POSITION": 26
      },
      {
       "POSITION": 27
      },
      {
       "POSITION": 28
      },
      {
       "POSITION": 29
      },
      {
       "POSITION": 30
      },
      {
       "POSITION": 31
      },
      {
       "POSITION": 32
      },
      {
       "POSITION": 33
      },
      {
       "POSITION": 34
      },
      {
       "POSITION": 35
      },
      {
       "POSITION": 36
      },
      {
       "POSITION": 37
      },
      {
       "POSITION": 38
      },
      {
       "POSITION": 39
      },
      {
       "POSITION": 40
      },
      {
       "POSITION": 41
      },
      {
       "POSITION": 42
      },
      {
       "POSITION": 43
      },
      {
       "POSITION": 44
      },
      {
       "POSITION": 45
      },
      {
       "POSITION": 46
      },
      {
       "POSITION": 47
      },
      {
       "POSITION": 48
      },
      {
       "POSITION": 49
      },
      {
       "POSITION": 50
      },
      {
       "POSITION": 51
      },
      {
       "POSITION": 52
      },
      {
       "POSITION": 53
      },
      {
       "POSITION": 54
      },
      {
       "POSITION": 55
      },
      {
       "POSITION": 56
      },
      {
       "POSITION": 57
      },
      {
       "POSITION": 58
      }
     ]
    },
    {
     "attributes": {
      "POSITION": 0,
      "TEXCOORD_0": 1
     },
     "indices": 62,
     "material": 3,
     "targets": [
      {
       "POSITION": 2
      },
      {
       "POSITION": 3
      },
      {
       "POSITION": 4
      },
      {
       "POSITION": 5
      },
      {
       "POSITION": 6
      },
      {
       "POSITION": 7
      },
      {
       "POSITION": 8
      },
      {
       "POSITION": 9
      },
      {
       "POSITION": 10
      },
      {
       "POSITION": 11
      },
      {
       "POSITION": 12
      },
      {
       "POSITION": 13
      },
      {
       "POSITION": 14
      },
      {
       "POSITION": 15
      },
      {
       "POSITION": 16
      },
      {
       "POSITION": 17
      },
      {
       "POSITION": 18
      },
      {
       "POSITION": 19
      },
      {
       "POSITION": 20
      },
      {
       "POSITION": 21
      },
      {
       "POSITION": 22
      },
      {
       "POSITION": 23
      },
      {
       "POSITION": 24
      },
      {
       "POSITION": 25
      },
      {
       "POSITION": 26
      },
      {
       "POSITION": 27
      },
      {
       "POSITION": 28
      },
      {
       "POSITION": 29
      },
      {
       "POSITION": 30
      },
      {
       "POSITION": 31
      },
      {
       "POSITION": 32
      },
      {
       "POSITION": 33
      },
      {
       "POSITION": 34
      },
      {
       "POSITION": 35
      },
      {
       "POSITION": 36
      },
      {
       "POSITION": 37
      },
      {
       "POSITION": 38
      },
      {
       "POSITION": 39
      },
      {
       "POSITION": 40
      },
      {
       "POSITION": 41
      },
      {
       "POSITION": 42
      },
      {
       "POSITION": 43
      },
      {
       "POSITION": 44
      },
      {
       "POSITION": 45
      },
      {
       "POSITION": 46
      },
      {
       "POSITION": 47
      },
      {
       "POSITION": 48
      },
      {
       "POSITION": 49
      },
      {
       "POSITION": 50
      },
      {
       "POSITION": 51
      },
      {
       "POSITION": 52
      },
      {
       "POSITION": 53
      },
      {
       "POSITION": 54
      },
      {
       "POSITION": 55
      },
      {
       "POSITION": 56
      },
      {
       "POSITION": 57
      },
      {
       "POSITION": 58
      }
     ]
    }
   ],
   "weights": [
    0,
    0,
    0,
    0,
    0,
    0,
    0,
    0,
    0,
    0,
    0,
    0,
    0,
    0,
    0,
    0,
    0,
    0,
    0,
    0,
    0,
    0,
    0,
    0,
    0,
    0,
    0,
    0,
    0,
    0,
    0,
    0,
    0,
    0,
    0,
    0,
    0,
    0,
    0,
    0,
    0,
    0,
    0,
    0,
    0,
    0,
    0,
    0,
    0,
    0,
    0,
    0,
    0,
    0,
    0,
    0,
    0
   ]
  }
 ],
 "materials": [
  {
   "name": "slot0",
   "pbrMetallicRoughness": {
    "baseColorTexture": {
     "index": 0
    },
    "metallicFactor": 0,
    "roughnessFactor": 1
   }
  },
  {
   "name": "slot1",
   "pbrMetallicRoughness": {
    "baseColorTexture": {
     "index": 1
    },
    "metallicFactor": 0,
    "roughnessFactor": 1
   }
  },
  {
   "name": "slot2",
   "pbrMetallicRoughness": {
    "baseColorTexture": {
     "index": 2
    },
    "metallicFactor": 0,
    "roughnessFactor": 1
   }
  },
  {
   "name": "slot3",
   "pbrMetallicRoughness": {
    "baseColorTexture": {
     "index": 3
    },
    "metallicFactor": 0,
    "roughnessFactor": 1
   }
  }
 ],
 "textures": [
  {
   "source": 0,
   "sampler": 0
  },
  {
   "source": 1,
   "sampler": 0
  },
  {
   "source": 2,
   "sampler": 0
  },
  {
   "source": 3,
   "sampler": 0
  }
 ],
 "images": [
  {
   "uri": "aryss/s0.png"
  },
  {
   "uri": "aryss/s1.png"
  },
  {
   "uri": "aryss/s2.png"
  },
  {
   "uri": "aryss/s3.png"
  }
 ],
 "samplers": [
  {
   "magFilter": 9729,
   "minFilter": 9987,
   "wrapS": 10497,
   "wrapT": 10497
  }
 ],
 "accessors": [
  {
   "bufferView": 0,
   "componentType": 5126,
   "count": 507,
   "type": "VEC3",
   "min": [
    -0.29506751389992053,
    0,
    -0.674440031771247
   ],
   "max": [
    0.45786338363780776,
    1.8299999999999998,
    0.5552501985702938
   ]
  },
  {
   "bufferView": 1,
   "componentType": 5126,
   "count": 507,
   "type": "VEC2"
  },
  {
   "bufferView": 2,
   "componentType": 5126,
   "count": 507,
   "type": "VEC3",
   "min": [
    -0.6613582372665405,
    -0.17297060787677765,
    -0.10756155848503113
   ],
   "max": [
    0.1889594942331314,
    0.5814138054847717,
    0.6250198483467102
   ]
  },
  {
   "bufferView": 3,
   "componentType": 5126,
   "count": 507,
   "type": "VEC3",
   "min": [
    -0.7413026094436646,
    -0.24419380724430084,
    -0.13663224875926971
   ],
   "max": [
    0.15262113511562347,
    0.6395552158355713,
    0.6947895288467407
   ]
  },
  {
   "bufferView": 4,
   "componentType": 5126,
   "count": 507,
   "type": "VEC3",
   "min": [
    -0.7820016145706177,
    -0.2936139702796936,
    -0.17442414164543152
   ],
   "max": [
    0.13663224875926971,
    0.8953772783279419,
    0.9011914134025574
   ]
  },
  {
   "bufferView": 5,
   "componentType": 5126,
   "count": 507,
   "type": "VEC3",
   "min": [
    -0.7907227873802185,
    -0.2892533838748932,
    -0.18314535915851593
   ],
   "max": [
    0.13517871499061584,
    0.9535186886787415,
    0.9244479537010193
   ]
  },
  {
   "bufferView": 6,
   "componentType": 5126,
   "count": 507,
   "type": "VEC3",
   "min": [
    -0.7994440197944641,
    -0.22965845465660095,
    -0.39536139369010925
   ],
   "max": [
    0.13663224875926971,
    0.8008975386619568,
    0.7413026094436646
   ]
  },
  {
   "bufferView": 7,
   "componentType": 5126,
   "count": 507,
   "type": "VEC3",
   "min": [
    -0.7369419932365417,
    -0.17297060787677765,
    -0.5726926326751709
   ],
   "max": [
    0.1279110461473465,
    0.6250198483467102,
    1.110500454902649
   ]
  },
  {
   "bufferView": 8,
   "componentType": 5126,
   "count": 507,
   "type": "VEC3",
   "min": [
    -0.4694916605949402,
    -0.2848927676677704,
    -0.6715329885482788
   ],
   "max": [
    0.21221604943275452,
    0.641008734703064,
    1.2762033939361572
   ]
  },
  {
   "bufferView": 9,
   "componentType": 5126,
   "count": 507,
   "type": "VEC3",
   "min": [
    -0.23837967216968536,
    -0.39100080728530884,
    -0.834328830242157
   ],
   "max": [
    0.25872915983200073,
    0.8997378945350647,
    1.4244638681411743
   ]
  },
  {
   "bufferView": 10,
   "componentType": 5126,
   "count": 507,
   "type": "VEC3",
   "min": [
    -0.24419380724430084,
    -0.4026290774345398,
    -0.7122319340705872
   ],
   "max": [
    0.29070690274238586,
    0.9549722075462341,
    1.282017469406128
   ]
  },
  {
   "bufferView": 11,
   "componentType": 5126,
   "count": 507,
   "type": "VEC3",
   "min": [
    -0.4157108962535858,
    -0.2994281053543091,
    -0.30524227023124695
   ],
   "max": [
    0.28053218126296997,
    0.7921763062477112,
    0.8401429653167725
   ]
  },
  {
   "bufferView": 12,
   "componentType": 5126,
   "count": 507,
   "type": "VEC3",
   "min": [
    -0.7006036639213562,
    -0.13372518122196198,
    -0.13953931629657745
   ],
   "max": [
    0.16424940526485443,
    0.5814138054847717,
    0.709324836730957
   ]
  },
  {
   "bufferView": 13,
   "componentType": 5126,
   "count": 507,
   "type": "VEC3",
   "min": [
    -0.7398490905761719,
    -0.23111198842525482,
    -0.15988880395889282
   ],
   "max": [
    0.15843527019023895,
    0.6162986755371094,
    0.7529308795928955
   ]
  },
  {
   "bufferView": 14,
   "componentType": 5126,
   "count": 507,
   "type": "VEC3",
   "min": [
    -0.7732803821563721,
    -0.29506751894950867,
    -0.1802382916212082
   ],
   "max": [
    0.15262113511562347,
    0.8764813542366028,
    0.9157267808914185
   ]
  },
  {
   "bufferView": 15,
   "componentType": 5126,
   "count": 507,
   "type": "VEC3",
   "min": [
    -0.7820016145706177,
    -0.2877998352050781,
    -0.17442414164543152
   ],
   "max": [
    0.1511675864458084,
    0.9273550510406494,
    0.9302620887756348
   ]
  },
  {
   "bufferView": 16,
   "componentType": 5126,
   "count": 507,
   "type": "VEC3",
   "min": [
    -0.7761874794960022,
    -0.2136695832014084,
    -0.37210485339164734
   ],
   "max": [
    0.1511675864458084,
    0.7529308795928955,
    0.7994440197944641
   ]
  },
  {
   "bufferView": 17,
   "componentType": 5126,
   "count": 507,
   "type": "VEC3",
   "min": [
    -0.7747339010238647,
    -0.13372518122196198,
    -0.5785067677497864
   ],
   "max": [
    0.1511675864458084,
    0.5944956541061401,
    1.1279428005218506
   ]
  },
  {
   "bufferView": 18,
   "componentType": 5126,
   "count": 507,
   "type": "VEC3",
   "min": [
    -0.5857744216918945,
    -0.12064336985349655,
    -0.6802541613578796
   ],
   "max": [
    0.16861000657081604,
    0.641008734703064,
    1.2965527772903442
   ]
  },
  {
   "bufferView": 19,
   "componentType": 5126,
   "count": 507,
   "type": "VEC3",
   "min": [
    -0.2514614760875702,
    -0.10756155848503113,
    -0.8372359275817871
   ],
   "max": [
    0.19041302800178528,
    0.9011914134025574,
    1.4419063329696655
   ]
  },
  {
   "bufferView": 20,
   "componentType": 5126,
   "count": 507,
   "type": "VEC3",
   "min": [
    -0.25727561116218567,
    -0.09884034842252731,
    -0.709324836730957
   ],
   "max": [
    0.1991342306137085,
    0.9535186886787415,
    1.2994599342346191
   ]
  },
  {
   "bufferView": 21,
   "componentType": 5126,
   "count": 507,
   "type": "VEC3",
   "min": [
    -0.5508896112442017,
    -0.14826051890850067,
    -0.29070690274238586
   ],
   "max": [
    0.17442414164543152,
    0.7790945172309875,
    0.8517712354660034
   ]
  },
  {
   "bufferView": 22,
   "componentType": 5126,
   "count": 507,
   "type": "VEC3",
   "min": [
    -0.00872120726853609,
    -0.004360603634268045,
    -0.002907069167122245
   ],
   "max": [
    0.03924543410539627,
    0.04942017421126366,
    0.08721207082271576
   ]
  },
  {
   "bufferView": 23,
   "componentType": 5126,
   "count": 507,
   "type": "VEC3",
   "min": [
    -0.01889594830572605,
    -0.014535345137119293,
    -0.00872120726853609
   ],
   "max": [
    0.04942017421126366,
    0.24855440855026245,
    0.21221604943275452
   ]
  },
  {
   "bufferView": 24,
   "componentType": 5126,
   "count": 507,
   "type": "VEC3",
   "min": [
    -0.02034948393702507,
    -0.015988880768418312,
    -0.002907069167122245
   ],
   "max": [
    0.053780779242515564,
    0.30088165402412415,
    0.255822092294693
   ]
  },
  {
   "bufferView": 25,
   "componentType": 5126,
   "count": 507,
   "type": "VEC3",
   "min": [
    -0.01744241453707218,
    -0.013081811368465424,
    -0.002907069167122245
   ],
   "max": [
    0.04651310667395592,
    0.25872915983200073,
    0.20640189945697784
   ]
  },
  {
   "bufferView": 26,
   "componentType": 5126,
   "count": 507,
   "type": "VEC3",
   "min": [
    -0.013081811368465424,
    -0.03488482907414436,
    -0.002907069167122245
   ],
   "max": [
    0.033431295305490494,
    0.18605242669582367,
    0.13081811368465424
   ]
  },
  {
   "bufferView": 27,
   "componentType": 5126,
   "count": 507,
   "type": "VEC3",
   "min": [
    -0.01162827666848898,
    -0.033431295305490494,
    -0.002907069167122245
   ],
   "max": [
    0.02034948393702507,
    0.10174741595983505,
    0.06395552307367325
   ]
  },
  {
   "bufferView": 28,
   "componentType": 5126,
   "count": 507,
   "type": "VEC3",
   "min": [
    -0.002907069167122245,
    -0.007267672568559647,
    0
   ],
   "max": [
    0.00581413833424449,
    0.027617156505584717,
    0.014535345137119293
   ]
  },
  {
   "bufferView": 29,
   "componentType": 5126,
   "count": 507,
   "type": "VEC3",
   "min": [
    -0.25727561116218567,
    -0.04796664044260979,
    -0.4215250313282013
   ],
   "max": [
    0.1700635403394699,
    0.3372200131416321,
    0.5349007248878479
   ]
  },
  {
   "bufferView": 30,
   "componentType": 5126,
   "count": 507,
   "type": "VEC3",
   "min": [
    -0.25727561116218567,
    -0.06831612437963486,
    -0.32849881052970886
   ],
   "max": [
    0.1700635403394699,
    0.1947736293077469,
    0.26745036244392395
   ]
  },
  {
   "bufferView": 31,
   "componentType": 5126,
   "count": 507,
   "type": "VEC3",
   "min": [
    -0.25727561116218567,
    -0.09593328088521957,
    -0.23837967216968536
   ],
   "max": [
    0.1700635403394699,
    0.16715647280216217,
    0.21512311697006226
   ]
  },
  {
   "bufferView": 32,
   "componentType": 5126,
   "count": 507,
   "type": "VEC3",
   "min": [
    -0.2456473410129547,
    -0.11628276109695435,
    -0.14826051890850067
   ],
   "max": [
    0.1657029390335083,
    0.14826051890850067,
    0.21803018450737
   ]
  },
  {
   "bufferView": 33,
   "componentType": 5126,
   "count": 507,
   "type": "VEC3",
   "min": [
    -0.22384431958198547,
    -0.13663224875926971,
    -0.11918983608484268
   ],
   "max": [
    0.15843527019023895,
    0.20058776438236237,
    0.22093725204467773
   ]
  },
  {
   "bufferView": 34,
   "componentType": 5126,
   "count": 507,
   "type": "VEC3",
   "min": [
    -0.2078554481267929,
    -0.14099285006523132,
    -0.11628276109695435
   ],
   "max": [
    0.14826051890850067,
    0.37210485339164734,
    0.36629071831703186
   ]
  },
  {
   "bufferView": 35,
   "componentType": 5126,
   "count": 507,
   "type": "VEC3",
   "min": [
    -0.2078554481267929,
    -0.10756155848503113,
    -0.1657029390335083
   ],
   "max": [
    0.14971405267715454,
    0.3517553508281708,
    0.21221604943275452
   ]
  },
  {
   "bufferView": 36,
   "componentType": 5126,
   "count": 507,
   "type": "VEC3",
   "min": [
    -0.2078554481267929,
    -0.06104845181107521,
    -0.29652103781700134
   ],
   "max": [
    0.14971405267715454,
    0.3255917429924011,
    0.2994281053543091
   ]
  },
  {
   "bufferView": 37,
   "componentType": 5126,
   "count": 507,
   "type": "VEC3",
   "min": [
    -0.2078554481267929,
    -0.07994440197944641,
    -0.43896743655204773
   ],
   "max": [
    0.14971405267715454,
    0.2921604514122009,
    0.4128037989139557
   ]
  },
  {
   "bufferView": 38,
   "componentType": 5126,
   "count": 507,
   "type": "VEC3",
   "min": [
    -0.2078554481267929,
    -0.11482922732830048,
    -0.6540905237197876
   ],
   "max": [
    0.14971405267715454,
    0.3168705403804779,
    0.5058300495147705
   ]
  },
  {
   "bufferView": 39,
   "componentType": 5126,
   "count": 507,
   "type": "VEC3",
   "min": [
    -0.2078554481267929,
    -0.1511675864458084,
    -0.8837490081787109
   ],
   "max": [
    0.14971405267715454,
    0.2877998352050781,
    0.5959491729736328
   ]
  },
  {
   "bufferView": 40,
   "componentType": 5126,
   "count": 507,
   "type": "VEC3",
   "min": [
    -0.22820492088794708,
    -0.17151707410812378,
    -0.8372359275817871
   ],
   "max": [
    0.15988880395889282,
    0.26745036244392395,
    0.7500238418579102
   ]
  },
  {
   "bufferView": 41,
   "componentType": 5126,
   "count": 507,
   "type": "VEC3",
   "min": [
    -0.24710087478160858,
    -0.1947736293077469,
    -0.7878157496452332
   ],
   "max": [
    0.1657029390335083,
    0.3110564053058624,
    0.9389833211898804
   ]
  },
  {
   "bufferView": 42,
   "componentType": 5126,
   "count": 507,
   "type": "VEC3",
   "min": [
    -0.25727561116218567,
    -0.1700635403394699,
    -0.6918824315071106
   ],
   "max": [
    0.17297060787677765,
    0.3880937397480011,
    0.9651469588279724
   ]
  },
  {
   "bufferView": 43,
   "componentType": 5126,
   "count": 507,
   "type": "VEC3",
   "min": [
    -0.25727561116218567,
    -0.06976965814828873,
    -0.5552502274513245
   ],
   "max": [
    0.17151707410812378,
    0.3648371696472168,
    0.7500238418579102
   ]
  },
  {
   "bufferView": 44,
   "componentType": 5126,
   "count": 507,
   "type": "VEC3",
   "min": [
    -0.25727561116218567,
    -0.02034948393702507,
    -0.4215250313282013
   ],
   "max": [
    0.1700635403394699,
    0.3372200131416321,
    0.5349007248878479
   ]
  },
  {
   "bufferView": 45,
   "componentType": 5126,
   "count": 507,
   "type": "VEC3",
   "min": [
    -0.25727561116218567,
    -0.015988880768418312,
    -0.32849881052970886
   ],
   "max": [
    0.1700635403394699,
    0.1947736293077469,
    0.26745036244392395
   ]
  },
  {
   "bufferView": 46,
   "componentType": 5126,
   "count": 507,
   "type": "VEC3",
   "min": [
    -0.25727561116218567,
    -0.015988880768418312,
    -0.23837967216968536
   ],
   "max": [
    0.1700635403394699,
    0.11773630231618881,
    0.08721207082271576
   ]
  },
  {
   "bufferView": 47,
   "componentType": 5126,
   "count": 507,
   "type": "VEC3",
   "min": [
    -0.2456473410129547,
    -0.0566878467798233,
    -0.14826051890850067
   ],
   "max": [
    0.1657029390335083,
    0.09884034842252731,
    0.09593328088521957
   ]
  },
  {
   "bufferView": 48,
   "componentType": 5126,
   "count": 507,
   "type": "VEC3",
   "min": [
    -0.22384431958198547,
    -0.07849086821079254,
    -0.0901191458106041
   ],
   "max": [
    0.15843527019023895,
    0.20058776438236237,
    0.11918983608484268
   ]
  },
  {
   "bufferView": 49,
   "componentType": 5126,
   "count": 507,
   "type": "VEC3",
   "min": [
    -0.2078554481267929,
    -0.0712231919169426,
    -0.08721207082271576
   ],
   "max": [
    0.14826051890850067,
    0.37210485339164734,
    0.36629071831703186
   ]
  },
  {
   "bufferView": 50,
   "componentType": 5126,
   "count": 507,
   "type": "VEC3",
   "min": [
    -0.2078554481267929,
    -0.027617156505584717,
    -0.1657029390335083
   ],
   "max": [
    0.14971405267715454,
    0.3517553508281708,
    0.16279587149620056
   ]
  },
  {
   "bufferView": 51,
   "componentType": 5126,
   "count": 507,
   "type": "VEC3",
   "min": [
    -0.2078554481267929,
    -0.04796664044260979,
    -0.29652103781700134
   ],
   "max": [
    0.14971405267715454,
    0.3255917429924011,
    0.2994281053543091
   ]
  },
  {
   "bufferView": 52,
   "componentType": 5126,
   "count": 507,
   "type": "VEC3",
   "min": [
    -0.2078554481267929,
    -0.07994440197944641,
    -0.43896743655204773
   ],
   "max": [
    0.14971405267715454,
    0.2921604514122009,
    0.4128037989139557
   ]
  },
  {
   "bufferView": 53,
   "componentType": 5126,
   "count": 507,
   "type": "VEC3",
   "min": [
    -0.2078554481267929,
    -0.11482922732830048,
    -0.6540905237197876
   ],
   "max": [
    0.14971405267715454,
    0.3168705403804779,
    0.5058300495147705
   ]
  },
  {
   "bufferView": 54,
   "componentType": 5126,
   "count": 507,
   "type": "VEC3",
   "min": [
    -0.2078554481267929,
    -0.1511675864458084,
    -0.8837490081787109
   ],
   "max": [
    0.14971405267715454,
    0.2877998352050781,
    0.5959491729736328
   ]
  },
  {
   "bufferView": 55,
   "componentType": 5126,
   "count": 507,
   "type": "VEC3",
   "min": [
    -0.22820492088794708,
    -0.17151707410812378,
    -0.8372359275817871
   ],
   "max": [
    0.1555282026529312,
    0.26745036244392395,
    0.7500238418579102
   ]
  },
  {
   "bufferView": 56,
   "componentType": 5126,
   "count": 507,
   "type": "VEC3",
   "min": [
    -0.24710087478160858,
    -0.1947736293077469,
    -0.7878157496452332
   ],
   "max": [
    0.1657029390335083,
    0.3110564053058624,
    0.9389833211898804
   ]
  },
  {
   "bufferView": 57,
   "componentType": 5126,
   "count": 507,
   "type": "VEC3",
   "min": [
    -0.25727561116218567,
    -0.1700635403394699,
    -0.6918824315071106
   ],
   "max": [
    0.17297060787677765,
    0.3880937397480011,
    0.9651469588279724
   ]
  },
  {
   "bufferView": 58,
   "componentType": 5126,
   "count": 507,
   "type": "VEC3",
   "min": [
    -0.25727561116218567,
    -0.06686259061098099,
    -0.5552502274513245
   ],
   "max": [
    0.17151707410812378,
    0.3648371696472168,
    0.7500238418579102
   ]
  },
  {
   "bufferView": 59,
   "componentType": 5123,
   "count": 396,
   "type": "SCALAR"
  },
  {
   "bufferView": 60,
   "componentType": 5123,
   "count": 474,
   "type": "SCALAR"
  },
  {
   "bufferView": 61,
   "componentType": 5123,
   "count": 258,
   "type": "SCALAR"
  },
  {
   "bufferView": 62,
   "componentType": 5123,
   "count": 669,
   "type": "SCALAR"
  },
  {
   "bufferView": 63,
   "componentType": 5126,
   "count": 2,
   "type": "SCALAR",
   "min": [
    0
   ],
   "max": [
    0.06666666666666667
   ]
  },
  {
   "bufferView": 64,
   "componentType": 5126,
   "count": 114,
   "type": "SCALAR"
  },
  {
   "bufferView": 65,
   "componentType": 5126,
   "count": 2,
   "type": "VEC3",
   "min": [
    0.247100873709293,
    1.3663224781572676,
    -0.6133915806195392
   ],
   "max": [
    0.247100873709293,
    1.3663224781572676,
    -0.6133915806195392
   ]
  },
  {
   "bufferView": 66,
   "componentType": 5126,
   "count": 2,
   "type": "VEC4"
  },
  {
   "bufferView": 67,
   "componentType": 5126,
   "count": 16,
   "type": "SCALAR",
   "min": [
    0
   ],
   "max": [
    0.8333333333333334
   ]
  },
  {
   "bufferView": 68,
   "componentType": 5126,
   "count": 912,
   "type": "SCALAR"
  },
  {
   "bufferView": 69,
   "componentType": 5126,
   "count": 16,
   "type": "VEC3",
   "min": [
    0.14317315329626684,
    1.4484471803018266,
    -0.47385226370135025
   ],
   "max": [
    0.3386735504368546,
    1.5378395552025417,
    -0.3721048451151707
   ]
  },
  {
   "bufferView": 70,
   "componentType": 5126,
   "count": 16,
   "type": "VEC4"
  },
  {
   "bufferView": 71,
   "componentType": 5126,
   "count": 11,
   "type": "SCALAR",
   "min": [
    0
   ],
   "max": [
    0.5882352941176471
   ]
  },
  {
   "bufferView": 72,
   "componentType": 5126,
   "count": 627,
   "type": "SCALAR"
  },
  {
   "bufferView": 73,
   "componentType": 5126,
   "count": 11,
   "type": "VEC3",
   "min": [
    0.20640190627482122,
    1.0756155679110404,
    -0.5421683876092136
   ],
   "max": [
    0.49420174741858613,
    1.2551270849880858,
    0.011628276409849064
   ]
  },
  {
   "bufferView": 74,
   "componentType": 5126,
   "count": 11,
   "type": "VEC4"
  },
  {
   "bufferView": 75,
   "componentType": 5126,
   "count": 8,
   "type": "SCALAR",
   "min": [
    0
   ],
   "max": [
    0.4666666666666667
   ]
  },
  {
   "bufferView": 76,
   "componentType": 5126,
   "count": 456,
   "type": "SCALAR"
  },
  {
   "bufferView": 77,
   "componentType": 5126,
   "count": 8,
   "type": "VEC3",
   "min": [
    0.247100873709293,
    1.3663224781572676,
    -0.6133915806195392
   ],
   "max": [
    0.28561953931691814,
    1.6177839555202542,
    -0.43315329626687843
   ]
  },
  {
   "bufferView": 78,
   "componentType": 5126,
   "count": 8,
   "type": "VEC4"
  },
  {
   "bufferView": 79,
   "componentType": 5126,
   "count": 16,
   "type": "SCALAR",
   "min": [
    0
   ],
   "max": [
    0.8333333333333334
   ]
  },
  {
   "bufferView": 80,
   "componentType": 5126,
   "count": 912,
   "type": "SCALAR"
  },
  {
   "bufferView": 81,
   "componentType": 5126,
   "count": 16,
   "type": "VEC3",
   "min": [
    0.16061556791104042,
    1.3234432088959491,
    -0.6846147736298649
   ],
   "max": [
    0.2361993645750595,
    1.466616362192216,
    -0.6366481334392374
   ]
  },
  {
   "bufferView": 82,
   "componentType": 5126,
   "count": 16,
   "type": "VEC4"
  },
  {
   "bufferView": 83,
   "componentType": 5126,
   "count": 11,
   "type": "SCALAR",
   "min": [
    0
   ],
   "max": [
    0.5882352941176471
   ]
  },
  {
   "bufferView": 84,
   "componentType": 5126,
   "count": 627,
   "type": "SCALAR"
  },
  {
   "bufferView": 85,
   "componentType": 5126,
   "count": 11,
   "type": "VEC3",
   "min": [
    0.17733121525019852,
    1.3139952343129466,
    -0.7136854646544877
   ],
   "max": [
    0.337946783161239,
    1.451354249404289,
    -0.4796664019062748
   ]
  },
  {
   "bufferView": 86,
   "componentType": 5126,
   "count": 11,
   "type": "VEC4"
  }
 ],
 "bufferViews": [
  {
   "buffer": 0,
   "byteOffset": 0,
   "byteLength": 6084,
   "target": 34962
  },
  {
   "buffer": 0,
   "byteOffset": 6084,
   "byteLength": 4056,
   "target": 34962
  },
  {
   "buffer": 0,
   "byteOffset": 10140,
   "byteLength": 6084,
   "target": 34962
  },
  {
   "buffer": 0,
   "byteOffset": 16224,
   "byteLength": 6084,
   "target": 34962
  },
  {
   "buffer": 0,
   "byteOffset": 22308,
   "byteLength": 6084,
   "target": 34962
  },
  {
   "buffer": 0,
   "byteOffset": 28392,
   "byteLength": 6084,
   "target": 34962
  },
  {
   "buffer": 0,
   "byteOffset": 34476,
   "byteLength": 6084,
   "target": 34962
  },
  {
   "buffer": 0,
   "byteOffset": 40560,
   "byteLength": 6084,
   "target": 34962
  },
  {
   "buffer": 0,
   "byteOffset": 46644,
   "byteLength": 6084,
   "target": 34962
  },
  {
   "buffer": 0,
   "byteOffset": 52728,
   "byteLength": 6084,
   "target": 34962
  },
  {
   "buffer": 0,
   "byteOffset": 58812,
   "byteLength": 6084,
   "target": 34962
  },
  {
   "buffer": 0,
   "byteOffset": 64896,
   "byteLength": 6084,
   "target": 34962
  },
  {
   "buffer": 0,
   "byteOffset": 70980,
   "byteLength": 6084,
   "target": 34962
  },
  {
   "buffer": 0,
   "byteOffset": 77064,
   "byteLength": 6084,
   "target": 34962
  },
  {
   "buffer": 0,
   "byteOffset": 83148,
   "byteLength": 6084,
   "target": 34962
  },
  {
   "buffer": 0,
   "byteOffset": 89232,
   "byteLength": 6084,
   "target": 34962
  },
  {
   "buffer": 0,
   "byteOffset": 95316,
   "byteLength": 6084,
   "target": 34962
  },
  {
   "buffer": 0,
   "byteOffset": 101400,
   "byteLength": 6084,
   "target": 34962
  },
  {
   "buffer": 0,
   "byteOffset": 107484,
   "byteLength": 6084,
   "target": 34962
  },
  {
   "buffer": 0,
   "byteOffset": 113568,
   "byteLength": 6084,
   "target": 34962
  },
  {
   "buffer": 0,
   "byteOffset": 119652,
   "byteLength": 6084,
   "target": 34962
  },
  {
   "buffer": 0,
   "byteOffset": 125736,
   "byteLength": 6084,
   "target": 34962
  },
  {
   "buffer": 0,
   "byteOffset": 131820,
   "byteLength": 6084,
   "target": 34962
  },
  {
   "buffer": 0,
   "byteOffset": 137904,
   "byteLength": 6084,
   "target": 34962
  },
  {
   "buffer": 0,
   "byteOffset": 143988,
   "byteLength": 6084,
   "target": 34962
  },
  {
   "buffer": 0,
   "byteOffset": 150072,
   "byteLength": 6084,
   "target": 34962
  },
  {
   "buffer": 0,
   "byteOffset": 156156,
   "byteLength": 6084,
   "target": 34962
  },
  {
   "buffer": 0,
   "byteOffset": 162240,
   "byteLength": 6084,
   "target": 34962
  },
  {
   "buffer": 0,
   "byteOffset": 168324,
   "byteLength": 6084,
   "target": 34962
  },
  {
   "buffer": 0,
   "byteOffset": 174408,
   "byteLength": 6084,
   "target": 34962
  },
  {
   "buffer": 0,
   "byteOffset": 180492,
   "byteLength": 6084,
   "target": 34962
  },
  {
   "buffer": 0,
   "byteOffset": 186576,
   "byteLength": 6084,
   "target": 34962
  },
  {
   "buffer": 0,
   "byteOffset": 192660,
   "byteLength": 6084,
   "target": 34962
  },
  {
   "buffer": 0,
   "byteOffset": 198744,
   "byteLength": 6084,
   "target": 34962
  },
  {
   "buffer": 0,
   "byteOffset": 204828,
   "byteLength": 6084,
   "target": 34962
  },
  {
   "buffer": 0,
   "byteOffset": 210912,
   "byteLength": 6084,
   "target": 34962
  },
  {
   "buffer": 0,
   "byteOffset": 216996,
   "byteLength": 6084,
   "target": 34962
  },
  {
   "buffer": 0,
   "byteOffset": 223080,
   "byteLength": 6084,
   "target": 34962
  },
  {
   "buffer": 0,
   "byteOffset": 229164,
   "byteLength": 6084,
   "target": 34962
  },
  {
   "buffer": 0,
   "byteOffset": 235248,
   "byteLength": 6084,
   "target": 34962
  },
  {
   "buffer": 0,
   "byteOffset": 241332,
   "byteLength": 6084,
   "target": 34962
  },
  {
   "buffer": 0,
   "byteOffset": 247416,
   "byteLength": 6084,
   "target": 34962
  },
  {
   "buffer": 0,
   "byteOffset": 253500,
   "byteLength": 6084,
   "target": 34962
  },
  {
   "buffer": 0,
   "byteOffset": 259584,
   "byteLength": 6084,
   "target": 34962
  },
  {
   "buffer": 0,
   "byteOffset": 265668,
   "byteLength": 6084,
   "target": 34962
  },
  {
   "buffer": 0,
   "byteOffset": 271752,
   "byteLength": 6084,
   "target": 34962
  },
  {
   "buffer": 0,
   "byteOffset": 277836,
   "byteLength": 6084,
   "target": 34962
  },
  {
   "buffer": 0,
   "byteOffset": 283920,
   "byteLength": 6084,
   "target": 34962
  },
  {
   "buffer": 0,
   "byteOffset": 290004,
   "byteLength": 6084,
   "target": 34962
  },
  {
   "buffer": 0,
   "byteOffset": 296088,
   "byteLength": 6084,
   "target": 34962
  },
  {
   "buffer": 0,
   "byteOffset": 302172,
   "byteLength": 6084,
   "target": 34962
  },
  {
   "buffer": 0,
   "byteOffset": 308256,
   "byteLength": 6084,
   "target": 34962
  },
  {
   "buffer": 0,
   "byteOffset": 314340,
   "byteLength": 6084,
   "target": 34962
  },
  {
   "buffer": 0,
   "byteOffset": 320424,
   "byteLength": 6084,
   "target": 34962
  },
  {
   "buffer": 0,
   "byteOffset": 326508,
   "byteLength": 6084,
   "target": 34962
  },
  {
   "buffer": 0,
   "byteOffset": 332592,
   "byteLength": 6084,
   "target": 34962
  },
  {
   "buffer": 0,
   "byteOffset": 338676,
   "byteLength": 6084,
   "target": 34962
  },
  {
   "buffer": 0,
   "byteOffset": 344760,
   "byteLength": 6084,
   "target": 34962
  },
  {
   "buffer": 0,
   "byteOffset": 350844,
   "byteLength": 6084,
   "target": 34962
  },
  {
   "buffer": 0,
   "byteOffset": 356928,
   "byteLength": 792,
   "target": 34963
  },
  {
   "buffer": 0,
   "byteOffset": 357720,
   "byteLength": 948,
   "target": 34963
  },
  {
   "buffer": 0,
   "byteOffset": 358668,
   "byteLength": 516,
   "target": 34963
  },
  {
   "buffer": 0,
   "byteOffset": 359184,
   "byteLength": 1338,
   "target": 34963
  },
  {
   "buffer": 0,
   "byteOffset": 360524,
   "byteLength": 8
  },
  {
   "buffer": 0,
   "byteOffset": 360532,
   "byteLength": 456
  },
  {
   "buffer": 0,
   "byteOffset": 360988,
   "byteLength": 24
  },
  {
   "buffer": 0,
   "byteOffset": 361012,
   "byteLength": 32
  },
  {
   "buffer": 0,
   "byteOffset": 361044,
   "byteLength": 64
  },
  {
   "buffer": 0,
   "byteOffset": 361108,
   "byteLength": 3648
  },
  {
   "buffer": 0,
   "byteOffset": 364756,
   "byteLength": 192
  },
  {
   "buffer": 0,
   "byteOffset": 364948,
   "byteLength": 256
  },
  {
   "buffer": 0,
   "byteOffset": 365204,
   "byteLength": 44
  },
  {
   "buffer": 0,
   "byteOffset": 365248,
   "byteLength": 2508
  },
  {
   "buffer": 0,
   "byteOffset": 367756,
   "byteLength": 132
  },
  {
   "buffer": 0,
   "byteOffset": 367888,
   "byteLength": 176
  },
  {
   "buffer": 0,
   "byteOffset": 368064,
   "byteLength": 32
  },
  {
   "buffer": 0,
   "byteOffset": 368096,
   "byteLength": 1824
  },
  {
   "buffer": 0,
   "byteOffset": 369920,
   "byteLength": 96
  },
  {
   "buffer": 0,
   "byteOffset": 370016,
   "byteLength": 128
  },
  {
   "buffer": 0,
   "byteOffset": 370144,
   "byteLength": 64
  },
  {
   "buffer": 0,
   "byteOffset": 370208,
   "byteLength": 3648
  },
  {
   "buffer": 0,
   "byteOffset": 373856,
   "byteLength": 192
  },
  {
   "buffer": 0,
   "byteOffset": 374048,
   "byteLength": 256
  },
  {
   "buffer": 0,
   "byteOffset": 374304,
   "byteLength": 44
  },
  {
   "buffer": 0,
   "byteOffset": 374348,
   "byteLength": 2508
  },
  {
   "buffer": 0,
   "byteOffset": 376856,
   "byteLength": 132
  },
  {
   "buffer": 0,
   "byteOffset": 376988,
   "byteLength": 176
  }
 ],
 "buffers": [
  {
   "uri": "sgirl.bin",
   "byteLength": 377164
  }
 ],
 "animations": [
  {
   "name": "Idle",
   "samplers": [
    {
     "input": 63,
     "output": 64,
     "interpolation": "LINEAR"
    },
    {
     "input": 63,
     "output": 65,
     "interpolation": "LINEAR"
    },
    {
     "input": 63,
     "output": 66,
     "interpolation": "LINEAR"
    }
   ],
   "channels": [
    {
     "sampler": 0,
     "target": {
      "node": 0,
      "path": "weights"
     }
    },
    {
     "sampler": 1,
     "target": {
      "node": 1,
      "path": "translation"
     }
    },
    {
     "sampler": 2,
     "target": {
      "node": 1,
      "path": "rotation"
     }
    }
   ]
  },
  {
   "name": "Walk",
   "samplers": [
    {
     "input": 67,
     "output": 68,
     "interpolation": "LINEAR"
    },
    {
     "input": 67,
     "output": 69,
     "interpolation": "LINEAR"
    },
    {
     "input": 67,
     "output": 70,
     "interpolation": "LINEAR"
    }
   ],
   "channels": [
    {
     "sampler": 0,
     "target": {
      "node": 0,
      "path": "weights"
     }
    },
    {
     "sampler": 1,
     "target": {
      "node": 1,
      "path": "translation"
     }
    },
    {
     "sampler": 2,
     "target": {
      "node": 1,
      "path": "rotation"
     }
    }
   ]
  },
  {
   "name": "Run",
   "samplers": [
    {
     "input": 71,
     "output": 72,
     "interpolation": "LINEAR"
    },
    {
     "input": 71,
     "output": 73,
     "interpolation": "LINEAR"
    },
    {
     "input": 71,
     "output": 74,
     "interpolation": "LINEAR"
    }
   ],
   "channels": [
    {
     "sampler": 0,
     "target": {
      "node": 0,
      "path": "weights"
     }
    },
    {
     "sampler": 1,
     "target": {
      "node": 1,
      "path": "translation"
     }
    },
    {
     "sampler": 2,
     "target": {
      "node": 1,
      "path": "rotation"
     }
    }
   ]
  },
  {
   "name": "Fire",
   "samplers": [
    {
     "input": 75,
     "output": 76,
     "interpolation": "LINEAR"
    },
    {
     "input": 75,
     "output": 77,
     "interpolation": "LINEAR"
    },
    {
     "input": 75,
     "output": 78,
     "interpolation": "LINEAR"
    }
   ],
   "channels": [
    {
     "sampler": 0,
     "target": {
      "node": 0,
      "path": "weights"
     }
    },
    {
     "sampler": 1,
     "target": {
      "node": 1,
      "path": "translation"
     }
    },
    {
     "sampler": 2,
     "target": {
      "node": 1,
      "path": "rotation"
     }
    }
   ]
  },
  {
   "name": "WalkFire",
   "samplers": [
    {
     "input": 79,
     "output": 80,
     "interpolation": "LINEAR"
    },
    {
     "input": 79,
     "output": 81,
     "interpolation": "LINEAR"
    },
    {
     "input": 79,
     "output": 82,
     "interpolation": "LINEAR"
    }
   ],
   "channels": [
    {
     "sampler": 0,
     "target": {
      "node": 0,
      "path": "weights"
     }
    },
    {
     "sampler": 1,
     "target": {
      "node": 1,
      "path": "translation"
     }
    },
    {
     "sampler": 2,
     "target": {
      "node": 1,
      "path": "rotation"
     }
    }
   ]
  },
  {
   "name": "RunFire",
   "samplers": [
    {
     "input": 83,
     "output": 84,
     "interpolation": "LINEAR"
    },
    {
     "input": 83,
     "output": 85,
     "interpolation": "LINEAR"
    },
    {
     "input": 83,
     "output": 86,
     "interpolation": "LINEAR"
    }
   ],
   "channels": [
    {
     "sampler": 0,
     "target": {
      "node": 0,
      "path": "weights"
     }
    },
    {
     "sampler": 1,
     "target": {
      "node": 1,
      "path": "translation"
     }
    },
    {
     "sampler": 2,
     "target": {
      "node": 1,
      "path": "rotation"
     }
    }
   ]
  }
 ]
}
