{"asset":{"version":"2.0","generator":"facingworlds ut99 extractor"},"scene":0,"scenes":[{"nodes":[0]}],"nodes":[{"mesh":0,"name":"Commando"}],"meshes":[{"name":"Commando","primitives":[{"attributes":{"POSITION":0,"TEXCOORD_0":1},"indices":2,"material":0,"targets":[{"POSITION":3},{"POSITION":4},{"POSITION":5},{"POSITION":6},{"POSITION":7},{"POSITION":8},{"POSITION":9},{"POSITION":10},{"POSITION":11},{"POSITION":12},{"POSITION":13},{"POSITION":14},{"POSITION":15},{"POSITION":16},{"POSITION":17},{"POSITION":18},{"POSITION":19},{"POSITION":20},{"POSITION":21},{"POSITION":22},{"POSITION":23},{"POSITION":24},{"POSITION":25},{"POSITION":26},{"POSITION":27},{"POSITION":28},{"POSITION":29},{"POSITION":30},{"POSITION":31},{"POSITION":32},{"POSITION":33},{"POSITION":34},{"POSITION":35},{"POSITION":36},{"POSITION":37}]},{"attributes":{"POSITION":38,"TEXCOORD_0":39},"indices":40,"material":1,"targets":[{"POSITION":41},{"POSITION":42},{"POSITION":43},{"POSITION":44},{"POSITION":45},{"POSITION":46},{"POSITION":47},{"POSITION":48},{"POSITION":49},{"POSITION":50},{"POSITION":51},{"POSITION":52},{"POSITION":53},{"POSITION":54},{"POSITION":55},{"POSITION":56},{"POSITION":57},{"POSITION":58},{"POSITION":59},{"POSITION":60},{"POSITION":61},{"POSITION":62},{"POSITION":63},{"POSITION":64},{"POSITION":65},{"POSITION":66},{"POSITION":67},{"POSITION":68},{"POSITION":69},{"POSITION":70},{"POSITION":71},{"POSITION":72},{"POSITION":73},{"POSITION":74},{"POSITION":75}]},{"attributes":{"POSITION":76,"TEXCOORD_0":77},"indices":78,"material":2,"targets":[{"POSITION":79},{"POSITION":80},{"POSITION":81},{"POSITION":82},{"POSITION":83},{"POSITION":84},{"POSITION":85},{"POSITION":86},{"POSITION":87},{"POSITION":88},{"POSITION":89},{"POSITION":90},{"POSITION":91},{"POSITION":92},{"POSITION":93},{"POSITION":94},{"POSITION":95},{"POSITION":96},{"POSITION":97},{"POSITION":98},{"POSITION":99},{"POSITION":100},{"POSITION":101},{"POSITION":102},{"POSITION":103},{"POSITION":104},{"POSITION":105},{"POSITION":106},{"POSITION":107},{"POSITION":108},{"POSITION":109},{"POSITION":110},{"POSITION":111},{"POSITION":112},{"POSITION":113}]},{"attributes":{"POSITION":114,"TEXCOORD_0":115},"indices":116,"material":3,"targets":[{"POSITION":117},{"POSITION":118},{"POSITION":119},{"POSITION":120},{"POSITION":121},{"POSITION":122},{"POSITION":123},{"POSITION":124},{"POSITION":125},{"POSITION":126},{"POSITION":127},{"POSITION":128},{"POSITION":129},{"POSITION":130},{"POSITION":131},{"POSITION":132},{"POSITION":133},{"POSITION":134},{"POSITION":135},{"POSITION":136},{"POSITION":137},{"POSITION":138},{"POSITION":139},{"POSITION":140},{"POSITION":141},{"POSITION":142},{"POSITION":143},{"POSITION":144},{"POSITION":145},{"POSITION":146},{"POSITION":147},{"POSITION":148},{"POSITION":149},{"POSITION":150},{"POSITION":151}]}],"weights":[0,0,0,0,0,0,0,0,0,0,0,0,0,0,0,0,0,0,0,0,0,0,0,0,0,0,0,0,0,0,0,0,0,0,0]}],"materials":[{"name":"slot0","pbrMetallicRoughness":{"baseColorTexture":{"index":0},"metallicFactor":0,"roughnessFactor":1}},{"name":"slot1","pbrMetallicRoughness":{"baseColorTexture":{"index":1},"metallicFactor":0,"roughnessFactor":1}},{"name":"slot2","pbrMetallicRoughness":{"baseColorTexture":{"index":2},"metallicFactor":0,"roughnessFactor":1}},{"name":"slot3","pbrMetallicRoughness":{"baseColorTexture":{"index":3},"metallicFactor":0,"roughnessFactor":1}}],"images":[{"uri":"graves/s0.png"},{"uri":"graves/s1.png"},{"uri":"graves/s2.png"},{"uri":"graves/s3.png"}],"samplers":[{"magFilter":9729,"minFilter":9987,"wrapS":10497,"wrapT":10497}],"textures":[{"source":0,"sampler":0},{"source":1,"sampler":0},{"source":2,"sampler":0},{"source":3,"sampler":0}],"accessors":[{"bufferView":0,"componentType":5126,"count":122,"type":"VEC3","min":[-0.2840127150336575,1.0416080777860883,-0.3284966342557966],"max":[0.3291810022438295,1.400216903515333,0.4434704562453254]},{"bufferView":1,"componentType":5126,"count":122,"type":"VEC2"},{"bufferView":2,"componentType":5123,"count":534,"type":"SCALAR"},{"bufferView":3,"componentType":5126,"count":122,"type":"VEC3","min":[0,0,0],"max":[0,0,0]},{"bufferView":4,"componentType":5126,"count":122,"type":"VEC3","min":[-0.04106207928197457,-0.04379955123410628,-0.158773373223635],"max":[0.1067614061331339,0.02189977561705314,0.016424831712789835]},{"bufferView":5,"componentType":5126,"count":122,"type":"VEC3","min":[-0.10539267015706807,-0.01779356768885565,-0.3202842183994017],"max":[0.2737471952131638,0.33670905011219143,0.019162303664921464]},{"bufferView":6,"componentType":5126,"count":122,"type":"VEC3","min":[-0.11360508601346299,-0.012318623784592475,-0.35860882572924463],"max":[0.30385938668661183,0.4311518324607331,0.005474943904263278]},{"bufferView":7,"componentType":5126,"count":122,"type":"VEC3","min":[-0.10265519820493643,0.005474943904263174,-0.33670905011219154],"max":[0.28743455497382203,0.424308152580404,0.005474943904263278]},{"bufferView":8,"componentType":5126,"count":122,"type":"VEC3","min":[-0.08486163051608078,0.016424831712789745,-0.2929094988780853],"max":[0.25595362752430817,0.3873522812266268,0.008212415856394907]},{"bufferView":9,"componentType":5126,"count":122,"type":"VEC3","min":[-0.06569932685115931,0.016424831712789745,-0.2326851159311893],"max":[0.20941660433807033,0.3189154824233358,0.008212415856394907]},{"bufferView":10,"componentType":5126,"count":122,"type":"VEC3","min":[-0.04379955123410621,0.012318623784592475,-0.1615108451757667],"max":[0.15329842931937177,0.23542258788332093,0.008212415856394907]},{"bufferView":11,"componentType":5126,"count":122,"type":"VEC3","min":[-0.026005983545250563,0.008212415856394983,-0.09307404637247574],"max":[0.09444278234854153,0.1464547494390427,0.005474943904263278]},{"bufferView":12,"componentType":5126,"count":122,"type":"VEC3","min":[-0.010949887808526543,0.002737471952131587,-0.041062079281974584],"max":[0.04106207928197453,0.06433059087509352,0.0027374719521316426]},{"bufferView":13,"componentType":5126,"count":122,"type":"VEC3","min":[0.016424831712789856,0.034218399401645616,0.043799551234106227],"max":[0.11223635003739718,0.15329842931937177,0.17519820493642488]},{"bufferView":14,"componentType":5126,"count":122,"type":"VEC3","min":[0.015056095736724007,0.03148092744951403,0.04927449513836951],"max":[0.10128646222887062,0.14919222139117427,0.17793567688855652]},{"bufferView":15,"componentType":5126,"count":122,"type":"VEC3","min":[0.012318623784592364,0.02874345549738222,0.0547494390426328],"max":[0.08896783844427825,0.1437172774869111,0.1861480927449514]},{"bufferView":16,"componentType":5126,"count":122,"type":"VEC3","min":[0.006843679880329134,0.020531039640987236,0.06296185489902772],"max":[0.08896783844427825,0.1396110695587136,0.19162303664921468]},{"bufferView":17,"componentType":5126,"count":122,"type":"VEC3","min":[0.0027374719521316426,0.008212415856394983,0.060224382946896055],"max":[0.09033657442034407,0.12866118175018704,0.19709798055347796]},{"bufferView":18,"componentType":5126,"count":122,"type":"VEC3","min":[0,0.002737471952131587,0.05748691099476441],"max":[0.09033657442034407,0.12592370979805545,0.1998354525056096]},{"bufferView":19,"componentType":5126,"count":122,"type":"VEC3","min":[0.006843679880329134,0.019162303664921554,0.06296185489902772],"max":[0.09033657442034407,0.1382423335826477,0.19162303664921468]},{"bufferView":20,"componentType":5126,"count":122,"type":"VEC3","min":[0.013687359760658213,0.0355871353777113,0.04927449513836951],"max":[0.10265519820493645,0.15192969334330586,0.17793567688855652]},{"bufferView":21,"componentType":5126,"count":122,"type":"VEC3","min":[0.01779356768885565,0.026005983545250633,0.041062079281974584],"max":[0.11908002991772627,0.14919222139117427,0.1697232610321616]},{"bufferView":22,"componentType":5126,"count":122,"type":"VEC3","min":[0.02189977561705314,-0.00410620792819727,0.032849663425579656],"max":[0.128661181750187,0.1396110695587136,0.1642483171278983]},{"bufferView":23,"componentType":5126,"count":122,"type":"VEC3","min":[0.026005983545250577,-0.03695587135377698,0.027374719521316426],"max":[0.13687359760658194,0.13276738967838453,0.15603590127150338]},{"bufferView":24,"componentType":5126,"count":122,"type":"VEC3","min":[0.02737471952131637,-0.0656993268511592,0.02189977561705314],"max":[0.14371727748691102,0.12729244577412113,0.1505609573672401]},{"bufferView":25,"componentType":5126,"count":122,"type":"VEC3","min":[0.02874345549738222,-0.08759910246821234,0.016424831712789856],"max":[0.14782348541510848,0.12044876589379205,0.14782348541510845]},{"bufferView":26,"componentType":5126,"count":122,"type":"VEC3","min":[0.02874345549738222,-0.07664921465968577,0.0191623036649215],"max":[0.14508601346297684,0.12455497382198955,0.14782348541510845]},{"bufferView":27,"componentType":5126,"count":122,"type":"VEC3","min":[0.023268511593118935,-0.01779356768885565,0.032849663425579656],"max":[0.1272924457741212,0.13139865370231862,0.16151084517576667]},{"bufferView":28,"componentType":5126,"count":122,"type":"VEC3","min":[-0.04790575916230369,0.11223635003739707,0.03832460732984294],"max":[0.06980553477935678,0.3175467464472701,0.2354225878833209]},{"bufferView":29,"componentType":5126,"count":122,"type":"VEC3","min":[-0.03969334330590876,0.09033657442034415,0.03832460732984294],"max":[0.06843679880329095,0.2764846671652954,0.23268511593118926]},{"bufferView":30,"componentType":5126,"count":122,"type":"VEC3","min":[-0.032849663425579684,0.05338070306656695,0.03832460732984294],"max":[0.07664921465968588,0.23405385190725503,0.22994764397905762]},{"bufferView":31,"componentType":5126,"count":122,"type":"VEC3","min":[-0.03832460732984294,0.056118175018698535,0.03832460732984294],"max":[0.07254300673148842,0.23679132385938684,0.22994764397905762]},{"bufferView":32,"componentType":5126,"count":122,"type":"VEC3","min":[-0.05338070306656695,0.09991772625280482,0.03832460732984294],"max":[0.05748691099476441,0.2888032909498879,0.22994764397905762]},{"bufferView":33,"componentType":5126,"count":122,"type":"VEC3","min":[-0.06980553477935678,0.11497382198952888,0.03832460732984294],"max":[0.04516828721017202,0.3216529543754676,0.22994764397905762]},{"bufferView":34,"componentType":5126,"count":122,"type":"VEC3","min":[-0.07391174270755424,0.07254300673148828,0.03832460732984294],"max":[0.05201196709050113,0.287434554973822,0.23268511593118926]},{"bufferView":35,"componentType":5126,"count":122,"type":"VEC3","min":[-0.06980553477935678,0.01505609573672384,0.03832460732984294],"max":[0.061593118922961876,0.23405385190725503,0.2354225878833209]},{"bufferView":36,"componentType":5126,"count":122,"type":"VEC3","min":[-0.06433059087509352,0.012318623784592475,0.03832460732984294],"max":[0.06706806282722513,0.23131637995512344,0.2354225878833209]},{"bufferView":37,"componentType":5126,"count":122,"type":"VEC3","min":[-0.05474943904263277,0.0670680628272251,0.03832460732984294],"max":[0.06843679880329095,0.2764846671652954,0.2354225878833209]},{"bufferView":38,"componentType":5126,"count":132,"type":"VEC3","min":[-0.3606619296933433,0.0013687359760658191,-0.2135228122662678],"max":[0.32644353029169787,1.6890201944652208,0.37777112939416607]},{"bufferView":39,"componentType":5126,"count":132,"type":"VEC2"},{"bufferView":40,"componentType":5123,"count":570,"type":"SCALAR"},{"bufferView":41,"componentType":5126,"count":132,"type":"VEC3","min":[0,0,0],"max":[0,0,0]},{"bufferView":42,"componentType":5126,"count":132,"type":"VEC3","min":[-0.02053103964098729,-0.03148092744951381,-0.0629618548990277],"max":[0.032849663425579684,0.0191623036649215,0.0027374719521316426]},{"bufferView":43,"componentType":5126,"count":132,"type":"VEC3","min":[-0.04790575916230367,-0.01779356768885565,-0.13139865370231865],"max":[0.0711742707554226,0.04243081525804032,0.008212415856394928]},{"bufferView":44,"componentType":5126,"count":132,"type":"VEC3","min":[-0.05338070306656695,-0.012318623784592364,-0.15329842931937174],"max":[0.07664921465968588,0.05338070306656689,0.010949887808526557]},{"bufferView":45,"componentType":5126,"count":132,"type":"VEC3","min":[-0.04927449513836949,-0.002737471952131639,-0.14508601346297684],"max":[0.06843679880329095,0.05611817501869859,0.010949887808526553]},{"bufferView":46,"componentType":5126,"count":132,"type":"VEC3","min":[-0.04106207928197458,-0.002737471952131639,-0.12318623784592372],"max":[0.060224382946896055,0.05338070306656689,0.008212415856394928]},{"bufferView":47,"componentType":5126,"count":132,"type":"VEC3","min":[-0.03284966342557966,-0.002737471952131639,-0.10128646222887061],"max":[0.04790575916230366,0.046537023186237814,0.008212415856394914]},{"bufferView":48,"componentType":5126,"count":132,"type":"VEC3","min":[-0.023268511593118928,-0.002737471952131639,-0.07391174270755424],"max":[0.0355871353777113,0.03558713537771124,0.005474943904263285]},{"bufferView":49,"componentType":5126,"count":132,"type":"VEC3","min":[-0.013687359760658192,-0.002737471952131639,-0.046537023186237855],"max":[0.021899775617053113,0.02326851159311888,0.0027374719521316426]},{"bufferView":50,"componentType":5126,"count":132,"type":"VEC3","min":[-0.005474943904263285,-0.0013687359760658213,-0.0191623036649215],"max":[0.009581151832460777,0.01094988780852657,0.0027374719521316426]},{"bufferView":51,"componentType":5126,"count":132,"type":"VEC3","min":[-0.17382946896035903,0.0013687359760657936,-0.3065968586387435],"max":[0.19572924457741214,0.27511593118922967,0.23268511593118926]},{"bufferView":52,"componentType":5126,"count":132,"type":"VEC3","min":[-0.16972326103216157,-0.005474943904263285,-0.13961106955871355],"max":[0.2080478683620045,0.18751682872101721,0.16424831712789828]},{"bufferView":53,"componentType":5126,"count":132,"type":"VEC3","min":[-0.16835452505609577,-0.026005983545250577,-0.04653702318623785],"max":[0.2217352281226627,0.15056095736724012,0.14782348541510848]},{"bufferView":54,"componentType":5126,"count":132,"type":"VEC3","min":[-0.16698578908002995,-0.041062079281974584,-0.09033657442034407],"max":[0.2285789080029918,0.14508601346297684,0.16424831712789828]},{"bufferView":55,"componentType":5126,"count":132,"type":"VEC3","min":[-0.1642483171278983,-0.06022438294689603,-0.1423485415108452],"max":[0.2285789080029918,0.1341361256544502,0.21078534031413615]},{"bufferView":56,"componentType":5126,"count":132,"type":"VEC3","min":[-0.1628795811518325,-0.06433059087509352,-0.20531039640987286],"max":[0.2299476439790576,0.1396110695587136,0.25184741959611073]},{"bufferView":57,"componentType":5126,"count":132,"type":"VEC3","min":[-0.15877337322363502,-0.02600598354525052,-0.0711742707554226],"max":[0.2285789080029918,0.13276738967838442,0.15056095736724012]},{"bufferView":58,"componentType":5126,"count":132,"type":"VEC3","min":[-0.16014210919970084,-0.008212415856394928,-0.1642483171278983],"max":[0.2285789080029918,0.16561705310396413,0.26827225130890053]},{"bufferView":59,"componentType":5126,"count":132,"type":"VEC3","min":[-0.16835452505609577,-0.02600598354525052,-0.2929094988780853],"max":[0.2285789080029918,0.18751682872101727,0.3503964098728497]},{"bufferView":60,"componentType":5126,"count":132,"type":"VEC3","min":[-0.17519820493642485,-0.04790575916230366,-0.4215706806282723],"max":[0.2285789080029918,0.20667913238593866,0.416095736724009]},{"bufferView":61,"componentType":5126,"count":132,"type":"VEC3","min":[-0.17930441286462231,-0.0684367988032909,-0.5557068062827226],"max":[0.2285789080029918,0.21489154824233353,0.4708451757666418]},{"bufferView":62,"componentType":5126,"count":132,"type":"VEC3","min":[-0.1779356768885565,-0.08075542258788332,-0.6898429319371728],"max":[0.2285789080029918,0.21352281226626776,0.49548242333582654]},{"bufferView":63,"componentType":5126,"count":132,"type":"VEC3","min":[-0.17656694091249067,-0.09581151832460733,-0.8458788332086762],"max":[0.2285789080029918,0.31617801047120425,0.5146447270007479]},{"bufferView":64,"componentType":5126,"count":132,"type":"VEC3","min":[-0.17519820493642485,-0.08896783844427819,-0.8048167539267017],"max":[0.2217352281226627,0.3503964098728497,0.4763201196709051]},{"bufferView":65,"componentType":5126,"count":132,"type":"VEC3","min":[-0.17656694091249067,-0.020531039640987236,-0.5502318623784592],"max":[0.2080478683620045,0.3148092744951384,0.3640837696335079]},{"bufferView":66,"componentType":5126,"count":132,"type":"VEC3","min":[-0.17519820493642485,0.11771129394166047,-0.1806731488406881],"max":[0.21215407629020194,0.4927449513836949,0.17519820493642485]},{"bufferView":67,"componentType":5126,"count":132,"type":"VEC3","min":[-0.1847793567688856,0.06022438294689603,-0.21899775617053108],"max":[0.20394166043380704,0.28606581899775624,0.1724607329842932]},{"bufferView":68,"componentType":5126,"count":132,"type":"VEC3","min":[-0.1642483171278983,0.052011967090501154,-0.38324607329842936],"max":[0.19709798055347794,0.36545250560957376,0.16698578908002995]},{"bufferView":69,"componentType":5126,"count":132,"type":"VEC3","min":[-0.15056095736724012,0.012318623784592371,-0.2956469708302169],"max":[0.19572924457741214,0.3531338818249813,0.16698578908002992]},{"bufferView":70,"componentType":5126,"count":132,"type":"VEC3","min":[-0.15877337322363502,0.015056095736724008,-0.36682124158563956],"max":[0.19572924457741214,0.3818773373223635,0.28195961106955875]},{"bufferView":71,"componentType":5126,"count":132,"type":"VEC3","min":[-0.17109199700822741,0.015056095736724014,-0.8212415856394915],"max":[0.19572924457741214,0.4352580403889305,0.4653702318623785]},{"bufferView":72,"componentType":5126,"count":132,"type":"VEC3","min":[-0.1724607329842932,0.04653702318623787,-1.1141510845175768],"max":[0.19709798055347794,0.7035302916978311,0.4790575916230367]},{"bufferView":73,"componentType":5126,"count":132,"type":"VEC3","min":[-0.1724607329842932,-0.05885564697083023,-1.3304113687359762],"max":[0.20257292445774122,1.0046522064323113,0.48453253552729997]},{"bufferView":74,"componentType":5126,"count":132,"type":"VEC3","min":[-0.17109199700822741,-0.04790575916230366,-1.2291249065071055],"max":[0.20531039640987286,1.0470830216903517,0.40514584891548244]},{"bufferView":75,"componentType":5126,"count":132,"type":"VEC3","min":[-0.15877337322363502,0.0862303664921466,-0.771967090501122],"max":[0.21215407629020194,0.8212415856394915,0.19709798055347796]},{"bufferView":76,"componentType":5126,"count":104,"type":"VEC3","min":[-0.30728122662677637,0,-0.4434704562453254],"max":[0.3606619296933433,1.8300000000000003,0.39693343305908757]},{"bufferView":77,"componentType":5126,"count":104,"type":"VEC2"},{"bufferView":78,"componentType":5123,"count":396,"type":"SCALAR"},{"bufferView":79,"componentType":5126,"count":104,"type":"VEC3","min":[0,0,0],"max":[0,0,0]},{"bufferView":80,"componentType":5126,"count":104,"type":"VEC3","min":[-0.05885564697083022,-0.006843679880329079,-0.06843679880329095],"max":[0.041062079281974556,0.02189977561705314,0.016424831712789828]},{"bufferView":81,"componentType":5126,"count":104,"type":"VEC3","min":[-0.11908002991772627,-0.020531039640987236,-0.13961106955871355],"max":[0.08759910246821241,0.04653702318623787,0.0355871353777113]},{"bufferView":82,"componentType":5126,"count":104,"type":"VEC3","min":[-0.1272924457741212,-0.016424831712789745,-0.16151084517576667],"max":[0.0944427823485415,0.056118175018698535,0.0273747195213164]},{"bufferView":83,"componentType":5126,"count":104,"type":"VEC3","min":[-0.11908002991772627,-0.008212415856394921,-0.15329842931937177],"max":[0.08623036649214659,0.05885564697083023,0.021899775617053113]},{"bufferView":84,"componentType":5126,"count":104,"type":"VEC3","min":[-0.10539267015706809,-0.008212415856394914,-0.13139865370231865],"max":[0.07391174270755423,0.05474943904263274,0.01916230366492147]},{"bufferView":85,"componentType":5126,"count":104,"type":"VEC3","min":[-0.08623036649214662,-0.006843679880329093,-0.1067614061331339],"max":[0.058855646970830205,0.04790575916230366,0.013687359760658185]},{"bufferView":86,"componentType":5126,"count":104,"type":"VEC3","min":[-0.06296185489902768,-0.004106207928197457,-0.0793866866118175],"max":[0.0437995512341062,0.03695587135377709,0.008212415856394928]},{"bufferView":87,"componentType":5126,"count":104,"type":"VEC3","min":[-0.03969334330590875,-0.0027374719521316357,-0.04927449513836949],"max":[0.02737471952131637,0.024637247569184728,0.0027374719521316426]},{"bufferView":88,"componentType":5126,"count":104,"type":"VEC3","min":[-0.01779356768885565,0,-0.021899775617053113],"max":[0.012318623784592364,0.012318623784592364,0.0027374719521316426]},{"bufferView":89,"componentType":5126,"count":104,"type":"VEC3","min":[-0.20531039640987286,-0.012318623784592374,-0.128661181750187],"max":[0.1355048616305161,0.16424831712789834,0.2901720269259537]},{"bufferView":90,"componentType":5126,"count":104,"type":"VEC3","min":[-0.20531039640987286,-0.009581151832460721,-0.060224382946896055],"max":[0.1355048616305161,0.15466716529543767,0.19709798055347796]},{"bufferView":91,"componentType":5126,"count":104,"type":"VEC3","min":[-0.20394166043380707,-0.0355871353777113,-0.10949887808526554],"max":[0.1355048616305161,0.1464547494390427,0.20531039640987286]},{"bufferView":92,"componentType":5126,"count":104,"type":"VEC3","min":[-0.20394166043380707,-0.06433059087509352,-0.21899775617053108],"max":[0.13413612565445027,0.15329842931937177,0.2135228122662678]},{"bufferView":93,"componentType":5126,"count":104,"type":"VEC3","min":[-0.20531039640987286,-0.09033657442034404,-0.34765893792071806],"max":[0.13413612565445027,0.2532161555721766,0.21899775617053108]},{"bufferView":94,"componentType":5126,"count":104,"type":"VEC3","min":[-0.20394166043380707,-0.09991772625280482,-0.506432311144353],"max":[0.13413612565445027,0.34765893792071806,0.22173522812266272]},{"bufferView":95,"componentType":5126,"count":104,"type":"VEC3","min":[-0.19162303664921468,-0.04790575916230366,-0.26005983545250566],"max":[0.13413612565445027,0.3189154824233359,0.21078534031413615]},{"bufferView":96,"componentType":5126,"count":104,"type":"VEC3","min":[-0.1861480927449514,-0.005474943904263285,-0.1642483171278983],"max":[0.1355048616305161,0.28059087509349295,0.26827225130890053]},{"bufferView":97,"componentType":5126,"count":104,"type":"VEC3","min":[-0.1929917726252805,-0.04243081525804038,-0.25184741959611073],"max":[0.1355048616305161,0.21899775617053108,0.36134629768137627]},{"bufferView":98,"componentType":5126,"count":104,"type":"VEC3","min":[-0.20394166043380704,-0.07938668661181753,-0.33123410620792826],"max":[0.1355048616305161,0.20667913238593866,0.45442034405385195]},{"bufferView":99,"componentType":5126,"count":104,"type":"VEC3","min":[-0.21215407629020194,-0.11634255796559462,-0.4215706806282723],"max":[0.1355048616305161,0.21489154824233353,0.6049813014210921]},{"bufferView":100,"componentType":5126,"count":104,"type":"VEC3","min":[-0.20941660433807033,-0.1423485415108452,-0.46810770381451017],"max":[0.1368735976065819,0.1902543006731488,0.65151832460733]},{"bufferView":101,"componentType":5126,"count":104,"type":"VEC3","min":[-0.20667913238593869,-0.1628795811518325,-0.5255946148092745],"max":[0.1368735976065819,0.16151084517576664,0.6953178758414361]},{"bufferView":102,"componentType":5126,"count":104,"type":"VEC3","min":[-0.20667913238593869,-0.15056095736724012,-0.4626327599102469],"max":[0.1368735976065819,0.13687359760658185,0.6296185489902768]},{"bufferView":103,"componentType":5126,"count":104,"type":"VEC3","min":[-0.20667913238593869,-0.06022438294689603,-0.2846970830216904],"max":[0.1355048616305161,0.1409798055347795,0.4571578160059836]},{"bufferView":104,"componentType":5126,"count":104,"type":"VEC3","min":[-0.20531039640987286,0.015056095736724007,-0.3941959611069559],"max":[0.13961106955871355,0.36955871353777114,0.20257292445774122]},{"bufferView":105,"componentType":5126,"count":104,"type":"VEC3","min":[-0.21626028421839943,0.027374719521316426,-0.6843679880329095],"max":[0.13961106955871355,0.6802617801047122,0.19709798055347796]},{"bufferView":106,"componentType":5126,"count":104,"type":"VEC3","min":[-0.1943605086013463,-0.023268511593118824,-0.9033657442034406],"max":[0.13824233358264773,0.9800149588631266,0.19162303664921468]},{"bufferView":107,"componentType":5126,"count":104,"type":"VEC3","min":[-0.18341062079281978,-0.016424831712789745,-0.80207928197457],"max":[0.13824233358264773,1.022445774121167,0.18888556469708304]},{"bufferView":108,"componentType":5126,"count":104,"type":"VEC3","min":[-0.1929917726252805,0.045168287210172076,-0.34218399401645483],"max":[0.1368735976065819,0.7952356020942409,0.28195961106955875]},{"bufferView":109,"componentType":5126,"count":104,"type":"VEC3","min":[-0.20120418848167543,0.03148092744951381,-0.5119072550486163],"max":[0.1355048616305161,0.4653702318623786,0.47632011967090504]},{"bufferView":110,"componentType":5126,"count":104,"type":"VEC3","min":[-0.20394166043380704,-0.023268511593118935,-0.5666566940912492],"max":[0.1355048616305161,0.340815258040389,0.4982198952879582]},{"bufferView":111,"componentType":5126,"count":104,"type":"VEC3","min":[-0.20394166043380704,-0.0711742707554226,-0.7692296185489904],"max":[0.1368735976065819,0.2819596110695587,0.6186686611817502]},{"bufferView":112,"componentType":5126,"count":104,"type":"VEC3","min":[-0.20531039640987286,-0.07528047868362009,-0.6980553477935678],"max":[0.1368735976065819,0.2819596110695587,0.5064323111443532]},{"bufferView":113,"componentType":5126,"count":104,"type":"VEC3","min":[-0.20394166043380707,0.015056095736724007,-0.22994764397905765],"max":[0.13824233358264773,0.29427823485415106,0.2080478683620045]},{"bufferView":114,"componentType":5126,"count":106,"type":"VEC3","min":[-0.3237060583395662,1.006020942408377,-0.2655347793567689],"max":[0.28811892296185493,1.6890201944652208,0.27648466716529546]},{"bufferView":115,"componentType":5126,"count":106,"type":"VEC2"},{"bufferView":116,"componentType":5123,"count":426,"type":"SCALAR"},{"bufferView":117,"componentType":5126,"count":106,"type":"VEC3","min":[0,0,0],"max":[0,0,0]},{"bufferView":118,"componentType":5126,"count":106,"type":"VEC3","min":[-0.04790575916230366,-0.03148092744951381,-0.13413612565445027],"max":[0.07254300673148839,0.015056095736724062,0.030112191473448013]},{"bufferView":119,"componentType":5126,"count":106,"type":"VEC3","min":[-0.12044876589379207,-0.023268511593118824,-0.2354225878833209],"max":[0.158773373223635,0.03284966342557949,0.03832460732984294]},{"bufferView":120,"componentType":5126,"count":106,"type":"VEC3","min":[-0.1300299177262528,-0.020531039640987236,-0.257322363500374],"max":[0.17246073298429318,0.04243081525804038,0.024637247569184756]},{"bufferView":121,"componentType":5126,"count":106,"type":"VEC3","min":[-0.11771129394166044,-0.0013687359760656825,-0.24089753178758413],"max":[0.15740463724756917,0.05748691099476422,0.024637247569184756]},{"bufferView":122,"componentType":5126,"count":106,"type":"VEC3","min":[-0.09854899027673897,0.01094988780852657,-0.20804786836200448],"max":[0.13276738967838447,0.06159311892296171,0.030112191473448013]},{"bufferView":123,"componentType":5126,"count":106,"type":"VEC3","min":[-0.07528047868362003,0.012318623784592475,-0.16972326103216157],"max":[0.10265519820493646,0.05338070306656695,0.0273747195213164]},{"bufferView":124,"componentType":5126,"count":106,"type":"VEC3","min":[-0.050643231114435305,0.01094988780852657,-0.12318623784592372],"max":[0.07254300673148845,0.03969334330590857,0.024637247569184756]},{"bufferView":125,"componentType":5126,"count":106,"type":"VEC3","min":[-0.030112191473448013,0.006843679880329079,-0.07664921465968588],"max":[0.042430815258040405,0.024637247569184728,0.01916230366492147]},{"bufferView":126,"componentType":5126,"count":106,"type":"VEC3","min":[-0.012318623784592364,0.002737471952131587,-0.0355871353777113],"max":[0.01779356768885565,0.010949887808526348,0.008212415856394928]},{"bufferView":127,"componentType":5126,"count":106,"type":"VEC3","min":[0.046537023186237855,0.07528047868362009,0.01094988780852655],"max":[0.10949887808526554,0.145086013462977,0.1423485415108452]},{"bufferView":128,"componentType":5126,"count":106,"type":"VEC3","min":[0.04106207928197457,0.06843679880329101,0.008212415856394914],"max":[0.10813014210919972,0.13413612565445043,0.14782348541510848]},{"bufferView":129,"componentType":5126,"count":106,"type":"VEC3","min":[0.03421839940164548,0.05338070306656695,0.0027374719521316357],"max":[0.1067614061331339,0.11908002991772637,0.15603590127150338]},{"bufferView":130,"componentType":5126,"count":106,"type":"VEC3","min":[0.021899775617053106,0.038324607329842886,0],"max":[0.10402393418100225,0.10402393418100231,0.16698578908002995]},{"bufferView":131,"componentType":5126,"count":106,"type":"VEC3","min":[0.008212415856394914,0.019162303664921554,-0.0027374719521316426],"max":[0.10265519820493643,0.08486163051608075,0.17519820493642485]},{"bufferView":132,"componentType":5126,"count":106,"type":"VEC3","min":[0.0027374719521316357,0.013687359760658158,-0.0027374719521316426],"max":[0.10265519820493643,0.07938668661181758,0.1779356768885565]},{"bufferView":133,"componentType":5126,"count":106,"type":"VEC3","min":[0.021899775617053106,0.038324607329842886,0],"max":[0.10402393418100225,0.1026551982049364,0.16698578908002995]},{"bufferView":134,"componentType":5126,"count":106,"type":"VEC3","min":[0.04106207928197457,0.0711742707554226,0.008212415856394914],"max":[0.10813014210919972,0.13687359760658202,0.14508601346297684]},{"bufferView":135,"componentType":5126,"count":106,"type":"VEC3","min":[0.050643231114435305,0.0711742707554226,0.01094988780852655],"max":[0.11086761406133136,0.1464547494390427,0.1423485415108452]},{"bufferView":136,"componentType":5126,"count":106,"type":"VEC3","min":[0.057486910994764405,0.047905759162303774,0.013687359760658192],"max":[0.11908002991772626,0.13276738967838453,0.1423485415108452]},{"bufferView":137,"componentType":5126,"count":106,"type":"VEC3","min":[0.05748691099476441,0.02053103964098746,0.01642483171278982],"max":[0.1300299177262528,0.12318623784592386,0.15329842931937177]},{"bufferView":138,"componentType":5126,"count":106,"type":"VEC3","min":[0.05201196709050113,-0.005474943904263174,0.01642483171278982],"max":[0.1368735976065819,0.11360508601346297,0.16424831712789828]},{"bufferView":139,"componentType":5126,"count":106,"type":"VEC3","min":[0.049274495138369456,-0.024637247569184728,0.01642483171278982],"max":[0.14097980553477935,0.10402393418100231,0.16972326103216157]},{"bufferView":140,"componentType":5126,"count":106,"type":"VEC3","min":[0.050643231114435305,-0.01505609573672384,0.01642483171278982],"max":[0.13824233358264773,0.1094988780852657,0.16424831712789828]},{"bufferView":141,"componentType":5126,"count":106,"type":"VEC3","min":[0.057486910994764405,0.034218399401645616,0.013687359760658192],"max":[0.11634255796559462,0.12318623784592386,0.14508601346297684]},{"bufferView":142,"componentType":5126,"count":106,"type":"VEC3","min":[-0.013687359760658192,0.18477935676888557,0.02463724756918475],"max":[0.12044876589379208,0.2833283470456247,0.20257292445774125]},{"bufferView":143,"componentType":5126,"count":106,"type":"VEC3","min":[-0.0355871353777113,0.15740463724756926,0.02463724756918475],"max":[0.11908002991772627,0.22994764397905776,0.1998354525056096]},{"bufferView":144,"componentType":5126,"count":106,"type":"VEC3","min":[-0.06296185489902768,0.10128646222887072,0.027374719521316378],"max":[0.11634255796559463,0.16972326103216173,0.19436050860134632]},{"bufferView":145,"componentType":5126,"count":106,"type":"VEC3","min":[-0.06706806282722513,0.10402393418100231,0.027374719521316378],"max":[0.11086761406133136,0.17246073298429332,0.19162303664921468]},{"bufferView":146,"componentType":5126,"count":106,"type":"VEC3","min":[-0.050643231114435305,0.16835452505609583,0.027374719521316378],"max":[0.10265519820493643,0.24089753178758433,0.19162303664921468]},{"bufferView":147,"componentType":5126,"count":106,"type":"VEC3","min":[-0.032849663425579656,0.18751682872101716,0.02463724756918475],"max":[0.09581151832460734,0.2860658189977563,0.19436050860134632]},{"bufferView":148,"componentType":5126,"count":106,"type":"VEC3","min":[-0.027374719521316385,0.13961106955871339,0.02463724756918475],"max":[0.09718025430067316,0.24089753178758433,0.1998354525056096]},{"bufferView":149,"componentType":5126,"count":106,"type":"VEC3","min":[-0.026005983545250563,0.07664921465968577,0.024637247569184745],"max":[0.10265519820493643,0.17109199700822741,0.20257292445774125]},{"bufferView":150,"componentType":5126,"count":106,"type":"VEC3","min":[-0.021899775617053106,0.07528047868361987,0.024637247569184745],"max":[0.10813014210919972,0.16835452505609583,0.2053103964098729]},{"bufferView":151,"componentType":5126,"count":106,"type":"VEC3","min":[-0.013687359760658192,0.1341361256544502,0.02463724756918475],"max":[0.11497382198952881,0.22994764397905776,0.2053103964098729]},{"bufferView":152,"componentType":5126,"count":11,"type":"SCALAR","min":[0],"max":[0.6666666666666666]},{"bufferView":153,"componentType":5126,"count":385,"type":"SCALAR"},{"bufferView":154,"componentType":5126,"count":16,"type":"SCALAR","min":[0],"max":[0.8333333333333333]},{"bufferView":155,"componentType":5126,"count":560,"type":"SCALAR"},{"bufferView":156,"componentType":5126,"count":11,"type":"SCALAR","min":[0],"max":[0.5882352941176471]},{"bufferView":157,"componentType":5126,"count":385,"type":"SCALAR"}],"bufferViews":[{"buffer":0,"byteOffset":0,"byteLength":1464,"target":34962},{"buffer":0,"byteOffset":1464,"byteLength":976,"target":34962},{"buffer":0,"byteOffset":2440,"byteLength":1068,"target":34963},{"buffer":0,"byteOffset":3508,"byteLength":1464,"target":34962},{"buffer":0,"byteOffset":4972,"byteLength":1464,"target":34962},{"buffer":0,"byteOffset":6436,"byteLength":1464,"target":34962},{"buffer":0,"byteOffset":7900,"byteLength":1464,"target":34962},{"buffer":0,"byteOffset":9364,"byteLength":1464,"target":34962},{"buffer":0,"byteOffset":10828,"byteLength":1464,"target":34962},{"buffer":0,"byteOffset":12292,"byteLength":1464,"target":34962},{"buffer":0,"byteOffset":13756,"byteLength":1464,"target":34962},{"buffer":0,"byteOffset":15220,"byteLength":1464,"target":34962},{"buffer":0,"byteOffset":16684,"byteLength":1464,"target":34962},{"buffer":0,"byteOffset":18148,"byteLength":1464,"target":34962},{"buffer":0,"byteOffset":19612,"byteLength":1464,"target":34962},{"buffer":0,"byteOffset":21076,"byteLength":1464,"target":34962},{"buffer":0,"byteOffset":22540,"byteLength":1464,"target":34962},{"buffer":0,"byteOffset":24004,"byteLength":1464,"target":34962},{"buffer":0,"byteOffset":25468,"byteLength":1464,"target":34962},{"buffer":0,"byteOffset":26932,"byteLength":1464,"target":34962},{"buffer":0,"byteOffset":28396,"byteLength":1464,"target":34962},{"buffer":0,"byteOffset":29860,"byteLength":1464,"target":34962},{"buffer":0,"byteOffset":31324,"byteLength":1464,"target":34962},{"buffer":0,"byteOffset":32788,"byteLength":1464,"target":34962},{"buffer":0,"byteOffset":34252,"byteLength":1464,"target":34962},{"buffer":0,"byteOffset":35716,"byteLength":1464,"target":34962},{"buffer":0,"byteOffset":37180,"byteLength":1464,"target":34962},{"buffer":0,"byteOffset":38644,"byteLength":1464,"target":34962},{"buffer":0,"byteOffset":40108,"byteLength":1464,"target":34962},{"buffer":0,"byteOffset":41572,"byteLength":1464,"target":34962},{"buffer":0,"byteOffset":43036,"byteLength":1464,"target":34962},{"buffer":0,"byteOffset":44500,"byteLength":1464,"target":34962},{"buffer":0,"byteOffset":45964,"byteLength":1464,"target":34962},{"buffer":0,"byteOffset":47428,"byteLength":1464,"target":34962},{"buffer":0,"byteOffset":48892,"byteLength":1464,"target":34962},{"buffer":0,"byteOffset":50356,"byteLength":1464,"target":34962},{"buffer":0,"byteOffset":51820,"byteLength":1464,"target":34962},{"buffer":0,"byteOffset":53284,"byteLength":1464,"target":34962},{"buffer":0,"byteOffset":54748,"byteLength":1584,"target":34962},{"buffer":0,"byteOffset":56332,"byteLength":1056,"target":34962},{"buffer":0,"byteOffset":57388,"byteLength":1140,"target":34963},{"buffer":0,"byteOffset":58528,"byteLength":1584,"target":34962},{"buffer":0,"byteOffset":60112,"byteLength":1584,"target":34962},{"buffer":0,"byteOffset":61696,"byteLength":1584,"target":34962},{"buffer":0,"byteOffset":63280,"byteLength":1584,"target":34962},{"buffer":0,"byteOffset":64864,"byteLength":1584,"target":34962},{"buffer":0,"byteOffset":66448,"byteLength":1584,"target":34962},{"buffer":0,"byteOffset":68032,"byteLength":1584,"target":34962},{"buffer":0,"byteOffset":69616,"byteLength":1584,"target":34962},{"buffer":0,"byteOffset":71200,"byteLength":1584,"target":34962},{"buffer":0,"byteOffset":72784,"byteLength":1584,"target":34962},{"buffer":0,"byteOffset":74368,"byteLength":1584,"target":34962},{"buffer":0,"byteOffset":75952,"byteLength":1584,"target":34962},{"buffer":0,"byteOffset":77536,"byteLength":1584,"target":34962},{"buffer":0,"byteOffset":79120,"byteLength":1584,"target":34962},{"buffer":0,"byteOffset":80704,"byteLength":1584,"target":34962},{"buffer":0,"byteOffset":82288,"byteLength":1584,"target":34962},{"buffer":0,"byteOffset":83872,"byteLength":1584,"target":34962},{"buffer":0,"byteOffset":85456,"byteLength":1584,"target":34962},{"buffer":0,"byteOffset":87040,"byteLength":1584,"target":34962},{"buffer":0,"byteOffset":88624,"byteLength":1584,"target":34962},{"buffer":0,"byteOffset":90208,"byteLength":1584,"target":34962},{"buffer":0,"byteOffset":91792,"byteLength":1584,"target":34962},{"buffer":0,"byteOffset":93376,"byteLength":1584,"target":34962},{"buffer":0,"byteOffset":94960,"byteLength":1584,"target":34962},{"buffer":0,"byteOffset":96544,"byteLength":1584,"target":34962},{"buffer":0,"byteOffset":98128,"byteLength":1584,"target":34962},{"buffer":0,"byteOffset":99712,"byteLength":1584,"target":34962},{"buffer":0,"byteOffset":101296,"byteLength":1584,"target":34962},{"buffer":0,"byteOffset":102880,"byteLength":1584,"target":34962},{"buffer":0,"byteOffset":104464,"byteLength":1584,"target":34962},{"buffer":0,"byteOffset":106048,"byteLength":1584,"target":34962},{"buffer":0,"byteOffset":107632,"byteLength":1584,"target":34962},{"buffer":0,"byteOffset":109216,"byteLength":1584,"target":34962},{"buffer":0,"byteOffset":110800,"byteLength":1584,"target":34962},{"buffer":0,"byteOffset":112384,"byteLength":1584,"target":34962},{"buffer":0,"byteOffset":113968,"byteLength":1248,"target":34962},{"buffer":0,"byteOffset":115216,"byteLength":832,"target":34962},{"buffer":0,"byteOffset":116048,"byteLength":792,"target":34963},{"buffer":0,"byteOffset":116840,"byteLength":1248,"target":34962},{"buffer":0,"byteOffset":118088,"byteLength":1248,"target":34962},{"buffer":0,"byteOffset":119336,"byteLength":1248,"target":34962},{"buffer":0,"byteOffset":120584,"byteLength":1248,"target":34962},{"buffer":0,"byteOffset":121832,"byteLength":1248,"target":34962},{"buffer":0,"byteOffset":123080,"byteLength":1248,"target":34962},{"buffer":0,"byteOffset":124328,"byteLength":1248,"target":34962},{"buffer":0,"byteOffset":125576,"byteLength":1248,"target":34962},{"buffer":0,"byteOffset":126824,"byteLength":1248,"target":34962},{"buffer":0,"byteOffset":128072,"byteLength":1248,"target":34962},{"buffer":0,"byteOffset":129320,"byteLength":1248,"target":34962},{"buffer":0,"byteOffset":130568,"byteLength":1248,"target":34962},{"buffer":0,"byteOffset":131816,"byteLength":1248,"target":34962},{"buffer":0,"byteOffset":133064,"byteLength":1248,"target":34962},{"buffer":0,"byteOffset":134312,"byteLength":1248,"target":34962},{"buffer":0,"byteOffset":135560,"byteLength":1248,"target":34962},{"buffer":0,"byteOffset":136808,"byteLength":1248,"target":34962},{"buffer":0,"byteOffset":138056,"byteLength":1248,"target":34962},{"buffer":0,"byteOffset":139304,"byteLength":1248,"target":34962},{"buffer":0,"byteOffset":140552,"byteLength":1248,"target":34962},{"buffer":0,"byteOffset":141800,"byteLength":1248,"target":34962},{"buffer":0,"byteOffset":143048,"byteLength":1248,"target":34962},{"buffer":0,"byteOffset":144296,"byteLength":1248,"target":34962},{"buffer":0,"byteOffset":145544,"byteLength":1248,"target":34962},{"buffer":0,"byteOffset":146792,"byteLength":1248,"target":34962},{"buffer":0,"byteOffset":148040,"byteLength":1248,"target":34962},{"buffer":0,"byteOffset":149288,"byteLength":1248,"target":34962},{"buffer":0,"byteOffset":150536,"byteLength":1248,"target":34962},{"buffer":0,"byteOffset":151784,"byteLength":1248,"target":34962},{"buffer":0,"byteOffset":153032,"byteLength":1248,"target":34962},{"buffer":0,"byteOffset":154280,"byteLength":1248,"target":34962},{"buffer":0,"byteOffset":155528,"byteLength":1248,"target":34962},{"buffer":0,"byteOffset":156776,"byteLength":1248,"target":34962},{"buffer":0,"byteOffset":158024,"byteLength":1248,"target":34962},{"buffer":0,"byteOffset":159272,"byteLength":1248,"target":34962},{"buffer":0,"byteOffset":160520,"byteLength":1272,"target":34962},{"buffer":0,"byteOffset":161792,"byteLength":848,"target":34962},{"buffer":0,"byteOffset":162640,"byteLength":852,"target":34963},{"buffer":0,"byteOffset":163492,"byteLength":1272,"target":34962},{"buffer":0,"byteOffset":164764,"byteLength":1272,"target":34962},{"buffer":0,"byteOffset":166036,"byteLength":1272,"target":34962},{"buffer":0,"byteOffset":167308,"byteLength":1272,"target":34962},{"buffer":0,"byteOffset":168580,"byteLength":1272,"target":34962},{"buffer":0,"byteOffset":169852,"byteLength":1272,"target":34962},{"buffer":0,"byteOffset":171124,"byteLength":1272,"target":34962},{"buffer":0,"byteOffset":172396,"byteLength":1272,"target":34962},{"buffer":0,"byteOffset":173668,"byteLength":1272,"target":34962},{"buffer":0,"byteOffset":174940,"byteLength":1272,"target":34962},{"buffer":0,"byteOffset":176212,"byteLength":1272,"target":34962},{"buffer":0,"byteOffset":177484,"byteLength":1272,"target":34962},{"buffer":0,"byteOffset":178756,"byteLength":1272,"target":34962},{"buffer":0,"byteOffset":180028,"byteLength":1272,"target":34962},{"buffer":0,"byteOffset":181300,"byteLength":1272,"target":34962},{"buffer":0,"byteOffset":182572,"byteLength":1272,"target":34962},{"buffer":0,"byteOffset":183844,"byteLength":1272,"target":34962},{"buffer":0,"byteOffset":185116,"byteLength":1272,"target":34962},{"buffer":0,"byteOffset":186388,"byteLength":1272,"target":34962},{"buffer":0,"byteOffset":187660,"byteLength":1272,"target":34962},{"buffer":0,"byteOffset":188932,"byteLength":1272,"target":34962},{"buffer":0,"byteOffset":190204,"byteLength":1272,"target":34962},{"buffer":0,"byteOffset":191476,"byteLength":1272,"target":34962},{"buffer":0,"byteOffset":192748,"byteLength":1272,"target":34962},{"buffer":0,"byteOffset":194020,"byteLength":1272,"target":34962},{"buffer":0,"byteOffset":195292,"byteLength":1272,"target":34962},{"buffer":0,"byteOffset":196564,"byteLength":1272,"target":34962},{"buffer":0,"byteOffset":197836,"byteLength":1272,"target":34962},{"buffer":0,"byteOffset":199108,"byteLength":1272,"target":34962},{"buffer":0,"byteOffset":200380,"byteLength":1272,"target":34962},{"buffer":0,"byteOffset":201652,"byteLength":1272,"target":34962},{"buffer":0,"byteOffset":202924,"byteLength":1272,"target":34962},{"buffer":0,"byteOffset":204196,"byteLength":1272,"target":34962},{"buffer":0,"byteOffset":205468,"byteLength":1272,"target":34962},{"buffer":0,"byteOffset":206740,"byteLength":1272,"target":34962},{"buffer":0,"byteOffset":208012,"byteLength":44},{"buffer":0,"byteOffset":208056,"byteLength":1540},{"buffer":0,"byteOffset":209596,"byteLength":64},{"buffer":0,"byteOffset":209660,"byteLength":2240},{"buffer":0,"byteOffset":211900,"byteLength":44},{"buffer":0,"byteOffset":211944,"byteLength":1540}],"buffers":[{"uri":"commando.bin","byteLength":213484}],"animations":[{"name":"Idle","samplers":[{"input":152,"output":153,"interpolation":"STEP"}],"channels":[{"sampler":0,"target":{"node":0,"path":"weights"}}]},{"name":"Walk","samplers":[{"input":154,"output":155,"interpolation":"STEP"}],"channels":[{"sampler":0,"target":{"node":0,"path":"weights"}}]},{"name":"Run","samplers":[{"input":156,"output":157,"interpolation":"STEP"}],"channels":[{"sampler":0,"target":{"node":0,"path":"weights"}}]}]}