{
 "asset": {
  "version": "2.0",
  "generator": "build-ut-characters.mjs"
 },
 "extras": {
  "utMesh": "tnalimesh",
  "utPackage": "epiccustommodels.u",
  "baseSequence": "StillSmFr",
  "baseFrame": 268,
  "worldFrame": "forward -Z, up +Y, right +X; feet on y = 0; RotOrigin baked in",
  "epicRotOriginDeg": [
   0,
   90,
   -90
  ],
  "meshOriginUU": [
   0,
   -70,
   30
  ],
  "orientationNote": "Vertices are mesh-frame, so they reach the actor frame through the TRANSPOSE of UE1's FRotationMatrix(RotOrigin), with Mesh.Origin subtracted before Mesh.Scale. UE1 pawns face +X, so through UT (x fwd, y right, z up) -> world (x right, y up, z back) every body faces -Z with no per-model yaw. See scripts/build-ut-characters.mjs.",
  "standingHeightM": 1.83,
  "utHeightM": 1.8222,
  "heightFit": 1.004299,
  "feetLiftM": 0.971914,
  "weaponAnchorM": [
   0.127587,
   1.083865,
   -0.19013
  ],
  "weaponAnchorQuat": [
   0.001452,
   0.004044,
   0.023017,
   0.999726
  ],
  "weaponAnchorNode": "weaponAnchor",
  "specialVertsM": [
   [
    0.121333,
    1.219583,
    -0.19013
   ],
   [
    0.11758,
    1.220834,
    -0.650444
   ],
   [
    0.133841,
    0.948148,
    -0.19013
   ]
  ],
  "weaponAnchorNote": "The node named weaponAnchor carries this as its rest transform AND a translation + rotation track on every clip, keyed against that clip's weights. UE1 draws a carried item at the pawn's weapon triangle with the triangle's own orientation, and the triangle is per-frame data, so the hand swings with the arm.",
  "runHeadingDeg": 1.6781,
  "feetDipM": 0,
  "feetOffsetUU": [
   0.8665,
   5.5014
  ],
  "collisionHeightUU": 39,
  "clips": [
   {
    "clip": "Idle",
    "sequence": "StillSmFr",
    "startFrame": 268,
    "numFrames": 1,
    "sequenceFrames": 1,
    "fps": 30,
    "seconds": 0.0333,
    "loop": false,
    "hold": true
   },
   {
    "clip": "Walk",
    "sequence": "WalkSm",
    "startFrame": 289,
    "numFrames": 20,
    "sequenceFrames": 20,
    "fps": 15,
    "seconds": 1.3333,
    "loop": true
   },
   {
    "clip": "Run",
    "sequence": "RunSm",
    "startFrame": 248,
    "numFrames": 10,
    "sequenceFrames": 10,
    "fps": 18,
    "seconds": 0.5556,
    "loop": true
   },
   {
    "clip": "Fire",
    "sequence": "StillSmFr",
    "startFrame": 268,
    "numFrames": 1,
    "sequenceFrames": 1,
    "fps": 30,
    "seconds": 0.0333,
    "loop": false
   },
   {
    "clip": "WalkFire",
    "sequence": "WalkSmFr",
    "startFrame": 269,
    "numFrames": 20,
    "sequenceFrames": 20,
    "fps": 15,
    "seconds": 1.3333,
    "loop": true
   },
   {
    "clip": "RunFire",
    "sequence": "RunSmFr",
    "startFrame": 258,
    "numFrames": 10,
    "sequenceFrames": 10,
    "fps": 18,
    "seconds": 0.5556,
    "loop": true
   }
  ]
 },
 "scene": 0,
 "scenes": [
  {
   "nodes": [
    0,
    1
   ]
  }
 ],
 "nodes": [
  {
   "mesh": 0,
   "name": "tnalimesh"
  },
  {
   "name": "weaponAnchor",
   "translation": [
    0.127587,
    1.083865,
    -0.19013
   ],
   "rotation": [
    0.001452,
    0.004044,
    0.023017,
    0.999726
   ]
  }
 ],
 "meshes": [
  {
   "name": "nali",
   "primitives": [
    {
     "attributes": {
      "POSITION": 0,
      "TEXCOORD_0": 1
     },
     "indices": 62,
     "material": 0,
     "targets": [
      {
       "POSITION": 2
      },
      {
       "POSITION": 3
      },
      {
       "POSITION": 4
      },
      {
       "POSITION": 5
      },
      {
       "POSITION": 6
      },
      {
       "POSITION": 7
      },
      {
       "POSITION": 8
      },
      {
       "POSITION": 9
      },
      {
       "POSITION": 10
      },
      {
       "POSITION": 11
      },
      {
       "POSITION": 12
      },
      {
       "POSITION": 13
      },
      {
       "POSITION": 14
      },
      {
       "POSITION": 15
      },
      {
       "POSITION": 16
      },
      {
       "POSITION": 17
      },
      {
       "POSITION": 18
      },
      {
       "POSITION": 19
      },
      {
       "POSITION": 20
      },
      {
       "POSITION": 21
      },
      {
       "POSITION": 22
      },
      {
       "POSITION": 23
      },
      {
       "POSITION": 24
      },
      {
       "POSITION": 25
      },
      {
       "POSITION": 26
      },
      {
       "POSITION": 27
      },
      {
       "POSITION": 28
      },
      {
       "POSITION": 29
      },
      {
       "POSITION": 30
      },
      {
       "POSITION": 31
      },
      {
       "POSITION": 32
      },
      {
       "POSITION": 33
      },
      {
       "POSITION": 34
      },
      {
       "POSITION": 35
      },
      {
       "POSITION": 36
      },
      {
       "POSITION": 37
      },
      {
       "POSITION": 38
      },
      {
       "POSITION": 39
      },
      {
       "POSITION": 40
      },
      {
       "POSITION": 41
      },
      {
       "POSITION": 42
      },
      {
       "POSITION": 43
      },
      {
       "POSITION": 44
      },
      {
       "POSITION": 45
      },
      {
       "POSITION": 46
      },
      {
       "POSITION": 47
      },
      {
       "POSITION": 48
      },
      {
       "POSITION": 49
      },
      {
       "POSITION": 50
      },
      {
       "POSITION": 51
      },
      {
       "POSITION": 52
      },
      {
       "POSITION": 53
      },
      {
       "POSITION": 54
      },
      {
       "POSITION": 55
      },
      {
       "POSITION": 56
      },
      {
       "POSITION": 57
      },
      {
       "POSITION": 58
      },
      {
       "POSITION": 59
      },
      {
       "POSITION": 60
      },
      {
       "POSITION": 61
      }
     ]
    },
    {
     "attributes": {
      "POSITION": 0,
      "TEXCOORD_0": 1
     },
     "indices": 63,
     "material": 1,
     "targets": [
      {
       "POSITION": 2
      },
      {
       "POSITION": 3
      },
      {
       "POSITION": 4
      },
      {
       "POSITION": 5
      },
      {
       "POSITION": 6
      },
      {
       "POSITION": 7
      },
      {
       "POSITION": 8
      },
      {
       "POSITION": 9
      },
      {
       "POSITION": 10
      },
      {
       "POSITION": 11
      },
      {
       "POSITION": 12
      },
      {
       "POSITION": 13
      },
      {
       "POSITION": 14
      },
      {
       "POSITION": 15
      },
      {
       "POSITION": 16
      },
      {
       "POSITION": 17
      },
      {
       "POSITION": 18
      },
      {
       "POSITION": 19
      },
      {
       "POSITION": 20
      },
      {
       "POSITION": 21
      },
      {
       "POSITION": 22
      },
      {
       "POSITION": 23
      },
      {
       "POSITION": 24
      },
      {
       "POSITION": 25
      },
      {
       "POSITION": 26
      },
      {
       "POSITION": 27
      },
      {
       "POSITION": 28
      },
      {
       "POSITION": 29
      },
      {
       "POSITION": 30
      },
      {
       "POSITION": 31
      },
      {
       "POSITION": 32
      },
      {
       "POSITION": 33
      },
      {
       "POSITION": 34
      },
      {
       "POSITION": 35
      },
      {
       "POSITION": 36
      },
      {
       "POSITION": 37
      },
      {
       "POSITION": 38
      },
      {
       "POSITION": 39
      },
      {
       "POSITION": 40
      },
      {
       "POSITION": 41
      },
      {
       "POSITION": 42
      },
      {
       "POSITION": 43
      },
      {
       "POSITION": 44
      },
      {
       "POSITION": 45
      },
      {
       "POSITION": 46
      },
      {
       "POSITION": 47
      },
      {
       "POSITION": 48
      },
      {
       "POSITION": 49
      },
      {
       "POSITION": 50
      },
      {
       "POSITION": 51
      },
      {
       "POSITION": 52
      },
      {
       "POSITION": 53
      },
      {
       "POSITION": 54
      },
      {
       "POSITION": 55
      },
      {
       "POSITION": 56
      },
      {
       "POSITION": 57
      },
      {
       "POSITION": 58
      },
      {
       "POSITION": 59
      },
      {
       "POSITION": 60
      },
      {
       "POSITION": 61
      }
     ]
    }
   ],
   "weights": [
    0,
    0,
    0,
    0,
    0,
    0,
    0,
    0,
    0,
    0,
    0,
    0,
    0,
    0,
    0,
    0,
    0,
    0,
    0,
    0,
    0,
    0,
    0,
    0,
    0,
    0,
    0,
    0,
    0,
    0,
    0,
    0,
    0,
    0,
    0,
    0,
    0,
    0,
    0,
    0,
    0,
    0,
    0,
    0,
    0,
    0,
    0,
    0,
    0,
    0,
    0,
    0,
    0,
    0,
    0,
    0,
    0,
    0,
    0,
    0
   ]
  }
 ],
 "materials": [
  {
   "name": "slot0",
   "pbrMetallicRoughness": {
    "baseColorTexture": {
     "index": 0
    },
    "metallicFactor": 0,
    "roughnessFactor": 1
   }
  },
  {
   "name": "slot1",
   "doubleSided": true,
   "pbrMetallicRoughness": {
    "baseColorTexture": {
     "index": 1
    },
    "metallicFactor": 0,
    "roughnessFactor": 1
   }
  }
 ],
 "textures": [
  {
   "source": 0,
   "sampler": 0
  },
  {
   "source": 1,
   "sampler": 0
  }
 ],
 "images": [
  {
   "uri": "default/s0.png"
  },
  {
   "uri": "default/s1.png"
  }
 ],
 "samplers": [
  {
   "magFilter": 9729,
   "minFilter": 9987,
   "wrapS": 10497,
   "wrapT": 10497
  }
 ],
 "accessors": [
  {
   "bufferView": 0,
   "componentType": 5126,
   "count": 455,
   "type": "VEC3",
   "min": [
    -0.35399179767600825,
    0,
    -0.38276144907723864
   ],
   "max": [
    0.4077785372522215,
    1.8300000000000003,
    0.6154203691045795
   ]
  },
  {
   "bufferView": 1,
   "componentType": 5126,
   "count": 455,
   "type": "VEC2"
  },
  {
   "bufferView": 2,
   "componentType": 5126,
   "count": 455,
   "type": "VEC3",
   "min": [
    -0.5115994811058044,
    -0.12508544325828552,
    -0.3927682936191559
   ],
   "max": [
    0.14760081470012665,
    0.39151743054389954,
    0.5929049849510193
   ]
  },
  {
   "bufferView": 3,
   "componentType": 5126,
   "count": 455,
   "type": "VEC3",
   "min": [
    -0.40902939438819885,
    -0.1613602191209793,
    -0.5403690934181213
   ],
   "max": [
    0.1588585078716278,
    0.3002050518989563,
    0.855584442615509
   ]
  },
  {
   "bufferView": 4,
   "componentType": 5126,
   "count": 455,
   "type": "VEC3",
   "min": [
    -0.271435409784317,
    -0.17887218296527863,
    -0.7455092072486877
   ],
   "max": [
    0.2126452475786209,
    0.4690704047679901,
    1.1933151483535767
   ]
  },
  {
   "bufferView": 5,
   "componentType": 5126,
   "count": 455,
   "type": "VEC3",
   "min": [
    -0.25767600536346436,
    -0.17261791229248047,
    -0.7004784941673279
   ],
   "max": [
    0.22390294075012207,
    0.5503759384155273,
    1.1657962799072266
   ]
  },
  {
   "bufferView": 6,
   "componentType": 5126,
   "count": 455,
   "type": "VEC3",
   "min": [
    -0.4077785313129425,
    -0.16010937094688416,
    -0.4127819538116455
   ],
   "max": [
    0.14384825527668,
    0.47282296419143677,
    0.7605195045471191
   ]
  },
  {
   "bufferView": 7,
   "componentType": 5126,
   "count": 455,
   "type": "VEC3",
   "min": [
    -0.5353657007217407,
    -0.1413465440273285,
    -0.12258373200893402
   ],
   "max": [
    0.13133971393108368,
    0.3952699899673462,
    0.3827614486217499
   ]
  },
  {
   "bufferView": 8,
   "componentType": 5126,
   "count": 455,
   "type": "VEC3",
   "min": [
    -0.5378673672676086,
    -0.138844832777977,
    -0.2952016294002533
   ],
   "max": [
    0.18012303113937378,
    0.3252221345901489,
    0.5178537368774414
   ]
  },
  {
   "bufferView": 9,
   "componentType": 5126,
   "count": 455,
   "type": "VEC3",
   "min": [
    -0.5003417730331421,
    -0.148851677775383,
    -0.4903349280357361
   ],
   "max": [
    0.3102118968963623,
    0.4665687084197998,
    0.6304306387901306
   ]
  },
  {
   "bufferView": 10,
   "componentType": 5126,
   "count": 455,
   "type": "VEC3",
   "min": [
    -0.5028434991836548,
    -0.13509227335453033,
    -0.4903349280357361
   ],
   "max": [
    0.2801913917064667,
    0.5478742122650146,
    0.6204237937927246
   ]
  },
  {
   "bufferView": 11,
   "componentType": 5126,
   "count": 455,
   "type": "VEC3",
   "min": [
    -0.532863974571228,
    -0.13259056210517883,
    -0.277689665555954
   ],
   "max": [
    0.10382091253995895,
    0.47032126784324646,
    0.47782638669013977
   ]
  },
  {
   "bufferView": 12,
   "componentType": 5126,
   "count": 455,
   "type": "VEC3",
   "min": [
    -0.27268627285957336,
    -0.0975666418671608,
    -0.3952699899673462
   ],
   "max": [
    0.10382091253995895,
    0.3927682936191559,
    0.5904032588005066
   ]
  },
  {
   "bufferView": 13,
   "componentType": 5126,
   "count": 455,
   "type": "VEC3",
   "min": [
    -0.1951332837343216,
    -0.14509911835193634,
    -0.5403690934181213
   ],
   "max": [
    0.1075734794139862,
    0.302706778049469,
    0.855584442615509
   ]
  },
  {
   "bufferView": 14,
   "componentType": 5126,
   "count": 455,
   "type": "VEC3",
   "min": [
    -0.271435409784317,
    -0.17762131989002228,
    -0.7455092072486877
   ],
   "max": [
    0.11632946133613586,
    0.4690704047679901,
    1.1933151483535767
   ]
  },
  {
   "bufferView": 15,
   "componentType": 5126,
   "count": 455,
   "type": "VEC3",
   "min": [
    -0.25767600536346436,
    -0.16886533796787262,
    -0.7004784941673279
   ],
   "max": [
    0.12258373200893402,
    0.5503759384155273,
    1.1657962799072266
   ]
  },
  {
   "bufferView": 16,
   "componentType": 5126,
   "count": 455,
   "type": "VEC3",
   "min": [
    -0.2439166158437729,
    -0.047532469034194946,
    -0.4152836501598358
   ],
   "max": [
    0.12133287638425827,
    0.47282296419143677,
    0.7605195045471191
   ]
  },
  {
   "bufferView": 17,
   "componentType": 5126,
   "count": 455,
   "type": "VEC3",
   "min": [
    -0.2464183121919632,
    -0.0037525631487369537,
    -0.12258373200893402
   ],
   "max": [
    0.12133287638425827,
    0.3952699899673462,
    0.3827614486217499
   ]
  },
  {
   "bufferView": 18,
   "componentType": 5126,
   "count": 455,
   "type": "VEC3",
   "min": [
    -0.261428564786911,
    0.0075051262974739075,
    -0.282693088054657
   ],
   "max": [
    0.17386876046657562,
    0.3227204382419586,
    0.4803280830383301
   ]
  },
  {
   "bufferView": 19,
   "componentType": 5126,
   "count": 455,
   "type": "VEC3",
   "min": [
    -0.2101435363292694,
    -0.08881065994501114,
    -0.5378673672676086
   ],
   "max": [
    0.30896103382110596,
    0.4665687084197998,
    0.6279289126396179
   ]
  },
  {
   "bufferView": 20,
   "componentType": 5126,
   "count": 455,
   "type": "VEC3",
   "min": [
    -0.23015721142292023,
    -0.07880382984876633,
    -0.532863974571228
   ],
   "max": [
    0.2801913917064667,
    0.5478742122650146,
    0.6204237937927246
   ]
  },
  {
   "bufferView": 21,
   "componentType": 5126,
   "count": 455,
   "type": "VEC3",
   "min": [
    -0.30395761132240295,
    -0.07004784792661667,
    -0.25517430901527405
   ],
   "max": [
    0.10382091253995895,
    0.4715721011161804,
    0.43779903650283813
   ]
  },
  {
   "bufferView": 22,
   "componentType": 5126,
   "count": 455,
   "type": "VEC3",
   "min": [
    -0.3264729976654053,
    -0.046281613409519196,
    -0.3877648711204529
   ],
   "max": [
    0.1050717681646347,
    0.20388926565647125,
    0.3077101707458496
   ]
  },
  {
   "bufferView": 23,
   "componentType": 5126,
   "count": 455,
   "type": "VEC3",
   "min": [
    -0.30645933747291565,
    -0.08630895614624023,
    -0.46781954169273376
   ],
   "max": [
    0.10382091253995895,
    0.23265892267227173,
    0.4002734124660492
   ]
  },
  {
   "bufferView": 24,
   "componentType": 5126,
   "count": 455,
   "type": "VEC3",
   "min": [
    -0.2739371061325073,
    -0.12133287638425827,
    -0.562884509563446
   ],
   "max": [
    0.10382091253995895,
    0.2639302909374237,
    0.5253588557243347
   ]
  },
  {
   "bufferView": 25,
   "componentType": 5126,
   "count": 455,
   "type": "VEC3",
   "min": [
    -0.2439166158437729,
    -0.14009569585323334,
    -0.6579494476318359
   ],
   "max": [
    0.10382091253995895,
    0.271435409784317,
    0.6154203414916992
   ]
  },
  {
   "bufferView": 26,
   "componentType": 5126,
   "count": 455,
   "type": "VEC3",
   "min": [
    -0.2439166158437729,
    -0.15260423719882965,
    -0.7505126595497131
   ],
   "max": [
    0.10382091253995895,
    0.24266575276851654,
    0.6854681968688965
   ]
  },
  {
   "bufferView": 27,
   "componentType": 5126,
   "count": 455,
   "type": "VEC3",
   "min": [
    -0.2439166158437729,
    -0.1663636416196823,
    -0.8405741453170776
   ],
   "max": [
    0.10382091253995895,
    0.19012987613677979,
    0.7680246233940125
   ]
  },
  {
   "bufferView": 28,
   "componentType": 5126,
   "count": 455,
   "type": "VEC3",
   "min": [
    -0.2439166158437729,
    -0.13759398460388184,
    -0.7605195045471191
   ],
   "max": [
    0.10382091253995895,
    0.18387560546398163,
    0.6829665303230286
   ]
  },
  {
   "bufferView": 29,
   "componentType": 5126,
   "count": 455,
   "type": "VEC3",
   "min": [
    -0.2439166158437729,
    -0.10131920874118805,
    -0.6804648041725159
   ],
   "max": [
    0.10382091253995895,
    0.17261791229248047,
    0.6004101037979126
   ]
  },
  {
   "bufferView": 30,
   "componentType": 5126,
   "count": 455,
   "type": "VEC3",
   "min": [
    -0.2439166158437729,
    -0.06004101037979126,
    -0.5979083776473999
   ],
   "max": [
    0.12758715450763702,
    0.16886533796787262,
    0.5178537368774414
   ]
  },
  {
   "bufferView": 31,
   "componentType": 5126,
   "count": 455,
   "type": "VEC3",
   "min": [
    -0.26768285036087036,
    -0.013759398832917213,
    -0.5153520107269287
   ],
   "max": [
    0.14509911835193634,
    0.17511962354183197,
    0.43779903650283813
   ]
  },
  {
   "bufferView": 32,
   "componentType": 5126,
   "count": 455,
   "type": "VEC3",
   "min": [
    -0.2801913917064667,
    -0.006254272069782019,
    -0.43279561400413513
   ],
   "max": [
    0.1463499665260315,
    0.18012303113937378,
    0.35524263978004456
   ]
  },
  {
   "bufferView": 33,
   "componentType": 5126,
   "count": 455,
   "type": "VEC3",
   "min": [
    -0.2851948142051697,
    -0.00500341784209013,
    -0.3127135932445526
   ],
   "max": [
    0.12633629143238068,
    0.18262474238872528,
    0.4002734124660492
   ]
  },
  {
   "bufferView": 34,
   "componentType": 5126,
   "count": 455,
   "type": "VEC3",
   "min": [
    -0.277689665555954,
    -0.006254272069782019,
    -0.18762816488742828
   ],
   "max": [
    0.10382091253995895,
    0.18762816488742828,
    0.4878332316875458
   ]
  },
  {
   "bufferView": 35,
   "componentType": 5126,
   "count": 455,
   "type": "VEC3",
   "min": [
    -0.2589268684387207,
    -0.008755980990827084,
    -0.25017088651657104
   ],
   "max": [
    0.10382091253995895,
    0.19012987613677979,
    0.565386176109314
   ]
  },
  {
   "bufferView": 36,
   "componentType": 5126,
   "count": 455,
   "type": "VEC3",
   "min": [
    -0.2439166158437729,
    -0.026267942041158676,
    -0.3052084743976593
   ],
   "max": [
    0.10382091253995895,
    0.18762816488742828,
    0.6179220676422119
   ]
  },
  {
   "bufferView": 37,
   "componentType": 5126,
   "count": 455,
   "type": "VEC3",
   "min": [
    -0.2439166158437729,
    -0.04252905026078224,
    -0.3252221345901489
   ],
   "max": [
    0.10382091253995895,
    0.17511962354183197,
    0.6379357576370239
   ]
  },
  {
   "bufferView": 38,
   "componentType": 5126,
   "count": 455,
   "type": "VEC3",
   "min": [
    -0.2539234459400177,
    -0.026267942041158676,
    -0.297703355550766
   ],
   "max": [
    0.10382091253995895,
    0.17011620104312897,
    0.6104169487953186
   ]
  },
  {
   "bufferView": 39,
   "componentType": 5126,
   "count": 455,
   "type": "VEC3",
   "min": [
    -0.28394395112991333,
    -0.008755980990827084,
    -0.22765550017356873
   ],
   "max": [
    0.10382091253995895,
    0.1588585078716278,
    0.5478742122650146
   ]
  },
  {
   "bufferView": 40,
   "componentType": 5126,
   "count": 455,
   "type": "VEC3",
   "min": [
    -0.30896103382110596,
    -0.012508544139564037,
    -0.24016404151916504
   ],
   "max": [
    0.10382091253995895,
    0.16511277854442596,
    0.45781272649765015
   ]
  },
  {
   "bufferView": 41,
   "componentType": 5126,
   "count": 455,
   "type": "VEC3",
   "min": [
    -0.3227204382419586,
    -0.02876965142786503,
    -0.3102118968963623
   ],
   "max": [
    0.10382091253995895,
    0.17136704921722412,
    0.36775121092796326
   ]
  },
  {
   "bufferView": 42,
   "componentType": 5126,
   "count": 455,
   "type": "VEC3",
   "min": [
    -0.5040943026542664,
    -0.282693088054657,
    -0.3877648711204529
   ],
   "max": [
    0.10882433503866196,
    0.5278605818748474,
    0.37525632977485657
   ]
  },
  {
   "bufferView": 43,
   "componentType": 5126,
   "count": 455,
   "type": "VEC3",
   "min": [
    -0.49909090995788574,
    -0.27643883228302,
    -0.46781954169273376
   ],
   "max": [
    0.10632262378931046,
    0.5141011476516724,
    0.4002734124660492
   ]
  },
  {
   "bufferView": 44,
   "componentType": 5126,
   "count": 455,
   "type": "VEC3",
   "min": [
    -0.47782638669013977,
    -0.2539234459400177,
    -0.5603827834129333
   ],
   "max": [
    0.10382091253995895,
    0.5015926361083984,
    0.5253588557243347
   ]
  },
  {
   "bufferView": 45,
   "componentType": 5126,
   "count": 455,
   "type": "VEC3",
   "min": [
    -0.44030076265335083,
    -0.22265207767486572,
    -0.6579494476318359
   ],
   "max": [
    0.10382091253995895,
    0.4878332316875458,
    0.6154203414916992
   ]
  },
  {
   "bufferView": 46,
   "componentType": 5126,
   "count": 455,
   "type": "VEC3",
   "min": [
    -0.40152427554130554,
    -0.1951332837343216,
    -0.7505126595497131
   ],
   "max": [
    0.11507860571146011,
    0.4740738272666931,
    0.6854681968688965
   ]
  },
  {
   "bufferView": 47,
   "componentType": 5126,
   "count": 455,
   "type": "VEC3",
   "min": [
    -0.38151058554649353,
    -0.19138072431087494,
    -0.8405741453170776
   ],
   "max": [
    0.12383458763360977,
    0.4565618634223938,
    0.7680246233940125
   ]
  },
  {
   "bufferView": 48,
   "componentType": 5126,
   "count": 455,
   "type": "VEC3",
   "min": [
    -0.3952699899673462,
    -0.1976349949836731,
    -0.7605195045471191
   ],
   "max": [
    0.12758715450763702,
    0.4665687084197998,
    0.6854681968688965
   ]
  },
  {
   "bufferView": 49,
   "componentType": 5126,
   "count": 455,
   "type": "VEC3",
   "min": [
    -0.4277922213077545,
    -0.22640465199947357,
    -0.6779630780220032
   ],
   "max": [
    0.12508544325828552,
    0.4765755236148834,
    0.6004101037979126
   ]
  },
  {
   "bufferView": 50,
   "componentType": 5126,
   "count": 455,
   "type": "VEC3",
   "min": [
    -0.4615652859210968,
    -0.2489200234413147,
    -0.5979083776473999
   ],
   "max": [
    0.13008886575698853,
    0.48658236861228943,
    0.5178537368774414
   ]
  },
  {
   "bufferView": 51,
   "componentType": 5126,
   "count": 455,
   "type": "VEC3",
   "min": [
    -0.48658236861228943,
    -0.25517430901527405,
    -0.5153520107269287
   ],
   "max": [
    0.148851677775383,
    0.49658921360969543,
    0.43779903650283813
   ]
  },
  {
   "bufferView": 52,
   "componentType": 5126,
   "count": 455,
   "type": "VEC3",
   "min": [
    -0.49658921360969543,
    -0.2489200234413147,
    -0.43279561400413513
   ],
   "max": [
    0.148851677775383,
    0.506596028804779,
    0.3777580261230469
   ]
  },
  {
   "bufferView": 53,
   "componentType": 5126,
   "count": 455,
   "type": "VEC3",
   "min": [
    -0.49158579111099243,
    -0.27643883228302,
    -0.3102118968963623
   ],
   "max": [
    0.13008886575698853,
    0.4953383505344391,
    0.46531784534454346
   ]
  },
  {
   "bufferView": 54,
   "componentType": 5126,
   "count": 455,
   "type": "VEC3",
   "min": [
    -0.47782638669013977,
    -0.2952016294002533,
    -0.22515378892421722
   ],
   "max": [
    0.10382091253995895,
    0.4828298091888428,
    0.5603827834129333
   ]
  },
  {
   "bufferView": 55,
   "componentType": 5126,
   "count": 455,
   "type": "VEC3",
   "min": [
    -0.4590635597705841,
    -0.302706778049469,
    -0.25767600536346436
   ],
   "max": [
    0.10382091253995895,
    0.47032126784324646,
    0.6479426026344299
   ]
  },
  {
   "bufferView": 56,
   "componentType": 5126,
   "count": 455,
   "type": "VEC3",
   "min": [
    -0.44280245900154114,
    -0.30645933747291565,
    -0.3152153193950653
   ],
   "max": [
    0.10382091253995895,
    0.45781272649765015,
    0.7104852795600891
   ]
  },
  {
   "bufferView": 57,
   "componentType": 5126,
   "count": 455,
   "type": "VEC3",
   "min": [
    -0.4365482032299042,
    -0.3177170157432556,
    -0.33522897958755493
   ],
   "max": [
    0.10382091253995895,
    0.44530415534973145,
    0.7355024218559265
   ]
  },
  {
   "bufferView": 58,
   "componentType": 5126,
   "count": 455,
   "type": "VEC3",
   "min": [
    -0.45030757784843445,
    -0.32146957516670227,
    -0.3052084743976593
   ],
   "max": [
    0.10382091253995895,
    0.4590635597705841,
    0.7079836130142212
   ]
  },
  {
   "bufferView": 59,
   "componentType": 5126,
   "count": 455,
   "type": "VEC3",
   "min": [
    -0.4740738272666931,
    -0.3339781165122986,
    -0.23766233026981354
   ],
   "max": [
    0.10382091253995895,
    0.4753246605396271,
    0.6379357576370239
   ]
  },
  {
   "bufferView": 60,
   "componentType": 5126,
   "count": 455,
   "type": "VEC3",
   "min": [
    -0.49408748745918274,
    -0.3327272832393646,
    -0.24016404151916504
   ],
   "max": [
    0.10382091253995895,
    0.49158579111099243,
    0.542870819568634
   ]
  },
  {
   "bufferView": 61,
   "componentType": 5126,
   "count": 455,
   "type": "VEC3",
   "min": [
    -0.5040943026542664,
    -0.3102118968963623,
    -0.3077101707458496
   ],
   "max": [
    0.10382091253995895,
    0.5090977549552917,
    0.44780588150024414
   ]
  },
  {
   "bufferView": 62,
   "componentType": 5123,
   "count": 1698,
   "type": "SCALAR"
  },
  {
   "bufferView": 63,
   "componentType": 5123,
   "count": 6,
   "type": "SCALAR"
  },
  {
   "bufferView": 64,
   "componentType": 5126,
   "count": 2,
   "type": "SCALAR",
   "min": [
    0
   ],
   "max": [
    0.03333333333333333
   ]
  },
  {
   "bufferView": 65,
   "componentType": 5126,
   "count": 120,
   "type": "SCALAR"
  },
  {
   "bufferView": 66,
   "componentType": 5126,
   "count": 2,
   "type": "VEC3",
   "min": [
    0.12758714969241286,
    1.0838653451811349,
    -0.19012987012987015
   ],
   "max": [
    0.12758714969241286,
    1.0838653451811349,
    -0.19012987012987015
   ]
  },
  {
   "bufferView": 67,
   "componentType": 5126,
   "count": 2,
   "type": "VEC4"
  },
  {
   "bufferView": 68,
   "componentType": 5126,
   "count": 21,
   "type": "SCALAR",
   "min": [
    0
   ],
   "max": [
    1.3333333333333333
   ]
  },
  {
   "bufferView": 69,
   "componentType": 5126,
   "count": 1260,
   "type": "SCALAR"
  },
  {
   "bufferView": 70,
   "componentType": 5126,
   "count": 21,
   "type": "VEC3",
   "min": [
    0.12633629528366372,
    1.4641250854408752,
    -0.2589268626110731
   ],
   "max": [
    0.2307826384142174,
    1.5548120300751882,
    -0.19888585099111414
   ]
  },
  {
   "bufferView": 71,
   "componentType": 5126,
   "count": 21,
   "type": "VEC4"
  },
  {
   "bufferView": 72,
   "componentType": 5126,
   "count": 11,
   "type": "SCALAR",
   "min": [
    0
   ],
   "max": [
    0.5555555555555556
   ]
  },
  {
   "bufferView": 73,
   "componentType": 5126,
   "count": 660,
   "type": "SCALAR"
  },
  {
   "bufferView": 74,
   "componentType": 5126,
   "count": 11,
   "type": "VEC3",
   "min": [
    0.005003417634996569,
    0.9925529733424472,
    -0.23641148325358854
   ],
   "max": [
    0.2651811346548189,
    1.0713568010936434,
    0.30270676691729326
   ]
  },
  {
   "bufferView": 75,
   "componentType": 5126,
   "count": 11,
   "type": "VEC4"
  },
  {
   "bufferView": 76,
   "componentType": 5126,
   "count": 2,
   "type": "SCALAR",
   "min": [
    0
   ],
   "max": [
    0.03333333333333333
   ]
  },
  {
   "bufferView": 77,
   "componentType": 5126,
   "count": 120,
   "type": "SCALAR"
  },
  {
   "bufferView": 78,
   "componentType": 5126,
   "count": 2,
   "type": "VEC3",
   "min": [
    0.12758714969241286,
    1.0838653451811349,
    -0.19012987012987015
   ],
   "max": [
    0.12758714969241286,
    1.0838653451811349,
    -0.19012987012987015
   ]
  },
  {
   "bufferView": 79,
   "componentType": 5126,
   "count": 2,
   "type": "VEC4"
  },
  {
   "bufferView": 80,
   "componentType": 5126,
   "count": 21,
   "type": "SCALAR",
   "min": [
    0
   ],
   "max": [
    1.3333333333333333
   ]
  },
  {
   "bufferView": 81,
   "componentType": 5126,
   "count": 1260,
   "type": "SCALAR"
  },
  {
   "bufferView": 82,
   "componentType": 5126,
   "count": 21,
   "type": "VEC3",
   "min": [
    0.10194463431305537,
    1.1170129870129872,
    -0.1751196172248804
   ],
   "max": [
    0.1657382091592618,
    1.2076999316473003,
    -0.11883116883116884
   ]
  },
  {
   "bufferView": 83,
   "componentType": 5126,
   "count": 21,
   "type": "VEC4"
  },
  {
   "bufferView": 84,
   "componentType": 5126,
   "count": 11,
   "type": "SCALAR",
   "min": [
    0
   ],
   "max": [
    0.5555555555555556
   ]
  },
  {
   "bufferView": 85,
   "componentType": 5126,
   "count": 660,
   "type": "SCALAR"
  },
  {
   "bufferView": 86,
   "componentType": 5126,
   "count": 11,
   "type": "VEC3",
   "min": [
    0.10194463431305537,
    1.089494190020506,
    -0.21889952153110048
   ],
   "max": [
    0.12446001367053999,
    1.1964422419685579,
    -0.14009569377990433
   ]
  },
  {
   "bufferView": 87,
   "componentType": 5126,
   "count": 11,
   "type": "VEC4"
  }
 ],
 "bufferViews": [
  {
   "buffer": 0,
   "byteOffset": 0,
   "byteLength": 5460,
   "target": 34962
  },
  {
   "buffer": 0,
   "byteOffset": 5460,
   "byteLength": 3640,
   "target": 34962
  },
  {
   "buffer": 0,
   "byteOffset": 9100,
   "byteLength": 5460,
   "target": 34962
  },
  {
   "buffer": 0,
   "byteOffset": 14560,
   "byteLength": 5460,
   "target": 34962
  },
  {
   "buffer": 0,
   "byteOffset": 20020,
   "byteLength": 5460,
   "target": 34962
  },
  {
   "buffer": 0,
   "byteOffset": 25480,
   "byteLength": 5460,
   "target": 34962
  },
  {
   "buffer": 0,
   "byteOffset": 30940,
   "byteLength": 5460,
   "target": 34962
  },
  {
   "buffer": 0,
   "byteOffset": 36400,
   "byteLength": 5460,
   "target": 34962
  },
  {
   "buffer": 0,
   "byteOffset": 41860,
   "byteLength": 5460,
   "target": 34962
  },
  {
   "buffer": 0,
   "byteOffset": 47320,
   "byteLength": 5460,
   "target": 34962
  },
  {
   "buffer": 0,
   "byteOffset": 52780,
   "byteLength": 5460,
   "target": 34962
  },
  {
   "buffer": 0,
   "byteOffset": 58240,
   "byteLength": 5460,
   "target": 34962
  },
  {
   "buffer": 0,
   "byteOffset": 63700,
   "byteLength": 5460,
   "target": 34962
  },
  {
   "buffer": 0,
   "byteOffset": 69160,
   "byteLength": 5460,
   "target": 34962
  },
  {
   "buffer": 0,
   "byteOffset": 74620,
   "byteLength": 5460,
   "target": 34962
  },
  {
   "buffer": 0,
   "byteOffset": 80080,
   "byteLength": 5460,
   "target": 34962
  },
  {
   "buffer": 0,
   "byteOffset": 85540,
   "byteLength": 5460,
   "target": 34962
  },
  {
   "buffer": 0,
   "byteOffset": 91000,
   "byteLength": 5460,
   "target": 34962
  },
  {
   "buffer": 0,
   "byteOffset": 96460,
   "byteLength": 5460,
   "target": 34962
  },
  {
   "buffer": 0,
   "byteOffset": 101920,
   "byteLength": 5460,
   "target": 34962
  },
  {
   "buffer": 0,
   "byteOffset": 107380,
   "byteLength": 5460,
   "target": 34962
  },
  {
   "buffer": 0,
   "byteOffset": 112840,
   "byteLength": 5460,
   "target": 34962
  },
  {
   "buffer": 0,
   "byteOffset": 118300,
   "byteLength": 5460,
   "target": 34962
  },
  {
   "buffer": 0,
   "byteOffset": 123760,
   "byteLength": 5460,
   "target": 34962
  },
  {
   "buffer": 0,
   "byteOffset": 129220,
   "byteLength": 5460,
   "target": 34962
  },
  {
   "buffer": 0,
   "byteOffset": 134680,
   "byteLength": 5460,
   "target": 34962
  },
  {
   "buffer": 0,
   "byteOffset": 140140,
   "byteLength": 5460,
   "target": 34962
  },
  {
   "buffer": 0,
   "byteOffset": 145600,
   "byteLength": 5460,
   "target": 34962
  },
  {
   "buffer": 0,
   "byteOffset": 151060,
   "byteLength": 5460,
   "target": 34962
  },
  {
   "buffer": 0,
   "byteOffset": 156520,
   "byteLength": 5460,
   "target": 34962
  },
  {
   "buffer": 0,
   "byteOffset": 161980,
   "byteLength": 5460,
   "target": 34962
  },
  {
   "buffer": 0,
   "byteOffset": 167440,
   "byteLength": 5460,
   "target": 34962
  },
  {
   "buffer": 0,
   "byteOffset": 172900,
   "byteLength": 5460,
   "target": 34962
  },
  {
   "buffer": 0,
   "byteOffset": 178360,
   "byteLength": 5460,
   "target": 34962
  },
  {
   "buffer": 0,
   "byteOffset": 183820,
   "byteLength": 5460,
   "target": 34962
  },
  {
   "buffer": 0,
   "byteOffset": 189280,
   "byteLength": 5460,
   "target": 34962
  },
  {
   "buffer": 0,
   "byteOffset": 194740,
   "byteLength": 5460,
   "target": 34962
  },
  {
   "buffer": 0,
   "byteOffset": 200200,
   "byteLength": 5460,
   "target": 34962
  },
  {
   "buffer": 0,
   "byteOffset": 205660,
   "byteLength": 5460,
   "target": 34962
  },
  {
   "buffer": 0,
   "byteOffset": 211120,
   "byteLength": 5460,
   "target": 34962
  },
  {
   "buffer": 0,
   "byteOffset": 216580,
   "byteLength": 5460,
   "target": 34962
  },
  {
   "buffer": 0,
   "byteOffset": 222040,
   "byteLength": 5460,
   "target": 34962
  },
  {
   "buffer": 0,
   "byteOffset": 227500,
   "byteLength": 5460,
   "target": 34962
  },
  {
   "buffer": 0,
   "byteOffset": 232960,
   "byteLength": 5460,
   "target": 34962
  },
  {
   "buffer": 0,
   "byteOffset": 238420,
   "byteLength": 5460,
   "target": 34962
  },
  {
   "buffer": 0,
   "byteOffset": 243880,
   "byteLength": 5460,
   "target": 34962
  },
  {
   "buffer": 0,
   "byteOffset": 249340,
   "byteLength": 5460,
   "target": 34962
  },
  {
   "buffer": 0,
   "byteOffset": 254800,
   "byteLength": 5460,
   "target": 34962
  },
  {
   "buffer": 0,
   "byteOffset": 260260,
   "byteLength": 5460,
   "target": 34962
  },
  {
   "buffer": 0,
   "byteOffset": 265720,
   "byteLength": 5460,
   "target": 34962
  },
  {
   "buffer": 0,
   "byteOffset": 271180,
   "byteLength": 5460,
   "target": 34962
  },
  {
   "buffer": 0,
   "byteOffset": 276640,
   "byteLength": 5460,
   "target": 34962
  },
  {
   "buffer": 0,
   "byteOffset": 282100,
   "byteLength": 5460,
   "target": 34962
  },
  {
   "buffer": 0,
   "byteOffset": 287560,
   "byteLength": 5460,
   "target": 34962
  },
  {
   "buffer": 0,
   "byteOffset": 293020,
   "byteLength": 5460,
   "target": 34962
  },
  {
   "buffer": 0,
   "byteOffset": 298480,
   "byteLength": 5460,
   "target": 34962
  },
  {
   "buffer": 0,
   "byteOffset": 303940,
   "byteLength": 5460,
   "target": 34962
  },
  {
   "buffer": 0,
   "byteOffset": 309400,
   "byteLength": 5460,
   "target": 34962
  },
  {
   "buffer": 0,
   "byteOffset": 314860,
   "byteLength": 5460,
   "target": 34962
  },
  {
   "buffer": 0,
   "byteOffset": 320320,
   "byteLength": 5460,
   "target": 34962
  },
  {
   "buffer": 0,
   "byteOffset": 325780,
   "byteLength": 5460,
   "target": 34962
  },
  {
   "buffer": 0,
   "byteOffset": 331240,
   "byteLength": 5460,
   "target": 34962
  },
  {
   "buffer": 0,
   "byteOffset": 336700,
   "byteLength": 3396,
   "target": 34963
  },
  {
   "buffer": 0,
   "byteOffset": 340096,
   "byteLength": 12,
   "target": 34963
  },
  {
   "buffer": 0,
   "byteOffset": 340108,
   "byteLength": 8
  },
  {
   "buffer": 0,
   "byteOffset": 340116,
   "byteLength": 480
  },
  {
   "buffer": 0,
   "byteOffset": 340596,
   "byteLength": 24
  },
  {
   "buffer": 0,
   "byteOffset": 340620,
   "byteLength": 32
  },
  {
   "buffer": 0,
   "byteOffset": 340652,
   "byteLength": 84
  },
  {
   "buffer": 0,
   "byteOffset": 340736,
   "byteLength": 5040
  },
  {
   "buffer": 0,
   "byteOffset": 345776,
   "byteLength": 252
  },
  {
   "buffer": 0,
   "byteOffset": 346028,
   "byteLength": 336
  },
  {
   "buffer": 0,
   "byteOffset": 346364,
   "byteLength": 44
  },
  {
   "buffer": 0,
   "byteOffset": 346408,
   "byteLength": 2640
  },
  {
   "buffer": 0,
   "byteOffset": 349048,
   "byteLength": 132
  },
  {
   "buffer": 0,
   "byteOffset": 349180,
   "byteLength": 176
  },
  {
   "buffer": 0,
   "byteOffset": 349356,
   "byteLength": 8
  },
  {
   "buffer": 0,
   "byteOffset": 349364,
   "byteLength": 480
  },
  {
   "buffer": 0,
   "byteOffset": 349844,
   "byteLength": 24
  },
  {
   "buffer": 0,
   "byteOffset": 349868,
   "byteLength": 32
  },
  {
   "buffer": 0,
   "byteOffset": 349900,
   "byteLength": 84
  },
  {
   "buffer": 0,
   "byteOffset": 349984,
   "byteLength": 5040
  },
  {
   "buffer": 0,
   "byteOffset": 355024,
   "byteLength": 252
  },
  {
   "buffer": 0,
   "byteOffset": 355276,
   "byteLength": 336
  },
  {
   "buffer": 0,
   "byteOffset": 355612,
   "byteLength": 44
  },
  {
   "buffer": 0,
   "byteOffset": 355656,
   "byteLength": 2640
  },
  {
   "buffer": 0,
   "byteOffset": 358296,
   "byteLength": 132
  },
  {
   "buffer": 0,
   "byteOffset": 358428,
   "byteLength": 176
  }
 ],
 "buffers": [
  {
   "uri": "nali.bin",
   "byteLength": 358604
  }
 ],
 "animations": [
  {
   "name": "Idle",
   "samplers": [
    {
     "input": 64,
     "output": 65,
     "interpolation": "LINEAR"
    },
    {
     "input": 64,
     "output": 66,
     "interpolation": "LINEAR"
    },
    {
     "input": 64,
     "output": 67,
     "interpolation": "LINEAR"
    }
   ],
   "channels": [
    {
     "sampler": 0,
     "target": {
      "node": 0,
      "path": "weights"
     }
    },
    {
     "sampler": 1,
     "target": {
      "node": 1,
      "path": "translation"
     }
    },
    {
     "sampler": 2,
     "target": {
      "node": 1,
      "path": "rotation"
     }
    }
   ]
  },
  {
   "name": "Walk",
   "samplers": [
    {
     "input": 68,
     "output": 69,
     "interpolation": "LINEAR"
    },
    {
     "input": 68,
     "output": 70,
     "interpolation": "LINEAR"
    },
    {
     "input": 68,
     "output": 71,
     "interpolation": "LINEAR"
    }
   ],
   "channels": [
    {
     "sampler": 0,
     "target": {
      "node": 0,
      "path": "weights"
     }
    },
    {
     "sampler": 1,
     "target": {
      "node": 1,
      "path": "translation"
     }
    },
    {
     "sampler": 2,
     "target": {
      "node": 1,
      "path": "rotation"
     }
    }
   ]
  },
  {
   "name": "Run",
   "samplers": [
    {
     "input": 72,
     "output": 73,
     "interpolation": "LINEAR"
    },
    {
     "input": 72,
     "output": 74,
     "interpolation": "LINEAR"
    },
    {
     "input": 72,
     "output": 75,
     "interpolation": "LINEAR"
    }
   ],
   "channels": [
    {
     "sampler": 0,
     "target": {
      "node": 0,
      "path": "weights"
     }
    },
    {
     "sampler": 1,
     "target": {
      "node": 1,
      "path": "translation"
     }
    },
    {
     "sampler": 2,
     "target": {
      "node": 1,
      "path": "rotation"
     }
    }
   ]
  },
  {
   "name": "Fire",
   "samplers": [
    {
     "input": 76,
     "output": 77,
     "interpolation": "LINEAR"
    },
    {
     "input": 76,
     "output": 78,
     "interpolation": "LINEAR"
    },
    {
     "input": 76,
     "output": 79,
     "interpolation": "LINEAR"
    }
   ],
   "channels": [
    {
     "sampler": 0,
     "target": {
      "node": 0,
      "path": "weights"
     }
    },
    {
     "sampler": 1,
     "target": {
      "node": 1,
      "path": "translation"
     }
    },
    {
     "sampler": 2,
     "target": {
      "node": 1,
      "path": "rotation"
     }
    }
   ]
  },
  {
   "name": "WalkFire",
   "samplers": [
    {
     "input": 80,
     "output": 81,
     "interpolation": "LINEAR"
    },
    {
     "input": 80,
     "output": 82,
     "interpolation": "LINEAR"
    },
    {
     "input": 80,
     "output": 83,
     "interpolation": "LINEAR"
    }
   ],
   "channels": [
    {
     "sampler": 0,
     "target": {
      "node": 0,
      "path": "weights"
     }
    },
    {
     "sampler": 1,
     "target": {
      "node": 1,
      "path": "translation"
     }
    },
    {
     "sampler": 2,
     "target": {
      "node": 1,
      "path": "rotation"
     }
    }
   ]
  },
  {
   "name": "RunFire",
   "samplers": [
    {
     "input": 84,
     "output": 85,
     "interpolation": "LINEAR"
    },
    {
     "input": 84,
     "output": 86,
     "interpolation": "LINEAR"
    },
    {
     "input": 84,
     "output": 87,
     "interpolation": "LINEAR"
    }
   ],
   "channels": [
    {
     "sampler": 0,
     "target": {
      "node": 0,
      "path": "weights"
     }
    },
    {
     "sampler": 1,
     "target": {
      "node": 1,
      "path": "translation"
     }
    },
    {
     "sampler": 2,
     "target": {
      "node": 1,
      "path": "rotation"
     }
    }
   ]
  }
 ]
}
