{
 "asset": {
  "version": "2.0",
  "generator": "build-ut-projectiles.mjs"
 },
 "extensionsUsed": [
  "KHR_materials_unlit"
 ],
 "scene": 0,
 "scenes": [
  {
   "nodes": [
    0
   ]
  }
 ],
 "nodes": [
  {
   "mesh": 0,
   "name": "ripper"
  }
 ],
 "meshes": [
  {
   "name": "ripper",
   "primitives": [
    {
     "attributes": {
      "POSITION": 0,
      "TEXCOORD_0": 1
     },
     "indices": 2,
     "material": 0
    },
    {
     "attributes": {
      "POSITION": 0,
      "TEXCOORD_0": 1
     },
     "indices": 3,
     "material": 1
    }
   ]
  }
 ],
 "materials": [
  {
   "name": "slot0",
   "doubleSided": false,
   "pbrMetallicRoughness": {
    "baseColorTexture": {
     "index": 0
    },
    "metallicFactor": 0,
    "roughnessFactor": 1
   }
  },
  {
   "name": "slot1",
   "doubleSided": true,
   "pbrMetallicRoughness": {
    "baseColorTexture": {
     "index": 1
    },
    "metallicFactor": 0,
    "roughnessFactor": 1
   },
   "alphaMode": "BLEND",
   "extensions": {
    "KHR_materials_unlit": {}
   }
  }
 ],
 "textures": [
  {
   "source": 0,
   "sampler": 0
  },
  {
   "source": 1,
   "sampler": 0
  }
 ],
 "images": [
  {
   "uri": "s0.png"
  },
  {
   "uri": "s1.png"
  }
 ],
 "samplers": [
  {
   "magFilter": 9729,
   "minFilter": 9987,
   "wrapS": 10497,
   "wrapT": 10497
  }
 ],
 "accessors": [
  {
   "bufferView": 0,
   "componentType": 5126,
   "count": 39,
   "type": "VEC3",
   "min": [
    -0.35320504770230704,
    -0.6789150916912607,
    -0.025380003427710685
   ],
   "max": [
    0.35320504770230704,
    0.6789150916912607,
    0.025380003427710685
   ]
  },
  {
   "bufferView": 1,
   "componentType": 5126,
   "count": 39,
   "type": "VEC2"
  },
  {
   "bufferView": 2,
   "componentType": 5123,
   "count": 204,
   "type": "SCALAR"
  },
  {
   "bufferView": 3,
   "componentType": 5123,
   "count": 3,
   "type": "SCALAR"
  }
 ],
 "bufferViews": [
  {
   "buffer": 0,
   "byteOffset": 0,
   "byteLength": 468,
   "target": 34962
  },
  {
   "buffer": 0,
   "byteOffset": 468,
   "byteLength": 312,
   "target": 34962
  },
  {
   "buffer": 0,
   "byteOffset": 780,
   "byteLength": 408,
   "target": 34963
  },
  {
   "buffer": 0,
   "byteOffset": 1188,
   "byteLength": 6,
   "target": 34963
  }
 ],
 "buffers": [
  {
   "uri": "ripper.bin",
   "byteLength": 1196
  }
 ]
}
