{"asset":{"version":"2.0","generator":"facingworlds ut99 extractor"},"scene":0,"scenes":[{"nodes":[0]}],"nodes":[{"mesh":0,"name":"Soldier"}],"meshes":[{"name":"Soldier","primitives":[{"attributes":{"POSITION":0,"TEXCOORD_0":1},"indices":2,"material":0,"targets":[{"POSITION":3},{"POSITION":4},{"POSITION":5},{"POSITION":6},{"POSITION":7},{"POSITION":8},{"POSITION":9},{"POSITION":10},{"POSITION":11},{"POSITION":12},{"POSITION":13},{"POSITION":14},{"POSITION":15},{"POSITION":16},{"POSITION":17},{"POSITION":18},{"POSITION":19},{"POSITION":20},{"POSITION":21},{"POSITION":22},{"POSITION":23},{"POSITION":24},{"POSITION":25},{"POSITION":26},{"POSITION":27},{"POSITION":28},{"POSITION":29},{"POSITION":30},{"POSITION":31},{"POSITION":32},{"POSITION":33},{"POSITION":34},{"POSITION":35},{"POSITION":36},{"POSITION":37}]},{"attributes":{"POSITION":38,"TEXCOORD_0":39},"indices":40,"material":1,"targets":[{"POSITION":41},{"POSITION":42},{"POSITION":43},{"POSITION":44},{"POSITION":45},{"POSITION":46},{"POSITION":47},{"POSITION":48},{"POSITION":49},{"POSITION":50},{"POSITION":51},{"POSITION":52},{"POSITION":53},{"POSITION":54},{"POSITION":55},{"POSITION":56},{"POSITION":57},{"POSITION":58},{"POSITION":59},{"POSITION":60},{"POSITION":61},{"POSITION":62},{"POSITION":63},{"POSITION":64},{"POSITION":65},{"POSITION":66},{"POSITION":67},{"POSITION":68},{"POSITION":69},{"POSITION":70},{"POSITION":71},{"POSITION":72},{"POSITION":73},{"POSITION":74},{"POSITION":75}]},{"attributes":{"POSITION":76,"TEXCOORD_0":77},"indices":78,"material":2,"targets":[{"POSITION":79},{"POSITION":80},{"POSITION":81},{"POSITION":82},{"POSITION":83},{"POSITION":84},{"POSITION":85},{"POSITION":86},{"POSITION":87},{"POSITION":88},{"POSITION":89},{"POSITION":90},{"POSITION":91},{"POSITION":92},{"POSITION":93},{"POSITION":94},{"POSITION":95},{"POSITION":96},{"POSITION":97},{"POSITION":98},{"POSITION":99},{"POSITION":100},{"POSITION":101},{"POSITION":102},{"POSITION":103},{"POSITION":104},{"POSITION":105},{"POSITION":106},{"POSITION":107},{"POSITION":108},{"POSITION":109},{"POSITION":110},{"POSITION":111},{"POSITION":112},{"POSITION":113}]},{"attributes":{"POSITION":114,"TEXCOORD_0":115},"indices":116,"material":3,"targets":[{"POSITION":117},{"POSITION":118},{"POSITION":119},{"POSITION":120},{"POSITION":121},{"POSITION":122},{"POSITION":123},{"POSITION":124},{"POSITION":125},{"POSITION":126},{"POSITION":127},{"POSITION":128},{"POSITION":129},{"POSITION":130},{"POSITION":131},{"POSITION":132},{"POSITION":133},{"POSITION":134},{"POSITION":135},{"POSITION":136},{"POSITION":137},{"POSITION":138},{"POSITION":139},{"POSITION":140},{"POSITION":141},{"POSITION":142},{"POSITION":143},{"POSITION":144},{"POSITION":145},{"POSITION":146},{"POSITION":147},{"POSITION":148},{"POSITION":149},{"POSITION":150},{"POSITION":151}]}],"weights":[0,0,0,0,0,0,0,0,0,0,0,0,0,0,0,0,0,0,0,0,0,0,0,0,0,0,0,0,0,0,0,0,0,0,0]}],"materials":[{"name":"slot0","pbrMetallicRoughness":{"baseColorTexture":{"index":0},"metallicFactor":0,"roughnessFactor":1}},{"name":"slot1","pbrMetallicRoughness":{"baseColorTexture":{"index":1},"metallicFactor":0,"roughnessFactor":1}},{"name":"slot2","pbrMetallicRoughness":{"baseColorTexture":{"index":2},"metallicFactor":0,"roughnessFactor":1}},{"name":"slot3","pbrMetallicRoughness":{"baseColorTexture":{"index":3},"metallicFactor":0,"roughnessFactor":1}}],"images":[{"uri":"malcom/s0.png"},{"uri":"malcom/s1.png"},{"uri":"malcom/s2.png"},{"uri":"malcom/s3.png"}],"samplers":[{"magFilter":9729,"minFilter":9987,"wrapS":10497,"wrapT":10497}],"textures":[{"source":0,"sampler":0},{"source":1,"sampler":0},{"source":2,"sampler":0},{"source":3,"sampler":0}],"accessors":[{"bufferView":0,"componentType":5126,"count":101,"type":"VEC3","min":[-0.2983048780487805,1.0831219512195123,-0.3273170731707317],"max":[0.37120731707317073,1.6350975609756098,0.4344390243902439]},{"bufferView":1,"componentType":5126,"count":101,"type":"VEC2"},{"bufferView":2,"componentType":5123,"count":366,"type":"SCALAR"},{"bufferView":3,"componentType":5126,"count":101,"type":"VEC3","min":[0,0,0],"max":[0,0,0]},{"bufferView":4,"componentType":5126,"count":101,"type":"VEC3","min":[-0.04165853658536586,-0.022317073170731838,-0.1755609756097561],"max":[0.11009756097560977,0.02380487804878051,0.023804878048780488]},{"bufferView":5,"componentType":5126,"count":101,"type":"VEC3","min":[-0.10860975609756099,-0.028268292682926743,-0.33624390243902447],"max":[0.34368292682926826,0.27970731707317076,0.02975609756097561]},{"bufferView":6,"componentType":5126,"count":101,"type":"VEC3","min":[-0.11753658536585368,-0.02529268292682918,-0.3749268292682927],"max":[0.38534146341463416,0.36153658536585365,0.017853658536585368]},{"bufferView":7,"componentType":5126,"count":101,"type":"VEC3","min":[-0.10414634146341464,-0.005951219512195127,-0.34517073170731716],"max":[0.36004878048780486,0.3585609756097561,0.014878048780487804]},{"bufferView":8,"componentType":5126,"count":101,"type":"VEC3","min":[-0.08629268292682928,0.00892682926829269,-0.29756097560975614],"max":[0.31541463414634147,0.32880487804878045,0.014878048780487804]},{"bufferView":9,"componentType":5126,"count":101,"type":"VEC3","min":[-0.06397560975609758,0.010414634146341584,-0.2380487804878049],"max":[0.25441463414634147,0.27375609756097563,0.014878048780487804]},{"bufferView":10,"componentType":5126,"count":101,"type":"VEC3","min":[-0.043146341463414645,0.00892682926829269,-0.17258536585365855],"max":[0.183,0.2023414634146341,0.01190243902439024]},{"bufferView":11,"componentType":5126,"count":101,"type":"VEC3","min":[-0.02380487804878051,0.005951219512195127,-0.10712195121951221],"max":[0.11456097560975609,0.12646341463414634,0.008926829268292677]},{"bufferView":12,"componentType":5126,"count":101,"type":"VEC3","min":[-0.010414634146341473,0.0029756097560975636,-0.04760975609756099],"max":[0.05058536585365853,0.055048780487804816,0.005951219512195127]},{"bufferView":13,"componentType":5126,"count":101,"type":"VEC3","min":[0.028268292682926854,0.05951219512195127,0.0029756097560975567],"max":[0.13241463414634147,0.16217073170731688,0.14282926829268291]},{"bufferView":14,"componentType":5126,"count":101,"type":"VEC3","min":[0.02380487804878051,0.05504878048780504,0],"max":[0.1309268292682927,0.15026829268292685,0.1458048780487805]},{"bufferView":15,"componentType":5126,"count":101,"type":"VEC3","min":[0.01785365853658538,0.04165853658536589,-0.0029756097560975636],"max":[0.1294390243902439,0.13390243902439014,0.1547317073170732]},{"bufferView":16,"componentType":5126,"count":101,"type":"VEC3","min":[0.011902439024390254,0.029756097560975636,-0.008926829268292684],"max":[0.12795121951219512,0.11604878048780476,0.16365853658536586]},{"bufferView":17,"componentType":5126,"count":101,"type":"VEC3","min":[0.005951219512195127,0.011902439024390254,-0.011902439024390248],"max":[0.12646341463414634,0.0967073170731707,0.17258536585365855]},{"bufferView":18,"componentType":5126,"count":101,"type":"VEC3","min":[0.004463414634146345,0.00743902439024402,-0.011902439024390248],"max":[0.12497560975609756,0.08926829268292669,0.17556097560975611]},{"bufferView":19,"componentType":5126,"count":101,"type":"VEC3","min":[0.011902439024390254,0.028268292682926965,-0.008926829268292684],"max":[0.12795121951219512,0.11604878048780476,0.16365853658536586]},{"bufferView":20,"componentType":5126,"count":101,"type":"VEC3","min":[0.02380487804878051,0.05653658536585371,0],"max":[0.1309268292682927,0.15175609756097552,0.1458048780487805]},{"bufferView":21,"componentType":5126,"count":101,"type":"VEC3","min":[0.029756097560975636,0.053560975609756145,0.00595121951219512],"max":[0.13390243902439022,0.1621707317073171,0.14282926829268291]},{"bufferView":22,"componentType":5126,"count":101,"type":"VEC3","min":[0.034219512195121926,0.02380487804878051,0.008926829268292677],"max":[0.135390243902439,0.15473170731707309,0.14878048780487807]},{"bufferView":23,"componentType":5126,"count":101,"type":"VEC3","min":[0.03570731707317071,-0.013390243902438925,0.01190243902439024],"max":[0.13985365853658535,0.14431707317073172,0.16068292682926827]},{"bufferView":24,"componentType":5126,"count":101,"type":"VEC3","min":[0.03719512195121949,-0.046121951219512125,0.01190243902439024],"max":[0.15026829268292682,0.13241463414634147,0.16960975609756096]},{"bufferView":25,"componentType":5126,"count":101,"type":"VEC3","min":[0.03719512195121949,-0.06992682926829263,0.014878048780487804],"max":[0.15621951219512195,0.12051219512195122,0.1755609756097561]},{"bufferView":26,"componentType":5126,"count":101,"type":"VEC3","min":[0.03719512195121949,-0.05653658536585349,0.01190243902439024],"max":[0.1517560975609756,0.12646341463414634,0.17258536585365852]},{"bufferView":27,"componentType":5126,"count":101,"type":"VEC3","min":[0.034219512195121926,0.00892682926829269,0.008926829268292677],"max":[0.135390243902439,0.14431707317073172,0.15175609756097563]},{"bufferView":28,"componentType":5126,"count":101,"type":"VEC3","min":[-0.05207317073170731,0.12348780487804878,-0.005951219512195127],"max":[0.14878048780487804,0.3154146341463413,0.2380487804878049]},{"bufferView":29,"componentType":5126,"count":101,"type":"VEC3","min":[-0.03868292682926827,0.08480487804878045,-0.005951219512195127],"max":[0.14580487804878048,0.2573902439024389,0.23507317073170733]},{"bufferView":30,"componentType":5126,"count":101,"type":"VEC3","min":[-0.02975609756097558,0.0327317073170732,-0.005951219512195127],"max":[0.14134146341463413,0.19043902439024385,0.23209756097560974]},{"bufferView":31,"componentType":5126,"count":101,"type":"VEC3","min":[-0.034219512195121926,0.03570731707317054,-0.005951219512195127],"max":[0.135390243902439,0.1934146341463414,0.2291219512195122]},{"bufferView":32,"componentType":5126,"count":101,"type":"VEC3","min":[-0.05504878048780487,0.09819512195121938,-0.005951219512195127],"max":[0.12795121951219512,0.2692926829268292,0.2291219512195122]},{"bufferView":33,"componentType":5126,"count":101,"type":"VEC3","min":[-0.07439024390243901,0.1294390243902439,-0.005951219512195127],"max":[0.122,0.31839024390243886,0.23209756097560974]},{"bufferView":34,"componentType":5126,"count":101,"type":"VEC3","min":[-0.07885365853658535,0.08034146341463422,-0.005951219512195127],"max":[0.12348780487804878,0.27078048780487807,0.23209756097560977]},{"bufferView":35,"componentType":5126,"count":101,"type":"VEC3","min":[-0.07587804878048779,0.01636585365853649,-0.005951219512195127],"max":[0.1294390243902439,0.19490243902439008,0.2380487804878049]},{"bufferView":36,"componentType":5126,"count":101,"type":"VEC3","min":[-0.06992682926829266,0.013390243902438925,-0.005951219512195127],"max":[0.135390243902439,0.19192682926829252,0.2380487804878049]},{"bufferView":37,"componentType":5126,"count":101,"type":"VEC3","min":[-0.061,0.0729024390243902,-0.005951219512195127],"max":[0.14282926829268291,0.2588780487804878,0.2380487804878049]},{"bufferView":38,"componentType":5126,"count":126,"type":"VEC3","min":[-0.3979878048780488,0,-0.4850243902439024],"max":[0.3979878048780488,1.151560975609756,0.4344390243902439]},{"bufferView":39,"componentType":5126,"count":126,"type":"VEC2"},{"bufferView":40,"componentType":5123,"count":504,"type":"SCALAR"},{"bufferView":41,"componentType":5126,"count":126,"type":"VEC3","min":[0,0,0],"max":[0,0,0]},{"bufferView":42,"componentType":5126,"count":126,"type":"VEC3","min":[-0.02529268292682927,-0.013390243902439036,-0.06843902439024391],"max":[0.0223170731707317,0.02380487804878051,0.0029756097560975636]},{"bufferView":43,"componentType":5126,"count":126,"type":"VEC3","min":[-0.05653658536585366,-0.02529268292682929,-0.14878048780487804],"max":[0.05058536585365854,0.05058536585365858,0.00892682926829269]},{"bufferView":44,"componentType":5126,"count":126,"type":"VEC3","min":[-0.06248780487804878,-0.020829268292682945,-0.17258536585365855],"max":[0.055048780487804885,0.061000000000000054,0.00892682926829269]},{"bufferView":45,"componentType":5126,"count":126,"type":"VEC3","min":[-0.05653658536585366,-0.004463414634146345,-0.16365853658536586],"max":[0.05058536585365854,0.0654634146341464,0.00892682926829269]},{"bufferView":46,"componentType":5126,"count":126,"type":"VEC3","min":[-0.04909756097560976,-0.004463414634146345,-0.13985365853658538],"max":[0.04314634146341463,0.062487804878048836,0.00892682926829269]},{"bufferView":47,"componentType":5126,"count":126,"type":"VEC3","min":[-0.03868292682926829,-0.00595121951219512,-0.11307317073170733],"max":[0.034219512195121954,0.053560975609756145,0.005951219512195127]},{"bufferView":48,"componentType":5126,"count":126,"type":"VEC3","min":[-0.02678048780487805,-0.004463414634146345,-0.08331707317073173],"max":[0.025292682926829263,0.04165853658536589,0.005951219512195127]},{"bufferView":49,"componentType":5126,"count":126,"type":"VEC3","min":[-0.016365853658536586,-0.0029756097560975636,-0.053560975609756103],"max":[0.014878048780487818,0.028268292682926854,0.0029756097560975636]},{"bufferView":50,"componentType":5126,"count":126,"type":"VEC3","min":[-0.005951219512195127,-0.0014878048780487818,-0.023804878048780495],"max":[0.007439024390243881,0.014878048780487818,0.0029756097560975636]},{"bufferView":51,"componentType":5126,"count":126,"type":"VEC3","min":[-0.2529268292682927,-0.013390243902439022,-0.339219512195122],"max":[0.22614634146341464,0.2945853658536586,0.30946341463414634]},{"bufferView":52,"componentType":5126,"count":126,"type":"VEC3","min":[-0.2529268292682927,-0.014878048780487763,-0.1547317073170732],"max":[0.24102439024390243,0.1978780487804878,0.18151219512195121]},{"bufferView":53,"componentType":5126,"count":126,"type":"VEC3","min":[-0.2529268292682927,-0.040170731707317,-0.1309268292682927],"max":[0.25441463414634147,0.1785365853658536,0.17258536585365855]},{"bufferView":54,"componentType":5126,"count":126,"type":"VEC3","min":[-0.2529268292682927,-0.07141463414634142,-0.24995121951219512],"max":[0.26334146341463416,0.1800243902439025,0.18448780487804883]},{"bufferView":55,"componentType":5126,"count":126,"type":"VEC3","min":[-0.2529268292682927,-0.10117073170731705,-0.39873170731707314],"max":[0.26334146341463416,0.2841707317073171,0.23209756097560974]},{"bufferView":56,"componentType":5126,"count":126,"type":"VEC3","min":[-0.2529268292682927,-0.11902439024390243,-0.5802439024390244],"max":[0.26482926829268294,0.3898048780487805,0.27970731707317076]},{"bufferView":57,"componentType":5126,"count":126,"type":"VEC3","min":[-0.23953658536585368,-0.05653658536585371,-0.3035121951219512],"max":[0.26334146341463416,0.35707317073170736,0.18151219512195121]},{"bufferView":58,"componentType":5126,"count":126,"type":"VEC3","min":[-0.22614634146341467,-0.014878048780487818,-0.19639024390243903],"max":[0.26334146341463416,0.3139268292682927,0.2856585365853659]},{"bufferView":59,"componentType":5126,"count":126,"type":"VEC3","min":[-0.22614634146341467,-0.03570731707317076,-0.3213658536585366],"max":[0.26334146341463416,0.24102439024390243,0.39575609756097563]},{"bufferView":60,"componentType":5126,"count":126,"type":"VEC3","min":[-0.24102439024390246,-0.07587804878048776,-0.461219512195122],"max":[0.26334146341463416,0.2291219512195123,0.4939512195121951]},{"bufferView":61,"componentType":5126,"count":126,"type":"VEC3","min":[-0.25590243902439025,-0.11604878048780487,-0.6070243902439025],"max":[0.26334146341463416,0.2291219512195123,0.6516585365853659]},{"bufferView":62,"componentType":5126,"count":126,"type":"VEC3","min":[-0.25441463414634147,-0.14431707317073172,-0.7558048780487805],"max":[0.26334146341463416,0.2291219512195122,0.7022439024390243]},{"bufferView":63,"componentType":5126,"count":126,"type":"VEC3","min":[-0.25441463414634147,-0.16812195121951223,-0.928390243902439],"max":[0.26334146341463416,0.34219512195121954,0.7498536585365854]},{"bufferView":64,"componentType":5126,"count":126,"type":"VEC3","min":[-0.25441463414634147,-0.1547317073170732,-0.8837560975609756],"max":[0.25590243902439025,0.3808780487804878,0.678439024390244]},{"bufferView":65,"componentType":5126,"count":126,"type":"VEC3","min":[-0.25441463414634147,-0.05653658536585371,-0.6040487804878049],"max":[0.24102439024390243,0.34070731707317076,0.4939512195121951]},{"bufferView":66,"componentType":5126,"count":126,"type":"VEC3","min":[-0.2529268292682927,-0.028268292682926834,-0.45824390243902435],"max":[0.24697560975609756,0.5311463414634147,0.16068292682926827]},{"bufferView":67,"componentType":5126,"count":126,"type":"VEC3","min":[-0.24995121951219512,0.022317073170731727,-0.8034146341463415],"max":[0.23656097560975609,0.7513414634146341,0.16068292682926827]},{"bufferView":68,"componentType":5126,"count":126,"type":"VEC3","min":[-0.2231707317073171,-0.03421951219512198,-1.0652682926829269],"max":[0.22912195121951218,1.071219512195122,0.1874634146341464]},{"bufferView":69,"componentType":5126,"count":126,"type":"VEC3","min":[-0.2082926829268293,-0.03570731707317076,-0.9581463414634146],"max":[0.22614634146341464,1.1158536585365855,0.15770731707317073]},{"bufferView":70,"componentType":5126,"count":126,"type":"VEC3","min":[-0.22168292682926832,-0.010414634146341466,-0.4284878048780488],"max":[0.22614634146341464,0.8763170731707317,0.3213658536585366]},{"bufferView":71,"componentType":5126,"count":126,"type":"VEC3","min":[-0.23209756097560977,-0.03719512195121952,-0.9045853658536586],"max":[0.2276341463414634,0.5147804878048781,0.5118048780487805]},{"bufferView":72,"componentType":5126,"count":126,"type":"VEC3","min":[-0.23358536585365855,-0.019341463414634164,-1.2438048780487805],"max":[0.22912195121951218,0.7647317073170732,0.5415609756097561]},{"bufferView":73,"componentType":5126,"count":126,"type":"VEC3","min":[-0.24400000000000002,-0.08926829268292691,-1.4997073170731707],"max":[0.2350731707317073,1.0875853658536587,0.6754634146341464]},{"bufferView":74,"componentType":5126,"count":126,"type":"VEC3","min":[-0.25441463414634147,-0.09819512195121949,-1.3925853658536584],"max":[0.23953658536585365,1.132219512195122,0.5534634146341464]},{"bufferView":75,"componentType":5126,"count":126,"type":"VEC3","min":[-0.2529268292682927,-0.004463414634146345,-0.8718536585365854],"max":[0.24548780487804878,0.8911951219512195,0.22317073170731708]},{"bufferView":76,"componentType":5126,"count":76,"type":"VEC3","min":[-0.383109756097561,1.1277560975609757,-0.36004878048780486],"max":[0.36823170731707316,1.647,0.36302439024390243]},{"bufferView":77,"componentType":5126,"count":76,"type":"VEC2"},{"bufferView":78,"componentType":5123,"count":300,"type":"SCALAR"},{"bufferView":79,"componentType":5126,"count":76,"type":"VEC3","min":[0,0,0],"max":[0,0,0]},{"bufferView":80,"componentType":5126,"count":76,"type":"VEC3","min":[-0.04760975609756099,-0.01636585365853671,-0.17258536585365852],"max":[0.10712195121951221,0.022317073170731838,0.044634146341463427]},{"bufferView":81,"componentType":5126,"count":76,"type":"VEC3","min":[-0.12497560975609756,-0.03570731707317076,-0.3273170731707318],"max":[0.31839024390243903,0.16217073170731688,0.06546341463414634]},{"bufferView":82,"componentType":5126,"count":76,"type":"VEC3","min":[-0.13539024390243903,-0.03570731707317076,-0.36004878048780486],"max":[0.35260975609756096,0.22763414634146328,0.050585365853658526]},{"bufferView":83,"componentType":5126,"count":76,"type":"VEC3","min":[-0.122,-0.01636585365853649,-0.3332682926829269],"max":[0.3302926829268293,0.22763414634146328,0.04760975609756099]},{"bufferView":84,"componentType":5126,"count":76,"type":"VEC3","min":[-0.0996829268292683,-0.0014878048780486708,-0.28863414634146345],"max":[0.29012195121951223,0.20680487804878034,0.04760975609756099]},{"bufferView":85,"componentType":5126,"count":76,"type":"VEC3","min":[-0.07439024390243903,0.0014878048780488928,-0.23209756097560977],"max":[0.2350731707317073,0.16365853658536578,0.044634146341463427]},{"bufferView":86,"componentType":5126,"count":76,"type":"VEC3","min":[-0.050585365853658526,0.0029756097560975636,-0.16663414634146342],"max":[0.17258536585365855,0.11456097560975609,0.0386829268292683]},{"bufferView":87,"componentType":5126,"count":76,"type":"VEC3","min":[-0.028268292682926827,0.0014878048780488928,-0.10414634146341464],"max":[0.1071219512195122,0.06695121951219507,0.026780487804878045]},{"bufferView":88,"componentType":5126,"count":76,"type":"VEC3","min":[-0.011902439024390254,0.0014878048780486708,-0.044634146341463427],"max":[0.046121951219512194,0.028268292682926965,0.011902439024390254]},{"bufferView":89,"componentType":5126,"count":76,"type":"VEC3","min":[0.03868292682926833,0.0654634146341464,0.05356097560975609],"max":[0.1294390243902439,0.15175609756097552,0.16365853658536586]},{"bufferView":90,"componentType":5126,"count":76,"type":"VEC3","min":[0.03570731707317076,0.062487804878048836,0.05653658536585365],"max":[0.11902439024390245,0.1368780487804877,0.16960975609756096]},{"bufferView":91,"componentType":5126,"count":76,"type":"VEC3","min":[0.029756097560975636,0.0580243902439026,0.06546341463414629],"max":[0.10265853658536586,0.11753658536585365,0.18151219512195121]},{"bufferView":92,"componentType":5126,"count":76,"type":"VEC3","min":[0.02380487804878051,0.04165853658536589,0.06843902439024391],"max":[0.0967073170731707,0.0967073170731707,0.19341463414634147]},{"bufferView":93,"componentType":5126,"count":76,"type":"VEC3","min":[0.019341463414634164,0.01785365853658538,0.06248780487804878],"max":[0.09521951219512194,0.08629268292682912,0.20234146341463416]},{"bufferView":94,"componentType":5126,"count":76,"type":"VEC3","min":[0.013390243902439022,0.010414634146341362,0.05951219512195122],"max":[0.09521951219512194,0.08480487804878045,0.20531707317073172]},{"bufferView":95,"componentType":5126,"count":76,"type":"VEC3","min":[0.02380487804878051,0.040170731707317,0.06843902439024391],"max":[0.09670731707317072,0.09521951219512204,0.19341463414634147]},{"bufferView":96,"componentType":5126,"count":76,"type":"VEC3","min":[0.03570731707317076,0.0654634146341464,0.05653658536585365],"max":[0.11902439024390245,0.1383658536585366,0.16960975609756096]},{"bufferView":97,"componentType":5126,"count":76,"type":"VEC3","min":[0.04165853658536589,0.05951219512195127,0.050585365853658526],"max":[0.13539024390243903,0.15621951219512198,0.1606829268292683]},{"bufferView":98,"componentType":5126,"count":76,"type":"VEC3","min":[0.046121951219512236,0.031243902439024307,0.0446341463414634],"max":[0.14878048780487804,0.14878048780487796,0.169609756097561]},{"bufferView":99,"componentType":5126,"count":76,"type":"VEC3","min":[0.0490975609756098,-0.0044634146341464565,0.03868292682926827],"max":[0.15919512195121951,0.14134146341463416,0.18151219512195124]},{"bufferView":100,"componentType":5126,"count":76,"type":"VEC3","min":[0.0505853658536585,-0.037195121951219656,0.02975609756097558],"max":[0.16663414634146342,0.13539024390243903,0.19043902439024393]},{"bufferView":101,"componentType":5126,"count":76,"type":"VEC3","min":[0.04612195121951221,-0.05951219512195127,0.026780487804878017],"max":[0.17109756097560977,0.12795121951219524,0.196390243902439]},{"bufferView":102,"componentType":5126,"count":76,"type":"VEC3","min":[0.04760975609756099,-0.04760975609756102,0.02975609756097558],"max":[0.16663414634146342,0.13241463414634147,0.19341463414634144]},{"bufferView":103,"componentType":5126,"count":76,"type":"VEC3","min":[0.046121951219512236,0.01636585365853649,0.0446341463414634],"max":[0.1458048780487805,0.13985365853658527,0.169609756097561]},{"bufferView":104,"componentType":5126,"count":76,"type":"VEC3","min":[-0.06397560975609756,0.1368780487804877,-0.005951219512195127],"max":[0.08629268292682928,0.26631707317073183,0.2380487804878049]},{"bufferView":105,"componentType":5126,"count":76,"type":"VEC3","min":[-0.06546341463414634,0.10860975609756096,-0.005951219512195127],"max":[0.08034146341463413,0.22019512195121949,0.23507317073170733]},{"bufferView":106,"componentType":5126,"count":76,"type":"VEC3","min":[-0.06992682926829269,0.062487804878048836,-0.005951219512195127],"max":[0.07587804878048779,0.17258536585365847,0.23209756097560974]},{"bufferView":107,"componentType":5126,"count":76,"type":"VEC3","min":[-0.07439024390243903,0.06695121951219529,-0.005951219512195127],"max":[0.06992682926829272,0.1770487804878047,0.2291219512195122]},{"bufferView":108,"componentType":5126,"count":76,"type":"VEC3","min":[-0.08034146341463416,0.11902439024390232,-0.00892682926829269],"max":[0.06248780487804881,0.2335853658536584,0.2291219512195122]},{"bufferView":109,"componentType":5126,"count":76,"type":"VEC3","min":[-0.08629268292682929,0.1368780487804877,-0.00892682926829269],"max":[0.0595121951219512,0.2692926829268294,0.23209756097560974]},{"bufferView":110,"componentType":5126,"count":76,"type":"VEC3","min":[-0.08480487804878051,0.08926829268292669,-0.00892682926829269],"max":[0.0684390243902439,0.2350731707317073,0.23209756097560977]},{"bufferView":111,"componentType":5126,"count":76,"type":"VEC3","min":[-0.08034146341463416,0.02529268292682918,-0.00892682926829269],"max":[0.08034146341463415,0.17704878048780492,0.2380487804878049]},{"bufferView":112,"componentType":5126,"count":76,"type":"VEC3","min":[-0.07587804878048782,0.02380487804878051,-0.00892682926829269],"max":[0.08629268292682928,0.17407317073170736,0.2380487804878049]},{"bufferView":113,"componentType":5126,"count":76,"type":"VEC3","min":[-0.06992682926829269,0.08480487804878045,-0.00892682926829269],"max":[0.08629268292682928,0.22317073170731727,0.2380487804878049]},{"bufferView":114,"componentType":5126,"count":172,"type":"VEC3","min":[-0.3979878048780488,0,-0.4850243902439024],"max":[0.39352439024390246,1.83,0.4850243902439024]},{"bufferView":115,"componentType":5126,"count":172,"type":"VEC2"},{"bufferView":116,"componentType":5123,"count":615,"type":"SCALAR"},{"bufferView":117,"componentType":5126,"count":172,"type":"VEC3","min":[0,0,0],"max":[0,0,0]},{"bufferView":118,"componentType":5126,"count":172,"type":"VEC3","min":[-0.0029756097560975636,-0.040170731707317,-0.169609756097561],"max":[0.11604878048780487,0.02380487804878051,0.0029756097560975636]},{"bufferView":119,"componentType":5126,"count":172,"type":"VEC3","min":[-0.013390243902439036,-0.01785365853658516,-0.35409756097560974],"max":[0.2246585365853659,0.38385365853658526,0.00892682926829269]},{"bufferView":120,"componentType":5126,"count":172,"type":"VEC3","min":[-0.022317073170731727,-0.00595121951219512,-0.4046829268292683],"max":[0.20978048780487807,0.48948780487804866,0.00892682926829269]},{"bufferView":121,"componentType":5126,"count":172,"type":"VEC3","min":[-0.014878048780487818,-0.004463414634146345,-0.36897560975609756],"max":[0.2068048780487805,0.48056097560975597,0.00892682926829269]},{"bufferView":122,"componentType":5126,"count":172,"type":"VEC3","min":[-0.004463414634146345,-0.004463414634146345,-0.3124390243902439],"max":[0.19787804878048781,0.4374146341463414,0.00892682926829269]},{"bufferView":123,"componentType":5126,"count":172,"type":"VEC3","min":[-0.0029756097560975636,-0.00595121951219512,-0.244],"max":[0.17853658536585365,0.36004878048780475,0.005951219512195127]},{"bufferView":124,"componentType":5126,"count":172,"type":"VEC3","min":[-0.0029756097560975636,-0.004463414634146345,-0.17258536585365852],"max":[0.14431707317073172,0.26482926829268294,0.005951219512195127]},{"bufferView":125,"componentType":5126,"count":172,"type":"VEC3","min":[-0.0029756097560975636,-0.0029756097560975636,-0.10414634146341463],"max":[0.09968292682926827,0.16365853658536578,0.0029756097560975636]},{"bufferView":126,"componentType":5126,"count":172,"type":"VEC3","min":[-0.0029756097560975636,-0.0014878048780487818,-0.04463414634146342],"max":[0.04760975609756096,0.07141463414634153,0.0029756097560975636]},{"bufferView":127,"componentType":5126,"count":172,"type":"VEC3","min":[-0.2514390243902439,-0.013390243902439022,-0.339219512195122],"max":[0.22614634146341464,0.2945853658536586,0.3064878048780488]},{"bufferView":128,"componentType":5126,"count":172,"type":"VEC3","min":[-0.2514390243902439,-0.008926829268292684,-0.1547317073170732],"max":[0.24102439024390243,0.1978780487804878,0.16365853658536583]},{"bufferView":129,"componentType":5126,"count":172,"type":"VEC3","min":[-0.2514390243902439,-0.014878048780487806,-0.1309268292682927],"max":[0.25441463414634147,0.16217073170731708,0.15770731707317076]},{"bufferView":130,"componentType":5126,"count":172,"type":"VEC3","min":[-0.2514390243902439,-0.029756097560975612,-0.24995121951219512],"max":[0.26334146341463416,0.1740731707317073,0.18448780487804883]},{"bufferView":131,"componentType":5126,"count":172,"type":"VEC3","min":[-0.2514390243902439,-0.034219512195121954,-0.39873170731707314],"max":[0.26334146341463416,0.2841707317073171,0.23209756097560974]},{"bufferView":132,"componentType":5126,"count":172,"type":"VEC3","min":[-0.2514390243902439,-0.026780487804878052,-0.5802439024390244],"max":[0.26482926829268294,0.3898048780487805,0.27970731707317076]},{"bufferView":133,"componentType":5126,"count":172,"type":"VEC3","min":[-0.2380487804878049,-0.01636585365853659,-0.3035121951219512],"max":[0.26334146341463416,0.35707317073170736,0.16068292682926832]},{"bufferView":134,"componentType":5126,"count":172,"type":"VEC3","min":[-0.2231707317073171,-0.010414634146341466,-0.1606829268292683],"max":[0.26334146341463416,0.3139268292682927,0.15473170731707317]},{"bufferView":135,"componentType":5126,"count":172,"type":"VEC3","min":[-0.2246585365853659,-0.005951219512195122,-0.3213658536585366],"max":[0.26334146341463416,0.24102439024390243,0.3064878048780488]},{"bufferView":136,"componentType":5126,"count":172,"type":"VEC3","min":[-0.23953658536585368,-0.014878048780487806,-0.461219512195122],"max":[0.26334146341463416,0.15770731707317073,0.488]},{"bufferView":137,"componentType":5126,"count":172,"type":"VEC3","min":[-0.2529268292682927,-0.01934146341463415,-0.6070243902439025],"max":[0.26334146341463416,0.1993658536585366,0.6516585365853659]},{"bufferView":138,"componentType":5126,"count":172,"type":"VEC3","min":[-0.2529268292682927,-0.040170731707317074,-0.7558048780487805],"max":[0.26334146341463416,0.2291219512195122,0.7022439024390243]},{"bufferView":139,"componentType":5126,"count":172,"type":"VEC3","min":[-0.2529268292682927,-0.03124390243902439,-0.928390243902439],"max":[0.26334146341463416,0.34219512195121954,0.7498536585365854]},{"bufferView":140,"componentType":5126,"count":172,"type":"VEC3","min":[-0.2529268292682927,-0.02826829268292683,-0.8837560975609756],"max":[0.25590243902439025,0.3808780487804878,0.678439024390244]},{"bufferView":141,"componentType":5126,"count":172,"type":"VEC3","min":[-0.2529268292682927,-0.020829268292682925,-0.6040487804878049],"max":[0.24102439024390243,0.34070731707317076,0.4939512195121951]},{"bufferView":142,"componentType":5126,"count":172,"type":"VEC3","min":[-0.2514390243902439,-0.004463414634146342,-0.45824390243902435],"max":[0.24697560975609756,0.5311463414634147,0.2231707317073171]},{"bufferView":143,"componentType":5126,"count":172,"type":"VEC3","min":[-0.23358536585365855,0.10117073170731716,-0.8034146341463415],"max":[0.23656097560975609,0.7513414634146341,0.22317073170731708]},{"bufferView":144,"componentType":5126,"count":172,"type":"VEC3","min":[-0.20234146341463416,0.047609756097560976,-1.0652682926829269],"max":[0.22912195121951218,1.071219512195122,0.21721951219512198]},{"bufferView":145,"componentType":5126,"count":172,"type":"VEC3","min":[-0.1919268292682927,0.00297560975609756,-0.9581463414634146],"max":[0.22614634146341464,1.1158536585365855,0.21721951219512195]},{"bufferView":146,"componentType":5126,"count":172,"type":"VEC3","min":[-0.20531707317073172,-0.004463414634146342,-0.4284878048780488],"max":[0.22614634146341464,0.8763170731707317,0.21721951219512195]},{"bufferView":147,"componentType":5126,"count":172,"type":"VEC3","min":[-0.20234146341463416,-0.011902439024390244,-0.9045853658536586],"max":[0.2276341463414634,0.5147804878048781,0.39278048780487806]},{"bufferView":148,"componentType":5126,"count":172,"type":"VEC3","min":[-0.22168292682926832,0.08034146341463422,-1.2438048780487805],"max":[0.22912195121951218,0.7647317073170732,0.5177560975609756]},{"bufferView":149,"componentType":5126,"count":172,"type":"VEC3","min":[-0.24102439024390246,0.01636585365853649,-1.4997073170731707],"max":[0.2350731707317073,1.0875853658536587,0.6695121951219513]},{"bufferView":150,"componentType":5126,"count":172,"type":"VEC3","min":[-0.2529268292682927,0.007439024390243902,-1.3925853658536584],"max":[0.23953658536585365,1.132219512195122,0.5445365853658537]},{"bufferView":151,"componentType":5126,"count":172,"type":"VEC3","min":[-0.2514390243902439,-0.001487804878048781,-0.8718536585365854],"max":[0.24548780487804878,0.8911951219512195,0.22614634146341464]},{"bufferView":152,"componentType":5126,"count":11,"type":"SCALAR","min":[0],"max":[0.6666666666666666]},{"bufferView":153,"componentType":5126,"count":385,"type":"SCALAR"},{"bufferView":154,"componentType":5126,"count":16,"type":"SCALAR","min":[0],"max":[0.8333333333333333]},{"bufferView":155,"componentType":5126,"count":560,"type":"SCALAR"},{"bufferView":156,"componentType":5126,"count":11,"type":"SCALAR","min":[0],"max":[0.5882352941176471]},{"bufferView":157,"componentType":5126,"count":385,"type":"SCALAR"}],"bufferViews":[{"buffer":0,"byteOffset":0,"byteLength":1212,"target":34962},{"buffer":0,"byteOffset":1212,"byteLength":808,"target":34962},{"buffer":0,"byteOffset":2020,"byteLength":732,"target":34963},{"buffer":0,"byteOffset":2752,"byteLength":1212,"target":34962},{"buffer":0,"byteOffset":3964,"byteLength":1212,"target":34962},{"buffer":0,"byteOffset":5176,"byteLength":1212,"target":34962},{"buffer":0,"byteOffset":6388,"byteLength":1212,"target":34962},{"buffer":0,"byteOffset":7600,"byteLength":1212,"target":34962},{"buffer":0,"byteOffset":8812,"byteLength":1212,"target":34962},{"buffer":0,"byteOffset":10024,"byteLength":1212,"target":34962},{"buffer":0,"byteOffset":11236,"byteLength":1212,"target":34962},{"buffer":0,"byteOffset":12448,"byteLength":1212,"target":34962},{"buffer":0,"byteOffset":13660,"byteLength":1212,"target":34962},{"buffer":0,"byteOffset":14872,"byteLength":1212,"target":34962},{"buffer":0,"byteOffset":16084,"byteLength":1212,"target":34962},{"buffer":0,"byteOffset":17296,"byteLength":1212,"target":34962},{"buffer":0,"byteOffset":18508,"byteLength":1212,"target":34962},{"buffer":0,"byteOffset":19720,"byteLength":1212,"target":34962},{"buffer":0,"byteOffset":20932,"byteLength":1212,"target":34962},{"buffer":0,"byteOffset":22144,"byteLength":1212,"target":34962},{"buffer":0,"byteOffset":23356,"byteLength":1212,"target":34962},{"buffer":0,"byteOffset":24568,"byteLength":1212,"target":34962},{"buffer":0,"byteOffset":25780,"byteLength":1212,"target":34962},{"buffer":0,"byteOffset":26992,"byteLength":1212,"target":34962},{"buffer":0,"byteOffset":28204,"byteLength":1212,"target":34962},{"buffer":0,"byteOffset":29416,"byteLength":1212,"target":34962},{"buffer":0,"byteOffset":30628,"byteLength":1212,"target":34962},{"buffer":0,"byteOffset":31840,"byteLength":1212,"target":34962},{"buffer":0,"byteOffset":33052,"byteLength":1212,"target":34962},{"buffer":0,"byteOffset":34264,"byteLength":1212,"target":34962},{"buffer":0,"byteOffset":35476,"byteLength":1212,"target":34962},{"buffer":0,"byteOffset":36688,"byteLength":1212,"target":34962},{"buffer":0,"byteOffset":37900,"byteLength":1212,"target":34962},{"buffer":0,"byteOffset":39112,"byteLength":1212,"target":34962},{"buffer":0,"byteOffset":40324,"byteLength":1212,"target":34962},{"buffer":0,"byteOffset":41536,"byteLength":1212,"target":34962},{"buffer":0,"byteOffset":42748,"byteLength":1212,"target":34962},{"buffer":0,"byteOffset":43960,"byteLength":1212,"target":34962},{"buffer":0,"byteOffset":45172,"byteLength":1512,"target":34962},{"buffer":0,"byteOffset":46684,"byteLength":1008,"target":34962},{"buffer":0,"byteOffset":47692,"byteLength":1008,"target":34963},{"buffer":0,"byteOffset":48700,"byteLength":1512,"target":34962},{"buffer":0,"byteOffset":50212,"byteLength":1512,"target":34962},{"buffer":0,"byteOffset":51724,"byteLength":1512,"target":34962},{"buffer":0,"byteOffset":53236,"byteLength":1512,"target":34962},{"buffer":0,"byteOffset":54748,"byteLength":1512,"target":34962},{"buffer":0,"byteOffset":56260,"byteLength":1512,"target":34962},{"buffer":0,"byteOffset":57772,"byteLength":1512,"target":34962},{"buffer":0,"byteOffset":59284,"byteLength":1512,"target":34962},{"buffer":0,"byteOffset":60796,"byteLength":1512,"target":34962},{"buffer":0,"byteOffset":62308,"byteLength":1512,"target":34962},{"buffer":0,"byteOffset":63820,"byteLength":1512,"target":34962},{"buffer":0,"byteOffset":65332,"byteLength":1512,"target":34962},{"buffer":0,"byteOffset":66844,"byteLength":1512,"target":34962},{"buffer":0,"byteOffset":68356,"byteLength":1512,"target":34962},{"buffer":0,"byteOffset":69868,"byteLength":1512,"target":34962},{"buffer":0,"byteOffset":71380,"byteLength":1512,"target":34962},{"buffer":0,"byteOffset":72892,"byteLength":1512,"target":34962},{"buffer":0,"byteOffset":74404,"byteLength":1512,"target":34962},{"buffer":0,"byteOffset":75916,"byteLength":1512,"target":34962},{"buffer":0,"byteOffset":77428,"byteLength":1512,"target":34962},{"buffer":0,"byteOffset":78940,"byteLength":1512,"target":34962},{"buffer":0,"byteOffset":80452,"byteLength":1512,"target":34962},{"buffer":0,"byteOffset":81964,"byteLength":1512,"target":34962},{"buffer":0,"byteOffset":83476,"byteLength":1512,"target":34962},{"buffer":0,"byteOffset":84988,"byteLength":1512,"target":34962},{"buffer":0,"byteOffset":86500,"byteLength":1512,"target":34962},{"buffer":0,"byteOffset":88012,"byteLength":1512,"target":34962},{"buffer":0,"byteOffset":89524,"byteLength":1512,"target":34962},{"buffer":0,"byteOffset":91036,"byteLength":1512,"target":34962},{"buffer":0,"byteOffset":92548,"byteLength":1512,"target":34962},{"buffer":0,"byteOffset":94060,"byteLength":1512,"target":34962},{"buffer":0,"byteOffset":95572,"byteLength":1512,"target":34962},{"buffer":0,"byteOffset":97084,"byteLength":1512,"target":34962},{"buffer":0,"byteOffset":98596,"byteLength":1512,"target":34962},{"buffer":0,"byteOffset":100108,"byteLength":1512,"target":34962},{"buffer":0,"byteOffset":101620,"byteLength":912,"target":34962},{"buffer":0,"byteOffset":102532,"byteLength":608,"target":34962},{"buffer":0,"byteOffset":103140,"byteLength":600,"target":34963},{"buffer":0,"byteOffset":103740,"byteLength":912,"target":34962},{"buffer":0,"byteOffset":104652,"byteLength":912,"target":34962},{"buffer":0,"byteOffset":105564,"byteLength":912,"target":34962},{"buffer":0,"byteOffset":106476,"byteLength":912,"target":34962},{"buffer":0,"byteOffset":107388,"byteLength":912,"target":34962},{"buffer":0,"byteOffset":108300,"byteLength":912,"target":34962},{"buffer":0,"byteOffset":109212,"byteLength":912,"target":34962},{"buffer":0,"byteOffset":110124,"byteLength":912,"target":34962},{"buffer":0,"byteOffset":111036,"byteLength":912,"target":34962},{"buffer":0,"byteOffset":111948,"byteLength":912,"target":34962},{"buffer":0,"byteOffset":112860,"byteLength":912,"target":34962},{"buffer":0,"byteOffset":113772,"byteLength":912,"target":34962},{"buffer":0,"byteOffset":114684,"byteLength":912,"target":34962},{"buffer":0,"byteOffset":115596,"byteLength":912,"target":34962},{"buffer":0,"byteOffset":116508,"byteLength":912,"target":34962},{"buffer":0,"byteOffset":117420,"byteLength":912,"target":34962},{"buffer":0,"byteOffset":118332,"byteLength":912,"target":34962},{"buffer":0,"byteOffset":119244,"byteLength":912,"target":34962},{"buffer":0,"byteOffset":120156,"byteLength":912,"target":34962},{"buffer":0,"byteOffset":121068,"byteLength":912,"target":34962},{"buffer":0,"byteOffset":121980,"byteLength":912,"target":34962},{"buffer":0,"byteOffset":122892,"byteLength":912,"target":34962},{"buffer":0,"byteOffset":123804,"byteLength":912,"target":34962},{"buffer":0,"byteOffset":124716,"byteLength":912,"target":34962},{"buffer":0,"byteOffset":125628,"byteLength":912,"target":34962},{"buffer":0,"byteOffset":126540,"byteLength":912,"target":34962},{"buffer":0,"byteOffset":127452,"byteLength":912,"target":34962},{"buffer":0,"byteOffset":128364,"byteLength":912,"target":34962},{"buffer":0,"byteOffset":129276,"byteLength":912,"target":34962},{"buffer":0,"byteOffset":130188,"byteLength":912,"target":34962},{"buffer":0,"byteOffset":131100,"byteLength":912,"target":34962},{"buffer":0,"byteOffset":132012,"byteLength":912,"target":34962},{"buffer":0,"byteOffset":132924,"byteLength":912,"target":34962},{"buffer":0,"byteOffset":133836,"byteLength":912,"target":34962},{"buffer":0,"byteOffset":134748,"byteLength":912,"target":34962},{"buffer":0,"byteOffset":135660,"byteLength":2064,"target":34962},{"buffer":0,"byteOffset":137724,"byteLength":1376,"target":34962},{"buffer":0,"byteOffset":139100,"byteLength":1230,"target":34963},{"buffer":0,"byteOffset":140332,"byteLength":2064,"target":34962},{"buffer":0,"byteOffset":142396,"byteLength":2064,"target":34962},{"buffer":0,"byteOffset":144460,"byteLength":2064,"target":34962},{"buffer":0,"byteOffset":146524,"byteLength":2064,"target":34962},{"buffer":0,"byteOffset":148588,"byteLength":2064,"target":34962},{"buffer":0,"byteOffset":150652,"byteLength":2064,"target":34962},{"buffer":0,"byteOffset":152716,"byteLength":2064,"target":34962},{"buffer":0,"byteOffset":154780,"byteLength":2064,"target":34962},{"buffer":0,"byteOffset":156844,"byteLength":2064,"target":34962},{"buffer":0,"byteOffset":158908,"byteLength":2064,"target":34962},{"buffer":0,"byteOffset":160972,"byteLength":2064,"target":34962},{"buffer":0,"byteOffset":163036,"byteLength":2064,"target":34962},{"buffer":0,"byteOffset":165100,"byteLength":2064,"target":34962},{"buffer":0,"byteOffset":167164,"byteLength":2064,"target":34962},{"buffer":0,"byteOffset":169228,"byteLength":2064,"target":34962},{"buffer":0,"byteOffset":171292,"byteLength":2064,"target":34962},{"buffer":0,"byteOffset":173356,"byteLength":2064,"target":34962},{"buffer":0,"byteOffset":175420,"byteLength":2064,"target":34962},{"buffer":0,"byteOffset":177484,"byteLength":2064,"target":34962},{"buffer":0,"byteOffset":179548,"byteLength":2064,"target":34962},{"buffer":0,"byteOffset":181612,"byteLength":2064,"target":34962},{"buffer":0,"byteOffset":183676,"byteLength":2064,"target":34962},{"buffer":0,"byteOffset":185740,"byteLength":2064,"target":34962},{"buffer":0,"byteOffset":187804,"byteLength":2064,"target":34962},{"buffer":0,"byteOffset":189868,"byteLength":2064,"target":34962},{"buffer":0,"byteOffset":191932,"byteLength":2064,"target":34962},{"buffer":0,"byteOffset":193996,"byteLength":2064,"target":34962},{"buffer":0,"byteOffset":196060,"byteLength":2064,"target":34962},{"buffer":0,"byteOffset":198124,"byteLength":2064,"target":34962},{"buffer":0,"byteOffset":200188,"byteLength":2064,"target":34962},{"buffer":0,"byteOffset":202252,"byteLength":2064,"target":34962},{"buffer":0,"byteOffset":204316,"byteLength":2064,"target":34962},{"buffer":0,"byteOffset":206380,"byteLength":2064,"target":34962},{"buffer":0,"byteOffset":208444,"byteLength":2064,"target":34962},{"buffer":0,"byteOffset":210508,"byteLength":2064,"target":34962},{"buffer":0,"byteOffset":212572,"byteLength":44},{"buffer":0,"byteOffset":212616,"byteLength":1540},{"buffer":0,"byteOffset":214156,"byteLength":64},{"buffer":0,"byteOffset":214220,"byteLength":2240},{"buffer":0,"byteOffset":216460,"byteLength":44},{"buffer":0,"byteOffset":216504,"byteLength":1540}],"buffers":[{"uri":"soldier.bin","byteLength":218044}],"animations":[{"name":"Idle","samplers":[{"input":152,"output":153,"interpolation":"STEP"}],"channels":[{"sampler":0,"target":{"node":0,"path":"weights"}}]},{"name":"Walk","samplers":[{"input":154,"output":155,"interpolation":"STEP"}],"channels":[{"sampler":0,"target":{"node":0,"path":"weights"}}]},{"name":"Run","samplers":[{"input":156,"output":157,"interpolation":"STEP"}],"channels":[{"sampler":0,"target":{"node":0,"path":"weights"}}]}]}