{
 "asset": {
  "version": "2.0",
  "generator": "build-ut-effects.mjs"
 },
 "extensionsUsed": [
  "KHR_materials_unlit"
 ],
 "extras": {
  "utMesh": "Shellc",
  "utActor": "UT_ShellCase",
  "drawScale": 1,
  "baseFrame": 0,
  "sceneFrame": "actor forward +X, up +Y, right +Z (map-transform's uuToScene axes); RotOrigin baked in",
  "epicRotOriginDeg": [
   0,
   270,
   90
  ],
  "meshOriginUU": [
   0,
   0,
   0
  ]
 },
 "scene": 0,
 "scenes": [
  {
   "nodes": [
    0
   ]
  }
 ],
 "nodes": [
  {
   "mesh": 0,
   "name": "shellcase"
  }
 ],
 "meshes": [
  {
   "name": "shellcase",
   "primitives": [
    {
     "attributes": {
      "POSITION": 0,
      "TEXCOORD_0": 1
     },
     "indices": 2,
     "material": 0
    }
   ]
  }
 ],
 "materials": [
  {
   "name": "slot0",
   "doubleSided": false,
   "pbrMetallicRoughness": {
    "baseColorTexture": {
     "index": 0
    },
    "metallicFactor": 0,
    "roughnessFactor": 1
   },
   "extensions": {
    "KHR_materials_unlit": {}
   }
  }
 ],
 "textures": [
  {
   "source": 0,
   "sampler": 0
  }
 ],
 "images": [
  {
   "uri": "s0.png"
  }
 ],
 "samplers": [
  {
   "magFilter": 9729,
   "minFilter": 9987,
   "wrapS": 10497,
   "wrapT": 10497
  }
 ],
 "accessors": [
  {
   "bufferView": 0,
   "componentType": 5126,
   "count": 20,
   "type": "VEC3",
   "min": [
    -0.08126301025424015,
    -0.02516850317590839,
    -0.028129503549544684
   ],
   "max": [
    0.08619801087696728,
    0.026320003321211392,
    0.02089150263621155
   ]
  },
  {
   "bufferView": 1,
   "componentType": 5126,
   "count": 20,
   "type": "VEC2"
  },
  {
   "bufferView": 2,
   "componentType": 5123,
   "count": 48,
   "type": "SCALAR"
  }
 ],
 "bufferViews": [
  {
   "buffer": 0,
   "byteOffset": 0,
   "byteLength": 240,
   "target": 34962
  },
  {
   "buffer": 0,
   "byteOffset": 240,
   "byteLength": 160,
   "target": 34962
  },
  {
   "buffer": 0,
   "byteOffset": 400,
   "byteLength": 96,
   "target": 34963
  }
 ],
 "buffers": [
  {
   "uri": "shellcase.bin",
   "byteLength": 496
  }
 ]
}
