{
	"asset":{
		"generator":"Khronos glTF Blender I/O v4.4.56",
		"version":"2.0"
	},
	"scene":0,
	"scenes":[
		{
			"name":"Scene",
			"nodes":[
				0
			]
		}
	],
	"nodes":[
		{
			"mesh":0,
			"name":"face-bottom-cut",
			"scale":[
				0.009999999776482582,
				0.009999999776482582,
				0.009999999776482582
			]
		}
	],
	"meshes":[
		{
			"name":"face-bottom-cut.002",
			"primitives":[
				{
					"attributes":{
						"POSITION":0,
						"NORMAL":1
					},
					"indices":2
				}
			]
		}
	],
	"accessors":[
		{
			"bufferView":0,
			"componentType":5126,
			"count":5957,
			"max":[
				5451.82421875,
				5025.7216796875,
				2029.920166015625
			],
			"min":[
				-5658.439453125,
				41.72166442871094,
				-2142.95166015625
			],
			"type":"VEC3"
		},
		{
			"bufferView":1,
			"componentType":5126,
			"count":5957,
			"type":"VEC3"
		},
		{
			"bufferView":2,
			"componentType":5123,
			"count":9984,
			"type":"SCALAR"
		}
	],
	"bufferViews":[
		{
			"buffer":0,
			"byteLength":71484,
			"byteOffset":0,
			"target":34962
		},
		{
			"buffer":0,
			"byteLength":71484,
			"byteOffset":71484,
			"target":34962
		},
		{
			"buffer":0,
			"byteLength":19968,
			"byteOffset":142968,
			"target":34963
		}
	],
	"buffers":[
		{
			"byteLength":162936,
			"uri":"map.bin"
		}
	]
}
