{"asset":{"version":"2.0","generator":"THREE.GLTFExporter r178"},"scenes":[{"nodes":[0]}],"scene":0,"nodes":[{"mesh":0}],"bufferViews":[{"buffer":0,"byteOffset":0,"byteLength":28476,"target":34962,"byteStride":12},{"buffer":0,"byteOffset":28476,"byteLength":4748,"target":34963}],"buffers":[{"byteLength":33224,"uri":"data:application/octet-stream;base64,"}],"accessors":[{"bufferView":0,"componentType":5126,"count":2373,"max":[59.88251876831055,30.425003051757812,18.093215942382812],"min":[-50.31747817993164,-0.17500019073486328,-22.706785202026367],"type":"VEC3"},{"bufferView":1,"componentType":5123,"count":2373,"max":[2372],"min":[0],"type":"SCALAR"}],"materials":[{"pbrMetallicRoughness":{"metallicFactor":0,"roughnessFactor":1}}],"meshes":[{"primitives":[{"mode":4,"attributes":{"POSITION":0},"indices":1,"material":0}]}]}