{
 "asset": {
  "version": "2.0",
  "generator": "build-ut-projectiles.mjs"
 },
 "extensionsUsed": [
  "KHR_materials_unlit"
 ],
 "scene": 0,
 "scenes": [
  {
   "nodes": [
    0
   ]
  }
 ],
 "nodes": [
  {
   "mesh": 0,
   "name": "redeemer"
  }
 ],
 "meshes": [
  {
   "name": "redeemer",
   "primitives": [
    {
     "attributes": {
      "POSITION": 0,
      "TEXCOORD_0": 1
     },
     "indices": 2,
     "material": 0
    },
    {
     "attributes": {
      "POSITION": 0,
      "TEXCOORD_0": 1
     },
     "indices": 3,
     "material": 1
    }
   ]
  }
 ],
 "materials": [
  {
   "name": "slot0",
   "doubleSided": false,
   "pbrMetallicRoughness": {
    "baseColorTexture": {
     "index": 0
    },
    "metallicFactor": 0,
    "roughnessFactor": 1
   },
   "extensions": {
    "KHR_materials_unlit": {}
   }
  },
  {
   "name": "slot1",
   "doubleSided": true,
   "pbrMetallicRoughness": {
    "baseColorTexture": {
     "index": 0
    },
    "metallicFactor": 0,
    "roughnessFactor": 1
   },
   "alphaMode": "MASK",
   "extensions": {
    "KHR_materials_unlit": {}
   }
  }
 ],
 "textures": [
  {
   "source": 0,
   "sampler": 0
  }
 ],
 "images": [
  {
   "uri": "s0.png"
  }
 ],
 "samplers": [
  {
   "magFilter": 9729,
   "minFilter": 9987,
   "wrapS": 10497,
   "wrapT": 10497
  }
 ],
 "accessors": [
  {
   "bufferView": 0,
   "componentType": 5126,
   "count": 196,
   "type": "VEC3",
   "min": [
    -0.1833000202033831,
    -0.1833000202033831,
    1.4100001203929071
   ],
   "max": [
    0.1833000202033831,
    0.1833000202033831,
    3.2900003276070926
   ]
  },
  {
   "bufferView": 1,
   "componentType": 5126,
   "count": 196,
   "type": "VEC2"
  },
  {
   "bufferView": 2,
   "componentType": 5123,
   "count": 528,
   "type": "SCALAR"
  },
  {
   "bufferView": 3,
   "componentType": 5123,
   "count": 48,
   "type": "SCALAR"
  }
 ],
 "bufferViews": [
  {
   "buffer": 0,
   "byteOffset": 0,
   "byteLength": 2352,
   "target": 34962
  },
  {
   "buffer": 0,
   "byteOffset": 2352,
   "byteLength": 1568,
   "target": 34962
  },
  {
   "buffer": 0,
   "byteOffset": 3920,
   "byteLength": 1056,
   "target": 34963
  },
  {
   "buffer": 0,
   "byteOffset": 4976,
   "byteLength": 96,
   "target": 34963
  }
 ],
 "buffers": [
  {
   "uri": "redeemer.bin",
   "byteLength": 5072
  }
 ]
}
