{
 "asset": {
  "version": "2.0",
  "generator": "build-ut-viewmodels.mjs"
 },
 "scene": 0,
 "scenes": [
  {
   "nodes": [
    0
   ]
  }
 ],
 "nodes": [
  {
   "mesh": 0,
   "name": "enforcer"
  }
 ],
 "meshes": [
  {
   "name": "enforcer",
   "primitives": [
    {
     "attributes": {
      "POSITION": 0,
      "TEXCOORD_0": 1
     },
     "indices": 2,
     "material": 0
    },
    {
     "attributes": {
      "POSITION": 0,
      "TEXCOORD_0": 1
     },
     "indices": 3,
     "material": 1
    },
    {
     "attributes": {
      "POSITION": 0,
      "TEXCOORD_0": 1
     },
     "indices": 4,
     "material": 2
    },
    {
     "attributes": {
      "POSITION": 0,
      "TEXCOORD_0": 1
     },
     "indices": 5,
     "material": 3
    }
   ]
  }
 ],
 "materials": [
  {
   "name": "slot0",
   "doubleSided": false,
   "pbrMetallicRoughness": {
    "baseColorTexture": {
     "index": 0
    },
    "metallicFactor": 0,
    "roughnessFactor": 1
   }
  },
  {
   "name": "slot1",
   "doubleSided": false,
   "pbrMetallicRoughness": {
    "baseColorTexture": {
     "index": 1
    },
    "metallicFactor": 0,
    "roughnessFactor": 1
   }
  },
  {
   "name": "slot2",
   "doubleSided": false,
   "pbrMetallicRoughness": {
    "baseColorTexture": {
     "index": 2
    },
    "metallicFactor": 0,
    "roughnessFactor": 1
   }
  },
  {
   "name": "slot3",
   "doubleSided": false,
   "pbrMetallicRoughness": {
    "baseColorTexture": {
     "index": 3
    },
    "metallicFactor": 0,
    "roughnessFactor": 1
   }
  }
 ],
 "textures": [
  {
   "source": 0,
   "sampler": 0
  },
  {
   "source": 1,
   "sampler": 0
  },
  {
   "source": 2,
   "sampler": 0
  },
  {
   "source": 3,
   "sampler": 0
  }
 ],
 "images": [
  {
   "uri": "s0.png"
  },
  {
   "uri": "s1.png"
  },
  {
   "uri": "s2.png"
  },
  {
   "uri": "s3.png"
  }
 ],
 "samplers": [
  {
   "magFilter": 9729,
   "minFilter": 9987,
   "wrapS": 10497,
   "wrapT": 10497
  }
 ],
 "accessors": [
  {
   "bufferView": 0,
   "componentType": 5126,
   "count": 366,
   "type": "VEC3",
   "min": [
    -0.02697800340424167,
    0.001410000146656206,
    -0.06408450334978305
   ],
   "max": [
    0.0011515001453029981,
    0.05696400592491073,
    0.05858550306234293
   ]
  },
  {
   "bufferView": 1,
   "componentType": 5126,
   "count": 366,
   "type": "VEC2"
  },
  {
   "bufferView": 2,
   "componentType": 5123,
   "count": 807,
   "type": "SCALAR"
  },
  {
   "bufferView": 3,
   "componentType": 5123,
   "count": 66,
   "type": "SCALAR"
  },
  {
   "bufferView": 4,
   "componentType": 5123,
   "count": 165,
   "type": "SCALAR"
  },
  {
   "bufferView": 5,
   "componentType": 5123,
   "count": 99,
   "type": "SCALAR"
  }
 ],
 "bufferViews": [
  {
   "buffer": 0,
   "byteOffset": 0,
   "byteLength": 4392,
   "target": 34962
  },
  {
   "buffer": 0,
   "byteOffset": 4392,
   "byteLength": 2928,
   "target": 34962
  },
  {
   "buffer": 0,
   "byteOffset": 7320,
   "byteLength": 1614,
   "target": 34963
  },
  {
   "buffer": 0,
   "byteOffset": 8936,
   "byteLength": 132,
   "target": 34963
  },
  {
   "buffer": 0,
   "byteOffset": 9068,
   "byteLength": 330,
   "target": 34963
  },
  {
   "buffer": 0,
   "byteOffset": 9400,
   "byteLength": 198,
   "target": 34963
  }
 ],
 "buffers": [
  {
   "uri": "enforcer.bin",
   "byteLength": 9600
  }
 ]
}
