{
 "asset": {
  "version": "2.0",
  "generator": "build-ut-viewmodels.mjs"
 },
 "extras": {
  "utMesh": "AutoMR",
  "baseSequence": "Still",
  "baseFrame": 0,
  "viewFrame": "barrel -Z, up +Y, screen right +X; RotOrigin baked in",
  "clips": [
   {
    "clip": "Shoot",
    "startFrame": 6,
    "numFrames": 10,
    "fps": 30,
    "seconds": 0.3333,
    "loop": false
   },
   {
    "clip": "shot2",
    "startFrame": 136,
    "numFrames": 8,
    "fps": 30,
    "seconds": 0.2667,
    "loop": false
   },
   {
    "clip": "Sway",
    "startFrame": 86,
    "numFrames": 2,
    "fps": 3,
    "seconds": 0.6667,
    "loop": true
   },
   {
    "clip": "Twiddle",
    "startFrame": 87,
    "numFrames": 25,
    "fps": 30,
    "seconds": 0.8333,
    "loop": false
   },
   {
    "clip": "Select",
    "startFrame": 60,
    "numFrames": 28,
    "fps": 36,
    "seconds": 0.7778,
    "loop": false
   },
   {
    "clip": "Down",
    "startFrame": 115,
    "numFrames": 12,
    "fps": 45,
    "seconds": 0.2667,
    "loop": false
   }
  ]
 },
 "scene": 0,
 "scenes": [
  {
   "nodes": [
    0
   ]
  }
 ],
 "nodes": [
  {
   "mesh": 0,
   "name": "enforcer-right"
  }
 ],
 "meshes": [
  {
   "name": "enforcer-right",
   "primitives": [
    {
     "attributes": {
      "POSITION": 0,
      "TEXCOORD_0": 1
     },
     "indices": 84,
     "material": 0,
     "targets": [
      {
       "POSITION": 2
      },
      {
       "POSITION": 3
      },
      {
       "POSITION": 4
      },
      {
       "POSITION": 5
      },
      {
       "POSITION": 6
      },
      {
       "POSITION": 7
      },
      {
       "POSITION": 8
      },
      {
       "POSITION": 9
      },
      {
       "POSITION": 10
      },
      {
       "POSITION": 11
      },
      {
       "POSITION": 12
      },
      {
       "POSITION": 13
      },
      {
       "POSITION": 14
      },
      {
       "POSITION": 15
      },
      {
       "POSITION": 16
      },
      {
       "POSITION": 17
      },
      {
       "POSITION": 18
      },
      {
       "POSITION": 19
      },
      {
       "POSITION": 20
      },
      {
       "POSITION": 21
      },
      {
       "POSITION": 22
      },
      {
       "POSITION": 23
      },
      {
       "POSITION": 24
      },
      {
       "POSITION": 25
      },
      {
       "POSITION": 26
      },
      {
       "POSITION": 27
      },
      {
       "POSITION": 28
      },
      {
       "POSITION": 29
      },
      {
       "POSITION": 30
      },
      {
       "POSITION": 31
      },
      {
       "POSITION": 32
      },
      {
       "POSITION": 33
      },
      {
       "POSITION": 34
      },
      {
       "POSITION": 35
      },
      {
       "POSITION": 36
      },
      {
       "POSITION": 37
      },
      {
       "POSITION": 38
      },
      {
       "POSITION": 39
      },
      {
       "POSITION": 40
      },
      {
       "POSITION": 41
      },
      {
       "POSITION": 42
      },
      {
       "POSITION": 43
      },
      {
       "POSITION": 44
      },
      {
       "POSITION": 45
      },
      {
       "POSITION": 46
      },
      {
       "POSITION": 47
      },
      {
       "POSITION": 48
      },
      {
       "POSITION": 49
      },
      {
       "POSITION": 50
      },
      {
       "POSITION": 51
      },
      {
       "POSITION": 52
      },
      {
       "POSITION": 53
      },
      {
       "POSITION": 54
      },
      {
       "POSITION": 55
      },
      {
       "POSITION": 56
      },
      {
       "POSITION": 57
      },
      {
       "POSITION": 58
      },
      {
       "POSITION": 59
      },
      {
       "POSITION": 60
      },
      {
       "POSITION": 61
      },
      {
       "POSITION": 62
      },
      {
       "POSITION": 63
      },
      {
       "POSITION": 64
      },
      {
       "POSITION": 65
      },
      {
       "POSITION": 66
      },
      {
       "POSITION": 67
      },
      {
       "POSITION": 68
      },
      {
       "POSITION": 69
      },
      {
       "POSITION": 70
      },
      {
       "POSITION": 71
      },
      {
       "POSITION": 72
      },
      {
       "POSITION": 73
      },
      {
       "POSITION": 74
      },
      {
       "POSITION": 75
      },
      {
       "POSITION": 76
      },
      {
       "POSITION": 77
      },
      {
       "POSITION": 78
      },
      {
       "POSITION": 79
      },
      {
       "POSITION": 80
      },
      {
       "POSITION": 81
      },
      {
       "POSITION": 82
      },
      {
       "POSITION": 83
      }
     ]
    },
    {
     "attributes": {
      "POSITION": 0,
      "TEXCOORD_0": 1
     },
     "indices": 85,
     "material": 1,
     "targets": [
      {
       "POSITION": 2
      },
      {
       "POSITION": 3
      },
      {
       "POSITION": 4
      },
      {
       "POSITION": 5
      },
      {
       "POSITION": 6
      },
      {
       "POSITION": 7
      },
      {
       "POSITION": 8
      },
      {
       "POSITION": 9
      },
      {
       "POSITION": 10
      },
      {
       "POSITION": 11
      },
      {
       "POSITION": 12
      },
      {
       "POSITION": 13
      },
      {
       "POSITION": 14
      },
      {
       "POSITION": 15
      },
      {
       "POSITION": 16
      },
      {
       "POSITION": 17
      },
      {
       "POSITION": 18
      },
      {
       "POSITION": 19
      },
      {
       "POSITION": 20
      },
      {
       "POSITION": 21
      },
      {
       "POSITION": 22
      },
      {
       "POSITION": 23
      },
      {
       "POSITION": 24
      },
      {
       "POSITION": 25
      },
      {
       "POSITION": 26
      },
      {
       "POSITION": 27
      },
      {
       "POSITION": 28
      },
      {
       "POSITION": 29
      },
      {
       "POSITION": 30
      },
      {
       "POSITION": 31
      },
      {
       "POSITION": 32
      },
      {
       "POSITION": 33
      },
      {
       "POSITION": 34
      },
      {
       "POSITION": 35
      },
      {
       "POSITION": 36
      },
      {
       "POSITION": 37
      },
      {
       "POSITION": 38
      },
      {
       "POSITION": 39
      },
      {
       "POSITION": 40
      },
      {
       "POSITION": 41
      },
      {
       "POSITION": 42
      },
      {
       "POSITION": 43
      },
      {
       "POSITION": 44
      },
      {
       "POSITION": 45
      },
      {
       "POSITION": 46
      },
      {
       "POSITION": 47
      },
      {
       "POSITION": 48
      },
      {
       "POSITION": 49
      },
      {
       "POSITION": 50
      },
      {
       "POSITION": 51
      },
      {
       "POSITION": 52
      },
      {
       "POSITION": 53
      },
      {
       "POSITION": 54
      },
      {
       "POSITION": 55
      },
      {
       "POSITION": 56
      },
      {
       "POSITION": 57
      },
      {
       "POSITION": 58
      },
      {
       "POSITION": 59
      },
      {
       "POSITION": 60
      },
      {
       "POSITION": 61
      },
      {
       "POSITION": 62
      },
      {
       "POSITION": 63
      },
      {
       "POSITION": 64
      },
      {
       "POSITION": 65
      },
      {
       "POSITION": 66
      },
      {
       "POSITION": 67
      },
      {
       "POSITION": 68
      },
      {
       "POSITION": 69
      },
      {
       "POSITION": 70
      },
      {
       "POSITION": 71
      },
      {
       "POSITION": 72
      },
      {
       "POSITION": 73
      },
      {
       "POSITION": 74
      },
      {
       "POSITION": 75
      },
      {
       "POSITION": 76
      },
      {
       "POSITION": 77
      },
      {
       "POSITION": 78
      },
      {
       "POSITION": 79
      },
      {
       "POSITION": 80
      },
      {
       "POSITION": 81
      },
      {
       "POSITION": 82
      },
      {
       "POSITION": 83
      }
     ]
    },
    {
     "attributes": {
      "POSITION": 0,
      "TEXCOORD_0": 1
     },
     "indices": 86,
     "material": 2,
     "targets": [
      {
       "POSITION": 2
      },
      {
       "POSITION": 3
      },
      {
       "POSITION": 4
      },
      {
       "POSITION": 5
      },
      {
       "POSITION": 6
      },
      {
       "POSITION": 7
      },
      {
       "POSITION": 8
      },
      {
       "POSITION": 9
      },
      {
       "POSITION": 10
      },
      {
       "POSITION": 11
      },
      {
       "POSITION": 12
      },
      {
       "POSITION": 13
      },
      {
       "POSITION": 14
      },
      {
       "POSITION": 15
      },
      {
       "POSITION": 16
      },
      {
       "POSITION": 17
      },
      {
       "POSITION": 18
      },
      {
       "POSITION": 19
      },
      {
       "POSITION": 20
      },
      {
       "POSITION": 21
      },
      {
       "POSITION": 22
      },
      {
       "POSITION": 23
      },
      {
       "POSITION": 24
      },
      {
       "POSITION": 25
      },
      {
       "POSITION": 26
      },
      {
       "POSITION": 27
      },
      {
       "POSITION": 28
      },
      {
       "POSITION": 29
      },
      {
       "POSITION": 30
      },
      {
       "POSITION": 31
      },
      {
       "POSITION": 32
      },
      {
       "POSITION": 33
      },
      {
       "POSITION": 34
      },
      {
       "POSITION": 35
      },
      {
       "POSITION": 36
      },
      {
       "POSITION": 37
      },
      {
       "POSITION": 38
      },
      {
       "POSITION": 39
      },
      {
       "POSITION": 40
      },
      {
       "POSITION": 41
      },
      {
       "POSITION": 42
      },
      {
       "POSITION": 43
      },
      {
       "POSITION": 44
      },
      {
       "POSITION": 45
      },
      {
       "POSITION": 46
      },
      {
       "POSITION": 47
      },
      {
       "POSITION": 48
      },
      {
       "POSITION": 49
      },
      {
       "POSITION": 50
      },
      {
       "POSITION": 51
      },
      {
       "POSITION": 52
      },
      {
       "POSITION": 53
      },
      {
       "POSITION": 54
      },
      {
       "POSITION": 55
      },
      {
       "POSITION": 56
      },
      {
       "POSITION": 57
      },
      {
       "POSITION": 58
      },
      {
       "POSITION": 59
      },
      {
       "POSITION": 60
      },
      {
       "POSITION": 61
      },
      {
       "POSITION": 62
      },
      {
       "POSITION": 63
      },
      {
       "POSITION": 64
      },
      {
       "POSITION": 65
      },
      {
       "POSITION": 66
      },
      {
       "POSITION": 67
      },
      {
       "POSITION": 68
      },
      {
       "POSITION": 69
      },
      {
       "POSITION": 70
      },
      {
       "POSITION": 71
      },
      {
       "POSITION": 72
      },
      {
       "POSITION": 73
      },
      {
       "POSITION": 74
      },
      {
       "POSITION": 75
      },
      {
       "POSITION": 76
      },
      {
       "POSITION": 77
      },
      {
       "POSITION": 78
      },
      {
       "POSITION": 79
      },
      {
       "POSITION": 80
      },
      {
       "POSITION": 81
      },
      {
       "POSITION": 82
      },
      {
       "POSITION": 83
      }
     ]
    },
    {
     "attributes": {
      "POSITION": 0,
      "TEXCOORD_0": 1
     },
     "indices": 87,
     "material": 3,
     "targets": [
      {
       "POSITION": 2
      },
      {
       "POSITION": 3
      },
      {
       "POSITION": 4
      },
      {
       "POSITION": 5
      },
      {
       "POSITION": 6
      },
      {
       "POSITION": 7
      },
      {
       "POSITION": 8
      },
      {
       "POSITION": 9
      },
      {
       "POSITION": 10
      },
      {
       "POSITION": 11
      },
      {
       "POSITION": 12
      },
      {
       "POSITION": 13
      },
      {
       "POSITION": 14
      },
      {
       "POSITION": 15
      },
      {
       "POSITION": 16
      },
      {
       "POSITION": 17
      },
      {
       "POSITION": 18
      },
      {
       "POSITION": 19
      },
      {
       "POSITION": 20
      },
      {
       "POSITION": 21
      },
      {
       "POSITION": 22
      },
      {
       "POSITION": 23
      },
      {
       "POSITION": 24
      },
      {
       "POSITION": 25
      },
      {
       "POSITION": 26
      },
      {
       "POSITION": 27
      },
      {
       "POSITION": 28
      },
      {
       "POSITION": 29
      },
      {
       "POSITION": 30
      },
      {
       "POSITION": 31
      },
      {
       "POSITION": 32
      },
      {
       "POSITION": 33
      },
      {
       "POSITION": 34
      },
      {
       "POSITION": 35
      },
      {
       "POSITION": 36
      },
      {
       "POSITION": 37
      },
      {
       "POSITION": 38
      },
      {
       "POSITION": 39
      },
      {
       "POSITION": 40
      },
      {
       "POSITION": 41
      },
      {
       "POSITION": 42
      },
      {
       "POSITION": 43
      },
      {
       "POSITION": 44
      },
      {
       "POSITION": 45
      },
      {
       "POSITION": 46
      },
      {
       "POSITION": 47
      },
      {
       "POSITION": 48
      },
      {
       "POSITION": 49
      },
      {
       "POSITION": 50
      },
      {
       "POSITION": 51
      },
      {
       "POSITION": 52
      },
      {
       "POSITION": 53
      },
      {
       "POSITION": 54
      },
      {
       "POSITION": 55
      },
      {
       "POSITION": 56
      },
      {
       "POSITION": 57
      },
      {
       "POSITION": 58
      },
      {
       "POSITION": 59
      },
      {
       "POSITION": 60
      },
      {
       "POSITION": 61
      },
      {
       "POSITION": 62
      },
      {
       "POSITION": 63
      },
      {
       "POSITION": 64
      },
      {
       "POSITION": 65
      },
      {
       "POSITION": 66
      },
      {
       "POSITION": 67
      },
      {
       "POSITION": 68
      },
      {
       "POSITION": 69
      },
      {
       "POSITION": 70
      },
      {
       "POSITION": 71
      },
      {
       "POSITION": 72
      },
      {
       "POSITION": 73
      },
      {
       "POSITION": 74
      },
      {
       "POSITION": 75
      },
      {
       "POSITION": 76
      },
      {
       "POSITION": 77
      },
      {
       "POSITION": 78
      },
      {
       "POSITION": 79
      },
      {
       "POSITION": 80
      },
      {
       "POSITION": 81
      },
      {
       "POSITION": 82
      },
      {
       "POSITION": 83
      }
     ]
    }
   ],
   "weights": [
    0,
    0,
    0,
    0,
    0,
    0,
    0,
    0,
    0,
    0,
    0,
    0,
    0,
    0,
    0,
    0,
    0,
    0,
    0,
    0,
    0,
    0,
    0,
    0,
    0,
    0,
    0,
    0,
    0,
    0,
    0,
    0,
    0,
    0,
    0,
    0,
    0,
    0,
    0,
    0,
    0,
    0,
    0,
    0,
    0,
    0,
    0,
    0,
    0,
    0,
    0,
    0,
    0,
    0,
    0,
    0,
    0,
    0,
    0,
    0,
    0,
    0,
    0,
    0,
    0,
    0,
    0,
    0,
    0,
    0,
    0,
    0,
    0,
    0,
    0,
    0,
    0,
    0,
    0,
    0,
    0,
    0
   ]
  }
 ],
 "materials": [
  {
   "name": "slot0",
   "doubleSided": false,
   "pbrMetallicRoughness": {
    "baseColorTexture": {
     "index": 0
    },
    "metallicFactor": 0,
    "roughnessFactor": 1
   }
  },
  {
   "name": "slot1",
   "doubleSided": false,
   "pbrMetallicRoughness": {
    "baseColorTexture": {
     "index": 1
    },
    "metallicFactor": 0,
    "roughnessFactor": 1
   }
  },
  {
   "name": "slot2",
   "doubleSided": false,
   "pbrMetallicRoughness": {
    "baseColorTexture": {
     "index": 2
    },
    "metallicFactor": 0,
    "roughnessFactor": 1
   }
  },
  {
   "name": "slot3",
   "doubleSided": false,
   "pbrMetallicRoughness": {
    "baseColorTexture": {
     "index": 3
    },
    "metallicFactor": 0,
    "roughnessFactor": 1
   }
  }
 ],
 "textures": [
  {
   "source": 0,
   "sampler": 0
  },
  {
   "source": 1,
   "sampler": 0
  },
  {
   "source": 2,
   "sampler": 0
  },
  {
   "source": 3,
   "sampler": 0
  }
 ],
 "images": [
  {
   "uri": "s0.png"
  },
  {
   "uri": "s1.png"
  },
  {
   "uri": "s2.png"
  },
  {
   "uri": "s3.png"
  }
 ],
 "samplers": [
  {
   "magFilter": 9729,
   "minFilter": 9987,
   "wrapS": 10497,
   "wrapT": 10497
  }
 ],
 "accessors": [
  {
   "bufferView": 0,
   "componentType": 5126,
   "count": 366,
   "type": "VEC3",
   "min": [
    -0.0011515001453029988,
    0.001410000146656206,
    -0.06408450334978305
   ],
   "max": [
    0.026978003404241672,
    0.05696400592491073,
    0.05858550306234292
   ]
  },
  {
   "bufferView": 1,
   "componentType": 5126,
   "count": 366,
   "type": "VEC2"
  },
  {
   "bufferView": 2,
   "componentType": 5126,
   "count": 366,
   "type": "VEC3",
   "min": [
    -0.0019740003626793623,
    -0.004794000647962093,
    0.007296750321984291
   ],
   "max": [
    0.0050995005294680595,
    0.008178001269698143,
    0.020727001130580902
   ]
  },
  {
   "bufferView": 3,
   "componentType": 5126,
   "count": 366,
   "type": "VEC3",
   "min": [
    -0.0021385003346949816,
    -0.003948000259697437,
    0.007191000506281853
   ],
   "max": [
    0.005428500473499298,
    0.008178001269698143,
    0.01607399992644787
   ]
  },
  {
   "bufferView": 4,
   "componentType": 5126,
   "count": 366,
   "type": "VEC3",
   "min": [
    -0.0021385003346949816,
    -0.003384000388905406,
    0.006662250496447086
   ],
   "max": [
    0.005593000911176205,
    0.007614000700414181,
    0.01501650083810091
   ]
  },
  {
   "bufferView": 5,
   "componentType": 5126,
   "count": 366,
   "type": "VEC3",
   "min": [
    -0.0021385003346949816,
    -0.0031020003370940685,
    0.005922000389546156
   ],
   "max": [
    0.005593000911176205,
    0.006768000777810812,
    0.014170500449836254
   ]
  },
  {
   "bufferView": 6,
   "componentType": 5126,
   "count": 366,
   "type": "VEC3",
   "min": [
    -0.002303000306710601,
    -0.0025380002334713936,
    0.0049702501855790615
   ],
   "max": [
    0.005757500883191824,
    0.005640000570565462,
    0.013007250614464283
   ]
  },
  {
   "bufferView": 7,
   "componentType": 5126,
   "count": 366,
   "type": "VEC3",
   "min": [
    -0.002303000306710601,
    -0.0019740001298487186,
    0.003912750165909529
   ],
   "max": [
    0.005593000911176205,
    0.004512000363320112,
    0.01163250021636486
   ]
  },
  {
   "bufferView": 8,
   "componentType": 5126,
   "count": 366,
   "type": "VEC3",
   "min": [
    -0.002303000306710601,
    -0.001692000194452703,
    0.002749500097706914
   ],
   "max": [
    0.005428500473499298,
    0.003384000388905406,
    0.010257750749588013
   ]
  },
  {
   "bufferView": 9,
   "componentType": 5126,
   "count": 366,
   "type": "VEC3",
   "min": [
    -0.002303000306710601,
    -0.001128000090830028,
    0.0017977501265704632
   ],
   "max": [
    0.005264000501483679,
    0.0031020003370940685,
    0.008671500720083714
   ]
  },
  {
   "bufferView": 10,
   "componentType": 5126,
   "count": 366,
   "type": "VEC3",
   "min": [
    -0.0021385003346949816,
    -0.000564000045415014,
    0.0007402500486932695
   ],
   "max": [
    0.00493500055745244,
    0.002820000285282731,
    0.007296750321984291
   ]
  },
  {
   "bufferView": 11,
   "componentType": 5126,
   "count": 366,
   "type": "VEC3",
   "min": [
    -0.0021385003346949816,
    -0.000282000022707507,
    -0.00021150000975467265
   ],
   "max": [
    0.004606000613421202,
    0.002820000285282731,
    0.005922000389546156
   ]
  },
  {
   "bufferView": 12,
   "componentType": 5126,
   "count": 366,
   "type": "VEC3",
   "min": [
    -0.02056250348687172,
    -0.140718013048172,
    -0.00581625010818243
   ],
   "max": [
    0.02911650389432907,
    0.006768000777810812,
    0.046953003853559494
   ]
  },
  {
   "bufferView": 13,
   "componentType": 5126,
   "count": 366,
   "type": "VEC3",
   "min": [
    -0.01348900143057108,
    -0.13479600846767426,
    -0.005710500292479992
   ],
   "max": [
    0.03191300481557846,
    0.005922000389546156,
    0.04769325256347656
   ]
  },
  {
   "bufferView": 14,
   "componentType": 5126,
   "count": 366,
   "type": "VEC3",
   "min": [
    -0.013653501868247986,
    -0.11590201407670975,
    -0.005710500292479992
   ],
   "max": [
    0.03816400468349457,
    0.004512000363320112,
    0.04356900230050087
   ]
  },
  {
   "bufferView": 15,
   "componentType": 5126,
   "count": 366,
   "type": "VEC3",
   "min": [
    -0.02434600330889225,
    -0.08460000902414322,
    -0.005710500292479992
   ],
   "max": [
    0.0541205070912838,
    0.0031020003370940685,
    0.034051500260829926
   ]
  },
  {
   "bufferView": 16,
   "componentType": 5126,
   "count": 366,
   "type": "VEC3",
   "min": [
    -0.04096050560474396,
    -0.05329800397157669,
    -0.005710500292479992
   ],
   "max": [
    0.05642350763082504,
    0.001692000194452703,
    0.026649001985788345
   ]
  },
  {
   "bufferView": 17,
   "componentType": 5126,
   "count": 366,
   "type": "VEC3",
   "min": [
    -0.050995007157325745,
    -0.05386200547218323,
    -0.0056047504767775536
   ],
   "max": [
    0.046224504709243774,
    0.007896000519394875,
    0.024111000820994377
   ]
  },
  {
   "bufferView": 18,
   "componentType": 5126,
   "count": 366,
   "type": "VEC3",
   "min": [
    -0.05461400747299194,
    -0.05386200547218323,
    -0.0051817502826452255
   ],
   "max": [
    0.035038504749536514,
    0.026226002722978592,
    0.021573001518845558
   ]
  },
  {
   "bufferView": 19,
   "componentType": 5126,
   "count": 366,
   "type": "VEC3",
   "min": [
    -0.05527200549840927,
    -0.05301600694656372,
    -0.004441500175744295
   ],
   "max": [
    0.023852502927184105,
    0.039198003709316254,
    0.018612001091241837
   ]
  },
  {
   "bufferView": 20,
   "componentType": 5126,
   "count": 366,
   "type": "VEC3",
   "min": [
    -0.05444950610399246,
    -0.05132400617003441,
    -0.0035955002531409264
   ],
   "max": [
    0.015627501532435417,
    0.04709400609135628,
    0.016391251236200333
   ]
  },
  {
   "bufferView": 21,
   "componentType": 5126,
   "count": 366,
   "type": "VEC3",
   "min": [
    -0.05543650686740875,
    -0.04906800389289856,
    -0.0025380002334713936
   ],
   "max": [
    0.0157920029014349,
    0.05104200541973114,
    0.01321875024586916
   ]
  },
  {
   "bufferView": 22,
   "componentType": 5126,
   "count": 366,
   "type": "VEC3",
   "min": [
    -0.0541205070912838,
    -0.045684006065130234,
    -0.002643750049173832
   ],
   "max": [
    0.02056250348687172,
    0.05188800394535065,
    0.009940500371158123
   ]
  },
  {
   "bufferView": 23,
   "componentType": 5126,
   "count": 366,
   "type": "VEC3",
   "min": [
    -0.04951450601220131,
    -0.0414540059864521,
    -0.002643750049173832
   ],
   "max": [
    0.024510502815246582,
    0.05132400617003441,
    0.007191000506281853
   ]
  },
  {
   "bufferView": 24,
   "componentType": 5126,
   "count": 366,
   "type": "VEC3",
   "min": [
    -0.04490850493311882,
    -0.0369420051574707,
    -0.0023265001364052296
   ],
   "max": [
    0.026649003848433495,
    0.049914006143808365,
    0.0056047504767775536
   ]
  },
  {
   "bufferView": 25,
   "componentType": 5126,
   "count": 366,
   "type": "VEC3",
   "min": [
    -0.040796004235744476,
    -0.03186600282788277,
    -0.0020092499908059835
   ],
   "max": [
    0.028294004499912262,
    0.04681200534105301,
    0.004547250457108021
   ]
  },
  {
   "bufferView": 26,
   "componentType": 5126,
   "count": 366,
   "type": "VEC3",
   "min": [
    -0.037012506276369095,
    -0.025944001972675323,
    -0.0017977501265704632
   ],
   "max": [
    0.03092600405216217,
    0.04032600298523903,
    0.0034897502046078444
   ]
  },
  {
   "bufferView": 27,
   "componentType": 5126,
   "count": 366,
   "type": "VEC3",
   "min": [
    -0.03290000557899475,
    -0.019458001479506493,
    -0.0015862500295042992
   ],
   "max": [
    0.032406505197286606,
    0.03073800355195999,
    0.0023265001364052296
   ]
  },
  {
   "bufferView": 28,
   "componentType": 5126,
   "count": 366,
   "type": "VEC3",
   "min": [
    -0.02714250423014164,
    -0.013536001555621624,
    -0.001374750048853457
   ],
   "max": [
    0.030268004164099693,
    0.01974000222980976,
    0.001374750048853457
   ]
  },
  {
   "bufferView": 29,
   "componentType": 5126,
   "count": 366,
   "type": "VEC3",
   "min": [
    -0.019904501736164093,
    -0.009024000726640224,
    -0.001374750048853457
   ],
   "max": [
    0.02434600330889225,
    0.009024000726640224,
    0.0010575000196695328
   ]
  },
  {
   "bufferView": 30,
   "componentType": 5126,
   "count": 366,
   "type": "VEC3",
   "min": [
    -0.012502001598477364,
    -0.008460001088678837,
    -0.0016920000780373812
   ],
   "max": [
    0.016121001914143562,
    0.0036660004407167435,
    0.0009517500293441117
   ]
  },
  {
   "bufferView": 31,
   "componentType": 5126,
   "count": 366,
   "type": "VEC3",
   "min": [
    -0.005428500473499298,
    -0.008178001269698143,
    -0.0019035000586882234
   ],
   "max": [
    0.007238001096993685,
    0.0008460000972263515,
    0.0010575000196695328
   ]
  },
  {
   "bufferView": 32,
   "componentType": 5126,
   "count": 366,
   "type": "VEC3",
   "min": [
    -0.00016450001567136496,
    -0.008178001269698143,
    -0.0021150000393390656
   ],
   "max": [
    0.00082250009290874,
    0,
    0.0011632500682026148
   ]
  },
  {
   "bufferView": 33,
   "componentType": 5126,
   "count": 366,
   "type": "VEC3",
   "min": [
    -0.003948000725358725,
    -0.007896000519394875,
    -0.0020092499908059835
   ],
   "max": [
    0.0027965004555881023,
    0.000564000045415014,
    0.0011632500682026148
   ]
  },
  {
   "bufferView": 34,
   "componentType": 5126,
   "count": 366,
   "type": "VEC3",
   "min": [
    -0.004277000669389963,
    -0.006486000493168831,
    -0.0015862500295042992
   ],
   "max": [
    0.00329000037163496,
    0.0008460000972263515,
    0.0011632500682026148
   ]
  },
  {
   "bufferView": 35,
   "componentType": 5126,
   "count": 366,
   "type": "VEC3",
   "min": [
    -0.0027965004555881023,
    -0.005358000751584768,
    -0.0010575000196695328
   ],
   "max": [
    0.0021385003346949816,
    0.000564000045415014,
    0.0011632500682026148
   ]
  },
  {
   "bufferView": 36,
   "componentType": 5126,
   "count": 366,
   "type": "VEC3",
   "min": [
    -0.0009870001813396811,
    -0.004794000647962093,
    -0.0005287500098347664
   ],
   "max": [
    0.0014805002138018608,
    0.000282000022707507,
    0.0011632500682026148
   ]
  },
  {
   "bufferView": 37,
   "componentType": 5126,
   "count": 366,
   "type": "VEC3",
   "min": [
    -0.00016450001567136496,
    -0.004512000363320112,
    -0.00010575000487733632
   ],
   "max": [
    0.0011515001533553004,
    0.000282000022707507,
    0.0011632500682026148
   ]
  },
  {
   "bufferView": 38,
   "componentType": 5126,
   "count": 366,
   "type": "VEC3",
   "min": [
    -0.0018095002742484212,
    -0.004230000544339418,
    -0.0008460000390186906
   ],
   "max": [
    0.0013160001253709197,
    0.000282000022707507,
    0.0010575000196695328
   ]
  },
  {
   "bufferView": 39,
   "componentType": 5126,
   "count": 366,
   "type": "VEC3",
   "min": [
    -0.00493500055745244,
    -0.0036660004407167435,
    -0.0024322501849383116
   ],
   "max": [
    0.003125500399619341,
    0.0008460000972263515,
    0.0009517500293441117
   ]
  },
  {
   "bufferView": 40,
   "componentType": 5126,
   "count": 366,
   "type": "VEC3",
   "min": [
    -0.007567001041024923,
    -0.0031020003370940685,
    -0.0049702501855790615
   ],
   "max": [
    0.006909000687301159,
    0.0019740001298487186,
    0.0010575000196695328
   ]
  },
  {
   "bufferView": 41,
   "componentType": 5126,
   "count": 366,
   "type": "VEC3",
   "min": [
    -0.009376500733196735,
    -0.004230000544339418,
    -0.007931250147521496
   ],
   "max": [
    0.011021501384675503,
    0.002820000285282731,
    0.0011632500682026148
   ]
  },
  {
   "bufferView": 42,
   "componentType": 5126,
   "count": 366,
   "type": "VEC3",
   "min": [
    -0.010692501440644264,
    -0.005076000466942787,
    -0.01068075094372034
   ],
   "max": [
    0.015298501588404179,
    0.0036660004407167435,
    0.001480500097386539
   ]
  },
  {
   "bufferView": 43,
   "componentType": 5126,
   "count": 366,
   "type": "VEC3",
   "min": [
    -0.011515001766383648,
    -0.006204000674188137,
    -0.012795750983059406
   ],
   "max": [
    0.01974000222980976,
    0.004512000363320112,
    0.0019035000586882234
   ]
  },
  {
   "bufferView": 44,
   "componentType": 5126,
   "count": 366,
   "type": "VEC3",
   "min": [
    -0.012173001654446125,
    -0.007614000700414181,
    -0.014064750634133816
   ],
   "max": [
    0.023852502927184105,
    0.005358000751584768,
    0.0023265001364052296
   ]
  },
  {
   "bufferView": 45,
   "componentType": 5126,
   "count": 366,
   "type": "VEC3",
   "min": [
    -0.012995501980185509,
    -0.009024000726640224,
    -0.014170500449836254
   ],
   "max": [
    0.027471503242850304,
    0.005922000389546156,
    0.002749500097706914
   ]
  },
  {
   "bufferView": 46,
   "componentType": 5126,
   "count": 366,
   "type": "VEC3",
   "min": [
    -0.01348900143057108,
    -0.010152000933885574,
    -0.013430250808596611
   ],
   "max": [
    0.030268004164099693,
    0.006486000493168831,
    0.00306675024330616
   ]
  },
  {
   "bufferView": 47,
   "componentType": 5126,
   "count": 366,
   "type": "VEC3",
   "min": [
    -0.01316000148653984,
    -0.01099800132215023,
    -0.011738250963389874
   ],
   "max": [
    0.032242003828287125,
    0.006768000777810812,
    0.0033840001560747623
   ]
  },
  {
   "bufferView": 48,
   "componentType": 5126,
   "count": 366,
   "type": "VEC3",
   "min": [
    -0.012337501160800457,
    -0.011562000960111618,
    -0.010892250575125217
   ],
   "max": [
    0.033229004591703415,
    0.007050000596791506,
    0.0035955002531409264
   ]
  },
  {
   "bufferView": 49,
   "componentType": 5126,
   "count": 366,
   "type": "VEC3",
   "min": [
    -0.011021501384675503,
    -0.011844000779092312,
    -0.010257750749588013
   ],
   "max": [
    0.03355800360441208,
    0.007050000596791506,
    0.0037012503016740084
   ]
  },
  {
   "bufferView": 50,
   "componentType": 5126,
   "count": 366,
   "type": "VEC3",
   "min": [
    -0.010692501440644264,
    -0.011844000779092312,
    -0.00920025072991848
   ],
   "max": [
    0.033393505960702896,
    0.007050000596791506,
    0.0038070001173764467
   ]
  },
  {
   "bufferView": 51,
   "componentType": 5126,
   "count": 366,
   "type": "VEC3",
   "min": [
    -0.010034501552581787,
    -0.011562000960111618,
    -0.007825500331819057
   ],
   "max": [
    0.03273550420999527,
    0.007050000596791506,
    0.003912750165909529
   ]
  },
  {
   "bufferView": 52,
   "componentType": 5126,
   "count": 366,
   "type": "VEC3",
   "min": [
    -0.009212001226842403,
    -0.011280001141130924,
    -0.006662250496447086
   ],
   "max": [
    0.0315840058028698,
    0.007050000596791506,
    0.003912750165909529
   ]
  },
  {
   "bufferView": 53,
   "componentType": 5126,
   "count": 366,
   "type": "VEC3",
   "min": [
    -0.008060500957071781,
    -0.01099800132215023,
    -0.00581625010818243
   ],
   "max": [
    0.03010350465774536,
    0.007050000596791506,
    0.0038070001173764467
   ]
  },
  {
   "bufferView": 54,
   "componentType": 5126,
   "count": 366,
   "type": "VEC3",
   "min": [
    -0.007402501069009304,
    -0.010434000752866268,
    -0.0049702501855790615
   ],
   "max": [
    0.028294004499912262,
    0.006768000777810812,
    0.0037012503016740084
   ]
  },
  {
   "bufferView": 55,
   "componentType": 5126,
   "count": 366,
   "type": "VEC3",
   "min": [
    -0.00674450071528554,
    -0.009588001295924187,
    -0.004018499981611967
   ],
   "max": [
    0.02632000297307968,
    0.006768000777810812,
    0.0035955002531409264
   ]
  },
  {
   "bufferView": 56,
   "componentType": 5126,
   "count": 366,
   "type": "VEC3",
   "min": [
    -0.006251000799238682,
    -0.009024000726640224,
    -0.0031725000590085983
   ],
   "max": [
    0.024017002433538437,
    0.006486000493168831,
    0.0033840001560747623
   ]
  },
  {
   "bufferView": 57,
   "componentType": 5126,
   "count": 366,
   "type": "VEC3",
   "min": [
    -0.005593000911176205,
    -0.008178001269698143,
    -0.0024322501849383116
   ],
   "max": [
    0.021714001893997192,
    0.005922000389546156,
    0.0031725000590085983
   ]
  },
  {
   "bufferView": 58,
   "componentType": 5126,
   "count": 366,
   "type": "VEC3",
   "min": [
    -0.004770500585436821,
    -0.006768000777810812,
    -0.0016920000780373812
   ],
   "max": [
    0.018259502947330475,
    0.005358000751584768,
    0.002643750049173832
   ]
  },
  {
   "bufferView": 59,
   "componentType": 5126,
   "count": 366,
   "type": "VEC3",
   "min": [
    -0.0036190005484968424,
    -0.005076000466942787,
    -0.0011632500682026148
   ],
   "max": [
    0.013653501868247986,
    0.004230000544339418,
    0.0020092499908059835
   ]
  },
  {
   "bufferView": 60,
   "componentType": 5126,
   "count": 366,
   "type": "VEC3",
   "min": [
    -0.002303000306710601,
    -0.004230000544339418,
    -0.0007402500486932695
   ],
   "max": [
    0.008554001338779926,
    0.002820000285282731,
    0.0011632500682026148
   ]
  },
  {
   "bufferView": 61,
   "componentType": 5126,
   "count": 366,
   "type": "VEC3",
   "min": [
    -0.0014805002138018608,
    -0.004230000544339418,
    -0.0003172500291839242
   ],
   "max": [
    0.0037835005205124617,
    0.0014100001426413655,
    0.0010575000196695328
   ]
  },
  {
   "bufferView": 62,
   "componentType": 5126,
   "count": 366,
   "type": "VEC3",
   "min": [
    -0.00082250009290874,
    -0.004512000363320112,
    -0.00010575000487733632
   ],
   "max": [
    0.00082250009290874,
    0.000282000022707507,
    0.0011632500682026148
   ]
  },
  {
   "bufferView": 63,
   "componentType": 5126,
   "count": 366,
   "type": "VEC3",
   "min": [
    -0.0003290000313427299,
    -0.004512000363320112,
    -0.00010575000487733632
   ],
   "max": [
    0.0013160001253709197,
    0.000282000022707507,
    0.0011632500682026148
   ]
  },
  {
   "bufferView": 64,
   "componentType": 5126,
   "count": 366,
   "type": "VEC3",
   "min": [
    -0.00016450001567136496,
    -0.004512000363320112,
    -0.00010575000487733632
   ],
   "max": [
    0.00082250009290874,
    0.000282000022707507,
    0.0011632500682026148
   ]
  },
  {
   "bufferView": 65,
   "componentType": 5126,
   "count": 366,
   "type": "VEC3",
   "min": [
    -0.0013160001253709197,
    -0.007896000519394875,
    -0.0016920000780373812
   ],
   "max": [
    0.0004935000906698406,
    0.000282000022707507,
    0.0009517500293441117
   ]
  },
  {
   "bufferView": 66,
   "componentType": 5126,
   "count": 366,
   "type": "VEC3",
   "min": [
    -0.0027965004555881023,
    -0.016356002539396286,
    -0.0034897502046078444
   ],
   "max": [
    0.0014805002138018608,
    0.0008460000972263515,
    0.0020092499908059835
   ]
  },
  {
   "bufferView": 67,
   "componentType": 5126,
   "count": 366,
   "type": "VEC3",
   "min": [
    -0.004441500641405582,
    -0.025944001972675323,
    -0.0053932503797113895
   ],
   "max": [
    0.0037835005205124617,
    0.0014100001426413655,
    0.0037012503016740084
   ]
  },
  {
   "bufferView": 68,
   "componentType": 5126,
   "count": 366,
   "type": "VEC3",
   "min": [
    -0.005922000855207443,
    -0.0360960029065609,
    -0.007296750321984291
   ],
   "max": [
    0.006909000687301159,
    0.002256000181660056,
    0.006027750205248594
   ]
  },
  {
   "bufferView": 69,
   "componentType": 5126,
   "count": 366,
   "type": "VEC3",
   "min": [
    -0.0070735011249780655,
    -0.04681200534105301,
    -0.008988750167191029
   ],
   "max": [
    0.010692501440644264,
    0.002820000285282731,
    0.008988750167191029
   ]
  },
  {
   "bufferView": 70,
   "componentType": 5126,
   "count": 366,
   "type": "VEC3",
   "min": [
    -0.00789600145071745,
    -0.05724600702524185,
    -0.01046925038099289
   ],
   "max": [
    0.01447600219398737,
    0.003384000388905406,
    0.012584250420331955
   ]
  },
  {
   "bufferView": 71,
   "componentType": 5126,
   "count": 366,
   "type": "VEC3",
   "min": [
    -0.00838950090110302,
    -0.06796200573444366,
    -0.01163250021636486
   ],
   "max": [
    0.018095001578330994,
    0.003384000388905406,
    0.016708500683307648
   ]
  },
  {
   "bufferView": 72,
   "componentType": 5126,
   "count": 366,
   "type": "VEC3",
   "min": [
    -0.008225001394748688,
    -0.07839600741863251,
    -0.012372750788927078
   ],
   "max": [
    0.02072700299322605,
    0.003384000388905406,
    0.02146725170314312
   ]
  },
  {
   "bufferView": 73,
   "componentType": 5126,
   "count": 366,
   "type": "VEC3",
   "min": [
    -0.007567001041024923,
    -0.08939401060342789,
    -0.012795750983059406
   ],
   "max": [
    0.02138500288128853,
    0.002820000285282731,
    0.026543252170085907
   ]
  },
  {
   "bufferView": 74,
   "componentType": 5126,
   "count": 366,
   "type": "VEC3",
   "min": [
    -0.00658000074326992,
    -0.1001100093126297,
    -0.012901500798761845
   ],
   "max": [
    0.01974000222980976,
    0.0019740001298487186,
    0.03193650022149086
   ]
  },
  {
   "bufferView": 75,
   "componentType": 5126,
   "count": 366,
   "type": "VEC3",
   "min": [
    -0.004441500641405582,
    -0.1144920140504837,
    -0.01194975059479475
   ],
   "max": [
    0.00987000111490488,
    -0.0008460000972263515,
    0.03944475203752518
   ]
  },
  {
   "bufferView": 76,
   "componentType": 5126,
   "count": 366,
   "type": "VEC3",
   "min": [
    -0.05296900495886803,
    -0.040890004485845566,
    -0.0009517500293441117
   ],
   "max": [
    0.022865502163767815,
    0.023970002308487892,
    0.0025380002334713936
   ]
  },
  {
   "bufferView": 77,
   "componentType": 5126,
   "count": 366,
   "type": "VEC3",
   "min": [
    -0.05296900495886803,
    -0.041172005236148834,
    0.006027750205248594
   ],
   "max": [
    0.022865502163767815,
    0.023688001558184624,
    0.02273625135421753
   ]
  },
  {
   "bufferView": 78,
   "componentType": 5126,
   "count": 366,
   "type": "VEC3",
   "min": [
    -0.05296900495886803,
    -0.040890004485845566,
    0.0056047504767775536
   ],
   "max": [
    0.022865502163767815,
    0.023688001558184624,
    0.016708500683307648
   ]
  },
  {
   "bufferView": 79,
   "componentType": 5126,
   "count": 366,
   "type": "VEC3",
   "min": [
    -0.05296900495886803,
    -0.040890004485845566,
    0.004653000272810459
   ],
   "max": [
    0.022865502163767815,
    0.023688001558184624,
    0.011738250963389874
   ]
  },
  {
   "bufferView": 80,
   "componentType": 5126,
   "count": 366,
   "type": "VEC3",
   "min": [
    -0.05296900495886803,
    -0.040890004485845566,
    0.0032782501075416803
   ],
   "max": [
    0.022865502163767815,
    0.023688001558184624,
    0.007931250147521496
   ]
  },
  {
   "bufferView": 81,
   "componentType": 5126,
   "count": 366,
   "type": "VEC3",
   "min": [
    -0.05296900495886803,
    -0.040890004485845566,
    0.0016920000780373812
   ],
   "max": [
    0.022865502163767815,
    0.023688001558184624,
    0.0056047504767775536
   ]
  },
  {
   "bufferView": 82,
   "componentType": 5126,
   "count": 366,
   "type": "VEC3",
   "min": [
    -0.05296900495886803,
    -0.040890004485845566,
    0.0003172500291839242
   ],
   "max": [
    0.022865502163767815,
    0.023688001558184624,
    0.004441500175744295
   ]
  },
  {
   "bufferView": 83,
   "componentType": 5126,
   "count": 366,
   "type": "VEC3",
   "min": [
    -0.05296900495886803,
    -0.040890004485845566,
    -0.0009517500293441117
   ],
   "max": [
    0.022865502163767815,
    0.023970002308487892,
    0.004864500369876623
   ]
  },
  {
   "bufferView": 84,
   "componentType": 5123,
   "count": 807,
   "type": "SCALAR"
  },
  {
   "bufferView": 85,
   "componentType": 5123,
   "count": 66,
   "type": "SCALAR"
  },
  {
   "bufferView": 86,
   "componentType": 5123,
   "count": 165,
   "type": "SCALAR"
  },
  {
   "bufferView": 87,
   "componentType": 5123,
   "count": 99,
   "type": "SCALAR"
  },
  {
   "bufferView": 88,
   "componentType": 5126,
   "count": 10,
   "type": "SCALAR",
   "min": [
    0
   ],
   "max": [
    0.3
   ]
  },
  {
   "bufferView": 89,
   "componentType": 5126,
   "count": 820,
   "type": "SCALAR"
  },
  {
   "bufferView": 90,
   "componentType": 5126,
   "count": 8,
   "type": "SCALAR",
   "min": [
    0
   ],
   "max": [
    0.23333333333333334
   ]
  },
  {
   "bufferView": 91,
   "componentType": 5126,
   "count": 656,
   "type": "SCALAR"
  },
  {
   "bufferView": 92,
   "componentType": 5126,
   "count": 3,
   "type": "SCALAR",
   "min": [
    0
   ],
   "max": [
    0.6666666666666666
   ]
  },
  {
   "bufferView": 93,
   "componentType": 5126,
   "count": 246,
   "type": "SCALAR"
  },
  {
   "bufferView": 94,
   "componentType": 5126,
   "count": 25,
   "type": "SCALAR",
   "min": [
    0
   ],
   "max": [
    0.8
   ]
  },
  {
   "bufferView": 95,
   "componentType": 5126,
   "count": 2050,
   "type": "SCALAR"
  },
  {
   "bufferView": 96,
   "componentType": 5126,
   "count": 28,
   "type": "SCALAR",
   "min": [
    0
   ],
   "max": [
    0.75
   ]
  },
  {
   "bufferView": 97,
   "componentType": 5126,
   "count": 2296,
   "type": "SCALAR"
  },
  {
   "bufferView": 98,
   "componentType": 5126,
   "count": 12,
   "type": "SCALAR",
   "min": [
    0
   ],
   "max": [
    0.24444444444444444
   ]
  },
  {
   "bufferView": 99,
   "componentType": 5126,
   "count": 984,
   "type": "SCALAR"
  }
 ],
 "bufferViews": [
  {
   "buffer": 0,
   "byteOffset": 0,
   "byteLength": 4392,
   "target": 34962
  },
  {
   "buffer": 0,
   "byteOffset": 4392,
   "byteLength": 2928,
   "target": 34962
  },
  {
   "buffer": 0,
   "byteOffset": 7320,
   "byteLength": 4392,
   "target": 34962
  },
  {
   "buffer": 0,
   "byteOffset": 11712,
   "byteLength": 4392,
   "target": 34962
  },
  {
   "buffer": 0,
   "byteOffset": 16104,
   "byteLength": 4392,
   "target": 34962
  },
  {
   "buffer": 0,
   "byteOffset": 20496,
   "byteLength": 4392,
   "target": 34962
  },
  {
   "buffer": 0,
   "byteOffset": 24888,
   "byteLength": 4392,
   "target": 34962
  },
  {
   "buffer": 0,
   "byteOffset": 29280,
   "byteLength": 4392,
   "target": 34962
  },
  {
   "buffer": 0,
   "byteOffset": 33672,
   "byteLength": 4392,
   "target": 34962
  },
  {
   "buffer": 0,
   "byteOffset": 38064,
   "byteLength": 4392,
   "target": 34962
  },
  {
   "buffer": 0,
   "byteOffset": 42456,
   "byteLength": 4392,
   "target": 34962
  },
  {
   "buffer": 0,
   "byteOffset": 46848,
   "byteLength": 4392,
   "target": 34962
  },
  {
   "buffer": 0,
   "byteOffset": 51240,
   "byteLength": 4392,
   "target": 34962
  },
  {
   "buffer": 0,
   "byteOffset": 55632,
   "byteLength": 4392,
   "target": 34962
  },
  {
   "buffer": 0,
   "byteOffset": 60024,
   "byteLength": 4392,
   "target": 34962
  },
  {
   "buffer": 0,
   "byteOffset": 64416,
   "byteLength": 4392,
   "target": 34962
  },
  {
   "buffer": 0,
   "byteOffset": 68808,
   "byteLength": 4392,
   "target": 34962
  },
  {
   "buffer": 0,
   "byteOffset": 73200,
   "byteLength": 4392,
   "target": 34962
  },
  {
   "buffer": 0,
   "byteOffset": 77592,
   "byteLength": 4392,
   "target": 34962
  },
  {
   "buffer": 0,
   "byteOffset": 81984,
   "byteLength": 4392,
   "target": 34962
  },
  {
   "buffer": 0,
   "byteOffset": 86376,
   "byteLength": 4392,
   "target": 34962
  },
  {
   "buffer": 0,
   "byteOffset": 90768,
   "byteLength": 4392,
   "target": 34962
  },
  {
   "buffer": 0,
   "byteOffset": 95160,
   "byteLength": 4392,
   "target": 34962
  },
  {
   "buffer": 0,
   "byteOffset": 99552,
   "byteLength": 4392,
   "target": 34962
  },
  {
   "buffer": 0,
   "byteOffset": 103944,
   "byteLength": 4392,
   "target": 34962
  },
  {
   "buffer": 0,
   "byteOffset": 108336,
   "byteLength": 4392,
   "target": 34962
  },
  {
   "buffer": 0,
   "byteOffset": 112728,
   "byteLength": 4392,
   "target": 34962
  },
  {
   "buffer": 0,
   "byteOffset": 117120,
   "byteLength": 4392,
   "target": 34962
  },
  {
   "buffer": 0,
   "byteOffset": 121512,
   "byteLength": 4392,
   "target": 34962
  },
  {
   "buffer": 0,
   "byteOffset": 125904,
   "byteLength": 4392,
   "target": 34962
  },
  {
   "buffer": 0,
   "byteOffset": 130296,
   "byteLength": 4392,
   "target": 34962
  },
  {
   "buffer": 0,
   "byteOffset": 134688,
   "byteLength": 4392,
   "target": 34962
  },
  {
   "buffer": 0,
   "byteOffset": 139080,
   "byteLength": 4392,
   "target": 34962
  },
  {
   "buffer": 0,
   "byteOffset": 143472,
   "byteLength": 4392,
   "target": 34962
  },
  {
   "buffer": 0,
   "byteOffset": 147864,
   "byteLength": 4392,
   "target": 34962
  },
  {
   "buffer": 0,
   "byteOffset": 152256,
   "byteLength": 4392,
   "target": 34962
  },
  {
   "buffer": 0,
   "byteOffset": 156648,
   "byteLength": 4392,
   "target": 34962
  },
  {
   "buffer": 0,
   "byteOffset": 161040,
   "byteLength": 4392,
   "target": 34962
  },
  {
   "buffer": 0,
   "byteOffset": 165432,
   "byteLength": 4392,
   "target": 34962
  },
  {
   "buffer": 0,
   "byteOffset": 169824,
   "byteLength": 4392,
   "target": 34962
  },
  {
   "buffer": 0,
   "byteOffset": 174216,
   "byteLength": 4392,
   "target": 34962
  },
  {
   "buffer": 0,
   "byteOffset": 178608,
   "byteLength": 4392,
   "target": 34962
  },
  {
   "buffer": 0,
   "byteOffset": 183000,
   "byteLength": 4392,
   "target": 34962
  },
  {
   "buffer": 0,
   "byteOffset": 187392,
   "byteLength": 4392,
   "target": 34962
  },
  {
   "buffer": 0,
   "byteOffset": 191784,
   "byteLength": 4392,
   "target": 34962
  },
  {
   "buffer": 0,
   "byteOffset": 196176,
   "byteLength": 4392,
   "target": 34962
  },
  {
   "buffer": 0,
   "byteOffset": 200568,
   "byteLength": 4392,
   "target": 34962
  },
  {
   "buffer": 0,
   "byteOffset": 204960,
   "byteLength": 4392,
   "target": 34962
  },
  {
   "buffer": 0,
   "byteOffset": 209352,
   "byteLength": 4392,
   "target": 34962
  },
  {
   "buffer": 0,
   "byteOffset": 213744,
   "byteLength": 4392,
   "target": 34962
  },
  {
   "buffer": 0,
   "byteOffset": 218136,
   "byteLength": 4392,
   "target": 34962
  },
  {
   "buffer": 0,
   "byteOffset": 222528,
   "byteLength": 4392,
   "target": 34962
  },
  {
   "buffer": 0,
   "byteOffset": 226920,
   "byteLength": 4392,
   "target": 34962
  },
  {
   "buffer": 0,
   "byteOffset": 231312,
   "byteLength": 4392,
   "target": 34962
  },
  {
   "buffer": 0,
   "byteOffset": 235704,
   "byteLength": 4392,
   "target": 34962
  },
  {
   "buffer": 0,
   "byteOffset": 240096,
   "byteLength": 4392,
   "target": 34962
  },
  {
   "buffer": 0,
   "byteOffset": 244488,
   "byteLength": 4392,
   "target": 34962
  },
  {
   "buffer": 0,
   "byteOffset": 248880,
   "byteLength": 4392,
   "target": 34962
  },
  {
   "buffer": 0,
   "byteOffset": 253272,
   "byteLength": 4392,
   "target": 34962
  },
  {
   "buffer": 0,
   "byteOffset": 257664,
   "byteLength": 4392,
   "target": 34962
  },
  {
   "buffer": 0,
   "byteOffset": 262056,
   "byteLength": 4392,
   "target": 34962
  },
  {
   "buffer": 0,
   "byteOffset": 266448,
   "byteLength": 4392,
   "target": 34962
  },
  {
   "buffer": 0,
   "byteOffset": 270840,
   "byteLength": 4392,
   "target": 34962
  },
  {
   "buffer": 0,
   "byteOffset": 275232,
   "byteLength": 4392,
   "target": 34962
  },
  {
   "buffer": 0,
   "byteOffset": 279624,
   "byteLength": 4392,
   "target": 34962
  },
  {
   "buffer": 0,
   "byteOffset": 284016,
   "byteLength": 4392,
   "target": 34962
  },
  {
   "buffer": 0,
   "byteOffset": 288408,
   "byteLength": 4392,
   "target": 34962
  },
  {
   "buffer": 0,
   "byteOffset": 292800,
   "byteLength": 4392,
   "target": 34962
  },
  {
   "buffer": 0,
   "byteOffset": 297192,
   "byteLength": 4392,
   "target": 34962
  },
  {
   "buffer": 0,
   "byteOffset": 301584,
   "byteLength": 4392,
   "target": 34962
  },
  {
   "buffer": 0,
   "byteOffset": 305976,
   "byteLength": 4392,
   "target": 34962
  },
  {
   "buffer": 0,
   "byteOffset": 310368,
   "byteLength": 4392,
   "target": 34962
  },
  {
   "buffer": 0,
   "byteOffset": 314760,
   "byteLength": 4392,
   "target": 34962
  },
  {
   "buffer": 0,
   "byteOffset": 319152,
   "byteLength": 4392,
   "target": 34962
  },
  {
   "buffer": 0,
   "byteOffset": 323544,
   "byteLength": 4392,
   "target": 34962
  },
  {
   "buffer": 0,
   "byteOffset": 327936,
   "byteLength": 4392,
   "target": 34962
  },
  {
   "buffer": 0,
   "byteOffset": 332328,
   "byteLength": 4392,
   "target": 34962
  },
  {
   "buffer": 0,
   "byteOffset": 336720,
   "byteLength": 4392,
   "target": 34962
  },
  {
   "buffer": 0,
   "byteOffset": 341112,
   "byteLength": 4392,
   "target": 34962
  },
  {
   "buffer": 0,
   "byteOffset": 345504,
   "byteLength": 4392,
   "target": 34962
  },
  {
   "buffer": 0,
   "byteOffset": 349896,
   "byteLength": 4392,
   "target": 34962
  },
  {
   "buffer": 0,
   "byteOffset": 354288,
   "byteLength": 4392,
   "target": 34962
  },
  {
   "buffer": 0,
   "byteOffset": 358680,
   "byteLength": 4392,
   "target": 34962
  },
  {
   "buffer": 0,
   "byteOffset": 363072,
   "byteLength": 4392,
   "target": 34962
  },
  {
   "buffer": 0,
   "byteOffset": 367464,
   "byteLength": 1614,
   "target": 34963
  },
  {
   "buffer": 0,
   "byteOffset": 369080,
   "byteLength": 132,
   "target": 34963
  },
  {
   "buffer": 0,
   "byteOffset": 369212,
   "byteLength": 330,
   "target": 34963
  },
  {
   "buffer": 0,
   "byteOffset": 369544,
   "byteLength": 198,
   "target": 34963
  },
  {
   "buffer": 0,
   "byteOffset": 369744,
   "byteLength": 40
  },
  {
   "buffer": 0,
   "byteOffset": 369784,
   "byteLength": 3280
  },
  {
   "buffer": 0,
   "byteOffset": 373064,
   "byteLength": 32
  },
  {
   "buffer": 0,
   "byteOffset": 373096,
   "byteLength": 2624
  },
  {
   "buffer": 0,
   "byteOffset": 375720,
   "byteLength": 12
  },
  {
   "buffer": 0,
   "byteOffset": 375732,
   "byteLength": 984
  },
  {
   "buffer": 0,
   "byteOffset": 376716,
   "byteLength": 100
  },
  {
   "buffer": 0,
   "byteOffset": 376816,
   "byteLength": 8200
  },
  {
   "buffer": 0,
   "byteOffset": 385016,
   "byteLength": 112
  },
  {
   "buffer": 0,
   "byteOffset": 385128,
   "byteLength": 9184
  },
  {
   "buffer": 0,
   "byteOffset": 394312,
   "byteLength": 48
  },
  {
   "buffer": 0,
   "byteOffset": 394360,
   "byteLength": 3936
  }
 ],
 "buffers": [
  {
   "uri": "enforcer-right.bin",
   "byteLength": 398296
  }
 ],
 "animations": [
  {
   "name": "Shoot",
   "samplers": [
    {
     "input": 88,
     "output": 89,
     "interpolation": "LINEAR"
    }
   ],
   "channels": [
    {
     "sampler": 0,
     "target": {
      "node": 0,
      "path": "weights"
     }
    }
   ]
  },
  {
   "name": "shot2",
   "samplers": [
    {
     "input": 90,
     "output": 91,
     "interpolation": "LINEAR"
    }
   ],
   "channels": [
    {
     "sampler": 0,
     "target": {
      "node": 0,
      "path": "weights"
     }
    }
   ]
  },
  {
   "name": "Sway",
   "samplers": [
    {
     "input": 92,
     "output": 93,
     "interpolation": "LINEAR"
    }
   ],
   "channels": [
    {
     "sampler": 0,
     "target": {
      "node": 0,
      "path": "weights"
     }
    }
   ]
  },
  {
   "name": "Twiddle",
   "samplers": [
    {
     "input": 94,
     "output": 95,
     "interpolation": "LINEAR"
    }
   ],
   "channels": [
    {
     "sampler": 0,
     "target": {
      "node": 0,
      "path": "weights"
     }
    }
   ]
  },
  {
   "name": "Select",
   "samplers": [
    {
     "input": 96,
     "output": 97,
     "interpolation": "LINEAR"
    }
   ],
   "channels": [
    {
     "sampler": 0,
     "target": {
      "node": 0,
      "path": "weights"
     }
    }
   ]
  },
  {
   "name": "Down",
   "samplers": [
    {
     "input": 98,
     "output": 99,
     "interpolation": "LINEAR"
    }
   ],
   "channels": [
    {
     "sampler": 0,
     "target": {
      "node": 0,
      "path": "weights"
     }
    }
   ]
  }
 ]
}
