{"asset":{"version":"2.0","generator":"facingworlds ut99 extractor"},"scene":0,"scenes":[{"nodes":[0]}],"nodes":[{"mesh":0,"name":"HealthPack"}],"meshes":[{"name":"HealthPack","primitives":[{"attributes":{"POSITION":0,"TEXCOORD_0":1},"indices":2,"material":0},{"attributes":{"POSITION":3,"TEXCOORD_0":4},"indices":5,"material":1}]}],"materials":[{"name":"slot0","pbrMetallicRoughness":{"baseColorTexture":{"index":0},"metallicFactor":0,"roughnessFactor":1}},{"name":"slot1","pbrMetallicRoughness":{"baseColorTexture":{"index":1},"metallicFactor":0,"roughnessFactor":1}}],"images":[{"uri":"s0.png"},{"uri":"s1.png"}],"samplers":[{"magFilter":9729,"minFilter":9987,"wrapS":10497,"wrapT":10497}],"textures":[{"source":0,"sampler":0},{"source":1,"sampler":0}],"accessors":[{"bufferView":0,"componentType":5126,"count":88,"type":"VEC3","min":[-0.2339488636363636,0,-0.3],"max":[0.2339488636363636,0.48920454545454545,0.3]},{"bufferView":1,"componentType":5126,"count":88,"type":"VEC2"},{"bufferView":2,"componentType":5123,"count":288,"type":"SCALAR"},{"bufferView":3,"componentType":5126,"count":16,"type":"VEC3","min":[-0.0984375,0.18409090909090908,-0.2693181818181818],"max":[0.20667613636363635,0.43380681818181815,0.2693181818181818]},{"bufferView":4,"componentType":5126,"count":16,"type":"VEC2"},{"bufferView":5,"componentType":5123,"count":36,"type":"SCALAR"}],"bufferViews":[{"buffer":0,"byteOffset":0,"byteLength":1056,"target":34962},{"buffer":0,"byteOffset":1056,"byteLength":704,"target":34962},{"buffer":0,"byteOffset":1760,"byteLength":576,"target":34963},{"buffer":0,"byteOffset":2336,"byteLength":192,"target":34962},{"buffer":0,"byteOffset":2528,"byteLength":128,"target":34962},{"buffer":0,"byteOffset":2656,"byteLength":72,"target":34963}],"buffers":[{"uri":"HealthPack.bin","byteLength":2728}]}