{
 "asset": {
  "version": "2.0",
  "generator": "build-ut-thirdperson.mjs"
 },
 "extras": {
  "utMesh": "ASMD2hand",
  "utPackage": "BotPack.u",
  "utClass": "ShockRifle",
  "thirdPersonScale": 1,
  "baseSequence": "Still",
  "baseFrame": 0,
  "worldFrame": "forward -Z, up +Y, right +X; lifted onto a 39 UU pawn; RotOrigin baked in",
  "epicRotOriginDeg": [
   0,
   90,
   0
  ],
  "meshOriginUU": [
   25,
   600,
   -40
  ],
  "orientationNote": "Vertices are mesh-frame, so they reach the actor frame through the TRANSPOSE of UE1's FRotationMatrix(RotOrigin), with Mesh.Origin subtracted before Mesh.Scale — the character pipeline's rule, unchanged, so the gun and the body land in one frame.",
  "collisionHeightUU": 39,
  "placementNote": "NOT lifted. These vertices are the weapon's own actor-frame geometry about its own origin, because UE1 draws a carried item at the owner pawn's weapon triangle with that triangle's orientation: world = anchor.translation + anchor.rotation * vertex. The anchor is the node named weaponAnchor in each character glTF, animated on every clip; its base-pose translation is also in ut-thirdperson.json as a static fallback.",
  "clips": [
   {
    "clip": "Fire1",
    "startFrame": 1,
    "numFrames": 9,
    "fps": 24,
    "seconds": 0.375
   },
   {
    "clip": "Fire2",
    "startFrame": 1,
    "numFrames": 9,
    "fps": 24,
    "seconds": 0.375
   }
  ]
 },
 "scene": 0,
 "scenes": [
  {
   "nodes": [
    0
   ]
  }
 ],
 "nodes": [
  {
   "mesh": 0,
   "name": "shock"
  }
 ],
 "meshes": [
  {
   "name": "shock",
   "primitives": [
    {
     "attributes": {
      "POSITION": 0,
      "TEXCOORD_0": 1
     },
     "indices": 11,
     "material": 0,
     "targets": [
      {
       "POSITION": 2
      },
      {
       "POSITION": 3
      },
      {
       "POSITION": 4
      },
      {
       "POSITION": 5
      },
      {
       "POSITION": 6
      },
      {
       "POSITION": 7
      },
      {
       "POSITION": 8
      },
      {
       "POSITION": 9
      },
      {
       "POSITION": 10
      }
     ]
    }
   ],
   "weights": [
    0,
    0,
    0,
    0,
    0,
    0,
    0,
    0,
    0
   ]
  }
 ],
 "materials": [
  {
   "name": "slot0",
   "doubleSided": false,
   "pbrMetallicRoughness": {
    "baseColorTexture": {
     "index": 0
    },
    "metallicFactor": 0,
    "roughnessFactor": 1
   }
  }
 ],
 "textures": [
  {
   "source": 0,
   "sampler": 0
  }
 ],
 "images": [
  {
   "uri": "s0.png"
  }
 ],
 "samplers": [
  {
   "magFilter": 9729,
   "minFilter": 9987,
   "wrapS": 10497,
   "wrapT": 10497
  }
 ],
 "accessors": [
  {
   "bufferView": 0,
   "componentType": 5126,
   "count": 294,
   "type": "VEC3",
   "min": [
    -0.08577500945414726,
    -0.03525000388526598,
    -0.9682001067153055
   ],
   "max": [
    0.037600004144283654,
    0.13630001502302844,
    0.21972502421815793
   ]
  },
  {
   "bufferView": 1,
   "componentType": 5126,
   "count": 294,
   "type": "VEC2"
  },
  {
   "bufferView": 2,
   "componentType": 5126,
   "count": 294,
   "type": "VEC3",
   "min": [
    0,
    0,
    0
   ],
   "max": [
    0,
    0,
    0
   ]
  },
  {
   "bufferView": 3,
   "componentType": 5126,
   "count": 294,
   "type": "VEC3",
   "min": [
    0,
    -0.0893000066280365,
    0.015275001525878906
   ],
   "max": [
    6.938893903907228e-18,
    0.08460000902414322,
    0.04935000464320183
   ]
  },
  {
   "bufferView": 4,
   "componentType": 5126,
   "count": 294,
   "type": "VEC3",
   "min": [
    0,
    -0.08695001155138016,
    0.015275001525878906
   ],
   "max": [
    6.938893903907228e-18,
    0.08225000649690628,
    0.04817500710487366
   ]
  },
  {
   "bufferView": 5,
   "componentType": 5126,
   "count": 294,
   "type": "VEC3",
   "min": [
    0,
    -0.07990001142024994,
    0.012925001792609692
   ],
   "max": [
    6.938893903907228e-18,
    0.077550008893013,
    0.04347500577569008
   ]
  },
  {
   "bufferView": 6,
   "componentType": 5126,
   "count": 294,
   "type": "VEC3",
   "min": [
    0,
    -0.07050000876188278,
    0.010575001128017902
   ],
   "max": [
    6.938893903907228e-18,
    0.06815000623464584,
    0.03642500564455986
   ]
  },
  {
   "bufferView": 7,
   "componentType": 5126,
   "count": 294,
   "type": "VEC3",
   "min": [
    0,
    -0.061100006103515625,
    0.008225000463426113
   ],
   "max": [
    6.938893903907228e-18,
    0.058750007301568985,
    0.029375003650784492
   ]
  },
  {
   "bufferView": 8,
   "componentType": 5126,
   "count": 294,
   "type": "VEC3",
   "min": [
    0,
    -0.04700000584125519,
    0.0058750007301568985
   ],
   "max": [
    6.938893903907228e-18,
    0.04700000584125519,
    0.021150002256035805
   ]
  },
  {
   "bufferView": 9,
   "componentType": 5126,
   "count": 294,
   "type": "VEC3",
   "min": [
    0,
    -0.03525000438094139,
    0.003525000298395753
   ],
   "max": [
    6.938893903907228e-18,
    0.03525000438094139,
    0.014100001193583012
   ]
  },
  {
   "bufferView": 10,
   "componentType": 5126,
   "count": 294,
   "type": "VEC3",
   "min": [
    0,
    -0.021150002256035805,
    0.001175000099465251
   ],
   "max": [
    6.938893903907228e-18,
    0.021150002256035805,
    0.008225000463426113
   ]
  },
  {
   "bufferView": 11,
   "componentType": 5123,
   "count": 495,
   "type": "SCALAR"
  },
  {
   "bufferView": 12,
   "componentType": 5126,
   "count": 9,
   "type": "SCALAR",
   "min": [
    0
   ],
   "max": [
    0.3333333333333333
   ]
  },
  {
   "bufferView": 13,
   "componentType": 5126,
   "count": 81,
   "type": "SCALAR"
  },
  {
   "bufferView": 14,
   "componentType": 5126,
   "count": 9,
   "type": "SCALAR",
   "min": [
    0
   ],
   "max": [
    0.3333333333333333
   ]
  },
  {
   "bufferView": 15,
   "componentType": 5126,
   "count": 81,
   "type": "SCALAR"
  }
 ],
 "bufferViews": [
  {
   "buffer": 0,
   "byteOffset": 0,
   "byteLength": 3528,
   "target": 34962
  },
  {
   "buffer": 0,
   "byteOffset": 3528,
   "byteLength": 2352,
   "target": 34962
  },
  {
   "buffer": 0,
   "byteOffset": 5880,
   "byteLength": 3528,
   "target": 34962
  },
  {
   "buffer": 0,
   "byteOffset": 9408,
   "byteLength": 3528,
   "target": 34962
  },
  {
   "buffer": 0,
   "byteOffset": 12936,
   "byteLength": 3528,
   "target": 34962
  },
  {
   "buffer": 0,
   "byteOffset": 16464,
   "byteLength": 3528,
   "target": 34962
  },
  {
   "buffer": 0,
   "byteOffset": 19992,
   "byteLength": 3528,
   "target": 34962
  },
  {
   "buffer": 0,
   "byteOffset": 23520,
   "byteLength": 3528,
   "target": 34962
  },
  {
   "buffer": 0,
   "byteOffset": 27048,
   "byteLength": 3528,
   "target": 34962
  },
  {
   "buffer": 0,
   "byteOffset": 30576,
   "byteLength": 3528,
   "target": 34962
  },
  {
   "buffer": 0,
   "byteOffset": 34104,
   "byteLength": 3528,
   "target": 34962
  },
  {
   "buffer": 0,
   "byteOffset": 37632,
   "byteLength": 990,
   "target": 34963
  },
  {
   "buffer": 0,
   "byteOffset": 38624,
   "byteLength": 36
  },
  {
   "buffer": 0,
   "byteOffset": 38660,
   "byteLength": 324
  },
  {
   "buffer": 0,
   "byteOffset": 38984,
   "byteLength": 36
  },
  {
   "buffer": 0,
   "byteOffset": 39020,
   "byteLength": 324
  }
 ],
 "buffers": [
  {
   "uri": "shock.bin",
   "byteLength": 39344
  }
 ],
 "animations": [
  {
   "name": "Fire1",
   "samplers": [
    {
     "input": 12,
     "output": 13,
     "interpolation": "LINEAR"
    }
   ],
   "channels": [
    {
     "sampler": 0,
     "target": {
      "node": 0,
      "path": "weights"
     }
    }
   ]
  },
  {
   "name": "Fire2",
   "samplers": [
    {
     "input": 14,
     "output": 15,
     "interpolation": "LINEAR"
    }
   ],
   "channels": [
    {
     "sampler": 0,
     "target": {
      "node": 0,
      "path": "weights"
     }
    }
   ]
  }
 ]
}
