{
 "asset": {
  "version": "2.0",
  "generator": "build-ut-viewmodels.mjs"
 },
 "scene": 0,
 "scenes": [
  {
   "nodes": [
    0
   ]
  }
 ],
 "nodes": [
  {
   "mesh": 0,
   "name": "ripper"
  }
 ],
 "meshes": [
  {
   "name": "ripper",
   "primitives": [
    {
     "attributes": {
      "POSITION": 0,
      "TEXCOORD_0": 1
     },
     "indices": 2,
     "material": 0
    },
    {
     "attributes": {
      "POSITION": 0,
      "TEXCOORD_0": 1
     },
     "indices": 3,
     "material": 1
    },
    {
     "attributes": {
      "POSITION": 0,
      "TEXCOORD_0": 1
     },
     "indices": 4,
     "material": 2
    },
    {
     "attributes": {
      "POSITION": 0,
      "TEXCOORD_0": 1
     },
     "indices": 5,
     "material": 3
    },
    {
     "attributes": {
      "POSITION": 0,
      "TEXCOORD_0": 1
     },
     "indices": 6,
     "material": 4
    }
   ]
  }
 ],
 "materials": [
  {
   "name": "slot0",
   "doubleSided": false,
   "pbrMetallicRoughness": {
    "baseColorTexture": {
     "index": 0
    },
    "metallicFactor": 0,
    "roughnessFactor": 1
   }
  },
  {
   "name": "slot1",
   "doubleSided": false,
   "pbrMetallicRoughness": {
    "baseColorTexture": {
     "index": 1
    },
    "metallicFactor": 0,
    "roughnessFactor": 1
   }
  },
  {
   "name": "slot2",
   "doubleSided": false,
   "pbrMetallicRoughness": {
    "baseColorTexture": {
     "index": 2
    },
    "metallicFactor": 0,
    "roughnessFactor": 1
   }
  },
  {
   "name": "slot3",
   "doubleSided": false,
   "pbrMetallicRoughness": {
    "baseColorTexture": {
     "index": 3
    },
    "metallicFactor": 0,
    "roughnessFactor": 1
   }
  },
  {
   "name": "slot4",
   "doubleSided": false,
   "pbrMetallicRoughness": {
    "baseColorTexture": {
     "index": 4
    },
    "metallicFactor": 0,
    "roughnessFactor": 1
   }
  }
 ],
 "textures": [
  {
   "source": 0,
   "sampler": 0
  },
  {
   "source": 1,
   "sampler": 0
  },
  {
   "source": 2,
   "sampler": 0
  },
  {
   "source": 3,
   "sampler": 0
  },
  {
   "source": 4,
   "sampler": 0
  }
 ],
 "images": [
  {
   "uri": "s0.png"
  },
  {
   "uri": "s1.png"
  },
  {
   "uri": "s2.png"
  },
  {
   "uri": "s3.png"
  },
  {
   "uri": "s4.png"
  }
 ],
 "samplers": [
  {
   "magFilter": 9729,
   "minFilter": 9987,
   "wrapS": 10497,
   "wrapT": 10497
  }
 ],
 "accessors": [
  {
   "bufferView": 0,
   "componentType": 5126,
   "count": 376,
   "type": "VEC3",
   "min": [
    -0.08185521029629579,
    -0.08790881105775819,
    0.007567000423279102
   ],
   "max": [
    0.07790720979968989,
    -0.02474080311206368,
    0.02944550164710781
   ]
  },
  {
   "bufferView": 1,
   "componentType": 5126,
   "count": 376,
   "type": "VEC2"
  },
  {
   "bufferView": 2,
   "componentType": 5123,
   "count": 435,
   "type": "SCALAR"
  },
  {
   "bufferView": 3,
   "componentType": 5123,
   "count": 99,
   "type": "SCALAR"
  },
  {
   "bufferView": 4,
   "componentType": 5123,
   "count": 108,
   "type": "SCALAR"
  },
  {
   "bufferView": 5,
   "componentType": 5123,
   "count": 180,
   "type": "SCALAR"
  },
  {
   "bufferView": 6,
   "componentType": 5123,
   "count": 228,
   "type": "SCALAR"
  }
 ],
 "bufferViews": [
  {
   "buffer": 0,
   "byteOffset": 0,
   "byteLength": 4512,
   "target": 34962
  },
  {
   "buffer": 0,
   "byteOffset": 4512,
   "byteLength": 3008,
   "target": 34962
  },
  {
   "buffer": 0,
   "byteOffset": 7520,
   "byteLength": 870,
   "target": 34963
  },
  {
   "buffer": 0,
   "byteOffset": 8392,
   "byteLength": 198,
   "target": 34963
  },
  {
   "buffer": 0,
   "byteOffset": 8592,
   "byteLength": 216,
   "target": 34963
  },
  {
   "buffer": 0,
   "byteOffset": 8808,
   "byteLength": 360,
   "target": 34963
  },
  {
   "buffer": 0,
   "byteOffset": 9168,
   "byteLength": 456,
   "target": 34963
  }
 ],
 "buffers": [
  {
   "uri": "ripper.bin",
   "byteLength": 9624
  }
 ]
}
