{"asset":{"version":"2.0","generator":"THREE.GLTFExporter r178"},"scenes":[{"nodes":[0]}],"scene":0,"nodes":[{"mesh":0}],"bufferViews":[{"buffer":0,"byteOffset":0,"byteLength":26280,"target":34962,"byteStride":12},{"buffer":0,"byteOffset":26280,"byteLength":4380,"target":34963}],"buffers":[{"byteLength":30660,"uri":"data:application/octet-stream;base64,"}],"accessors":[{"bufferView":0,"componentType":5126,"count":2190,"max":[54.21561050415039,45.41721725463867,19.97048568725586],"min":[-56.184391021728516,14.417216300964355,-21.029516220092773],"type":"VEC3"},{"bufferView":1,"componentType":5123,"count":2190,"max":[2189],"min":[0],"type":"SCALAR"}],"materials":[{"pbrMetallicRoughness":{"metallicFactor":0,"roughnessFactor":1}}],"meshes":[{"primitives":[{"mode":4,"attributes":{"POSITION":0},"indices":1,"material":0}]}]}