{"asset":{"version":"2.0","generator":"facingworlds ut99 extractor"},"scene":0,"scenes":[{"nodes":[0]}],"nodes":[{"mesh":0,"name":"WarheadLauncher"}],"meshes":[{"name":"WarheadLauncher","primitives":[{"attributes":{"POSITION":0,"TEXCOORD_0":1},"indices":2,"material":0}]}],"materials":[{"name":"slot0","pbrMetallicRoughness":{"baseColorTexture":{"index":0},"metallicFactor":0,"roughnessFactor":1}}],"images":[{"uri":"s0.png"}],"samplers":[{"magFilter":9729,"minFilter":9987,"wrapS":10497,"wrapT":10497}],"textures":[{"source":0,"sampler":0}],"accessors":[{"bufferView":0,"componentType":5126,"count":347,"type":"VEC3","min":[-0.625,0,-0.22179487179487178],"max":[0.625,0.4807692307692307,0.22179487179487178]},{"bufferView":1,"componentType":5126,"count":347,"type":"VEC2"},{"bufferView":2,"componentType":5123,"count":1434,"type":"SCALAR"}],"bufferViews":[{"buffer":0,"byteOffset":0,"byteLength":4164,"target":34962},{"buffer":0,"byteOffset":4164,"byteLength":2776,"target":34962},{"buffer":0,"byteOffset":6940,"byteLength":2868,"target":34963}],"buffers":[{"uri":"WarheadLauncher.bin","byteLength":9808}]}