<?xml version="1.0" encoding="UTF-8"?><svg id="pattern" xmlns="http://www.w3.org/2000/svg" viewBox="0 0 4960.63 4960.63"><defs><style>.cls-1{stroke:#f90;}.cls-1,.cls-2{fill:none;stroke-linecap:round;stroke-miterlimit:10;stroke-width:22.68px;}.cls-2{stroke:#ccc;}</style></defs><line class="cls-2" x1="1597.65" y1="2745.21" x2="1597.65" y2="2971.99"/><line class="cls-2" x1="1597.65" y1="3249.59" x2="1597.65" y2="3362.98"/><line class="cls-1" x1="1711.03" y1="2606.41" x2="1597.65" y2="2606.41"/><line class="cls-1" x1="1711.03" y1="3110.79" x2="1484.26" y2="3110.79"/><line class="cls-2" x1="1849.84" y1="2493.02" x2="1849.84" y2="2719.8"/><line class="cls-2" x1="1849.84" y1="2997.4" x2="1849.84" y2="3224.18"/><line class="cls-2" x1="2102.03" y1="2240.83" x2="2102.03" y2="2467.61"/><line class="cls-2" x1="2102.03" y1="2745.21" x2="2102.03" y2="2971.99"/><line class="cls-2" x1="2354.22" y1="1988.64" x2="2354.22" y2="2215.41"/><line class="cls-2" x1="2354.22" y1="2493.02" x2="2354.22" y2="2719.8"/><line class="cls-2" x1="2354.22" y1="2997.4" x2="2354.22" y2="3224.18"/><line class="cls-2" x1="2606.41" y1="1736.45" x2="2606.41" y2="1963.22"/><line class="cls-2" x1="2606.41" y1="2240.83" x2="2606.41" y2="2467.61"/><line class="cls-2" x1="2606.41" y1="2745.21" x2="2606.41" y2="2971.99"/><line class="cls-2" x1="2858.6" y1="2997.4" x2="2858.6" y2="3224.18"/><line class="cls-2" x1="3110.79" y1="2858.6" x2="3110.79" y2="2971.99"/><line class="cls-2" x1="2102.03" y1="3249.59" x2="2102.03" y2="3362.98"/><line class="cls-2" x1="2606.41" y1="3249.59" x2="2606.41" y2="3476.37"/><line class="cls-2" x1="3110.79" y1="3249.59" x2="3110.79" y2="3362.98"/><line class="cls-1" x1="2719.8" y1="1597.65" x2="2606.41" y2="1597.65"/><line class="cls-1" x1="2858.6" y1="1849.84" x2="2745.21" y2="1849.84"/><line class="cls-1" x1="2467.61" y1="1849.84" x2="2354.22" y2="1849.84"/><line class="cls-1" x1="2719.8" y1="2102.03" x2="2493.02" y2="2102.03"/><line class="cls-1" x1="2215.42" y1="2102.03" x2="2102.03" y2="2102.03"/><line class="cls-1" x1="2858.6" y1="2354.22" x2="2745.21" y2="2354.22"/><line class="cls-1" x1="2467.61" y1="2354.22" x2="2240.83" y2="2354.22"/><line class="cls-1" x1="1963.22" y1="2354.22" x2="1849.84" y2="2354.22"/><line class="cls-1" x1="2719.8" y1="2606.41" x2="2493.02" y2="2606.41"/><line class="cls-1" x1="2215.41" y1="2606.41" x2="1988.64" y2="2606.41"/><line class="cls-1" x1="2858.6" y1="2858.6" x2="2745.21" y2="2858.6"/><line class="cls-1" x1="2467.61" y1="2858.6" x2="2240.83" y2="2858.6"/><line class="cls-1" x1="1963.22" y1="2858.6" x2="1736.45" y2="2858.6"/><line class="cls-1" x1="3224.18" y1="3110.79" x2="2997.4" y2="3110.79"/><line class="cls-1" x1="2719.79" y1="3110.79" x2="2493.02" y2="3110.79"/><line class="cls-1" x1="2215.42" y1="3110.79" x2="1988.64" y2="3110.79"/><line class="cls-1" x1="2971.98" y1="3362.98" x2="2745.21" y2="3362.98"/><line class="cls-1" x1="2467.6" y1="3362.98" x2="2240.83" y2="3362.98"/><line class="cls-1" x1="1963.22" y1="3362.98" x2="1736.45" y2="3362.98"/><line class="cls-2" x1="2606.41" y1="3753.98" x2="2606.41" y2="3867.36"/><line class="cls-1" x1="2858.6" y1="3362.98" x2="2745.22" y2="3362.98"/><line class="cls-1" x1="2467.61" y1="3362.98" x2="2354.22" y2="3362.98"/><line class="cls-1" x1="1963.23" y1="3362.98" x2="1736.46" y2="3362.98"/><line class="cls-1" x1="2719.8" y1="3615.17" x2="2493.03" y2="3615.17"/><line class="cls-2" x1="2858.6" y1="1988.64" x2="2858.6" y2="2215.41"/><line class="cls-2" x1="2858.6" y1="2493.02" x2="2858.6" y2="2719.8"/></svg>