<?xml version="1.0" encoding="UTF-8"?><svg id="pattern" xmlns="http://www.w3.org/2000/svg" viewBox="0 0 4960.63 4960.63"><defs><style>.cls-1{stroke:#f90;}.cls-1,.cls-2{fill:none;stroke-linecap:round;stroke-miterlimit:10;stroke-width:22.68px;}.cls-2{stroke:#ccc;}</style></defs><line class="cls-2" x1="336.7" y1="475.5" x2="336.7" y2="702.27"/><line class="cls-2" x1="336.7" y1="979.88" x2="336.7" y2="1206.65"/><line class="cls-2" x1="336.7" y1="1484.26" x2="336.7" y2="1711.03"/><line class="cls-2" x1="336.7" y1="1988.64" x2="336.7" y2="2215.41"/><line class="cls-2" x1="336.7" y1="2493.02" x2="336.7" y2="2719.8"/><line class="cls-2" x1="336.7" y1="2997.4" x2="336.7" y2="3224.18"/><line class="cls-2" x1="588.89" y1="223.31" x2="588.89" y2="450.08"/><line class="cls-2" x1="588.89" y1="727.69" x2="588.89" y2="954.46"/><line class="cls-2" x1="588.89" y1="1232.07" x2="588.89" y2="1458.84"/><line class="cls-2" x1="588.89" y1="1736.45" x2="588.89" y2="1963.22"/><line class="cls-2" x1="588.89" y1="2240.83" x2="588.89" y2="2467.61"/><line class="cls-2" x1="588.89" y1="2745.21" x2="588.89" y2="2971.99"/><line class="cls-2" x1="841.08" y1="475.5" x2="841.08" y2="702.27"/><line class="cls-2" x1="841.08" y1="979.88" x2="841.08" y2="1206.65"/><line class="cls-2" x1="841.08" y1="1484.26" x2="841.08" y2="1711.03"/><line class="cls-2" x1="841.08" y1="1988.64" x2="841.08" y2="2215.41"/><line class="cls-2" x1="841.08" y1="2493.02" x2="841.08" y2="2719.8"/><line class="cls-2" x1="841.08" y1="2997.4" x2="841.08" y2="3224.18"/><line class="cls-2" x1="1093.27" y1="223.31" x2="1093.27" y2="450.08"/><line class="cls-2" x1="1093.27" y1="727.69" x2="1093.27" y2="954.46"/><line class="cls-2" x1="1093.27" y1="1232.07" x2="1093.27" y2="1458.84"/><line class="cls-2" x1="1093.27" y1="1736.45" x2="1093.27" y2="1963.22"/><line class="cls-2" x1="1093.27" y1="2240.83" x2="1093.27" y2="2467.61"/><line class="cls-2" x1="1093.27" y1="2745.21" x2="1093.27" y2="2971.99"/><line class="cls-2" x1="1345.46" y1="475.5" x2="1345.46" y2="702.27"/><line class="cls-2" x1="1345.46" y1="979.88" x2="1345.46" y2="1206.65"/><line class="cls-2" x1="1345.46" y1="1484.26" x2="1345.46" y2="1711.03"/><line class="cls-2" x1="1345.46" y1="1988.64" x2="1345.46" y2="2215.41"/><line class="cls-2" x1="1345.46" y1="2493.02" x2="1345.46" y2="2719.8"/><line class="cls-2" x1="1345.46" y1="2997.4" x2="1345.46" y2="3224.18"/><line class="cls-2" x1="1597.65" y1="223.31" x2="1597.65" y2="450.08"/><line class="cls-2" x1="1597.65" y1="727.69" x2="1597.65" y2="954.46"/><line class="cls-2" x1="1597.65" y1="1232.07" x2="1597.65" y2="1458.84"/><line class="cls-2" x1="1597.65" y1="1736.45" x2="1597.65" y2="1963.22"/><line class="cls-2" x1="1597.65" y1="2240.83" x2="1597.65" y2="2467.61"/><line class="cls-2" x1="1849.84" y1="475.5" x2="1849.84" y2="702.27"/><line class="cls-2" x1="1849.84" y1="979.88" x2="1849.84" y2="1206.65"/><line class="cls-2" x1="1849.84" y1="1484.26" x2="1849.84" y2="1711.03"/><line class="cls-2" x1="1849.84" y1="1988.64" x2="1849.84" y2="2215.41"/><line class="cls-2" x1="2102.03" y1="223.31" x2="2102.03" y2="450.08"/><line class="cls-2" x1="2102.03" y1="727.69" x2="2102.03" y2="954.46"/><line class="cls-2" x1="2102.03" y1="1232.07" x2="2102.03" y2="1458.84"/><line class="cls-2" x1="2102.03" y1="1736.45" x2="2102.03" y2="1963.22"/><line class="cls-2" x1="2354.22" y1="475.5" x2="2354.22" y2="702.27"/><line class="cls-2" x1="2354.22" y1="979.88" x2="2354.22" y2="1206.65"/><line class="cls-2" x1="2354.22" y1="1484.26" x2="2354.22" y2="1711.03"/><line class="cls-2" x1="2606.41" y1="223.31" x2="2606.41" y2="450.08"/><line class="cls-2" x1="2606.41" y1="727.69" x2="2606.41" y2="954.46"/><line class="cls-2" x1="2606.41" y1="1232.07" x2="2606.41" y2="1458.84"/><line class="cls-2" x1="2858.6" y1="475.5" x2="2858.6" y2="702.27"/><line class="cls-2" x1="2858.6" y1="979.88" x2="2858.6" y2="1206.65"/><line class="cls-2" x1="2858.6" y1="1484.26" x2="2858.6" y2="1711.03"/><line class="cls-2" x1="2858.6" y1="1988.64" x2="2858.6" y2="2215.41"/><line class="cls-2" x1="2858.6" y1="2493.02" x2="2858.6" y2="2719.8"/><line class="cls-2" x1="3110.79" y1="223.31" x2="3110.79" y2="450.08"/><line class="cls-2" x1="3110.79" y1="727.69" x2="3110.79" y2="954.46"/><line class="cls-2" x1="3110.79" y1="1232.07" x2="3110.79" y2="1458.84"/><line class="cls-2" x1="3110.79" y1="1736.45" x2="3110.79" y2="1963.22"/><line class="cls-2" x1="3110.79" y1="2240.83" x2="3110.79" y2="2467.61"/><line class="cls-2" x1="588.89" y1="3249.59" x2="588.89" y2="3476.37"/><line class="cls-2" x1="1093.27" y1="3249.59" x2="1093.27" y2="3476.37"/><line class="cls-2" x1="1597.65" y1="3362.98" x2="1597.65" y2="3476.37"/><line class="cls-2" x1="2102.03" y1="3362.98" x2="2102.03" y2="3476.37"/><line class="cls-2" x1="3110.79" y1="3362.98" x2="3110.79" y2="3476.37"/><line class="cls-2" x1="3110.79" y1="2745.21" x2="3110.79" y2="2858.6"/><line class="cls-1" x1="2971.99" y1="336.7" x2="2745.21" y2="336.7"/><line class="cls-1" x1="2467.61" y1="336.7" x2="2240.83" y2="336.7"/><line class="cls-1" x1="1963.23" y1="336.7" x2="1736.45" y2="336.7"/><line class="cls-1" x1="1458.85" y1="336.7" x2="1232.07" y2="336.7"/><line class="cls-1" x1="954.47" y1="336.7" x2="727.69" y2="336.7"/><line class="cls-1" x1="450.08" y1="336.7" x2="223.31" y2="336.7"/><line class="cls-1" x1="2719.8" y1="588.89" x2="2493.02" y2="588.89"/><line class="cls-1" x1="2215.42" y1="588.89" x2="1988.64" y2="588.89"/><line class="cls-1" x1="1711.04" y1="588.89" x2="1484.26" y2="588.89"/><line class="cls-1" x1="1206.66" y1="588.89" x2="979.88" y2="588.89"/><line class="cls-1" x1="702.27" y1="588.89" x2="475.5" y2="588.89"/><line class="cls-1" x1="2971.99" y1="841.08" x2="2745.21" y2="841.08"/><line class="cls-1" x1="2467.61" y1="841.08" x2="2240.83" y2="841.08"/><line class="cls-1" x1="1963.23" y1="841.08" x2="1736.45" y2="841.08"/><line class="cls-1" x1="1458.85" y1="841.08" x2="1232.07" y2="841.08"/><line class="cls-1" x1="954.46" y1="841.08" x2="727.69" y2="841.08"/><line class="cls-1" x1="450.08" y1="841.08" x2="223.31" y2="841.08"/><line class="cls-1" x1="2719.8" y1="1093.27" x2="2493.02" y2="1093.27"/><line class="cls-1" x1="2215.42" y1="1093.27" x2="1988.64" y2="1093.27"/><line class="cls-1" x1="1711.03" y1="1093.27" x2="1484.26" y2="1093.27"/><line class="cls-1" x1="1206.65" y1="1093.27" x2="979.88" y2="1093.27"/><line class="cls-1" x1="702.27" y1="1093.27" x2="475.5" y2="1093.27"/><line class="cls-1" x1="2971.99" y1="1345.46" x2="2745.21" y2="1345.46"/><line class="cls-1" x1="2467.61" y1="1345.46" x2="2240.83" y2="1345.46"/><line class="cls-1" x1="1963.23" y1="1345.46" x2="1736.45" y2="1345.46"/><line class="cls-1" x1="1458.84" y1="1345.46" x2="1232.07" y2="1345.46"/><line class="cls-1" x1="954.46" y1="1345.46" x2="727.69" y2="1345.46"/><line class="cls-1" x1="450.08" y1="1345.46" x2="223.31" y2="1345.46"/><line class="cls-1" x1="2606.41" y1="1597.65" x2="2493.02" y2="1597.65"/><line class="cls-1" x1="2215.41" y1="1597.65" x2="1988.64" y2="1597.65"/><line class="cls-1" x1="1711.03" y1="1597.65" x2="1484.26" y2="1597.65"/><line class="cls-1" x1="1206.65" y1="1597.65" x2="979.88" y2="1597.65"/><line class="cls-1" x1="702.27" y1="1597.65" x2="475.5" y2="1597.65"/><line class="cls-1" x1="2971.99" y1="1849.84" x2="2858.6" y2="1849.84"/><line class="cls-1" x1="2354.22" y1="1849.84" x2="2240.83" y2="1849.84"/><line class="cls-1" x1="1963.22" y1="1849.84" x2="1736.45" y2="1849.84"/><line class="cls-1" x1="1458.84" y1="1849.84" x2="1232.07" y2="1849.84"/><line class="cls-1" x1="954.46" y1="1849.84" x2="727.69" y2="1849.84"/><line class="cls-1" x1="450.08" y1="1849.84" x2="223.31" y2="1849.84"/><line class="cls-1" x1="2102.03" y1="2102.03" x2="1988.64" y2="2102.03"/><line class="cls-1" x1="1711.03" y1="2102.03" x2="1484.26" y2="2102.03"/><line class="cls-1" x1="1206.65" y1="2102.03" x2="979.88" y2="2102.03"/><line class="cls-1" x1="702.27" y1="2102.03" x2="475.5" y2="2102.03"/><line class="cls-1" x1="2971.98" y1="2354.22" x2="2858.6" y2="2354.22"/><line class="cls-1" x1="2971.98" y1="2858.6" x2="2858.6" y2="2858.6"/><line class="cls-1" x1="1849.84" y1="2354.22" x2="1736.45" y2="2354.22"/><line class="cls-1" x1="1458.84" y1="2354.22" x2="1232.07" y2="2354.22"/><line class="cls-1" x1="954.46" y1="2354.22" x2="727.69" y2="2354.22"/><line class="cls-1" x1="450.08" y1="2354.22" x2="223.31" y2="2354.22"/><line class="cls-1" x1="1597.65" y1="2606.41" x2="1484.26" y2="2606.41"/><line class="cls-1" x1="1206.65" y1="2606.41" x2="979.88" y2="2606.41"/><line class="cls-1" x1="702.27" y1="2606.41" x2="475.5" y2="2606.41"/><line class="cls-1" x1="1458.84" y1="2858.6" x2="1232.07" y2="2858.6"/><line class="cls-1" x1="954.46" y1="2858.6" x2="727.69" y2="2858.6"/><line class="cls-1" x1="450.08" y1="2858.6" x2="223.31" y2="2858.6"/><line class="cls-1" x1="1206.65" y1="3110.79" x2="979.88" y2="3110.79"/><line class="cls-1" x1="702.27" y1="3110.79" x2="475.5" y2="3110.79"/><line class="cls-1" x1="3224.18" y1="588.89" x2="2997.4" y2="588.89"/><line class="cls-1" x1="3224.18" y1="1093.27" x2="2997.4" y2="1093.27"/><line class="cls-1" x1="3224.18" y1="1597.65" x2="2997.4" y2="1597.65"/><line class="cls-1" x1="3224.17" y1="2102.03" x2="2997.4" y2="2102.03"/><line class="cls-1" x1="3224.17" y1="2606.41" x2="2997.4" y2="2606.41"/><line class="cls-1" x1="2354.22" y1="3362.98" x2="2240.83" y2="3362.98"/><line class="cls-1" x1="1963.22" y1="3362.98" x2="1736.45" y2="3362.98"/><line class="cls-1" x1="1458.84" y1="3362.98" x2="1232.07" y2="3362.98"/><line class="cls-1" x1="954.46" y1="3362.98" x2="727.69" y2="3362.98"/><line class="cls-1" x1="450.08" y1="3362.98" x2="223.31" y2="3362.98"/><line class="cls-2" x1="336.7" y1="3501.79" x2="336.7" y2="3728.56"/><line class="cls-2" x1="336.7" y1="4006.17" x2="336.7" y2="4232.94"/><line class="cls-2" x1="336.7" y1="4510.55" x2="336.7" y2="4737.32"/><line class="cls-2" x1="588.89" y1="3753.98" x2="588.89" y2="3980.75"/><line class="cls-2" x1="588.89" y1="4258.36" x2="588.89" y2="4485.13"/><line class="cls-2" x1="841.08" y1="3501.79" x2="841.08" y2="3728.56"/><line class="cls-2" x1="841.08" y1="4006.17" x2="841.08" y2="4232.94"/><line class="cls-2" x1="841.08" y1="4510.55" x2="841.08" y2="4737.32"/><line class="cls-2" x1="1093.27" y1="3753.98" x2="1093.27" y2="3980.75"/><line class="cls-2" x1="1093.27" y1="4258.36" x2="1093.27" y2="4485.13"/><line class="cls-2" x1="1345.46" y1="3501.79" x2="1345.46" y2="3728.56"/><line class="cls-2" x1="1345.46" y1="4006.17" x2="1345.46" y2="4232.94"/><line class="cls-2" x1="1345.46" y1="4510.55" x2="1345.46" y2="4737.32"/><line class="cls-2" x1="1597.65" y1="3753.98" x2="1597.65" y2="3980.75"/><line class="cls-2" x1="1597.65" y1="4258.36" x2="1597.65" y2="4485.13"/><line class="cls-2" x1="1849.84" y1="3501.79" x2="1849.84" y2="3728.56"/><line class="cls-2" x1="1849.84" y1="4006.17" x2="1849.84" y2="4232.94"/><line class="cls-2" x1="1849.84" y1="4510.55" x2="1849.84" y2="4737.32"/><line class="cls-2" x1="2102.03" y1="3753.98" x2="2102.03" y2="3980.75"/><line class="cls-2" x1="2102.03" y1="4258.36" x2="2102.03" y2="4485.13"/><line class="cls-2" x1="2354.22" y1="3501.79" x2="2354.22" y2="3728.56"/><line class="cls-2" x1="2354.22" y1="4006.17" x2="2354.22" y2="4232.94"/><line class="cls-2" x1="2354.22" y1="4510.55" x2="2354.22" y2="4737.32"/><line class="cls-2" x1="2606.41" y1="3867.36" x2="2606.41" y2="3980.75"/><line class="cls-2" x1="2606.41" y1="4258.36" x2="2606.41" y2="4485.13"/><line class="cls-2" x1="2858.6" y1="3501.79" x2="2858.6" y2="3728.56"/><line class="cls-2" x1="2858.6" y1="4006.17" x2="2858.6" y2="4232.94"/><line class="cls-2" x1="2858.6" y1="4510.55" x2="2858.6" y2="4737.32"/><line class="cls-2" x1="3110.79" y1="3753.98" x2="3110.79" y2="3980.75"/><line class="cls-2" x1="3110.79" y1="4258.36" x2="3110.79" y2="4485.13"/><line class="cls-1" x1="2971.99" y1="3362.98" x2="2858.6" y2="3362.98"/><line class="cls-1" x1="1963.23" y1="3362.98" x2="1736.45" y2="3362.98"/><line class="cls-1" x1="1458.85" y1="3362.98" x2="1232.07" y2="3362.98"/><line class="cls-1" x1="954.46" y1="3362.98" x2="727.69" y2="3362.98"/><line class="cls-1" x1="450.08" y1="3362.98" x2="223.31" y2="3362.98"/><line class="cls-1" x1="2215.42" y1="3615.17" x2="1988.64" y2="3615.17"/><line class="cls-1" x1="1711.04" y1="3615.17" x2="1484.26" y2="3615.17"/><line class="cls-1" x1="1206.66" y1="3615.17" x2="979.88" y2="3615.17"/><line class="cls-1" x1="702.27" y1="3615.17" x2="475.5" y2="3615.17"/><line class="cls-1" x1="2971.99" y1="3867.36" x2="2745.21" y2="3867.36"/><line class="cls-1" x1="2467.61" y1="3867.36" x2="2240.83" y2="3867.36"/><line class="cls-1" x1="1963.22" y1="3867.36" x2="1736.45" y2="3867.36"/><line class="cls-1" x1="1458.85" y1="3867.36" x2="1232.07" y2="3867.36"/><line class="cls-1" x1="954.46" y1="3867.36" x2="727.69" y2="3867.36"/><line class="cls-1" x1="450.08" y1="3867.36" x2="223.31" y2="3867.36"/><line class="cls-1" x1="2719.8" y1="4119.55" x2="2493.02" y2="4119.55"/><line class="cls-1" x1="2215.42" y1="4119.55" x2="1988.64" y2="4119.55"/><line class="cls-1" x1="1711.04" y1="4119.55" x2="1484.26" y2="4119.55"/><line class="cls-1" x1="1206.65" y1="4119.55" x2="979.88" y2="4119.55"/><line class="cls-1" x1="702.27" y1="4119.55" x2="475.5" y2="4119.55"/><line class="cls-1" x1="2971.99" y1="4371.74" x2="2745.21" y2="4371.74"/><line class="cls-1" x1="2467.61" y1="4371.74" x2="2240.83" y2="4371.74"/><line class="cls-1" x1="1963.23" y1="4371.74" x2="1736.45" y2="4371.74"/><line class="cls-1" x1="1458.84" y1="4371.74" x2="1232.07" y2="4371.74"/><line class="cls-1" x1="954.46" y1="4371.74" x2="727.69" y2="4371.74"/><line class="cls-1" x1="450.08" y1="4371.74" x2="223.31" y2="4371.74"/><line class="cls-1" x1="2719.79" y1="4623.93" x2="2493.02" y2="4623.93"/><line class="cls-1" x1="2215.41" y1="4623.93" x2="1988.64" y2="4623.93"/><line class="cls-1" x1="1711.03" y1="4623.93" x2="1484.26" y2="4623.93"/><line class="cls-1" x1="1206.65" y1="4623.93" x2="979.88" y2="4623.93"/><line class="cls-1" x1="702.27" y1="4623.93" x2="475.5" y2="4623.93"/><line class="cls-1" x1="3224.18" y1="3615.17" x2="2997.4" y2="3615.17"/><line class="cls-1" x1="3224.18" y1="4119.55" x2="2997.4" y2="4119.55"/><line class="cls-1" x1="3224.18" y1="4623.93" x2="2997.4" y2="4623.93"/><line class="cls-2" x1="3362.98" y1="475.5" x2="3362.98" y2="702.27"/><line class="cls-2" x1="3362.98" y1="979.88" x2="3362.98" y2="1206.65"/><line class="cls-2" x1="3362.98" y1="1484.26" x2="3362.98" y2="1711.03"/><line class="cls-2" x1="3362.98" y1="1988.64" x2="3362.98" y2="2215.41"/><line class="cls-2" x1="3362.98" y1="2493.02" x2="3362.98" y2="2719.8"/><line class="cls-2" x1="3362.98" y1="2997.4" x2="3362.98" y2="3224.18"/><line class="cls-2" x1="3615.17" y1="223.31" x2="3615.17" y2="450.08"/><line class="cls-2" x1="3615.17" y1="727.69" x2="3615.17" y2="954.46"/><line class="cls-2" x1="3615.17" y1="1232.07" x2="3615.17" y2="1458.84"/><line class="cls-2" x1="3615.17" y1="1736.45" x2="3615.17" y2="1963.22"/><line class="cls-2" x1="3615.17" y1="2240.83" x2="3615.17" y2="2467.61"/><line class="cls-2" x1="3615.17" y1="2745.21" x2="3615.17" y2="2971.99"/><line class="cls-2" x1="3867.36" y1="475.5" x2="3867.36" y2="702.27"/><line class="cls-2" x1="3867.36" y1="979.88" x2="3867.36" y2="1206.65"/><line class="cls-2" x1="3867.36" y1="1484.26" x2="3867.36" y2="1711.03"/><line class="cls-2" x1="3867.36" y1="1988.64" x2="3867.36" y2="2215.41"/><line class="cls-2" x1="3867.36" y1="2493.02" x2="3867.36" y2="2719.8"/><line class="cls-2" x1="3867.36" y1="2997.4" x2="3867.36" y2="3224.18"/><line class="cls-2" x1="4119.55" y1="223.31" x2="4119.55" y2="450.08"/><line class="cls-2" x1="4119.55" y1="727.69" x2="4119.55" y2="954.46"/><line class="cls-2" x1="4119.55" y1="1232.07" x2="4119.55" y2="1458.84"/><line class="cls-2" x1="4119.55" y1="1736.45" x2="4119.55" y2="1963.22"/><line class="cls-2" x1="4119.55" y1="2240.83" x2="4119.55" y2="2467.61"/><line class="cls-2" x1="4119.55" y1="2745.21" x2="4119.55" y2="2971.99"/><line class="cls-2" x1="4371.74" y1="475.5" x2="4371.74" y2="702.27"/><line class="cls-2" x1="4371.74" y1="979.88" x2="4371.74" y2="1206.65"/><line class="cls-2" x1="4371.74" y1="1484.26" x2="4371.74" y2="1711.03"/><line class="cls-2" x1="4371.74" y1="1988.64" x2="4371.74" y2="2215.41"/><line class="cls-2" x1="4371.74" y1="2493.02" x2="4371.74" y2="2719.8"/><line class="cls-2" x1="4371.74" y1="2997.4" x2="4371.74" y2="3224.18"/><line class="cls-2" x1="4623.93" y1="223.31" x2="4623.93" y2="450.08"/><line class="cls-2" x1="4623.93" y1="727.69" x2="4623.93" y2="954.46"/><line class="cls-2" x1="4623.93" y1="1232.07" x2="4623.93" y2="1458.84"/><line class="cls-2" x1="4623.93" y1="1736.45" x2="4623.93" y2="1963.22"/><line class="cls-2" x1="4623.93" y1="2240.83" x2="4623.93" y2="2467.61"/><line class="cls-2" x1="4623.93" y1="2745.21" x2="4623.93" y2="2971.99"/><line class="cls-2" x1="3615.17" y1="3249.59" x2="3615.17" y2="3476.37"/><line class="cls-2" x1="4119.55" y1="3249.59" x2="4119.55" y2="3476.37"/><line class="cls-2" x1="4623.93" y1="3249.59" x2="4623.93" y2="3476.37"/><line class="cls-1" x1="4485.13" y1="336.7" x2="4258.36" y2="336.7"/><line class="cls-1" x1="3980.75" y1="336.7" x2="3753.98" y2="336.7"/><line class="cls-1" x1="3476.37" y1="336.7" x2="3249.6" y2="336.7"/><line class="cls-1" x1="4737.32" y1="588.89" x2="4510.55" y2="588.89"/><line class="cls-1" x1="4232.94" y1="588.89" x2="4006.17" y2="588.89"/><line class="cls-1" x1="3728.56" y1="588.89" x2="3501.79" y2="588.89"/><line class="cls-1" x1="4485.13" y1="841.08" x2="4258.36" y2="841.08"/><line class="cls-1" x1="3980.75" y1="841.08" x2="3753.98" y2="841.08"/><line class="cls-1" x1="3476.37" y1="841.08" x2="3249.6" y2="841.08"/><line class="cls-1" x1="4737.32" y1="1093.27" x2="4510.55" y2="1093.27"/><line class="cls-1" x1="4232.94" y1="1093.27" x2="4006.17" y2="1093.27"/><line class="cls-1" x1="3728.56" y1="1093.27" x2="3501.79" y2="1093.27"/><line class="cls-1" x1="4485.13" y1="1345.46" x2="4258.36" y2="1345.46"/><line class="cls-1" x1="3980.75" y1="1345.46" x2="3753.98" y2="1345.46"/><line class="cls-1" x1="3476.37" y1="1345.46" x2="3249.6" y2="1345.46"/><line class="cls-1" x1="4737.32" y1="1597.65" x2="4510.55" y2="1597.65"/><line class="cls-1" x1="4232.94" y1="1597.65" x2="4006.17" y2="1597.65"/><line class="cls-1" x1="3728.56" y1="1597.65" x2="3501.79" y2="1597.65"/><line class="cls-1" x1="4485.13" y1="1849.84" x2="4258.36" y2="1849.84"/><line class="cls-1" x1="3980.75" y1="1849.84" x2="3753.98" y2="1849.84"/><line class="cls-1" x1="3476.37" y1="1849.84" x2="3249.6" y2="1849.84"/><line class="cls-1" x1="4737.32" y1="2102.03" x2="4510.55" y2="2102.03"/><line class="cls-1" x1="4232.94" y1="2102.03" x2="4006.17" y2="2102.03"/><line class="cls-1" x1="3728.56" y1="2102.03" x2="3501.79" y2="2102.03"/><line class="cls-1" x1="4485.13" y1="2354.22" x2="4258.36" y2="2354.22"/><line class="cls-1" x1="3980.75" y1="2354.22" x2="3753.98" y2="2354.22"/><line class="cls-1" x1="3476.37" y1="2354.22" x2="3249.6" y2="2354.22"/><line class="cls-1" x1="4737.32" y1="2606.41" x2="4510.55" y2="2606.41"/><line class="cls-1" x1="4232.94" y1="2606.41" x2="4006.17" y2="2606.41"/><line class="cls-1" x1="3728.56" y1="2606.41" x2="3501.78" y2="2606.41"/><line class="cls-1" x1="4485.13" y1="2858.6" x2="4258.36" y2="2858.6"/><line class="cls-1" x1="3980.75" y1="2858.6" x2="3753.97" y2="2858.6"/><line class="cls-1" x1="3476.37" y1="2858.6" x2="3224.18" y2="2858.6"/><line class="cls-1" x1="4737.32" y1="3110.79" x2="4510.55" y2="3110.79"/><line class="cls-1" x1="4232.94" y1="3110.79" x2="4006.16" y2="3110.79"/><line class="cls-1" x1="3728.56" y1="3110.79" x2="3501.78" y2="3110.79"/><line class="cls-1" x1="4485.13" y1="3362.98" x2="4258.35" y2="3362.98"/><line class="cls-1" x1="3980.75" y1="3362.98" x2="3753.97" y2="3362.98"/><line class="cls-1" x1="3476.37" y1="3362.98" x2="3249.59" y2="3362.98"/><line class="cls-2" x1="3362.98" y1="3501.79" x2="3362.98" y2="3728.56"/><line class="cls-2" x1="3362.98" y1="4006.17" x2="3362.98" y2="4232.94"/><line class="cls-2" x1="3362.98" y1="4510.55" x2="3362.98" y2="4737.32"/><line class="cls-2" x1="3615.17" y1="3753.98" x2="3615.17" y2="3980.75"/><line class="cls-2" x1="3615.17" y1="4258.36" x2="3615.17" y2="4485.13"/><line class="cls-2" x1="3867.36" y1="3501.79" x2="3867.36" y2="3728.56"/><line class="cls-2" x1="3867.36" y1="4006.17" x2="3867.36" y2="4232.94"/><line class="cls-2" x1="3867.36" y1="4510.55" x2="3867.36" y2="4737.32"/><line class="cls-2" x1="4119.55" y1="3753.98" x2="4119.55" y2="3980.75"/><line class="cls-2" x1="4119.55" y1="4258.36" x2="4119.55" y2="4485.13"/><line class="cls-2" x1="4371.74" y1="3501.79" x2="4371.74" y2="3728.56"/><line class="cls-2" x1="4371.74" y1="4006.17" x2="4371.74" y2="4232.94"/><line class="cls-2" x1="4371.74" y1="4510.55" x2="4371.74" y2="4737.32"/><line class="cls-2" x1="4623.93" y1="3753.98" x2="4623.93" y2="3980.75"/><line class="cls-2" x1="4623.93" y1="4258.36" x2="4623.93" y2="4485.13"/><line class="cls-1" x1="4485.13" y1="3362.98" x2="4258.36" y2="3362.98"/><line class="cls-1" x1="3980.75" y1="3362.98" x2="3753.98" y2="3362.98"/><line class="cls-1" x1="3476.37" y1="3362.98" x2="3249.6" y2="3362.98"/><line class="cls-1" x1="4737.32" y1="3615.17" x2="4510.55" y2="3615.17"/><line class="cls-1" x1="4232.94" y1="3615.17" x2="4006.17" y2="3615.17"/><line class="cls-1" x1="3728.56" y1="3615.17" x2="3501.79" y2="3615.17"/><line class="cls-1" x1="4485.13" y1="3867.36" x2="4258.36" y2="3867.36"/><line class="cls-1" x1="3980.75" y1="3867.36" x2="3753.98" y2="3867.36"/><line class="cls-1" x1="3476.37" y1="3867.36" x2="3249.6" y2="3867.36"/><line class="cls-1" x1="4737.32" y1="4119.55" x2="4510.55" y2="4119.55"/><line class="cls-1" x1="4232.94" y1="4119.55" x2="4006.17" y2="4119.55"/><line class="cls-1" x1="3728.56" y1="4119.55" x2="3501.79" y2="4119.55"/><line class="cls-1" x1="4485.13" y1="4371.74" x2="4258.36" y2="4371.74"/><line class="cls-1" x1="3980.75" y1="4371.74" x2="3753.98" y2="4371.74"/><line class="cls-1" x1="3476.37" y1="4371.74" x2="3249.6" y2="4371.74"/><line class="cls-1" x1="4737.32" y1="4623.93" x2="4510.55" y2="4623.93"/><line class="cls-1" x1="4232.94" y1="4623.93" x2="4006.17" y2="4623.93"/><line class="cls-1" x1="3728.56" y1="4623.93" x2="3501.79" y2="4623.93"/></svg>