{"asset":{"version":"2.0","generator":"facingworlds ut99 extractor"},"scene":0,"scenes":[{"nodes":[0]}],"nodes":[{"mesh":0,"name":"ripper"}],"meshes":[{"name":"ripper","primitives":[{"attributes":{"POSITION":0,"TEXCOORD_0":1},"indices":2,"material":0}]}],"materials":[{"name":"slot0","pbrMetallicRoughness":{"baseColorTexture":{"index":0},"metallicFactor":0,"roughnessFactor":1}}],"images":[{"uri":"s0.png"}],"samplers":[{"magFilter":9729,"minFilter":9987,"wrapS":10497,"wrapT":10497}],"textures":[{"source":0,"sampler":0}],"accessors":[{"bufferView":0,"componentType":5126,"count":158,"type":"VEC3","min":[-0.525,0,-0.1923491379310345],"max":[0.525,0.1482219827586207,0.1923491379310345]},{"bufferView":1,"componentType":5126,"count":158,"type":"VEC2"},{"bufferView":2,"componentType":5123,"count":438,"type":"SCALAR"}],"bufferViews":[{"buffer":0,"byteOffset":0,"byteLength":1896,"target":34962},{"buffer":0,"byteOffset":1896,"byteLength":1264,"target":34962},{"buffer":0,"byteOffset":3160,"byteLength":876,"target":34963}],"buffers":[{"uri":"ripper.bin","byteLength":4036}]}