{
 "asset": {
  "version": "2.0",
  "generator": "build-ut-effects.mjs"
 },
 "extensionsUsed": [
  "KHR_materials_unlit"
 ],
 "extras": {
  "utMesh": "Shockbm",
  "utActor": "ShockBeam",
  "drawScale": 0.4399999976158142,
  "baseFrame": 0,
  "sceneFrame": "actor forward +X, up +Y, right +Z (map-transform's uuToScene axes); RotOrigin baked in",
  "epicRotOriginDeg": [
   0,
   -90,
   0
  ],
  "meshOriginUU": [
   0,
   -400,
   0
  ]
 },
 "scene": 0,
 "scenes": [
  {
   "nodes": [
    0
   ]
  }
 ],
 "nodes": [
  {
   "mesh": 0,
   "name": "shockbeam"
  }
 ],
 "meshes": [
  {
   "name": "shockbeam",
   "primitives": [
    {
     "attributes": {
      "POSITION": 0,
      "TEXCOORD_0": 1
     },
     "indices": 2,
     "material": 0
    }
   ]
  }
 ],
 "materials": [
  {
   "name": "slot0",
   "doubleSided": false,
   "pbrMetallicRoughness": {
    "baseColorTexture": {
     "index": 0
    },
    "metallicFactor": 0,
    "roughnessFactor": 1
   },
   "alphaMode": "BLEND",
   "extensions": {
    "KHR_materials_unlit": {}
   }
  }
 ],
 "textures": [
  {
   "source": 0,
   "sampler": 0
  }
 ],
 "images": [
  {
   "uri": "s0.png"
  }
 ],
 "samplers": [
  {
   "magFilter": 9729,
   "minFilter": 9987,
   "wrapS": 10497,
   "wrapT": 10497
  }
 ],
 "accessors": [
  {
   "bufferView": 0,
   "componentType": 5126,
   "count": 120,
   "type": "VEC3",
   "min": [
    0.002171400127415713,
    -0.020473202654083773,
    -0.028848603739845245
   ],
   "max": [
    1.7349487018051546,
    0.020473202654083773,
    0.028848603739845345
   ]
  },
  {
   "bufferView": 1,
   "componentType": 5126,
   "count": 120,
   "type": "VEC2"
  },
  {
   "bufferView": 2,
   "componentType": 5123,
   "count": 228,
   "type": "SCALAR"
  }
 ],
 "bufferViews": [
  {
   "buffer": 0,
   "byteOffset": 0,
   "byteLength": 1440,
   "target": 34962
  },
  {
   "buffer": 0,
   "byteOffset": 1440,
   "byteLength": 960,
   "target": 34962
  },
  {
   "buffer": 0,
   "byteOffset": 2400,
   "byteLength": 456,
   "target": 34963
  }
 ],
 "buffers": [
  {
   "uri": "shockbeam.bin",
   "byteLength": 2856
  }
 ]
}
